<svg width="49" height="38" viewBox="0 0 49 38" fill="none" xmlns="http://www.w3.org/2000/svg">
    <path fill-rule="evenodd" clip-rule="evenodd" d="M13.842 33.879v4.02h-.874v-.488c-.277.362-.698.589-1.27.589-1.128 0-2.011-.883-2.011-2.111 0-1.228.883-2.111 2.01-2.111.573 0 .994.227 1.27.589v-.488h.875zm-2.035.723c-.757 0-1.22.58-1.22 1.287 0 .706.463 1.287 1.22 1.287.723 0 1.21-.556 1.21-1.287 0-.732-.487-1.287-1.21-1.287zm31.576 1.287c0-.707.464-1.287 1.22-1.287.724 0 1.212.555 1.212 1.287 0 .731-.488 1.287-1.212 1.287-.756 0-1.22-.58-1.22-1.287zm3.256-3.625V37.9h-.875v-.488c-.277.362-.698.589-1.27.589-1.127 0-2.01-.883-2.01-2.111 0-1.228.883-2.111 2.01-2.111.572 0 .993.227 1.27.589v-2.103h.875zM24.693 34.56c.563 0 .925.353 1.017.975h-2.085c.093-.58.445-.975 1.068-.975zm-1.985 1.329c0-1.254.824-2.111 2.003-2.111 1.126 0 1.9.857 1.909 2.11 0 .118-.009.228-.018.337h-2.985c.126.724.64.985 1.202.985.404 0 .833-.153 1.17-.421l.428.648c-.488.412-1.042.563-1.648.563-1.203 0-2.061-.833-2.061-2.111zm12.558 0c0-.707.464-1.287 1.22-1.287.723 0 1.211.555 1.211 1.287 0 .731-.488 1.287-1.21 1.287-.758 0-1.22-.58-1.22-1.287zm3.255-2.01v4.02h-.874v-.488c-.278.362-.698.589-1.27.589-1.127 0-2.01-.883-2.01-2.111 0-1.228.883-2.111 2.01-2.111.572 0 .992.227 1.27.589v-.488h.874zm-8.192 2.01c0 1.22.85 2.111 2.145 2.111.606 0 1.01-.135 1.446-.48l-.42-.706c-.328.236-.672.362-1.052.362-.698-.009-1.21-.513-1.21-1.287 0-.774.512-1.279 1.21-1.287.38 0 .724.126 1.053.362l.42-.707c-.438-.345-.841-.48-1.447-.48-1.296 0-2.145.892-2.145 2.112zm10.211-1.522c.227-.354.556-.59 1.06-.59.178 0 .43.034.623.11l-.27.824a1.418 1.418 0 0 0-.546-.1c-.572 0-.858.369-.858 1.034V37.9h-.875v-4.02h.866v.488zm-22.374-.169c-.421-.277-1-.42-1.64-.42-1.018 0-1.674.488-1.674 1.287 0 .655.488 1.06 1.387 1.186l.413.059c.48.067.706.193.706.42 0 .311-.32.488-.917.488-.605 0-1.042-.193-1.337-.42l-.412.68c.48.353 1.085.522 1.74.522 1.162 0 1.835-.547 1.835-1.312 0-.707-.53-1.077-1.405-1.203l-.412-.06c-.378-.05-.682-.124-.682-.394 0-.295.286-.47.766-.47.513 0 1.01.193 1.253.344l.379-.707zm10.22.169c.227-.354.555-.59 1.06-.59.177 0 .429.034.622.11l-.27.824a1.418 1.418 0 0 0-.546-.1c-.572 0-.858.369-.858 1.034V37.9h-.874v-4.02h.867v.488zm-6.401-.488h-1.43v-1.22h-.884v1.22h-.815v.799h.815v1.834c0 .932.362 1.488 1.396 1.488.38 0 .817-.117 1.094-.311l-.252-.749c-.261.151-.547.227-.774.227-.437 0-.58-.27-.58-.673v-1.816h1.43v-.8zM8.914 35.376v2.523H8.03v-2.237c0-.682-.286-1.06-.883-1.06-.58 0-.984.37-.984 1.068V37.9h-.884v-2.237c0-.682-.294-1.06-.874-1.06-.598 0-.985.37-.985 1.068V37.9h-.883v-4.02h.875v.495c.329-.47.748-.596 1.178-.596.614 0 1.051.27 1.328.715.371-.564.9-.724 1.414-.715.976.008 1.582.647 1.582 1.598z" fill="#231F20"/>
    <path d="M31.125 27.047h-13.25V3.237h13.25v23.81z" fill="#FF5F00"/>
    <path d="M18.716 15.143c0-4.83 2.262-9.133 5.784-11.905A15.077 15.077 0 0 0 15.14 0C6.78 0 0 6.78 0 15.143s6.779 15.142 15.141 15.142c3.533 0 6.783-1.21 9.359-3.237a15.117 15.117 0 0 1-5.784-11.905z" fill="#EB001B"/>
    <path d="M49 15.143c0 8.363-6.779 15.142-15.141 15.142-3.533 0-6.783-1.21-9.36-3.237a15.115 15.115 0 0 0 5.785-11.905c0-4.83-2.262-9.133-5.784-11.905A15.082 15.082 0 0 1 33.858 0C42.22 0 49 6.78 49 15.143z" fill="#F79E1B"/>
</svg>
