<?xml version="1.0" encoding="UTF-8"?><svg id="a" xmlns="http://www.w3.org/2000/svg" viewBox="0 0 39.7 18.28"><defs><style>.b{fill:#323e48;}.b,.c{fill-rule:evenodd;}.c{fill:#00adbb;}</style></defs><path class="b" d="M36.39,2.94c-.55,0-1.16,.31-1.41,.86l-2.59,5.93-.93-5.93c-.11-.55-.49-.86-1.08-.86h-3.28l2.8,9.85c.05,.19,.06,.4,.02,.62-.15,.82-.93,1.49-1.75,1.49h-1.84c-.47,0-.77,.29-.92,.94l-.41,2.44h3.23c1.69,0,3.67-.85,4.99-3.19l6.47-12.15h-3.31Z"/><path class="b" d="M4.57,0c.97,0,1.44,.39,1.27,1.36l-.28,1.58h2.22l-.49,2.78h-2.23l-.61,3.44c-.21,1.2,.98,1.36,1.66,1.36,.14,0,.25,0,.33,0l-.54,3.1c-.17,.02-.34,.04-.71,.04-1.69,0-4.88-.45-4.26-4.02l.69-3.91H0L.49,2.94h1.61L2.61,0h1.95Z"/><path class="c" d="M23.26,3.07l-.57,3.24c.7,.36,1.19,1.09,1.19,1.94,0,1.11-.83,2.03-1.91,2.16l-.57,3.24c.1,0,.2,0,.31,0,2.99,0,5.41-2.42,5.41-5.4,0-2.44-1.62-4.5-3.85-5.17"/><path class="c" d="M20.71,10.18c-.7-.36-1.19-1.09-1.19-1.94,0-1.11,.84-2.03,1.91-2.15l.57-3.24c-.1,0-.2-.01-.31-.01-2.98,0-5.4,2.42-5.4,5.4,0,2.44,1.62,4.51,3.85,5.18l.57-3.24Z"/><path class="b" d="M9.06,2.94h1.91c.97,0,1.43,.39,1.26,1.36l-.21,1.17c.71-1.45,2.26-2.64,3.84-2.64,.21,0,.41,.04,.41,.04l-.62,3.5s-.28-.06-.71-.06c-.84,0-2.27,.27-3.07,1.85-.19,.39-.34,.87-.44,1.44l-.69,3.93h-3.56l1.87-10.6Z"/><path class="b" d="M38.83,13.78c0-.06-.02-.12-.07-.16-.04-.04-.1-.06-.17-.06h-.23v.44h.23c.07,0,.13-.02,.17-.06,.05-.04,.07-.09,.07-.16m.21,.88h-.2l-.29-.51h-.19v.51h-.17v-1.25h.43c.11,0,.2,.04,.28,.11,.08,.07,.12,.16,.12,.27,0,.17-.09,.29-.27,.34l.3,.53Zm.48-.63c0,.27-.09,.5-.28,.69-.19,.19-.42,.29-.68,.29s-.49-.09-.68-.29c-.19-.19-.28-.42-.28-.69s.09-.5,.28-.69c.19-.19,.41-.29,.68-.29s.49,.09,.68,.29c.19,.19,.28,.42,.28,.69m.18,0c0,.32-.11,.59-.34,.81-.22,.22-.49,.34-.81,.34s-.58-.11-.81-.34c-.22-.22-.33-.49-.33-.81s.11-.58,.33-.81c.22-.22,.49-.33,.81-.33s.59,.11,.81,.33c.22,.22,.34,.49,.34,.81"/></svg>