<?xml version="1.0" encoding="UTF-8"?>
<svg id="Layer_2" data-name="Layer 2" xmlns="http://www.w3.org/2000/svg" viewBox="0 0 800.64 138.58">
  <defs>
    <style>
      .cls-1 {
        fill: none;
      }

      .cls-2 {
        fill: #ea560d;
      }

      .cls-3 {
        fill: #fff;
      }
    </style>
  </defs>
  <ellipse class="cls-3" cx="69.34" cy="69.29" rx="69.34" ry="69.29"/>
  <ellipse class="cls-1" cx="69.34" cy="69.29" rx="69.34" ry="69.29"/>
  <path class="cls-1" d="m69.34,138.58c38.29,0,69.34-31.02,69.34-69.29S107.63,0,69.34,0,0,31.02,0,69.29s31.04,69.29,69.34,69.29"/>
  <path class="cls-2" d="m69.43,138.42c38.25,0,69.25-30.98,69.25-69.2S107.67.02,69.43.02.18,31,.18,69.22s31,69.2,69.25,69.2"/>
  <g>
    <path class="cls-3" d="m76.37,60.52c.05.07.1.14.15.2"/>
    <path class="cls-3" d="m76.37,60.52c-.54-.7-1.14-1.52-2.76-1.52-1.77,0-1.57.92-3.11.6-1.53-.32-.18-2.93-2-3.34-1.82-.4-1.6,1.13-3.01,1.01-1.41-.12-1.93-.56-2.69.11-.76.67-1.34.19-3.2.72-1.86.52-.13-.94-1.62-.5-1.49.44-.22,1.15-2.29,1.3-2.07.15-2.59.89-3.58,1.65-1.1.84-1.92.8-2.25,2.13-.32,1.33-1.83,2.05-3.45,2.61-1.61.56-.65.86-1.21,1.34-.57.49-.52,1.05.02,1.3.55.25.97.61.32,1.33-.65.73-1.45.24-1.29-.56.16-.81-.55-.72-1.2-.35-.65.36-.13.83.29,1.69.45.93-.79,1.29-1.36,2.99-.57,1.69-.81.58-.52-.85.16-.81-.45-.2-1.05,1.24-.52,1.25.08,1.18.44,1.91.36.73.8,1.12.44,2.13-.36,1.01-1.25,1.14-1.73,2.39-.48,1.25-1.62.08-1.66,1.21-.04,1.13,1.4.3,1.84.63.44.32.99.95.42,1.67-.56.73-1.68,1.16-1.07,1.36.6.2,2.12.1,2.4.98.28.89-.52.59-1.89.33-1.37-.25-1.11.97-.54,1.58.57.6,1.14,1.08,1.26,2.12.12,1.04-.41.44-.65-.4-.24-.85-.48-.56-.44.65.04,1.21-.19.58.13,1.02.32.44.78-.17.78-.17,0,0,.91.6,1.15,1.49.24.89-.17,1.17.56,1.94.73.77.96,1.2,1.37,2.38.41,1.19,1.13,1.42,2.06,1.42s.69.44.6,1.01c-.11.75-.8.24-1.69.04-.89-.2-.89.36.12.97,1.01.61,1.34.59,2.42-.04.21-.12.61-.12.97.04,1.06.47,1.13.16,1.57,1.45.44,1.29-.69,1.01-.28,1.94.4.93,1.17.48,1.13-.65-.04-1.13.08-1.29.73-.69.65.6.28.78.92,2.59.64,1.81,1.38.4,1.74-.97.36-1.37.65-.49,1.74.93,1.09,1.41.57,1.38,2.38,1.13,1.82-.24.8-.21,2.26-.33,1.45-.12,2.7.12,1.98.56-.73.45-1.23.36-1.75.36s-2.08.12-.34.65c1.74.52,3.47.32,4.84.16,1.37-.16,1.37-1.49,2.54-1.7,1.17-.2.44.68,1.57,1.21,1.13.52,2.31-.18,3.39-.77.88-.47.94-1.31,1.75-.74.81.57.98.54,2.41.58,1.43.04.98-.23,1.29-.61.31-.38-.44-1.29.04-1.7.48-.4.57-.24,1.25.28.69.52,1.37,1.01,1.98.73.61-.28.23-.46.76-1.15.53-.69-.27-1.23.05-1.47.32-.24.8-.1,1.24.5.44.61,1.26.1,3.04-.78,1.78-.89.77-1.57,1.45-2.06.69-.48,1.17.48,2.02-.28.85-.77-.04-1.57.93-2.06.97-.48,1.75.27,2.11-.05.36-.32.61-.47.89-.67.28-.2.42-.34.42-.34,0,0,.1,1.36.71.19.61-1.17-.43-.47-.58-.74-.15-.27-.24-.44.28-.73.65-.35.71-.63.97-1.53.26-.91.32-.65,1.34-1.19,1.02-.54,1-.38,1.11-.97.11-.59.23-1.51.82-2.32.59-.81,1.16-.75,1.19.27.02,1.03-.97.91-.81,1.62.16.7,1.24-.59,1.78-1.94.54-1.35-1.32-1.56-1.32-2.58s.23-1.01.83-1.07c.6-.06.98-.1,1.19-.8.21-.7-.26-2.23-.26-2.23-.12-.95.22-1.1,1.04-.88.82.22,1.27-.14,1.57-.66.3-.53.29-.86-.42-1.07-.71-.21-2.52-.39-1.87-1.52.65-1.13,1.34.27,2.31-.7.97-.97-.86-1.56-.43-2.26.43-.7,1.72-.32,2.37-1.29.13-.19.44-.32.48-.49,0,0,.44-.04.65-1.67.22-1.72-.59-1.72-1.13-1.13-.54.59.43,1.33.27,1.61-.16.28-.65-.01-.65-.01-.25-.14-.57-.26-.96-.36-1.56-.43-1.72-2.8-.81-2.64.92.16.81.86,1.72.32.92-.54.81-1.02.81-1.02.43-2.42-1.33-3.67-1.51-4.41-.17-.74.33-.67.23-1.8-.11-1.13-1.45-1.53-1.45-1.53,0-2.37-1.44-2.6-1.44-2.6-1.88-.54-1.75-1.74-1.7-2.49.05-.75.32-1.64-.43-2.93-.76-1.29-1.29.59-3.18.54-1.88-.05-.81-1.4-.11-2.53.7-1.13.86-2.15.32-2.21-.54-.05-1.19.76-1.83-.64-.65-1.4-2.26-1.29-2.26-1.29-1.24-.21-1.4-.97-1.83-2.53-.43-1.56.11-1.72-.91-1.99-1.02-.27-1.82.27-2.02-1.05-.08-.56.09-.74-.62-1.12-1.19-.65-1.62,1.2-2.48-.36-.55-.99.54-1.18-1.18-1.77-1.72-.59-.85-.15-1.59-1.96-.73-1.81-2.77-1.7-2.71-.73.05.97,1.13,1.08,2.74,3.87,1.61,2.8-3.12-.97-4.04-2.26-.92-1.29-1.62-2.28-2.26-2.61-.65-.32-.58.37-1.71-.22-1.13-.59-1.09.25-1.74-.45-.65-.7-1.51-1.13-2.21-.7-.7.43-1.42,1.01-2.12.09-.7-.92-1.46-1.39-2.11-.86-.65.54-1.1,1.3-2.44.17-1.35-1.13-1.88-.05-3.01.65-1.13.7-1.3.64-2.87.41-1.57-.23-2.57-.09-3.43.78-.86.86-.86,1.1-2.48,1.56-1.61.46-1.56,1.24-.38,1.78,1.18.54,2.42,1.45.59,1.24-1.83-.21-2.26-.28-2.26.69s1.51,1.45,2.12,1.28c.61-.16,2.03.67,2.4.24.38-.43,1.45-.48,2.74-.7,1.29-.22-.38.66.42.92.79.26,3.34.15,5.07.26,1.4.09,1.39-.3,3.04.27,1.65.57,1.94.47,3.92.95,1.98.48,1.33-1.4,3.31-.63,1.98.77.89,1.5.04,1.13-.85-.36-1.57.16.48,1.25,2.06,1.09,2.2.54,5.67,2.52,3.47,1.98,6.43,4.63,7.64,6.08,1.21,1.45.73-.13,1.95,1.16,1.21,1.29-1.13,1.21-.12,3.07,1.01,1.86,2.14,1.24,2.95,3.01.81,1.78,2.29,6.42,2.57,8.32.28,1.9.37,3.96.9,5.58.53,1.61,1.37.56,1.7,1.7.32,1.13,0,2.06-.89,1.13-.89-.93-.77.95-1.3,3.57-.52,2.62-1.42,5.19-2.72,7.55-1.3,2.37-3.36,4.4-4.86,5.71-1.5,1.31-1.82,1.58-3.31,2.39-1.49.81-.94.98-.42.78.52-.2,2.07-.42.54.55-1.53.97-1.68-.42-3.23.26-1.55.68-4.35,1.5-5.97,1.7-1.62.21-.04.3-1.29.94-1.25.65-.39-.58-2.21-.54-1.82.04-2.93-.33-5.99-.9-3.06-.56-7.07-3.24-7.87-4.01-.8-.78-1.62-.53-3.43-2.54-1.82-2.02-1.01-3.07-1.69-4.88-.69-1.82-1.45-.85-1.98-3.23-.53-2.38.28-2.06.28-2.75s-.31-1.1-.23-3.03c.08-1.94.39-2.69.39-3.75,0-1.06-.44.24-.81,2.26-.36,2.02-1.29,1.01-.89-.81.4-1.82.49-2.29,1.94-3.1,1.45-.81.65-.76,1.09-2.1.44-1.35,1.09-1.33,1.61-2.54.53-1.21-.28-.77.77-1.86,1.05-1.09,1.19-.26,2.08-.46.89-.2.79-.39,2.44-1.17,1.65-.78,3.31-.86,5.09-.92,1.77-.06,3.03.31,4.81.83,1.46.42,1.69.03,2.82.23,1.13.2.32,1.29,1.65,1.74,1.33.45,1.02-1.1,1.83-.65.81.44,2.01.41,2.65-.96.64-1.37-.6-1.23-.2-2.06.43-.9.43-1.06-1.07-.42-1.51.64-3.71.91-3.5-1.08.22-1.99,1.12-1.03,2.26-.27,1.14.76,2.62.72,1.6-.58Z"/>
    <path class="cls-3" d="m85.89,39.22c.41,0,.97-.59.97-1s-.33-.75-.75-.75-.75.33-.75.75.12,1,.53,1Z"/>
    <path class="cls-3" d="m96.08,47.49c.4,0,.92-.56.92-.96s-.32-.71-.72-.71-.71.32-.71.71.11.96.5.96Z"/>
    <path class="cls-3" d="m98.31,51.5c.52,0,.95-.37.95-.84s-.43-.84-.95-.84-1.28.7-1.28,1.16c0,.82.45.52,1.28.52Z"/>
    <path class="cls-3" d="m105.71,64.72c.44,0,.79-.35.79-.79s-.35-.79-.79-.79-.79.35-.79.79.35.79.79.79Z"/>
    <path class="cls-3" d="m103.37,83.54c.42,0,.77-.34.77-.77s-.34-.77-.77-.77-.77.34-.77.77.34.77.77.77Z"/>
    <path class="cls-3" d="m99.95,86.43s.48-.24.49.12c.01.37.6.47.55,1.06-.05.59.69.12.47-.74-.21-.86-.25-1.55-.89-1.21-.64.34-.89.32-.62.76Z"/>
    <path class="cls-3" d="m90.99,99.61c.39,0,.77-.94.77-1.33s-.32-.71-.71-.71-.77.94-.77,1.34.32.71.71.71Z"/>
    <path class="cls-3" d="m82.59,103.18s-.15.27-.34.42c-.19.15-.19.29.09.5.28.2.62.3.79-.23.16-.53-.28-1.06-.54-.69Z"/>
    <path class="cls-3" d="m39.62,76.39c.45,0,.81-.31.81-.69s-.9-1.34-1.35-1.34-.81.31-.81.7.9,1.34,1.35,1.34Z"/>
    <path class="cls-3" d="m48.78,62.79c.28,0,.5-.32.5-.71s-.54-.91-.82-.91-.5.32-.5.71.54.91.82.91Z"/>
  </g>
  <g>
    <path class="cls-2" d="m228.27,103.48h-17.15v-8.77c-4.35,7.01-10.97,10.52-19.84,10.52s-15.87-3.26-21.25-9.77c-5.38-6.51-8.07-15.2-8.07-26.05,0-10.27,2.67-18.56,8-24.86,5.33-6.3,12.31-9.46,20.93-9.46s15.19,3.51,20.22,10.52v-8.77h17.15v66.64Zm-17.54-33.57c0-6.1-1.39-10.96-4.16-14.59-2.77-3.63-6.51-5.45-11.2-5.45-9.99,0-14.98,7.01-14.98,21.04,0,6.1,1.32,10.88,3.97,14.34,2.65,3.47,6.31,5.2,11.01,5.2s8.53-1.84,11.26-5.51c2.73-3.67,4.1-8.68,4.1-15.03Z"/>
    <path class="cls-2" d="m304.94,103.48h-17.41v-8.39h-.51c-4.41,6.76-10.99,10.14-19.74,10.14s-15.55-3.23-20.69-9.71c-5.14-6.47-7.7-15.13-7.7-25.99s2.61-18.79,7.83-25.05c5.22-6.26,12.15-9.39,20.79-9.39,8.04,0,14.54,3.47,19.51,10.4V8.47h17.92v95.02Zm-17.02-32.63c0-6.49-1.32-11.53-3.97-15.11-2.65-3.58-6.4-5.37-11.26-5.37s-8.64,1.75-11.33,5.25c-2.69,3.5-4.03,8.41-4.03,14.74s1.34,11.32,4.03,14.99c2.69,3.66,6.34,5.49,10.94,5.49,4.95,0,8.79-1.75,11.52-5.24,2.73-3.5,4.1-8.41,4.1-14.74Z"/>
    <path class="cls-2" d="m384.8,36.85l-30.52,66.64h-10.57l-30.71-66.64h21.29l15.4,38.41.25.12,13.98-38.53h20.87Z"/>
    <path class="cls-2" d="m452.01,103.48h-17.15v-8.77c-4.35,7.01-10.97,10.52-19.84,10.52s-15.87-3.26-21.25-9.77c-5.38-6.51-8.06-15.2-8.06-26.05,0-10.27,2.67-18.56,8-24.86,5.33-6.3,12.31-9.46,20.93-9.46s15.19,3.51,20.22,10.52v-8.77h17.15v66.64Zm-17.54-33.57c0-6.1-1.39-10.96-4.16-14.59-2.77-3.63-6.51-5.45-11.2-5.45-9.98,0-14.98,7.01-14.98,21.04,0,6.1,1.32,10.88,3.97,14.34,2.64,3.47,6.31,5.2,11.01,5.2s8.53-1.84,11.26-5.51c2.73-3.67,4.1-8.68,4.1-15.03Z"/>
    <path class="cls-2" d="m528.04,103.48h-17.92v-40.46c0-8.77-3.8-13.15-11.39-13.15-4.44,0-7.94,1.38-10.5,4.13-2.56,2.76-3.84,6.51-3.84,11.27v38.2h-17.92V36.85h17.15v9.77h.13c2.3-3.42,4.61-5.93,6.91-7.52,3.75-2.67,8.32-4.01,13.7-4.01,7.25,0,13.01,2.03,17.28,6.08,4.27,4.05,6.4,9.46,6.4,16.22v46.09Z"/>
    <path class="cls-2" d="m576.98,51.96h-11.94v51.53h-17.92v-51.53h-10.66v-15.11h10.66V8.47h17.92v28.38h11.94v15.11Z"/>
    <path class="cls-2" d="m647.21,103.48h-17.15v-8.77c-4.35,7.01-10.97,10.52-19.84,10.52s-15.87-3.26-21.25-9.77c-5.38-6.51-8.07-15.2-8.07-26.05,0-10.27,2.67-18.56,8-24.86,5.33-6.3,12.31-9.46,20.93-9.46s15.19,3.51,20.22,10.52v-8.77h17.15v66.64Zm-16.22-33.57c0-6.1-1.39-10.96-4.16-14.59-2.77-3.63-7.83-5.45-12.52-5.45-9.99,0-14.98,7.01-14.98,21.04,0,6.1,1.32,10.88,3.97,14.34,2.64,3.47,6.31,5.2,11.01,5.2s9.85-1.84,12.58-5.51c2.73-3.67,4.1-8.68,4.1-15.03Z"/>
    <path class="cls-2" d="m676.52,132.97v-15.59h16.82c9.56,0,14.34-5.09,14.34-15.28v-7.89l-.26-.38c-1.96,3.09-3.88,5.3-5.76,6.64-3.16,2.26-7.3,3.38-12.42,3.38-9.05,0-16.19-3.07-21.44-9.21-5.25-6.14-7.87-14.51-7.87-25.12s2.58-18.68,7.74-24.99c5.16-6.3,12.05-9.46,20.67-9.46,9.04,0,15.66,3.88,19.84,11.65h.26v-9.89h17.15v63.13c0,4.26-.36,8.08-1.09,11.46-.73,3.38-2.24,7.81-4.54,10.69-2.3,2.88-6.33,6.87-9.66,8.21-5.72,2.34-9.67,2.64-16.92,2.64h-16.86Zm32.47-62.75c0-5.99-1.38-10.8-4.14-14.42-2.76-3.62-7.76-5.43-12.34-5.43s-7.88,1.75-10.39,5.25c-2.51,3.5-3.76,8.32-3.76,14.48s1.27,10.55,3.82,13.92c2.55,3.37,6.08,5.05,10.58,5.05,4.76,0,9.75-1.64,12.34-4.93,2.59-3.29,3.89-7.93,3.89-13.92Z"/>
    <path class="cls-2" d="m800.64,74.92h-45.4c-.54,5.75.92,9.81,3.35,12.4,2.43,2.59,6.08,3.88,10.95,3.88,6.14,0,10.35-3.62,12.14-8.47l17.58,2.85c-2.13,6.01-4.25,8.88-7.58,11.88-5.63,5.18-13.14,7.77-22.53,7.77-10.67,0-18.86-3.05-24.58-9.14-5.72-6.1-8.58-14.82-8.58-26.18s2.86-19.48,8.58-25.62c5.72-6.14,13.65-9.21,23.81-9.21,21.5,0,32.26,12.57,32.26,37.7v2.13Zm-18.43-11.4c-1.28-9.35-5.97-14.03-14.08-14.03-4.01,0-7.25,1.3-9.73,3.88-1.79,1.92-2.64,5.29-2.65,10.15h26.46Z"/>
  </g>
</svg>