<?xml version="1.0" encoding="UTF-8"?>
<svg id="Layer_1" data-name="Layer 1" xmlns="http://www.w3.org/2000/svg" viewBox="0 0 425.28 128.16">
  <defs>
    <style>
      .cls-1 {
        fill: #1d1d1b;
      }

      .cls-1, .cls-2 {
        fill-rule: evenodd;
      }

      .cls-2 {
        fill: #fdc300;
      }
    </style>
  </defs>
  <polygon class="cls-2" points="190.35 0 105.67 0 148.01 61.18 190.35 0"/>
  <path class="cls-1" d="m57.12,60.95l-15.66,30.17h31.33l-15.66-30.17Zm32.02,65.47l-9.52-18.76h-44.76l-9.14,18.76H0L52.06,32.67h10.13l52.52,93.75h-25.57Z"/>
  <polygon class="cls-1" points="171.87 126.43 147.71 95.84 127.18 126.43 101.2 126.43 136.15 78.4 103 32.49 128.14 32.49 148.01 61.18 167.87 32.49 192.86 32.49 159.03 78.4 198.38 126.43 171.87 126.43"/>
  <path class="cls-1" d="m217.61,69.71h46.14c-1.51-13.74-9.11-20.61-22.81-20.61-12.54,0-20.32,6.87-23.34,20.61Zm66.31,16.46h-67.06c.4,7.7,3.07,13.62,8.01,17.75,4.68,3.98,10.95,5.97,18.8,5.97,9.97,0,17.57-2.62,22.81-7.85l8.46,16.76c-7.7,6.24-19.21,9.36-34.51,9.36s-26.1-4.3-34.36-12.91c-8.1-8.46-12.16-20.04-12.16-34.74,0-13.94,4.28-25.62,12.84-35.04,8.81-9.82,20.09-14.73,33.83-14.73s23.97,3.88,32.32,11.63c8.56,8,12.84,18.55,12.84,31.64,0,2.67-.61,6.72-1.81,12.16Z"/>
  <path class="cls-1" d="m289.91,120.39l7.78-17.44c6.6,5.18,14,7.78,22.2,7.78s12.84-3.04,12.84-9.14c0-4.23-2.21-7.85-6.64-10.87-2.01-1.41-6.09-3.4-12.23-5.96-16.21-6.7-24.32-16.09-24.32-28.17,0-8.66,3.5-15.28,10.5-19.86,5.99-3.98,13.52-5.96,22.58-5.96,9.77,0,18.96,2.19,27.57,6.57l-6.34,17.07c-4.78-4.13-11.45-6.19-20.02-6.19-7.65,0-11.48,3.05-11.48,9.14,0,3.22,2.67,6.27,8.01,9.14,1.66.96,5.64,2.67,11.93,5.13,15.51,6.09,23.26,15.61,23.26,28.55,0,9.51-3.78,16.76-11.33,21.75-6.44,4.18-14.7,6.26-24.77,6.26-6.19,0-11.3-.55-15.33-1.66-3.67-1-8.41-3.04-14.2-6.11Z"/>
  <path class="cls-1" d="m359.65,120.39l7.78-17.44c6.6,5.18,14,7.78,22.2,7.78s12.84-3.04,12.84-9.14c0-4.23-2.21-7.85-6.65-10.87-2.01-1.41-6.09-3.4-12.23-5.96-16.21-6.7-24.32-16.09-24.32-28.17,0-8.66,3.5-15.28,10.5-19.86,5.99-3.98,13.52-5.96,22.58-5.96,9.77,0,18.96,2.19,27.57,6.57l-6.34,17.07c-4.78-4.13-11.45-6.19-20.01-6.19-7.65,0-11.48,3.05-11.48,9.14,0,3.22,2.67,6.27,8.01,9.14,1.66.96,5.64,2.67,11.93,5.13,15.51,6.09,23.26,15.61,23.26,28.55,0,9.51-3.78,16.76-11.33,21.75-6.44,4.18-14.7,6.26-24.77,6.26-6.19,0-11.3-.55-15.33-1.66-3.67-1-8.41-3.04-14.2-6.11Z"/>
</svg>