<?xml version="1.0" encoding="UTF-8"?>
<svg id="Layer_1" data-name="Layer 1" xmlns="http://www.w3.org/2000/svg" viewBox="0 0 306.51 64">
  <defs>
    <style>
      .cls-1 {
        fill: #f7931a;
      }

      .cls-2 {
        fill: #fff;
      }

      .cls-3 {
        fill: #4d4d4d;
      }
    </style>
  </defs>
  <path class="cls-1" d="m63.04,39.74c-4.27,17.14-21.64,27.58-38.78,23.3C7.12,58.77-3.32,41.4.96,24.26,5.23,7.12,22.59-3.32,39.73.96c17.14,4.27,27.58,21.64,23.3,38.78Z"/>
  <path class="cls-2" d="m46.11,27.44c.64-4.26-2.6-6.55-7.04-8.07l1.44-5.77-3.51-.87-1.4,5.62c-.92-.23-1.87-.45-2.81-.66l1.41-5.65-3.51-.87-1.44,5.77c-.76-.17-1.51-.35-2.24-.53v-.02s-4.84-1.21-4.84-1.21l-.93,3.75s2.61.6,2.55.63c1.42.35,1.68,1.3,1.64,2.04l-1.64,6.57c.1.03.23.06.37.12-.12-.03-.24-.06-.37-.09l-2.3,9.21c-.17.43-.62,1.08-1.61.83.03.05-2.55-.64-2.55-.64l-1.74,4.02,4.57,1.14c.85.21,1.68.44,2.5.65l-1.45,5.83,3.51.87,1.44-5.77c.96.26,1.89.5,2.8.73l-1.43,5.74,3.51.87,1.45-5.82c5.99,1.13,10.49.68,12.38-4.74,1.53-4.36-.08-6.87-3.23-8.52,2.29-.53,4.02-2.04,4.48-5.16Zm-8.02,11.25c-1.08,4.36-8.43,2-10.81,1.41l1.93-7.73c2.38.59,10.01,1.77,8.88,6.32Zm1.09-11.31c-.99,3.97-7.1,1.95-9.08,1.46l1.75-7.01c1.98.49,8.37,1.42,7.33,5.55Z"/>
  <path class="cls-3" d="m93.78,19.36c2.6,0,4.84.46,6.72,1.38,1.89.92,3.46,2.16,4.71,3.73,1.24,1.57,2.16,3.41,2.75,5.51.59,2.11.89,4.38.89,6.8,0,3.73-.68,7.25-2.06,10.57-1.38,3.32-3.25,6.21-5.63,8.67-2.38,2.46-5.19,4.39-8.42,5.82-3.23,1.43-6.75,2.15-10.52,2.15-.49,0-1.35-.01-2.56-.04-1.21-.02-2.6-.15-4.16-.36-1.57-.22-3.23-.54-4.98-.98-1.75-.43-3.42-1.02-4.98-1.78L79.53,1.95,92.07,0l-5.02,20.89c1.07-.48,2.16-.86,3.24-1.13,1.08-.27,2.24-.41,3.48-.41h0Zm-10.53,34.67c1.89,0,3.67-.46,5.34-1.38,1.68-.91,3.13-2.15,4.34-3.69,1.21-1.54,2.17-3.28,2.87-5.23.7-1.94,1.05-3.97,1.05-6.08,0-2.59-.43-4.61-1.3-6.07-.86-1.45-2.46-2.19-4.78-2.19-.76,0-1.74.14-2.95.4-1.22.27-2.31.85-3.29,1.71l-5.34,22.19c.32.06.61.11.85.16.24.06.5.09.76.12.28.03.59.05.98.05s.86,0,1.46,0h0Z"/>
  <path class="cls-3" d="m121.86,62.86h-11.99l10.12-42.6h12.07l-10.21,42.6Zm5.83-47.79c-1.67,0-3.19-.5-4.54-1.5-1.36-.99-2.03-2.52-2.03-4.58,0-1.13.23-2.19.69-3.2.46-1,1.07-1.86,1.83-2.59.76-.73,1.63-1.31,2.63-1.74,1-.43,2.07-.65,3.2-.65,1.67,0,3.18.5,4.53,1.5,1.35,1,2.02,2.53,2.02,4.58,0,1.14-.23,2.2-.69,3.2-.46,1-1.06,1.86-1.82,2.59-.75.73-1.64,1.31-2.63,1.74-1,.44-2.07.64-3.2.64Z"/>
  <path class="cls-3" d="m142.57,9.65l12.56-1.94-3.08,12.56h13.45l-2.43,9.88h-13.37l-3.56,14.9c-.33,1.24-.51,2.4-.57,3.48-.06,1.08.08,2.01.4,2.8.32.79.9,1.39,1.74,1.82.84.44,2.03.65,3.6.65,1.29,0,2.55-.12,3.77-.37,1.21-.24,2.44-.57,3.68-1.01l.89,9.24c-1.62.59-3.37,1.1-5.26,1.54-1.89.44-4.13.64-6.72.64-3.72,0-6.61-.55-8.67-1.65-2.05-1.11-3.51-2.62-4.37-4.54-.86-1.91-1.24-4.11-1.13-6.6.11-2.49.49-5.1,1.13-7.86l7.94-33.53h0Z"/>
  <path class="cls-3" d="m164.96,45.85c0-3.67.59-7.13,1.78-10.37,1.18-3.24,2.89-6.08,5.11-8.51,2.21-2.42,4.9-4.34,8.06-5.75,3.15-1.4,6.68-2.11,10.56-2.11,2.43,0,4.61.23,6.52.69,1.92.46,3.66,1.07,5.23,1.82l-4.13,9.4c-1.08-.44-2.2-.82-3.36-1.17-1.16-.36-2.58-.53-4.25-.53-4,0-7.16,1.38-9.52,4.13-2.35,2.75-3.53,6.46-3.53,11.1,0,2.75.59,4.98,1.79,6.68,1.19,1.7,3.38,2.55,6.56,2.55,1.57,0,3.08-.16,4.54-.48,1.46-.32,2.75-.73,3.89-1.21l.9,9.64c-1.52.59-3.19,1.12-5.02,1.58-1.84.45-4.03.68-6.56.68-3.35,0-6.18-.49-8.5-1.45-2.32-.98-4.24-2.28-5.75-3.93-1.52-1.65-2.61-3.58-3.28-5.79-.67-2.21-1.02-4.54-1.02-6.96Z"/>
  <path class="cls-3" d="m218.21,63.99c-2.86,0-5.35-.44-7.46-1.3-2.1-.86-3.84-2.07-5.22-3.64-1.38-1.56-2.41-3.41-3.12-5.54-.71-2.13-1.05-4.49-1.05-7.08,0-3.24.52-6.49,1.57-9.73,1.05-3.24,2.6-6.15,4.66-8.74,2.04-2.59,4.56-4.71,7.53-6.37,2.96-1.64,6.37-2.47,10.2-2.47,2.81,0,5.28.44,7.42,1.3,2.13.86,3.88,2.08,5.26,3.64,1.37,1.57,2.41,3.41,3.11,5.55.71,2.13,1.05,4.5,1.05,7.08,0,3.23-.51,6.48-1.53,9.72-1.02,3.23-2.54,6.15-4.54,8.74-2,2.59-4.49,4.71-7.49,6.35-2.99,1.65-6.47,2.47-10.41,2.47Zm5.99-34.66c-1.78,0-3.35.52-4.69,1.53-1.35,1.03-2.48,2.33-3.4,3.89-.92,1.57-1.61,3.28-2.07,5.14-.46,1.87-.69,3.63-.69,5.3,0,2.7.44,4.81,1.29,6.32.87,1.51,2.43,2.26,4.7,2.26,1.78,0,3.35-.51,4.7-1.54,1.34-1.02,2.48-2.32,3.4-3.89.92-1.56,1.61-3.28,2.07-5.14.45-1.86.68-3.63.68-5.3,0-2.7-.43-4.81-1.3-6.32-.86-1.51-2.43-2.27-4.7-2.27h0Z"/>
  <path class="cls-3" d="m255.23,62.86h-12l10.12-42.6h12.07l-10.2,42.6Zm5.82-47.79c-1.67,0-3.19-.5-4.53-1.5-1.35-.99-2.03-2.52-2.03-4.58,0-1.13.23-2.19.69-3.2.46-1,1.07-1.86,1.82-2.59.75-.73,1.64-1.31,2.63-1.74,1-.43,2.06-.65,3.19-.65,1.68,0,3.19.5,4.54,1.5,1.35,1,2.03,2.53,2.03,4.58,0,1.14-.24,2.2-.69,3.2-.45,1-1.06,1.86-1.82,2.59-.76.73-1.63,1.31-2.63,1.74-1,.44-2.07.64-3.21.64Z"/>
  <path class="cls-3" d="m274.08,22.2c.91-.27,1.93-.59,3.03-.93,1.11-.35,2.35-.67,3.73-.96,1.37-.3,2.91-.55,4.61-.73,1.7-.19,3.63-.29,5.78-.29,6.32,0,10.68,1.84,13.09,5.51,2.4,3.67,2.82,8.69,1.26,15.06l-5.51,23h-12.07l5.34-22.52c.33-1.4.58-2.76.77-4.09.19-1.32.18-2.48-.04-3.48-.21-.99-.71-1.8-1.49-2.43-.79-.62-1.99-.93-3.61-.93s-3.15.17-4.78.49l-7.86,32.96h-12.07l9.8-40.65Z"/>
</svg>