<?xml version="1.0" encoding="UTF-8"?>
<svg id="katman_1" data-name="katman 1" xmlns="http://www.w3.org/2000/svg" viewBox="0 0 683.39 191.63">
  <defs>
    <style>
      .cls-1 {
        fill: #00a99d;
      }

      .cls-2 {
        fill: #c69c6d;
      }

      .cls-3 {
        fill: gray;
      }
    </style>
  </defs>
  <path class="cls-2" d="m268.23,0c-.04,13.65-.09,27.31-.13,40.96,0,2.84-.06,5.68.02,8.52.04,1.44-.48,1.86-1.89,1.86-15.71-.04-31.42-.05-47.13,0-1.63,0-1.86-.68-1.86-2.06.03-15.59.02-31.18.01-46.76,0-.84-.1-1.68-.15-2.52h51.12Zm-11.16,9.62c-2.65,0-4.75.13-6.83-.04-1.95-.16-3.08.57-4.07,2.22-1.86,3.1-3.97,6.05-5.9,9.12-.78,1.24-1.95,1.3-2.99.93-.46-.16-.78-1.32-.81-2.04-.09-2.71-.09-5.44,0-8.15.05-1.6-.58-2.16-2.14-2.06-1.62.1-3.26.06-4.89.02-1.16-.03-1.63.48-1.61,1.62.04,1.81,0,3.62,0,5.43,0,7.73.02,15.46-.02,23.19,0,1.44.4,2.12,1.95,2.02,1.56-.1,3.14-.09,4.71,0,1.5.08,2.03-.53,2-2.01-.07-3.08.06-6.16-.06-9.24-.07-1.79.85-2.13,2.21-1.8.6.15,1.24.7,1.6,1.24,2.24,3.44,4.39,6.93,6.62,10.38.34.53.88,1.28,1.36,1.3,2.98.12,5.97.06,9.32.06-.56-1.03-.87-1.72-1.28-2.36-2.81-4.36-5.61-8.74-8.48-13.06-.67-1.01-.69-1.75.01-2.75,2.72-3.91,5.37-7.88,8.03-11.84.36-.53.65-1.1,1.27-2.18Z"/>
  <path class="cls-3" d="m213.48,0c-.06.84-.16,1.68-.16,2.51,0,15.53-.03,31.05.03,46.58,0,1.72-.45,2.27-2.22,2.26-15.59-.07-31.17-.07-46.76,0-1.77,0-2.24-.53-2.23-2.26.06-15.59.04-31.17.03-46.76,0-.78-.11-1.55-.17-2.33h51.48Zm-16.65,24.96c1.06-1.43,2.39-2.62,2.96-4.11,2.01-5.2-1.53-10.41-7.47-10.8-5.59-.37-11.21-.27-16.82-.41-1.35-.03-1.62.74-1.62,1.84.02,9.48.04,18.96.04,28.44,0,1.46.58,1.99,2.07,1.96,4.65-.08,9.3.08,13.95-.09,2.08-.08,4.2-.51,6.18-1.17,2.72-.92,4.55-2.88,5.19-5.79,1.02-4.61-.16-7.15-4.48-9.87Z"/>
  <path class="cls-3" d="m323.7,0c-.03,16.01-.06,32.02-.1,48.03,0,3.73.28,3.27-3.33,3.27-15.11.01-30.21-.02-45.32.04-1.75,0-2.25-.5-2.24-2.25.06-15.59.04-31.18.03-46.77,0-.78-.1-1.56-.16-2.34h51.12Zm-14.31,23.7c0,5.75.03,11.07-.02,16.38-.01,1.31.41,1.87,1.77,1.8,1.63-.08,3.26-.07,4.89,0,1.19.04,1.62-.5,1.62-1.62-.01-9.67-.01-19.34,0-29,0-1.28-.63-1.66-1.81-1.63-2.11.05-4.23.06-6.34,0-1.13-.04-1.78.37-2.23,1.41-1.19,2.71-2.44,5.39-3.68,8.07-1.73,3.76-3.47,7.52-5.33,11.57-.5-1-.86-1.68-1.18-2.38-2.59-5.65-5.19-11.3-7.73-16.97-.53-1.19-1.2-1.79-2.58-1.71-1.93.11-3.87.12-5.8,0-1.64-.09-2.06.59-2.05,2.13.06,6.4.02,12.81.03,19.21,0,3.08.04,6.16-.01,9.24-.02,1.25.46,1.8,1.71,1.68.3-.03.6,0,.91,0q5.34.01,5.34-5.25v-12.9c2.32,5.08,4.7,9.71,6.53,14.55,1.15,3.04,2.84,4.05,5.92,3.66,1.33-.17,2-.55,2.54-1.77,2.39-5.4,4.89-10.74,7.51-16.46Z"/>
  <path class="cls-3" d="m387.26,98.05c-.3,11.39-2.14,22.39-7.44,32.57-6.34,12.19-16,20.26-29.64,23.12-7.22,1.51-14.38,1.31-21.41-1.09-2.05-.7-2.03-.67-2.36,1.42-1.92,12.01-3.87,24.02-5.79,36.03-.17,1.09-.68,1.54-1.81,1.54-8.34-.03-16.68-.03-25.01,0-1.41,0-1.6-.65-1.39-1.82,3.71-21.42,7.41-42.85,11.09-64.27,3.18-18.52,6.33-37.04,9.47-55.57.2-1.16.7-1.75,1.86-2.1,7.93-2.38,15.98-4.16,24.22-4.98,4.79-.48,9.61-1.02,14.42-1,6.37.03,12.63,1.03,18.36,4.12,8.55,4.62,12.8,12.19,14.37,21.45.59,3.49.72,7.06,1.05,10.6Zm-48.94,36.95c5.37-.31,9.6-2.25,12.63-6.6,1.74-2.5,3.26-5.24,4.36-8.08,2.81-7.23,3.63-14.86,3.6-22.55-.01-3.03-.6-6.12-1.4-9.05-.91-3.32-3.35-5.45-6.82-6.01-3.68-.6-7.35-.2-10.89.93-.61.2-1.18,1.29-1.33,2.05-.77,3.84-1.4,7.7-2.07,11.56-2.01,11.45-3.99,22.9-6.06,34.34-.24,1.31.2,1.8,1.31,2.03,2.23.47,4.46.92,6.68,1.38Z"/>
  <path class="cls-1" d="m199.3,126.74c1.12,3.44,2.18,6.68,3.25,9.93.71,2.17,1.36,4.38,2.18,6.51.47,1.21.16,1.83-.91,2.46-5.54,3.3-11.49,5.6-17.74,7.08-9.13,2.16-18.34,2.93-27.61.97-13.43-2.85-21.6-11.26-23.74-24.61-3.16-19.77,1.83-37.53,15.64-52.31,8.46-9.05,19.15-13.77,31.53-14.78,6.1-.5,12.07-.18,17.84,1.89,8.74,3.13,13.46,10.03,13.68,19.31.31,13.01-5.75,22.08-16.97,28.03-7.23,3.83-15.07,5.72-23.1,6.86-3.22.46-6.46.78-9.7,1.08-1.04.1-1.37.55-1.3,1.5.48,6.75,3.96,11.86,11.57,12.88,6.97.94,13.36-1.08,19.58-3.93,1.9-.87,3.75-1.85,5.81-2.87Zm-35.25-24.52c7.9-.75,15.11-2.32,21.02-7.52,1.82-1.6,2.92-3.65,3.36-6.06.66-3.63-1.72-6.62-5.4-6.83-4.19-.24-7.69,1.26-10.63,4.13-4.48,4.36-6.72,9.89-8.34,16.28Z"/>
  <path class="cls-3" d="m515.42,126.94c1.9,5.83,3.73,11.31,5.42,16.84.14.46-.58,1.47-1.15,1.82-6.19,3.79-12.96,6.09-20.03,7.59-5.75,1.22-11.58,1.77-17.44,1.42-8.76-.53-16.93-2.75-23.28-9.31-4.7-4.86-7.26-10.81-8.15-17.42-2.41-18.02,1.9-34.29,13.47-48.37,7.9-9.61,18.21-15.23,30.59-17.04,6.72-.98,13.34-.84,19.87,1.12,9.29,2.78,14.58,10.08,14.8,19.77.34,15.15-8.45,24.17-19.97,29.23-7.52,3.3-15.48,4.94-23.61,5.83-1.98.22-3.94.57-5.92.65-1.45.06-1.72.73-1.6,1.96.76,8.01,5.88,12.79,14.02,12.9,7.39.1,14.08-2.36,20.5-5.77.73-.39,1.48-.73,2.49-1.22Zm-35.22-24.99c.4.15.63.32.83.3,6.5-.53,12.73-2.03,18.21-5.74,2.6-1.76,4.64-4.03,5.38-7.22,1-4.28-1.5-7.38-5.83-7.55-4.81-.18-8.48,1.92-11.52,5.38-3.74,4.26-5.79,9.33-7.08,14.84Z"/>
  <path class="cls-3" d="m307.9,64.7c-2.94,3.57-5.61,6.82-8.29,10.06-8.39,10.14-16.77,20.31-25.23,30.4-1.23,1.46-1.38,2.58-.54,4.32,6.42,13.32,12.72,26.71,19.05,40.07.28.59.53,1.2.91,2.08-.75.07-1.31.16-1.87.16-8.58,0-17.16-.03-25.74.04-1.44.01-2.16-.49-2.71-1.79-2.74-6.38-5.57-12.72-8.38-19.06-.31-.7-.7-1.35-1.24-2.38-.9,1.04-1.62,1.81-2.27,2.63-4.92,6.19-9.86,12.37-14.72,18.62-1.1,1.41-2.29,2-4.12,1.98-8.64-.09-17.28-.03-25.92-.03-.59,0-1.18,0-2.24,0,1.69-2.06,3.1-3.82,4.55-5.54,10.63-12.69,21.24-25.38,31.92-38.03.98-1.16,1.07-2.03.44-3.35-6.03-12.77-12-25.58-17.98-38.37-.22-.48-.39-.98-.68-1.69.75-.04,1.33-.1,1.9-.1,8.1,0,16.19.03,24.29-.04,1.43-.01,2.15.42,2.69,1.77,2.52,6.27,5.14,12.5,7.73,18.75.27.65.6,1.28,1.04,2.23.59-.62,1.01-1,1.36-1.44,5.01-6.43,10.05-12.85,15-19.32,1.04-1.36,2.1-2.02,3.9-2,8.34.1,16.68.05,25.01.05.58,0,1.16,0,2.15,0Z"/>
  <path class="cls-3" d="m669.24,89.76c-3.37-1.96-6.9-4.3-10.67-6.14-3.38-1.65-7.08-2.39-10.91-1.49-2.96.69-5.36,2.07-6.01,5.27-.63,3.11.58,5.71,3.17,7.34,2.48,1.57,5.23,2.72,7.89,4,4.83,2.33,9.98,4.14,14.44,7.02,7.69,4.98,10.19,12.68,9.3,21.56-1.39,13.84-9.76,21.74-22.54,25.15-16.9,4.52-33.12,2.36-48.3-6.53-2.13-1.25-2.06-1.33-.88-3.46,3.06-5.55,6.1-11.1,9.23-16.8.58.31,1.04.53,1.48.79,6.67,3.91,13.68,6.97,21.46,7.66,2.16.19,4.46-.19,6.59-.74,2.52-.65,4.07-2.51,4.48-5.16.41-2.67-.79-4.73-2.99-5.92-3.07-1.65-6.35-2.89-9.52-4.36-4.15-1.92-8.51-3.51-12.38-5.9-6.65-4.13-9.63-10.55-9.9-18.3-.31-9.06,2.39-16.92,9.33-22.99,5.29-4.63,11.65-7.01,18.49-8.14,13.47-2.23,25.91.36,37.13,8.27,1.67,1.18,3.12,2.66,4.67,4,.64.56.87,1.12.14,1.81-4.6,4.36-9.18,8.74-13.7,13.04Z"/>
  <path class="cls-3" d="m592.77,90.24c-2.43-1.65-4.75-3.39-7.22-4.87-3.67-2.2-7.63-3.67-11.99-3.55-1.48.04-3.03.34-4.39.89-5.11,2.07-6.09,8.13-1.71,11.5,2.26,1.74,4.98,2.91,7.6,4.13,4.21,1.96,8.62,3.51,12.73,5.65,6.13,3.2,10.42,8.13,11.58,15.12,2.35,14.17-3.77,26.31-17.77,31.93-8.46,3.4-17.29,4.12-26.3,3.33-8.84-.77-17.22-3.05-24.9-7.52-4.49-2.62-3.72-1.74-1.62-5.67,2.39-4.47,4.85-8.9,7.29-13.35.37-.68.78-1.33,1.25-2.12.9.51,1.68.93,2.45,1.38,6.28,3.62,12.9,6.41,20.17,7.02,2.54.21,5.38-.17,7.73-1.15,4.56-1.89,5.05-7.55.97-10.32-2.37-1.6-5.1-2.69-7.75-3.85-3.59-1.57-7.34-2.79-10.86-4.51-8.02-3.91-12.81-10.14-13.45-19.33-.7-10.08,2.31-18.55,10.25-25.01,5.16-4.19,11.25-6.25,17.69-7.35,10.28-1.75,20.19-.41,29.65,3.98,4.36,2.03,8.28,4.72,11.7,8.12.77.77,1,1.36.12,2.25-4.3,4.33-8.54,8.71-12.82,13.07-.12.12-.31.17-.41.22Z"/>
  <path class="cls-3" d="m423.42,76.33c5.18-8.09,11.88-14.01,21.88-14.44,4.75-.2,9.48.64,13.8,3.36-1.52,4.41-3.01,8.73-4.5,13.06-.94,2.74-1.94,5.46-2.79,8.22-.45,1.46-.96,1.93-2.54,1.24-3.51-1.53-7.16-2.32-11.07-2.08-7.4.46-12.56,5.78-13.87,13.23-2.99,17.02-6.06,34.04-9.08,51.05-.22,1.23-.67,1.86-2.11,1.85-8.15-.07-16.31-.05-24.46,0-1.53,0-1.87-.57-1.62-1.97,3.47-19.57,6.85-39.16,10.39-58.71,1.43-7.86,2.26-15.74,2.22-23.72-.01-2.61.23-2.81,2.76-2.81,5.98,0,11.96.06,17.94,0,1.63-.02,2.21.43,2.2,2.14-.03,3.12.22,6.24.36,9.36.17.08.34.15.51.23Z"/>
  <path class="cls-1" d="m0,151.78c4.7-3.39,9.05-6.52,13.39-9.65,5.48-3.96,10.94-7.95,16.48-11.84.87-.61,2.07-1.07,3.12-1.07,29.78-.06,59.56-.04,89.34-.06,1.13,0,1.92.08,2.15,1.47,1.32,8,4.55,15.08,10.63,21.15H0Z"/>
  <path class="cls-1" d="m21.25,118.56c.85-.7,1.23-1.04,1.64-1.34,9.45-6.81,18.9-13.64,28.39-20.39.82-.58,1.96-1.01,2.95-1.01,23.86-.05,47.71-.04,71.57-.03.47,0,.95.06,1.46.1-.8,3.41-1.72,6.71-2.31,10.07-.62,3.55-1.01,7.16-1.29,10.76-.12,1.54-.71,1.85-2.11,1.85-16.79-.03-33.58,0-50.37,0-15.7,0-31.4,0-47.11,0h-2.82Z"/>
  <path class="cls-1" d="m150.68,63.26c-6.61,4.84-11.73,10.48-15.89,17.01-.52.81-1.15,1.6-1.47,2.49-.93,2.61-2.64,3.21-5.37,3.2-28.63-.13-57.27-.09-85.9-.09-.65,0-1.3,0-2.35,0,.67-.56,1.04-.91,1.45-1.21,9.54-6.9,19.09-13.8,28.66-20.65.64-.46,1.52-.81,2.28-.81,25.79-.04,51.59-.03,77.39-.02.24,0,.47.03,1.2.09Z"/>
  <path class="cls-3" d="m186.85,35.37c-4.76.02-4.68.02-4.78-4.74-.03-1.75.5-2.37,2.25-2.24,1.86.14,3.75-.01,5.61.07,2.24.1,3.12,1.17,3.1,3.56-.02,2.27-.9,3.24-3.11,3.34-1.02.05-2.05,0-3.08,0Z"/>
  <path class="cls-3" d="m186.01,22.83c-4.49-.23-3.85.44-3.89-3.97-.03-2.74,0-2.78,2.8-2.72,1.74.03,3.49.14,5.22.34,1.42.17,2.04,1.24,2.12,2.55.09,1.41-.29,2.78-1.8,3.18-1.43.38-2.96.43-4.44.62Z"/>
</svg>