<?xml version="1.0" encoding="UTF-8"?>
<svg id="Paraf_Logo_Pantone_801C" data-name="Paraf Logo Pantone 801C" xmlns="http://www.w3.org/2000/svg" viewBox="0 0 500 317.51">
  <defs>
    <style>
      .cls-1 {
        fill: #00a6d4;
      }
    </style>
  </defs>
  <path class="cls-1" d="m194.74,39.43c-3.76-15.33-14.95-28.39-29.94-34.93-15.37-6.72-32.62-5.89-47.33,2.25-36.2,20.03-56.21,72.56-67.22,122.03-16.06-10.37-27.36-27.28-32.88-49.01L0,90.63c8.18,26.27,24.32,46.78,46.16,58.43-6.48,35.85-8.5,67.24-9.07,79.28l-.06,1.25c-.42,8.5-1.35,27.82-.5,48.87l19.31-12.08c-.2-15.62.45-29.16.78-35.84l.06-1.26c.97-20.5,3.52-46.33,8.19-72.83,30.62,8.23,65.33.22,94.73-22.34,27.99-21.5,43.1-62.2,35.14-94.66Zm-47.1,79.14c-24.92,19.13-53.98,25.85-79.01,18.59,10.6-49.3,28.93-97.01,58.35-113.29,9.31-5.16,20.24-5.68,29.96-1.44,9.42,4.12,16.44,12.2,18.75,21.65,6.03,24.58-6.55,58-28.05,74.5Zm340.46,20.59c9.39-18.96,14.81-49.04,8.31-67.81-4.56-13.14-14.92-20.32-28.02-19.87-25.04.77-34.72,32.08-39.38,47.12-11.56,37.36-18.45,78.08-20.82,122.95-.76.56-1.48,1.09-2.28,1.68-4.33,3.24-14.24,10.65-18.21,10.92-.44-.75-1.38-2.93-1.8-8.03-.49-5.89.09-21.17.55-33.45.29-7.54.53-14.05.52-17.87h0s0-.07,0-.1c-.2-15.58-9.5-25.65-23.7-25.65-11.38,0-25.1,6.7-35.81,17.49-11.48,11.58-20.65,25.55-25.83,39.33-2.93,7.77-4.51,15.16-4.74,21.84-1.88,1.45-3.7,2.82-4.85,3.59-13.75,9.2-17.68,6.04-18.97,4.99-6.25-5.05-.25-20.41,5.04-33.96,4.94-12.66,9.61-24.6,7.39-34.59-.66-2.95-2.68-5.41-5.45-6.62-2.78-1.22-5.96-1.04-8.58.48-4.13,2.39-17.5,5.37-25.37,5.7.22-1.11.41-2.17.58-3.19.9-5.63,3.01-18.8-7.2-28.75-6.83-6.65-17.85-7.24-26.79-1.43-9.91,6.43-13.74,18.34-9.54,29.64,2.56,6.91,7.93,14.63,19.05,19.06-7.63,21.98-20.88,47.15-33.39,56.61-1.66-5.95-3.31-20.79-1.13-57.86.16-2.86.28-4.93.3-6.04.4-5.58.2-13.56-5.53-19.75-2.61-2.82-7.35-6.19-15.13-6.19-4.38,0-9.23,1.05-14.79,3.21-4.81,1.85-9.37,4.09-13.2,6.5-16.99,10.71-33.24,30.3-40.43,48.76-5.65,14.52-4.89,29.22,2.02,39.3,5.01,7.3,12.93,11.49,21.72,11.5h0c8.86,0,18.34-4.18,27.39-12.08,7.74-6.74,13.5-12.93,18.11-19.38,1.21,17.36,4.75,26.58,11.06,30.66,2.32,1.49,4.9,2.25,7.58,2.25,2.46,0,4.98-.64,7.42-1.91,20.4-10.65,37.83-44.99,46.77-71.98,1.49.05,3.04.07,4.64.04,4.84-.09,12.16-1.05,19.21-2.66-1.28,3.88-2.92,8.07-4.4,11.85-7.27,18.62-16.31,41.8.69,55.55,10.48,8.47,24.1,7.33,40.5-3.33,4.42,7.03,11.28,10.87,19.64,10.87,16.77,0,33.08-15.49,34.88-17.25,4-3.92,7.64-8.14,10.94-12.6.49,5.42,2.18,18.11,12.68,22.83,2.46,1.1,4.97,1.59,7.51,1.59,6.73,0,13.61-3.4,20.06-7.62-.38,22.9.38,46.89,2.21,72l18.3-11.45c-1.6-26.03-2.04-50.83-1.15-74.33,14.05-9.55,26.46-15.64,37.15-18.29l8.07-20.33c-13.03.73-27.52,5.75-43.85,15.3,2.89-37.73,9.21-72.3,19.09-104.2,3.09-10,10.34-33.41,21.91-33.78,4.07-.15,7.28.99,9.42,7.14,4.33,12.48.43,33.51-4.85,47.58l14.48,14.04Zm-319.07,35.04c-.33,4.36-1.63,8.89-2.38,11.21-6.58,20.4-11.6,31.67-29.1,46.9-5.47,4.78-10.77,7.4-14.91,7.4h0c-2.58,0-4.56-1.06-6.06-3.25-2.48-3.62-3.98-11.5,0-21.74,5.66-14.51,19.48-31.17,32.86-39.6,2.79-1.75,6.22-3.43,9.93-4.85,4.12-1.6,6.6-1.94,7.94-1.94.77,0,1.18.12,1.19.09.21.23.87,1.32.53,5.78Zm58.91-13.09c-.15.97-.34,1.97-.55,3-3.16-1.71-5.31-4.08-6.45-7.13-1.01-2.72-.6-4.87,1.27-6.56,1.32-1.19,2.83-1.57,3.59-1.57.19,0,.33.02.41.06,2.01,1.95,2.93,4.59,1.71,12.2Zm140.06,13.86c.03,2.29-.27,5.01-.89,8.06-3.51,17.19-11.91,32.66-24.26,44.74-5.94,5.82-15.64,11.84-21.59,11.84-1.53,0-2.81-.23-4.16-3.04-1.83-3.84-2.19-12.16,2.29-24.02,4.26-11.35,11.92-22.95,21.56-32.66,8.1-8.17,17.25-11.88,22.32-11.88,2.17,0,4.64,0,4.73,6.96v.02Zm112.61,62.76v19.39h19.39v-19.39h-19.39Z"/>
</svg>