<?xml version="1.0" encoding="UTF-8"?>
<svg id="Layer_1" data-name="Layer 1" xmlns="http://www.w3.org/2000/svg" viewBox="0 0 7086.61 3263.34">
  <defs>
    <style>
      .cls-1 {
        fill: #323e48;
      }

      .cls-1, .cls-2 {
        fill-rule: evenodd;
      }

      .cls-2 {
        fill: #00adbb;
      }
    </style>
  </defs>
  <path class="cls-1" d="m6495.24,524.76c-98.81,0-207.8,55.1-251.27,154.08l-461.89,1058.77-166.37-1058.77c-19.57-98.99-86.82-154.08-193.28-154.08h-585.14l500.49,1758.38c9.21,33.72,10.96,71.11,4.22,110.43-26.19,146.74-166.37,265.78-313.16,265.78h-327.68c-83.21,0-138.01,51.54-164.8,168.23l-72.8,435.76h577.07c301.06,0,654.63-151.25,890.48-569.49l1155.48-2169.09h-591.34Z"/>
  <path class="cls-1" d="m814.86,0c172.81,0,256.32,68.94,225.91,242.18l-49.79,282.22h397.04l-87.49,495.79h-397.22l-108.2,613.86c-37.39,213.87,174.31,242.36,295.76,242.36,24.2,0,44.31-.54,58.71-1.39l-97.12,552.87c-29.98,3.19-60.87,7.34-126.26,7.34-301.43,0-871.64-80.74-759.52-716.83l122.77-698.22H0l87.12-495.79h286.61L465.98,0h348.87Z"/>
  <path class="cls-2" d="m4151.25,547.11l-102,578.04c125.78,64.25,211.95,194.73,211.95,345.44,0,198.7-148.97,361.51-340.74,384.94l-101.94,577.92c18,1.14,36.31,1.75,54.55,1.75,533.06,0,964.78-432.02,964.78-964.6,0-435.45-289.14-803.89-686.6-923.48"/>
  <path class="cls-2" d="m3697.22,1816.14c-125.67-63.88-212.01-194.97-212.01-345.5,0-197.44,149.27-361.51,340.98-384.52l101.82-577.98c-18.12-1.14-36.55-1.99-54.67-1.99-532.64,0-964.6,432.32-964.6,964.48,0,435.64,289.26,804.32,686.72,923.9l101.76-578.4Z"/>
  <path class="cls-1" d="m1617.86,524.76h341.16c172.87,0,256.02,69.07,225.56,242.36l-37.33,209.66c127.11-258.01,402.82-470.86,685.64-470.86,37.09,0,72.8,7.35,72.8,7.35l-110.25,625.12s-49.49-11.5-126.75-11.5c-150.71,0-405.59,47.81-547.45,330.99-33.84,69.79-59.85,154.69-77.86,256.99l-123.43,702.32h-635.54l333.46-1892.42Z"/>
  <path class="cls-1" d="m6930.9,2460.28c0-11.2-3.73-20.59-11.8-28.24-7.89-7.59-17.94-11.2-30.35-11.2h-41.61v78.46h41.61c12.4,0,22.46-3.91,30.35-10.96,8.07-7.47,11.8-16.56,11.8-28.06m37.45,156.73h-36.25l-51.24-91.28h-33.72v91.28h-30.89v-223.69h75.93c19.57,0,36.25,6.68,49.91,19.33,13.55,12.82,20.77,28.78,20.77,47.63,0,31.07-16.25,51.66-48.23,61.42l53.71,95.32Zm86.22-111.69c0,48.23-16.86,89.24-50.58,123.02-33.36,34.02-74.24,50.94-121.45,50.94s-87.49-16.92-121.15-50.94c-33.24-33.78-49.8-74.78-49.8-123.02s16.56-88.93,49.8-122.89c33.66-34.14,74.06-51.06,121.15-51.06s88.09,16.92,121.45,51.06c33.72,33.96,50.58,74.84,50.58,122.89m32.04,0c0,56.42-19.99,104.65-59.85,144.21-39.44,39.68-87.49,60.03-144.21,60.03s-104.17-20.35-144.21-60.03c-39.74-39.56-59.79-87.79-59.79-144.21s20.05-104.35,59.79-144.33c40.04-39.62,88.09-59.61,144.21-59.61s104.77,19.99,144.21,59.61c39.86,39.98,59.85,88.09,59.85,144.33"/>
</svg>