<?xml version="1.0" encoding="UTF-8"?>
<svg id="Layer_1" data-name="Layer 1" xmlns="http://www.w3.org/2000/svg" viewBox="0 0 324.43 51.28">
  <defs>
    <style>
      .cls-1 {
        fill: #5f2e81;
      }

      .cls-1, .cls-2 {
        fill-rule: evenodd;
      }

      .cls-2 {
        fill: #6c4796;
      }
    </style>
  </defs>
  <path class="cls-2" d="m3.6,2.3h19.51c1.08,0,2.52.72,2.81,1.8l5.69,23.4,2.88-22.54c.22-1.3,1.08-3.02,2.38-3.1l15.19-.43c1.08,0,1.94,1.37,2.16,2.45l4.1,22.18,4.39-22.32c.14-.94.94-2.16,1.87-2.16h17.06c.94,0,1.58,1.58,1.37,2.52l-9.79,40.46c-.36,1.37-1.08,3.31-2.52,3.38l-17.06,1.01c-1.22.07-3.24.29-3.53-.86l-5.54-21.89-3.89,21.17c-.22,1.08-.94,2.52-2.09,2.59l-19.08,1.15c-1.44.14-3.1-.86-3.53-2.16L2.23,5.98c-.36-1.22.07-3.67,1.37-3.67Z"/>
  <g>
    <polygon class="cls-1" points="95.9 2.38 99.29 1.37 100.01 1.15 100.8 1.01 101.66 .86 102.46 .72 103.32 .65 103.97 .65 104.54 .58 105.19 .58 105.91 .5 106.56 .5 107.28 .5 108 .43 108.72 .43 109.44 .43 110.23 .43 110.95 .43 111.74 .36 112.54 .36 113.33 .36 114.12 .36 114.91 .36 115.7 .36 116.5 .36 117.22 .36 118.01 .43 118.8 .43 119.59 .43 120.31 .43 121.03 .43 121.82 .5 122.54 .5 123.19 .5 123.91 .58 124.56 .58 125.21 .58 125.86 .65 126.43 .65 127.3 .72 128.16 .86 128.95 1.01 129.82 1.15 130.54 1.37 131.33 1.66 132.05 1.87 132.77 2.23 133.49 2.59 134.14 2.95 134.78 3.31 135.36 3.74 136.01 4.25 136.51 4.75 137.09 5.26 137.59 5.76 138.1 6.34 138.53 6.98 138.96 7.56 139.39 8.21 139.75 8.86 140.04 9.58 140.4 10.3 140.69 11.02 140.9 11.74 141.12 12.53 141.34 13.25 141.48 14.04 141.55 14.9 141.62 15.7 141.7 16.56 141.7 17.42 141.7 25.7 141.7 26.57 141.62 27.43 141.55 28.22 141.41 29.09 141.26 29.88 141.05 30.67 140.83 31.46 140.54 32.18 140.18 32.98 139.03 35.57 139.32 34.78 139.61 33.98 139.9 33.19 140.11 32.33 140.26 31.46 140.4 30.6 140.54 29.74 140.62 28.87 140.62 27.94 140.62 19.22 140.62 18.29 140.54 17.42 140.47 16.56 140.33 15.7 140.18 14.83 139.97 14.04 139.75 13.25 139.46 12.46 139.18 11.66 138.89 10.94 138.53 10.22 138.1 9.5 137.66 8.86 137.23 8.21 136.73 7.56 136.22 6.98 135.72 6.41 135.14 5.83 134.57 5.33 133.92 4.82 133.27 4.39 132.62 3.96 131.9 3.6 131.18 3.24 130.46 2.88 129.67 2.59 128.88 2.3 128.02 2.09 127.15 1.94 126.29 1.8 125.42 1.66 124.49 1.58 123.84 1.51 123.19 1.51 122.54 1.51 121.82 1.44 121.1 1.44 120.38 1.37 119.59 1.37 118.87 1.37 118.08 1.37 117.29 1.3 116.5 1.3 115.63 1.3 114.84 1.3 113.98 1.3 113.18 1.3 112.32 1.3 111.53 1.3 110.66 1.3 109.87 1.3 109.08 1.3 108.22 1.3 107.42 1.3 106.63 1.3 105.84 1.37 105.05 1.37 104.33 1.37 103.61 1.44 102.89 1.44 102.17 1.44 101.52 1.51 100.8 1.51 100.22 1.58 99.29 1.66 98.42 1.8 97.56 1.94 96.7 2.16 95.9 2.38"/>
    <polygon class="cls-1" points="121.18 30.38 123.26 28.08 122.83 28.51 122.4 28.87 121.9 29.3 121.39 29.59 120.89 29.88 120.31 30.1 119.66 30.24 119.09 30.31 118.44 30.31 112.1 30.31 111.46 30.31 110.81 30.24 110.23 30.1 109.66 29.88 109.08 29.59 108.58 29.3 108.14 28.87 107.71 28.51 107.28 28.08 106.92 27.58 106.63 27.07 106.34 26.5 106.13 25.92 105.98 25.42 105.91 24.77 105.84 24.12 105.84 18.72 105.91 18.14 105.98 17.5 106.13 16.92 106.34 16.34 106.63 15.77 106.92 15.26 107.28 14.76 107.71 14.33 108.14 13.9 108.58 13.54 109.08 13.25 106.27 14.83 105.77 15.12 105.19 15.55 104.76 15.98 104.33 16.42 103.97 16.92 103.61 17.5 103.32 18.07 103.1 18.65 102.96 19.3 102.89 19.94 102.82 20.59 102.82 26.21 102.89 26.93 102.96 27.58 103.1 28.15 103.32 28.8 103.61 29.38 103.97 29.88 104.33 30.38 104.76 30.89 105.19 31.32 105.77 31.68 106.27 32.04 106.85 32.33 107.42 32.54 108.07 32.69 108.72 32.76 109.37 32.83 116.06 32.83 116.78 32.76 117.43 32.69 118.01 32.54 118.66 32.33 119.23 32.04 119.74 31.68 120.24 31.32 120.74 30.89 121.18 30.38"/>
  </g>
  <path class="cls-2" d="m112.75,1.3c4.32,0,8.57.07,11.74.29,9.86.58,16.13,7.92,16.13,17.64v8.71c0,9.72-7.2,17.64-17.06,17.64h-10.8v-12.74h3.31c3.6,0,6.55-2.95,6.55-6.62v-5.62c0-3.6-2.95-6.55-6.55-6.55h-3.31V1.3Zm-12.53.29c3.38-.22,7.99-.29,12.53-.29v12.74h-3.38c-3.6,0-6.55,2.95-6.55,6.55v5.62c0,3.67,2.95,6.62,6.55,6.62h3.38v12.74h-9.94c-9.86,0-17.93-7.92-17.93-17.64v-8.71c0-9.72,5.47-16.99,15.34-17.64Z"/>
  <path class="cls-2" d="m175.97.86h8.64c6.41.36,13.1.22,15.84,9.58.43,3.38.79,6.77,0,10.15-2.16,6.98-5.9,9.58-10.44,11.02,5.04,4.03,9,7.7,13.46,12.74.72.79-.07,3.1-1.22,3.1h-17.5c-1.15,0-2.45-.36-3.31-1.15l-5.47-5.33v-17.06h5.11c2.09,0,3.82-1.73,3.82-3.82v-2.74c0-2.09-1.73-3.82-3.82-3.82h-5.11V.86Zm-25.56,2.66c0-2.02.58-2.66,2.38-2.66h23.18v12.67h-8.86v10.37h8.86v17.06l-8.71-8.5v12.89c.22,1.51-.36,2.38-1.66,2.74h-12.67c-1.44.07-2.3-.22-2.52-.94V3.53Z"/>
  <g>
    <polygon class="cls-1" points="208.44 1.01 210.96 .29 211.32 .22 226.66 .36 226.94 .36 227.23 .5 227.45 .65 227.66 .86 227.81 1.15 227.88 1.44 227.95 1.8 227.95 2.16 227.95 27.22 226.51 29.66 226.51 3.02 226.51 2.66 226.44 2.3 226.37 1.94 226.22 1.66 226.01 1.44 225.79 1.3 225.5 1.15 225.14 1.08 208.8 1.01 208.44 1.01"/>
    <polygon class="cls-1" points="226.51 29.66 227.95 27.22 251.86 27.22 252.22 27.22 252.58 27.29 252.86 27.43 253.08 27.65 253.3 27.86 253.44 28.15 253.51 28.51 253.51 28.87 253.73 31.46 253.73 31.1 253.66 30.74 253.44 30.46 253.3 30.17 253.01 29.95 252.72 29.81 252.36 29.74 251.93 29.66 226.51 29.66"/>
  </g>
  <path class="cls-2" d="m206.78,3.46c0-1.08.94-2.45,2.02-2.45l16.34.07c1.01.07,1.37.94,1.37,1.94v26.64h25.42c1.15,0,1.8.72,1.8,1.8v13.25c0,.94-1.08,2.09-2.02,2.02l-42.77-1.37c-1.15-.07-2.16-1.15-2.16-2.3V3.46Z"/>
  <polygon class="cls-1" points="260.64 2.59 270.72 1.73 271.08 1.73 261 2.59 260.64 2.59"/>
  <path class="cls-2" d="m286.63,1.87c1.22.07,2.52.07,3.82.14,14.18.36,23.4,2.81,26.35,14.83,1.58,10.8,1.58,21.96-3.46,28.66-5.47,6.26-11.81,5.9-18.36,5.69-2.81-.07-5.62-.14-8.35-.29v-15.48c1.15.07,2.3.14,3.38.22,3.74,0,6.12-1.73,6.77-5.47v-6.91c-.72-3.53-3.38-4.9-6.84-5.33h-3.31V1.87Zm-27.65,3.17c.14-1.8.86-2.59,2.02-2.45,8.57-.58,17.06-.86,25.63-.72v16.06h-9.94c-.07,5.54-.22,11.09-.29,16.7,3.38.22,6.84.5,10.22.79v15.48c-9.29-.58-18.22-1.73-27-3.17-.86-.29-1.37-.79-1.51-1.37.29-13.82.58-27.5.86-41.33Z"/>
  <path class="cls-1" d="m320.26,42.05l-.43.58-.5.5-.5.43-.5.43-.5.43-.5.36-.5.29-.5.36-.5.29-7.2,3.6c1.66-.86,3.24-2.09,4.75-3.82,5.04-6.7,5.04-17.86,3.46-28.66-.72-2.95-1.87-5.4-3.38-7.34h0c-.36-.43-.79-.94-1.15-1.37h0c-.22-.22-.43-.36-.65-.58h-.07c-.22-.22-.43-.43-.65-.58h0c-.22-.22-.43-.36-.72-.5v-.07h0c-.22-.14-.5-.29-.72-.43h0l-.07-.07c-.22-.14-.43-.29-.72-.36v-.07h-.07c-.22-.14-.5-.29-.72-.43h-.07c-.22-.14-.5-.22-.72-.36h-.07l-.07-.07c-.29-.07-.5-.14-.72-.29h-.14l-.07-.07c-.22-.07-.5-.14-.72-.22l-.07-.07h-.14c-.22-.07-.5-.14-.72-.22l-.07-.07h-.14c-.22-.07-.5-.14-.79-.22h-.07l-.14-.07c-.22-.07-.5-.14-.79-.14l-.07-.07h-.14c-.22-.07-.5-.14-.79-.14l-.14-.07h-.14c-.29-.07-.58-.07-.86-.14h-.14c-.29-.07-.58-.14-.86-.14l-.14-.07h-.22c-.22,0-.43-.07-.72-.07l-.22-.07h-.22c-.22,0-.43-.07-.72-.07h-.22l-.22-.07c-.29,0-.5,0-.79-.07h-.43c-.22,0-.43,0-.65-.07h-.72c-.22,0-.36-.07-.58-.07h-.58c-.22,0-.5,0-.72-.07h-1.58l-.94-.07h-1.87l-.86-.07h-10.15l-.86.07h-1.87l-.94.07h-.86l-.94.07h-.94l-.94.07h-.94l-.86.07-.94.07h-.94l-.94.07-.86.07-.94.07-.94.07h-.94l10.08-.86h.86l.86-.07.86-.07.86-.07h.86l.86-.07.86-.07h.86l.86-.07h.86l.86-.07h.86l.86-.07h1.73l.86-.07h2.59l.86-.07h5.18l.86.07h2.59l.86.07h.86l1.22.07h1.22l1.22.07,1.15.07,1.08.14,1.15.07,1.01.14,1.08.14,1.01.22,1.01.22.94.22.94.22.86.29.86.29.79.36.86.36.72.43.72.43.72.43.72.5.58.58.65.58.58.58.5.65.58.72.43.79.43.79.43.79.36.86.36.94.29,1.01.29,1.08.14.94.14.94.14.94.07,1.01.07.94.14.94.07.94.07.94v.94l.07.94v2.74l-.07.86v.94l-.07.86-.14.86-.07.86-.14.86-.14.79-.14.86-.22.79-.22.79-.22.79-.22.72-.29.72-.29.72-.36.72-.36.65-.36.65-.43.65-.43.58Z"/>
  <path class="cls-1" d="m290.02,35.64h-.29c-.07,0-.22,0-.29-.07h-.07c-4.32-.29-8.64-.65-12.96-.94.07-5.62.22-11.16.29-16.7h9.07c-.07,4.61-.14,9.29-.22,13.9,3.53.29,6.98.5,10.44.79-.94,1.73-2.52,2.66-4.61,2.95h0l-1.37.07Z"/>
  <path class="cls-1" d="m181.94,46.66l-6.19-4.03-.14-.14-.22-.07-.14-.14-7.99-7.78v-2.02l14.18,13.82c.07,0,.14.07.14.14h0c.07,0,.14.07.22.14h0c.07,0,.07.07.14.07h0Z"/>
  <path class="cls-1" d="m182.23,13.75h-.07l-.14-.07c-.29-.07-.65-.14-.94-.14h-3.1l.07.14.14.29.07.36.14.36v.36l.07.36v2.45l-.07.36v.36l-.14.36-.07.29-.14.36-.22.29-.22.29-.22.22-.22.22-.29.22-.29.22-.36.14-.29.07-.36.14h-.36l-.36.07h-7.78v2.45h14.33l.36-.07h0l.43-.14h0l.29-.07h0l.36-.22.29-.14h0l.36-.22h0l.22-.29h0l.29-.29h0l.22-.29h0l.14-.29h0l.22-.36.14-.36.07-.36.07-.36v-3.46l-.07-.36-.07-.36-.14-.36-.22-.36-.14-.29-.22-.29-.29-.29-.22-.22-.36-.29-.29-.14h0l-.36-.14h0l-.29-.14h0Z"/>
  <path class="cls-1" d="m181.37.22h.22l.5.07h.58l.5.07,6.34.86-3.67-.29-.65-.07h-.58l-3.24-.43v-.22h0Zm0,.65h3.24l-3.24-.43v.43Zm-3.17-.86h.58l.5.07h.58l.58.07h.58l.36.07v.22l-3.17-.43h0Zm3.17.43l-3.17-.43h-30.17l-.5.14-.36.14-.29.22-.22.36-.14.43-.07.58-.07.65v40.54l4.03,4.1V3.53c0-.5,0-.94.07-1.3h0c.14-.5.36-.86.72-1.08h.07c.07-.07.22-.14.36-.14h0c.14-.07.36-.14.5-.14h29.23v-.43Z"/>
  <g>
    <path class="cls-1" d="m16.49,49.82l-2.95-3.31-.14-.22-.14-.22-.14-.22-.07-.22L.14,5.26l-.07-.22v-.29l-.07-.29v-.5l.07-.29v-.29l.07-.29.14-.29.07-.22.14-.22.14-.22.14-.14.14-.07.22-.14h18.65l.36.07,3.38.5h0c-.14-.07-.29-.07-.43-.07H3.6c-.14,0-.22,0-.29.07h0c-.07,0-.14,0-.22.07h0c-.07,0-.07.07-.14.07h0l-.22.22h0c0,.07-.07.07-.14.14h0v.07c0,.07-.07.14-.07.22h-.07c0,.07-.07.14-.07.22h0c-.07.14-.07.22-.07.29h0c-.07.07-.07.22-.07.29h0c-.07.14-.07.22-.07.29h0v.36h0c-.07.07-.07.14-.07.29h0v.29h0c.07.07.07.22.07.29h0v.22h0c.07.14.07.22.07.29l13.75,42.98c.07.29.29.65.5.86Z"/>
    <path class="cls-1" d="m28.87,16.42l1.58-12.17.07-.43.22-.5.14-.43.29-.5.29-.36.36-.29.43-.22.43-.14,14.26-.36,5.11.43-15.19.43c-.14,0-.29.07-.5.07h0c-.14.07-.29.14-.36.22h0c-.14.14-.29.22-.43.36h0c-.07.14-.22.29-.29.43h0c-.43.58-.65,1.37-.79,2.02l-2.88,22.54-2.74-11.09Z"/>
    <path class="cls-1" d="m55.51,10.73l1.44-7.56.07-.36.14-.36.22-.29.22-.36.22-.29.29-.22.29-.14h16.42l6.84.43h-17.06c-.14,0-.22,0-.36.07h0c-.07,0-.22.07-.29.14h0c-.14.07-.22.14-.29.22h-.07c-.07.07-.14.22-.22.29h0c-.07.14-.14.22-.22.36h0c-.07.14-.14.22-.22.36h0c-.07.29-.22.5-.22.72l-4.39,22.32-2.81-15.34Z"/>
    <path class="cls-1" d="m50.47,48.6l-4.82-3.17-.22-.14-.07-.14-.14-.14-.07-.14-2.3-9.22,1.73-9.43,5.54,21.89c.07.22.22.43.36.5Z"/>
  </g>
</svg>