<svg id="katman_1" data-name="katman 1" xmlns="http://www.w3.org/2000/svg"
  viewBox="0 0 127.08 84.73">
  <defs>
    <style>
      .cls-1, .cls-2 {
      fill: #008eb4;
      }

      .cls-3, .cls-4 {
      fill: #ffcf01;
      }

      .cls-5, .cls-6 {
      fill: #4cb2ad;
      }

      .cls-7 {
      fill: #3a2417;
      }

      .cls-7, .cls-6, .cls-8, .cls-4, .cls-2 {
      fill-rule: evenodd;
      }

      .cls-8 {
      fill: #fff;
      }
    </style>
  </defs>
  <path class="cls-2"
    d="m38.47,74.33s-6.64,4.56-20.79,4.56c0,0-13.19-.08-15.67-11.03s12.63-8.87,14.87-7.99c0,0-8.79-2.24-8.79,5.68s9.59,11.67,16.63,11.75,13.75-2.96,13.75-2.96h0Z" />
  <path class="cls-4"
    d="m26.3,47.47s-.63-.49-.37-.63c.27-.14.69.53,1.12.25.43-.29.63-.47.65.04.02.51.04.57.35,1.12s.63,2.02,1.47,3.33,2.02,2.37,2.94,2.47c.92.1,1.51,0,2.16.25.65.24,1.71,1.8,1.88.98.16-.82-.2-2.41.8-3.63,1-1.23,2.92-.53,2.84,1.1s-1.41,2.49-1.02,3.33c.39.84,1.92.65,2.51,1.1.59.45,2,2.02,2.67,2.63s.78.96,3.25,1.16c2.47.2,2.82.1,3.33-.06.51-.16.57-.47,1.06-.45.49.02,1.29.02.8.25-.49.22-.35.25.33.29.67.04,1.39.18,1.33.35-.06.16-.69.14-1.18.16-.49.02-.67.14-.61.27.06.12,1.82-.02,1.84.1.02.12-.45.37-.98.37s-.69-.25-.61,0,1.12-.08,1.18.22c.06.31-1.9-.06-1.67.1s.57.29.59.53c.02.25-.49-.14-.88-.22s-.82-.29-1.45-.39-2.41.29-3.74.22c-1.33-.06-3.02-.31-3.92-.92s-1.9-1.69-2.18-1.39c-.29.31-2.39,2.23-4.25,5.78-1.86,3.55-7.25,2.25-7.25,2.25,0,0-.69-.31-2.69-.31s-3.41.22-3.41.22c0,0-1.69,4.49-3.29,6.17-1.59,1.67-3.8-.49-4.04-2.7s.12-7.45,1.31-10.92,3.16-6.88,4.78-8.88,4.37-4.53,4.37-4.53h-.02Zm1.29,2.98l-2.31,11.49s2.45-1.12,3.12-2.04c.67-.92.92-1.98,1.86-1.14.94.84,2.96,2.9,3,2.63.04-.27.61-4.27.18-4.86-.43-.59-2.02-.88-3.51-1.74-1.49-.86-1.71-1.08-1.98-2.43-.27-1.35-.37-1.92-.37-1.92h.01Zm-3.18,14.25s.94-1.08,1.53-1.45c.59-.37,1.51-.71,2.23-.31.71.41,1.08.78,1.08.78,0,0-2.08,1.06-3.08,1.1s-1.76-.12-1.76-.12Z" />
  <path class="cls-3"
    d="m70.89,64.42c.02-.05.04-.13.05-.23.01-.1,0-.22-.01-.34-.04-.23-.13-.44-.27-.65-.09-.23-.27-.38-.53-.46-.23,0-.47.13-.74.38-.54.66-1.03,1.35-1.45,2.06s-.8,1.47-1.12,2.29c-.64,1.65-.93,2.81-.86,3.47.32-.28.69-.65,1.09-1.12.4-.47.88-1.06,1.41-1.77.51-.69.97-1.33,1.36-1.94.4-.61.75-1.17,1.07-1.68h0Zm23.76-5.27c-.02-.86-.85-1.59-2.49-2.17-1.61-.61-2.09-.36-4.59-.59-1.59,3-2.76,6.3-3.52,9.91-.83,3.74-1.12,6.95-.87,9.64.22,2.72,1.17,4.18,2.83,4.38-.42.38-1.04.52-1.87.42-.8-.08-1.67-.47-2.63-1.18-.86-.64-1.56-1.66-2.12-3.09-.39-1.45-.5-3.29-.31-5.53-.1.1-.19.21-.27.32-.08.11-.19.21-.31.29-1.13,1.4-2.1,2.3-2.91,2.71-.88.31-1.78.22-2.7-.27-.92-.51-1.49-1.09-1.71-1.75-.13-.48-.15-1.05-.05-1.72,0-.36.02-.7.07-1.03s.1-.65.17-.95c-.18.28-.38.57-.6.88-.22.3-.46.64-.71.99-.42.74-.89,1.44-1.42,2.12-.53.67-1.11,1.33-1.74,1.96-.38.28-.93.34-1.66.19-.75-.15-1.47-.44-2.16-.88-.66-.43-1.01-.9-1.06-1.41-.05-1.04.04-2.09.27-3.14.23-1.05.58-2.13,1.06-3.22.47-1.12,1.01-2.1,1.61-2.95s1.23-1.58,1.9-2.19c.83-.61,1.62-.81,2.35-.61.73.15,1.51.48,2.35.99.15.08.31.16.46.25s.31.17.46.25c.14-.2.28-.39.44-.55.16-.17.3-.35.44-.55.09-.15.2-.31.33-.46.13-.15.27-.31.41-.46.24-.28.68-.34,1.32-.19.62.18,1.18.47,1.7.88.48.41.66.81.53,1.22-1.44,3.02-2.3,5.33-2.56,6.9-.26,1.6-.17,2.44.26,2.52.69-.05,1.4-.65,2.13-1.79.39-.58.76-1.21,1.12-1.87s.72-1.36,1.09-2.1c.31-.74.58-1.4.81-2,.23-.6.4-1.11.5-1.54.3-.97.61-1.91.93-2.82.32-.91.65-1.82.99-2.71-4.97.03-8.9,1.03-11.8,3.01-.2.15-.57.11-1.11-.11-.24-.13-.48-.27-.72-.44-.24-.16-.47-.36-.7-.59-.51-.41-.84-.83-1-1.26-.17-.38-.04-.7.4-.95,2.39-.86,4.94-1.5,7.63-1.91,2.69-.41,5.53-.58,8.52-.53.44-.79.84-1.46,1.21-2.02.36-.56.73-1.02,1.09-1.37.33-.2.73-.22,1.17-.04.42.15.84.37,1.28.65.13.1.22.17.28.19.27.13.51.28.7.46.2.18.35.34.46.5.24.28.25.55.04.8-.42.38-.77.76-1.05,1.14.91.1,1.73.22,2.46.36.72.14,1.96.73,2.52,1.6.29.43.52.84.67,1.22.16.38.27.76.32,1.14.11.71-.1,1.07-.64,1.07v-.02Z" />
  <path class="cls-3"
    d="m90.45,62.25c-.14.2-.37.32-.68.34-.32.03-.65,0-.98-.09-.34-.09-.64-.22-.9-.4-.27-.18-.4-.37-.4-.57,0-.36.03-.73.1-1.12s.14-.76.23-1.11c.09-.34.18-.65.28-.93s.18-.5.24-.65c.13-.23.42-.35.87-.36s.9.06,1.36.21.85.36,1.17.61c.32.25.42.51.29.76-.06.15-.16.37-.3.67-.14.29-.28.6-.43.92s-.3.63-.45.93c-.15.31-.28.57-.38.8h-.02Zm3.28,3.98c.11-.18.27-.27.46-.29.19-.01.38.02.54.1.17.08.31.18.43.3.12.13.14.25.08.38-.22.58-.55,1.35-1,2.29-.44.94-.95,1.88-1.5,2.82-.56.94-1.15,1.79-1.78,2.55s-1.22,1.26-1.77,1.49c-.35.13-.76.17-1.25.11-.49-.05-.95-.17-1.41-.36-.45-.19-.84-.44-1.17-.76s-.51-.68-.55-1.09c-.05-.51-.04-1.19.04-2.04.08-.85.22-1.75.42-2.71.2-.95.44-1.89.72-2.82s.59-1.72.94-2.38c.11-.2.38-.3.82-.3s.88.08,1.32.23.83.36,1.15.61c.32.25.43.52.33.8-.97,2.29-1.59,4.07-1.87,5.36-.28,1.28-.31,2.12-.08,2.5.16.28.4.31.73.1.33-.22.72-.63,1.18-1.24.45-.61.96-1.4,1.51-2.36.55-.97,1.11-2.06,1.68-3.28h.03Z" />
  <path class="cls-3"
    d="m99.29,79.79c-.11.02-.26.03-.44.02-.19-.01-.42-.03-.7-.06-.53,0-1.29-.32-2.26-.95-.97-.61-1.73-1.58-2.3-2.9-.05-.13-.09-.27-.13-.42-.04-.15-.07-.3-.09-.46-.2-.94-.28-2.05-.24-3.32s.22-2.71.53-4.31c.29-1.6.67-3.21,1.15-4.82s1.04-3.23,1.69-4.86c.65-1.6,1.31-2.95,1.96-4.06.66-1.11,1.3-1.96,1.94-2.57.21-.13.41-.19.6-.19.22,0,.51.05.85.15.34.1.73.29,1.16.57l.27.11c.82.41,1.29.81,1.41,1.22.05.13,0,.28-.18.46-1.3,1.22-2.49,2.9-3.56,5.03-1.04,2.16-1.86,4.41-2.45,6.75-.65,2.34-1.02,4.6-1.1,6.79-.1,1.55-.03,2.92.22,4.12.06.2.14.46.23.78s.21.69.36,1.12c.36.86,1.16,1.31,2.4,1.33-.35.3-.79.46-1.32.46h0Z" />
  <path class="cls-1"
    d="m45.19,31.17c.32-.91.63-1.86.95-2.87.32-1,.6-1.92.85-2.74.25-.83.43-1.5.53-2.02s.08-.77-.07-.74c-1.31.94-2.6,2.09-3.84,3.47-1.25,1.38-2.49,3.05-3.74,5.03,1.03-.25,1.94-.36,2.75-.33s1.66.1,2.56.21h.01Zm-.97,3.73c-.1-.22-.46-.35-1.11-.39s-1.37,0-2.17.12c-.8.12-1.59.32-2.35.58-.77.26-1.34.56-1.71.89-.17.28-1.99,2.2-3.49,7.23-.32,1.07-.22,2.15-.18,3.14.05.99.28,1.84.69,2.56.16.25.21.44.14.58s-.19.23-.35.27c-.16.04-.34.04-.55,0-.21-.04-.37-.1-.51-.19-.58-.41-1.15-.98-1.7-1.71-.55-.73-1.56-2.16-1.4-3.78.16-1.62.69-3.53,1.6-5.74-.03,0-.25.17-.65.5-.41.33-.85.73-1.32,1.2-.48.47-.9.97-1.27,1.51-.37.54-.54,1.02-.5,1.46-.31.17-.69.11-1.14-.16-.45-.27-.87-.65-1.24-1.11-.38-.47-.65-.98-.83-1.55-.18-.56-.13-1.04.14-1.42.35-.5.95-1.06,1.81-1.69.86-.63,1.79-1.24,2.8-1.84,1-.59,1.99-1.12,2.95-1.59.96-.47,1.72-.8,2.27-.99.69-1.24,1.48-2.51,2.37-3.82s1.84-2.56,2.84-3.75c1-1.2,2.02-2.3,3.05-3.3,1.03-1,2.03-1.84,2.99-2.5.6-.41,1.32-.6,2.15-.58.83.03,1.59.19,2.29.5.7.3,1.29.71,1.76,1.22.47.51.66,1.05.57,1.63-.13.72-.32,1.58-.56,2.58s-.47,1.89-.68,2.66c-.51,1.79-1.06,3.7-1.62,5.73-.57,2.04-1.1,4.08-1.61,6.13-.5,2.05-.95,4.06-1.35,6.04-.39,1.98-.69,3.81-.88,5.49-.08.5-.39.83-.94.99s-1.14.21-1.76.12c-.62-.08-1.18-.28-1.69-.58-.5-.3-.71-.66-.62-1.07.39-2.56.93-5.11,1.6-7.65s1.4-5.11,2.19-7.69c0,0-.03-.03-.03-.03Z" />
  <path class="cls-1"
    d="m55.66,50.79c.3.69.76,1.25,1.35,1.67l-.71-.05c-.53,0-1.54-.33-3.05-1.26-1.29-.77-2.39-2.02-3.22-3.87-.06-.15-.1-.31-.15-.48-.05-.2-.1-.43-.13-.63-.29-1.32-.4-2.92-.32-4.77.09-1.86.39-3.96.91-6.3.48-2.36,1.11-4.73,1.89-7.11.79-2.38,1.7-4.77,2.75-7.18,1.05-2.35,2.1-4.33,3.15-5.95,1.02-1.58,2.01-2.79,2.96-3.64.21-.11.36-.14.46-.14.23,0,.57.05,1.06.19.41.12.93.35,1.57.73l.59.25c1.02.48,1.42.86,1.57,1.08-2.23,1.96-4.19,4.52-5.96,7.73-1.72,3.26-3.08,6.65-4.07,10.17-1.09,3.54-1.72,6.95-1.89,10.25-.18,2.36-.08,4.5.3,6.36l.36,1.2c.14.49.35,1.08.59,1.75h0Z" />
  <path class="cls-1"
    d="m64.14,37.36c.07-.11.09-.3.05-.58-.04-.27-.14-.53-.28-.76s-.33-.38-.55-.43-.47.08-.76.41c-.61.61-1.14,1.32-1.61,2.15s-.86,1.64-1.17,2.43c-.32.8-.56,1.53-.73,2.21-.17.67-.23,1.18-.18,1.51.3-.25.68-.65,1.16-1.22.48-.56.96-1.19,1.47-1.88.5-.69.99-1.37,1.46-2.06.47-.69.85-1.28,1.14-1.77h0Zm10.84-1.63c.07-.11.24-.16.5-.14.26.01.51.08.76.19s.45.25.61.43.2.36.11.56c-.44.91-.94,1.92-1.52,3.03-.57,1.11-1.2,2.21-1.87,3.28-.67,1.07-1.38,2.04-2.13,2.91s-1.52,1.48-2.32,1.84c-.43.19-.9.25-1.41.19-.51-.07-.99-.22-1.44-.45-.45-.23-.84-.52-1.18-.87-.34-.34-.55-.68-.64-1.01-.13-.44-.16-1.05-.1-1.82.06-.77.15-1.47.27-2.1-.31.39-.62.83-.96,1.34-.33.51-.7,1.05-1.09,1.63-.4.58-.82,1.16-1.26,1.73-.44.58-.92,1.11-1.42,1.61-.24.25-.64.34-1.21.29-.57-.05-1.15-.2-1.73-.43s-1.11-.54-1.58-.91-.7-.76-.71-1.18c-.07-1.04.03-2.16.3-3.34.27-1.18.65-2.33,1.13-3.45.48-1.11,1.05-2.15,1.71-3.12.66-.96,1.33-1.75,2.03-2.35.51-.41,1.01-.65,1.49-.7.48-.06.96,0,1.44.14.48.15.97.37,1.47.66s1.03.57,1.59.85c.28-.33.56-.68.82-1.05s.55-.74.86-1.09c.17-.25.5-.34.98-.29.48.06.95.21,1.42.45.46.25.85.54,1.16.89.31.34.38.67.22.97-.79,1.6-1.4,3.01-1.83,4.25s-.73,2.28-.88,3.14c-.16.85-.19,1.5-.11,1.94s.23.66.44.66c.6-.03,1.42-.77,2.44-2.23,1.02-1.46,2.23-3.6,3.61-6.44h.03,0Z" />
  <path class="cls-1"
    d="m93.76,36.74c.02-.06.04-.14.05-.25v-.37c-.04-.25-.14-.48-.29-.7-.1-.25-.29-.41-.58-.49-.24,0-.51.14-.8.41-.59.72-1.11,1.46-1.57,2.23-.46.77-.86,1.6-1.21,2.48-.7,1.79-1,3.04-.92,3.75.35-.3.74-.71,1.18-1.22.44-.51.95-1.15,1.53-1.92.55-.74,1.05-1.44,1.48-2.1.43-.66.81-1.27,1.16-1.82h-.03Zm27.43-4.95c-.02-.93-.92-1.72-2.69-2.35-1.75-.66-3.98-1.11-6.69-1.36-1.72,3.25-2.99,6.82-3.81,10.73-.9,4.04-1.21,7.52-.94,10.44.24,2.94,1.26,4.52,3.06,4.75-.45.41-1.13.56-2.03.45-.86-.08-1.81-.51-2.84-1.28-.93-.69-1.69-1.8-2.3-3.34-.42-1.57-.54-3.56-.33-5.98-.1.11-.2.23-.29.35-.09.12-.2.23-.34.31-1.23,1.51-2.28,2.49-3.15,2.93-.95.33-1.93.23-2.92-.29-1-.55-1.61-1.18-1.85-1.9-.14-.52-.16-1.14-.06-1.86,0-.38.03-.76.08-1.11.05-.36.11-.7.18-1.03-.2.3-.41.62-.65.95-.24.33-.49.69-.77,1.07-.45.8-.97,1.56-1.54,2.29-.57.73-1.2,1.44-1.88,2.12-.41.3-1.01.37-1.79.21-.82-.17-1.59-.48-2.34-.95-.71-.47-1.09-.98-1.15-1.53-.05-1.13.04-2.26.29-3.4s.63-2.3,1.15-3.49c.51-1.21,1.09-2.28,1.74-3.2.65-.92,1.33-1.71,2.05-2.37.9-.66,1.75-.88,2.54-.66.79.16,1.63.52,2.54,1.07.16.08.33.17.5.27s.33.19.5.27c.15-.22.31-.42.48-.6s.33-.38.48-.6c.1-.17.21-.33.36-.5.14-.17.29-.33.45-.5.26-.3.73-.37,1.43-.21.67.19,1.28.51,1.84.95.52.44.71.88.57,1.32-1.56,3.27-2.48,5.76-2.77,7.47-.28,1.73-.18,2.64.29,2.72.75-.06,1.52-.7,2.3-1.94.42-.63.82-1.31,1.22-2.02.39-.71.78-1.47,1.18-2.27.33-.8.62-1.52.87-2.17s.43-1.2.54-1.67c.32-1.05.66-2.06,1.01-3.05.35-.99.71-1.97,1.08-2.93-5.38.03-9.64,1.11-12.77,3.26-.22.17-.62.12-1.21-.12-.27-.14-.52-.29-.78-.47s-.51-.39-.76-.64c-.55-.44-.91-.89-1.08-1.36-.19-.41-.04-.76.43-1.03,2.59-.93,5.35-1.62,8.26-2.06,2.91-.44,5.99-.63,9.22-.58.48-.85.91-1.58,1.3-2.19.39-.6.79-1.1,1.18-1.49.36-.22.79-.23,1.27-.04.45.17.91.4,1.39.7.14.11.24.18.31.21.29.14.55.3.76.5.21.19.38.37.49.54.26.3.27.59.04.87-.45.41-.83.82-1.13,1.24.99.11,1.88.24,2.66.39.78.15,1.48.32,2.09.52.97.36,1.75,1,2.35,1.94.32.47.56.91.73,1.32.17.41.29.83.35,1.24.12.77-.11,1.16-.69,1.16v-.02h0Z" />
  <path class="cls-1"
    d="m118.08,36.91c.09-.19.24-.3.45-.31.21-.01.41.02.61.1s.36.19.51.33c.14.14.19.27.16.41-.21.63-.54,1.46-.99,2.48-.45,1.02-.97,2.04-1.56,3.05-.59,1.02-1.2,1.94-1.83,2.76-.63.83-1.25,1.36-1.85,1.61-.37.14-.82.18-1.35.12s-1.03-.19-1.52-.39c-.49-.21-.92-.48-1.29-.83-.37-.34-.59-.74-.66-1.18-.08-.55-.09-1.29-.02-2.21.07-.92.19-1.9.35-2.93s.37-2.05.64-3.05.58-1.86.92-2.58c.12-.22.41-.33.86-.33s.93.08,1.43.25.92.39,1.27.66c.35.27.47.56.36.87-.92,2.5-1.5,4.44-1.72,5.82-.23,1.38-.23,2.27-.02,2.68.17.3.43.34.79.1.36-.23.78-.68,1.25-1.34.48-.66.98-1.51,1.52-2.56.54-1.04,1.1-2.23,1.69-3.55v.02h0Z" />
  <path class="cls-1"
    d="m80.5,48.17c-.41.1-.88.12-1.42.06l-.36-.08c-.94-.21-1.71-.42-1.71-.42l-.65-.18c-.61-.23-1.14-.52-1.6-.86-.93-.52-1.5-1.11-1.69-1.77-.35-1.49-.28-3.27.22-5.36.24-.99.56-1.94.95-2.85.39-.91.86-1.77,1.4-2.6,1.06-1.62,2.23-2.6,3.52-2.93.33-.05.59-.03.79.08.16.03.32.08.48.14.16.07.33.14.49.23l.73.29.18-.29c.1-.14.18-.27.24-.39s.15-.25.28-.39c.12-.22.23-.36.35-.41.49-.19,1.09-.12,1.81.21.66.33,1.23.76,1.7,1.28.41.5.51.85.3,1.07-.53.52-.99,1.07-1.39,1.65s-.73,1.17-1,1.77c-.23.66-.39,1.23-.47,1.71-.08.48-.04.89.1,1.22-.16.17-.5.21-1.03.12-.41-.08-.9-.33-1.48-.74-.54-.36-.86-.83-.95-1.4-.04-.27-.05-.56-.02-.87.03-.3.09-.65.18-1.03.09-.38.19-.72.28-1.01s.2-.54.32-.76c-.59.3-1.18,1.1-1.77,2.39-.56,1.26-.99,2.65-1.27,4.17-.29,1.46-.31,2.74-.04,3.84.22,1.05.83,1.46,1.83,1.24.61-.17,1.19-.46,1.73-.89s1.08-.97,1.62-1.63c.5-.69,1.02-1.42,1.56-2.19.53-.77,1.05-1.59,1.56-2.48l1.32-2.1c.14-.08.27-.11.4-.08.1.06.21.1.32.14s.22.1.33.19c.29.14.48.27.57.41.14.11.19.23.15.37-.12.19-.23.4-.34.62-.1.22-.21.44-.33.66-.55,1.16-1.22,2.43-2.01,3.84-.41.69-.83,1.35-1.27,1.98-.43.63-.91,1.22-1.44,1.77-1.04,1.16-2.18,1.91-3.44,2.27h-.03Z" />
  <path class="cls-1"
    d="m79.65,46.9l.1-.17.31.08c.46.12.94.25,1.42.36-.1.17-.19.31-.28.46s-.18.3-.27.44c-.09.16-.15.3-.18.42-.04.12-.07.21-.11.27.17-.2.42-.42.77-.66.28-.22.6-.36.97-.42.34-.12.74-.13,1.2-.03.47.04.88.17,1.23.39.39.2.63.4.73.6.24.56.26,1.13.06,1.69-.2.58-.57,1.13-1.12,1.63-.53.48-1.2.82-2.01,1.03-.54.1-1.08.12-1.63.06-.32-.04-.6-.1-.84-.17s-.49-.16-.72-.26c-.45-.18-.75-.39-.9-.63-.14-.3,0-.58.4-.84.06.36.38.57.97.63.59.1,1.1.09,1.53-.03.24-.04.48-.13.71-.26.23-.13.47-.31.7-.53.33-.28.59-.61.78-1,.17-.34.21-.63.13-.87-.03-.2-.2-.35-.5-.45-.25-.04-.54,0-.85.09-.3.1-.55.26-.76.48-.12.1-.22.2-.31.29-.09.09-.17.16-.25.2-.05.06-.07.07-.09.09-.38.03-.77-.07-1.18-.27-.4-.14-.69-.32-.89-.54.03-.1.08-.24.14-.41.06-.17.14-.37.24-.59.09-.16.17-.33.25-.51s.16-.37.25-.57Z" />
  <path class="cls-7"
    d="m75.99,26.27s6.36-10.98-4.8-14.95c0,0,5.61-.32,8.71-2.86,0,0-8.74-6.08-14.58-.71,0,0,1.31-6.09-10.77-7.75,0,0,1.38,3.87,3.37,6.14,0,0-8.93-2.46-14.7,7.36,0,0,5.89-.04,9.67-1.38,0,0-5.36,3.14-6.17,8.09,0,0,8.08,2.42,16.33-6.22,0,0-4.14,9.37,3.21,15.98,0,0,7.15-7.53,2.65-14.72,0,0,2.57,1.92,4.15,5.28s2.94,5.76,2.94,5.76v-.02h-.01Z" />
  <path class="cls-8"
    d="m78.33,8.26s-.16-.09-.44-.24c-3.2,1.24-7.52,1.93-11.01,1.52-.5.39-.64.69-.64.69,0,0,7.86,1.07,12.09-1.96h0Z" />
  <path class="cls-6"
    d="m68.99,8.51c-.98.31-1.63.67-2.05.98,2.66.32,5.32-.03,7.41-.5,1.56-.35,2.8-.77,3.45-1.01-1.83-.94-8.1-3.64-12.56.72,0,0,3.78-1.95,8.42-.72,0,0-2.39-.19-4.67.53Z" />
  <path class="cls-6"
    d="m74.85,17.9c-1.24-2.25-3.58-3.92-5.5-4.98,2.74,2.27,4.76,5.13,6.13,8.29.3.69.54,1.32.71,1.8.56-1.59.99-4.23-.62-7.1-2.59-4.62-7.9-4.86-7.9-4.86,0,0,2.36.92,4.2,2.43,1.85,1.52,2.97,4.41,2.97,4.41h.01Z" />
  <path class="cls-8"
    d="m75.47,24.56s.37-.55.7-1.48c-1.41-4.15-3.7-7.53-7.36-10.46-1.43-.75-2.51-1.12-2.51-1.12,0,0,1.69.84,4.98,4.77,3.31,3.95,4.18,8.29,4.18,8.29,0,0,.01,0,.01,0Z" />
  <path class="cls-6"
    d="m64.68,8.37c-.16-4.75-4.93-6.3-7.29-6.78.64,2.62,2.86,5.08,5.03,6.85.35.2.56.29.56.29,0,0,.29-.34-.63-2.23-.91-1.89-2.81-3-2.81-3,4.6,1.97,5.13,4.87,5.13,4.87h.01Z" />
  <path class="cls-8"
    d="m56.09,1.38c1.6,3.81,4.52,5.96,5.99,6.85-3.42-2.86-4.45-5.39-4.76-6.66-.74-.15-1.23-.19-1.23-.19Z" />
  <path class="cls-6"
    d="m61.92,9.12s-1.57-1.13-3.78-1.85c-2.43-.18-5.37.05-7.33.96-1.41.65-3.55,1.94-4.32,3.35l3.06.42c1.19-.26,2.55-.61,4.02-1.06,5.29-1.65,7.91-.73,7.91-.73,0,0-.3-.79-3.97-1.16-3.67-.38-8.28.89-8.28.89,4.79-3.47,12.7-.81,12.7-.81h0Z" />
  <path class="cls-8"
    d="m44.49,12.75s1.9-.09,4.89-.73l-2.98-.4c.7-1.45,3.35-2.97,4.38-3.45,1.76-.81,3.96-1.01,5.72-1.01.54,0,1.03.02,1.46.05-1.74-.54-3.85-.81-5.9-.09-4.79,1.66-7.56,5.65-7.56,5.65v-.02h0Z" />
  <path class="cls-8"
    d="m63.82,11.57s-.2-.08-.71-.09c-1.4,1.58-6.93,7.26-13.81,7.01,0,0,1.17-3.69,5.08-5.81,2.12-1.16,4.26-1.71,5.76-1.97-1.7.03-4.18.35-6.55,1.68-4.21,2.34-5.83,7.11-5.83,7.11,11.07,1.02,16.06-7.93,16.06-7.93Z" />
  <path class="cls-5"
    d="m60.14,10.71c-1.5.26-3.64.81-5.76,1.97-3.91,2.13-5.08,5.81-5.08,5.81,6.88.25,12.42-5.44,13.81-7.01-.85,0-2.54.22-5.51,1.46-4.73,1.98-7.16,4.6-7.16,4.6,5-6.63,11.87-6.7,11.87-6.7,0,0-.86-.15-2.17-.13Z" />
  <path class="cls-6"
    d="m66.65,24.97c1.6-5.31-.34-10.2-1.3-12.12-.11.29-.24.65-.38,1.07-1.4,4.3-1.95,9.38,1.07,13.24,1.67-2.1,2.5-4.37,2.92-6.12.21-.89.32-1.64.37-2.17-.59-3.86-2.52-5.94-2.52-5.94,0,0,.87.92,1.24,4.73.38,3.8-1.4,7.31-1.4,7.31Z" />
  <path class="cls-8"
    d="m69.49,21.24c0-.71-.04-1.37-.12-1.99-.31,2.79-1.64,5.9-3.34,8.02-3.13-3.81-2.52-9.09-1.14-13.36.15-.45.29-.83.41-1.13-.25-.51-.43-.79-.43-.79,0,0-1.19,2.18-2.09,6.76-.9,4.58,3.06,9.94,3.06,9.94,0,0,3.62-3.37,3.64-7.45h0Z" />
  <path class="cls-4"
    d="m107.59,24.24l-1.71-2.08,1.34-11.81s-4.03-3.98-4.22-5.51-.05-2.18-.05-2.18c0,0,3.52-.51,5.51,2.27,1.99,2.78,9.45,12.88,9.45,12.88l5.19.46,1.25,1.44-7.46,1.99-6.11-6.53-3.2,9.08h.01Z" />
  <polygon class="cls-4" points="113.47 9.74 116.11 13.26 121.44 12.75 118.99 10.2 113.47 9.74" />
  <path class="cls-3"
    d="m122.44,21.73c4.47,8.01,5.2,18.47,4.3,28.26-1.67,18.17-13.27,34.58-33.57,34.2-5.18-.1-9.13-1.7-11.83-4.68l1.99-2.21c.95,2.87,5.25,5.12,9.87,5.2,19.02.36,29.65-14.74,31.28-32.44.89-9.69-.7-19.94-4.92-27.5l2.88-.83h0Z" />
  <path class="cls-1"
    d="m56.03,82.17c.25-.35.51-.54.77-.58.25-.04.46.04.63.24.17.18.23.45.17.81-.05.26-.14.46-.26.59s-.27.21-.43.25c-.35.03-.64-.08-.87-.33-.24-.27-.25-.6-.02-.96v-.02h.01Z" />
  <path class="cls-1"
    d="m62.8,78.68s.08-.05.15-.02c.07.03.14.06.21.11s.12.1.17.17c.04.06.05.11.03.14-.17.28-.38.65-.64,1.08-.26.44-.55.87-.86,1.31-.32.44-.66.83-1.02,1.19-.36.35-.74.58-1.13.69-.19.05-.42.05-.69,0-.27-.06-.53-.15-.77-.27-.25-.12-.46-.27-.65-.44-.18-.17-.28-.35-.29-.53-.03-.27-.01-.59.06-.95s.17-.72.31-1.1c.14-.37.3-.74.49-1.11.19-.36.39-.69.62-.99.22-.29.45-.54.69-.74.24-.2.47-.33.69-.38.14-.02.26,0,.36.05s.26.13.46.24c.05-.08.13-.2.24-.34.1-.14.17-.22.21-.23.13-.06.27-.06.44.02.17.07.32.17.45.29s.23.25.3.38.07.23,0,.29c-.2.19-.39.4-.56.63-.17.23-.32.46-.44.7-.12.23-.21.45-.26.64-.05.2-.06.35-.03.47-.04.06-.12.09-.25.08-.12-.01-.25-.05-.37-.13-.13-.07-.24-.17-.33-.29-.09-.12-.14-.27-.14-.43,0-.09.01-.21.04-.33.03-.13.06-.26.11-.39s.1-.26.16-.38c.06-.12.11-.22.15-.31-.15.06-.31.23-.49.49-.18.26-.35.57-.51.92s-.3.72-.42,1.11c-.12.38-.19.73-.22,1.04s0,.55.08.73c.08.17.25.23.51.17.26-.06.52-.21.78-.44s.52-.51.78-.84c.26-.33.53-.69.8-1.08.27-.4.54-.79.83-1.19l-.05-.03h0Z" />
  <path class="cls-1"
    d="m74.1,76.1c.31-.16.59-.08.85.24.2.2.32.37.36.52.05.15.02.33-.09.55-.07.15-.16.35-.27.62-.11.26-.23.58-.36.95-.15.37-.28.75-.41,1.13-.13.38-.25.79-.38,1.21-.26.84-.4,1.56-.41,2.17-.02.61.16.95.55,1.01-.07.2-.28.27-.62.21-.34-.05-.64-.24-.92-.55-.28-.26-.43-.65-.43-1.17.03-.37.09-.77.19-1.19.1-.43.22-.88.38-1.35.31-.94.56-1.64.76-2.1-.21.21-.43.45-.66.73-.23.27-.45.6-.67.96-.23.36-.44.71-.62,1.07-.18.35-.35.71-.5,1.08-.03.08-.13.11-.3.08-.17,0-.34-.06-.51-.17-.16-.09-.24-.23-.25-.39,0-.2.05-.52.14-.96.05-.22.1-.44.16-.65.05-.21.1-.42.16-.63.05-.21.1-.38.14-.51.04-.13.07-.22.09-.28-.15.15-.32.37-.51.66s-.41.66-.66,1.1c-.24.43-.47.86-.7,1.28-.22.42-.43.84-.63,1.26-.06.12-.22.16-.47.13-.25-.04-.48-.13-.7-.25-.2-.12-.29-.26-.27-.44.02-.05.05-.12.09-.21.04-.09.08-.19.13-.31.12-.27.23-.57.35-.89.12-.32.24-.68.38-1.07.25-.8.37-1.49.36-2.07-.04-.32-.18-.49-.41-.52-.25-.05-.54-.05-.87.02-.39.05-.7.14-.93.25.67.2,1.01.66,1.01,1.39s-.21,1.53-.62,2.45c-.39.91-.84,1.47-1.34,1.69-.46.2-1,.22-1.6.06-.58-.17-.95-.55-1.11-1.15-.05-.53.03-1.1.24-1.72.2-.63.44-1.16.73-1.6.05-.05.12-.09.21-.12.08-.03.18-.02.3.02.23.06.43.17.6.33.16.16.2.31.13.44-.06.12-.14.25-.22.39s-.17.31-.25.5c-.09.19-.17.38-.24.57-.06.19-.12.38-.17.58-.08.41-.08.71,0,.9.05.09.14.14.25.13.09-.01.24-.12.44-.32.5-.6.85-1.27,1.07-2.02.21-.75.25-1.31.11-1.69-.13-.41-.47-.42-1.03-.03-.16.09-.32.1-.49.03-.08-.04-.16-.09-.23-.14s-.14-.12-.21-.21c-.14-.19-.22-.35-.25-.49-.03-.15.02-.25.14-.32.03-.02.06-.04.09-.05s.07-.03.13-.05c.53-.25,1.27-.49,2.24-.71.98-.21,1.84-.09,2.59.36.57.46.85.97.85,1.53-.02.27-.05.54-.09.8-.04.26-.11.5-.21.72.05-.08.11-.18.17-.28.06-.11.12-.22.2-.33.16-.27.32-.55.5-.83.17-.28.36-.56.55-.85.18-.31.35-.56.51-.75s.29-.34.41-.45c.14-.08.3-.09.49-.02.19.04.36.14.52.3.16.15.23.3.22.44,0,.05-.02.14-.06.27-.03.07-.06.15-.09.24-.03.08-.06.17-.1.27-.03.08-.06.17-.09.27-.03.09-.06.19-.09.28-.06.16-.11.31-.14.46-.03.08-.05.14-.05.16v.05s.12-.14.25-.36c.15-.21.31-.44.49-.68s.37-.51.58-.79c.22-.27.42-.51.61-.7.18-.19.35-.34.5-.45v-.04h.01Z" />
  <path class="cls-3"
    d="m61.79,55.59c-.87.21-1.47.39-1.82.56l-3.18.79c-1.92.51-4.7,1.39-7.94,3.29-.37,0-.75.04-1.16.11-.61.13-1.19-.07-1.75-.6-.27-.24-.48-.49-.62-.74s-.26-.52-.36-.81c-.17-.57.04-1.02.63-1.33,1.57-.57,3.11-1.14,4.62-1.73,2.12-.72,4.02-1.36,5.7-1.91s3.17-1,4.47-1.36,2.49-.65,3.57-.88c1.08-.23,7.35-2.25,8.24-2.31,1.85-.11,3.13.1,3.87.65.77.62,1.27,1.28,1.48,1.98.17.84.2,1.46.07,1.87-.18.42-.48.44-.89.08-1.24-.71-8.57,1.08-11.44,1.63-1.46.27-2.64.5-3.53.72h.04Z" />
  <path class="cls-4"
    d="m60.22,56.92s-8.15,20.75-32.24,22.79S0,71.37,0,71.37c0,0,8.06,17.6,35.39,12.04,22.22-4.52,29.74-25.57,29-27.05s-3.71-.56-3.71-.56l-.46,1.11h0Z" />
  <path class="cls-2"
    d="m24.49,74.97s12.87,1.62,22.69-7.16c0,0-1.04,4.87-9.88,7.52-6.99,2.09-12.82-.36-12.82-.36h0Z" />
</svg>