<?xml version="1.0" encoding="utf-8"?>
<!-- Generator: Adobe Illustrator 27.2.0, SVG Export Plug-In . SVG Version: 6.00 Build 0)  -->
<svg version="1.1" id="katman_1" xmlns="http://www.w3.org/2000/svg" xmlns:xlink="http://www.w3.org/1999/xlink" x="0px" y="0px"
	 viewBox="0 0 127.1 84.7" style="enable-background:new 0 0 127.1 84.7;" xml:space="preserve">
<style type="text/css">
	.st0{fill-rule:evenodd;clip-rule:evenodd;fill:#FFFFFF;}
	.st1{fill-rule:evenodd;clip-rule:evenodd;fill:#FFCF01;}
	.st2{fill:#FFCF01;}
	.st3{fill:#FFFFFF;}
	.st4{fill-rule:evenodd;clip-rule:evenodd;fill:#3A2417;}
	.st5{fill-rule:evenodd;clip-rule:evenodd;fill:#4CB2AD;}
	.st6{fill:#4CB2AD;}
</style>
<path class="st0" d="M38.5,74.3c0,0-6.6,4.6-20.8,4.6c0,0-13.2-0.1-15.7-11s12.6-8.9,14.9-8c0,0-8.8-2.2-8.8,5.7s9.6,11.7,16.6,11.8
	S38.5,74.3,38.5,74.3L38.5,74.3L38.5,74.3z"/>
<path class="st1" d="M26.3,47.5c0,0-0.6-0.5-0.4-0.6c0.3-0.1,0.7,0.5,1.1,0.2c0.4-0.3,0.6-0.5,0.6,0c0,0.5,0,0.6,0.4,1.1
	s0.6,2,1.5,3.3s2,2.4,2.9,2.5c0.9,0.1,1.5,0,2.2,0.2c0.7,0.2,1.7,1.8,1.9,1c0.2-0.8-0.2-2.4,0.8-3.6c1-1.2,2.9-0.5,2.8,1.1
	s-1.4,2.5-1,3.3s1.9,0.7,2.5,1.1c0.6,0.5,2,2,2.7,2.6s0.8,1,3.2,1.2s2.8,0.1,3.3-0.1c0.5-0.2,0.6-0.5,1.1-0.5s1.3,0,0.8,0.2
	c-0.5,0.2-0.3,0.2,0.3,0.3c0.7,0,1.4,0.2,1.3,0.3c-0.1,0.2-0.7,0.1-1.2,0.2s-0.7,0.1-0.6,0.3c0.1,0.1,1.8,0,1.8,0.1s-0.5,0.4-1,0.4
	s-0.7-0.2-0.6,0s1.1-0.1,1.2,0.2c0.1,0.3-1.9-0.1-1.7,0.1s0.6,0.3,0.6,0.5c0,0.2-0.5-0.1-0.9-0.2s-0.8-0.3-1.5-0.4s-2.4,0.3-3.7,0.2
	c-1.3-0.1-3-0.3-3.9-0.9s-1.9-1.7-2.2-1.4c-0.3,0.3-2.4,2.2-4.2,5.8s-7.2,2.2-7.2,2.2s-0.7-0.3-2.7-0.3s-3.4,0.2-3.4,0.2
	s-1.7,4.5-3.3,6.2c-1.6,1.7-3.8-0.5-4-2.7s0.1-7.4,1.3-10.9S20.3,54,22,52S26.3,47.5,26.3,47.5L26.3,47.5L26.3,47.5z M27.6,50.4
	l-2.3,11.5c0,0,2.5-1.1,3.1-2c0.7-0.9,0.9-2,1.9-1.1s3,2.9,3,2.6s0.6-4.3,0.2-4.9s-2-0.9-3.5-1.7s-1.7-1.1-2-2.4
	C27.7,51,27.6,50.4,27.6,50.4L27.6,50.4L27.6,50.4L27.6,50.4z M24.4,64.7c0,0,0.9-1.1,1.5-1.5s1.5-0.7,2.2-0.3
	c0.7,0.4,1.1,0.8,1.1,0.8s-2.1,1.1-3.1,1.1S24.4,64.7,24.4,64.7z"/>
<path class="st2" d="M70.9,64.4c0-0.1,0-0.1,0.1-0.2c0-0.1,0-0.2,0-0.3c0-0.2-0.1-0.4-0.3-0.7c-0.1-0.2-0.3-0.4-0.5-0.5
	c-0.2,0-0.5,0.1-0.7,0.4c-0.5,0.7-1,1.3-1.4,2.1s-0.8,1.5-1.1,2.3c-0.6,1.7-0.9,2.8-0.9,3.5c0.3-0.3,0.7-0.7,1.1-1.1
	c0.4-0.5,0.9-1.1,1.4-1.8c0.5-0.7,1-1.3,1.4-1.9C70.2,65.5,70.6,64.9,70.9,64.4L70.9,64.4L70.9,64.4z M94.7,59.1
	c0-0.9-0.8-1.6-2.5-2.2c-1.6-0.6-2.1-0.4-4.6-0.6c-1.6,3-2.8,6.3-3.5,9.9c-0.8,3.7-1.1,6.9-0.9,9.6c0.2,2.7,1.2,4.2,2.8,4.4
	c-0.4,0.4-1,0.5-1.9,0.4c-0.8-0.1-1.7-0.5-2.6-1.2c-0.9-0.6-1.6-1.7-2.1-3.1c-0.4-1.4-0.5-3.3-0.3-5.5c-0.1,0.1-0.2,0.2-0.3,0.3
	c-0.1,0.1-0.2,0.2-0.3,0.3c-1.1,1.4-2.1,2.3-2.9,2.7c-0.9,0.3-1.8,0.2-2.7-0.3c-0.9-0.5-1.5-1.1-1.7-1.8c-0.1-0.5-0.2-1.1-0.1-1.7
	c0-0.4,0-0.7,0.1-1s0.1-0.7,0.2-0.9c-0.2,0.3-0.4,0.6-0.6,0.9c-0.2,0.3-0.5,0.6-0.7,1c-0.4,0.7-0.9,1.4-1.4,2.1
	c-0.5,0.7-1.1,1.3-1.7,2c-0.4,0.3-0.9,0.3-1.7,0.2c-0.8-0.2-1.5-0.4-2.2-0.9c-0.7-0.4-1-0.9-1.1-1.4c0-1,0-2.1,0.3-3.1
	s0.6-2.1,1.1-3.2c0.5-1.1,1-2.1,1.6-3s1.2-1.6,1.9-2.2c0.8-0.6,1.6-0.8,2.3-0.6c0.7,0.2,1.5,0.5,2.3,1c0.2,0.1,0.3,0.2,0.5,0.2
	s0.3,0.2,0.5,0.2c0.1-0.2,0.3-0.4,0.4-0.5c0.2-0.2,0.3-0.3,0.4-0.5c0.1-0.2,0.2-0.3,0.3-0.5c0.1-0.2,0.3-0.3,0.4-0.5
	c0.2-0.3,0.7-0.3,1.3-0.2c0.6,0.2,1.2,0.5,1.7,0.9c0.5,0.4,0.7,0.8,0.5,1.2c-1.4,3-2.3,5.3-2.6,6.9c-0.3,1.6-0.2,2.4,0.3,2.5
	c0.7-0.1,1.4-0.7,2.1-1.8c0.4-0.6,0.8-1.2,1.1-1.9s0.7-1.4,1.1-2.1c0.3-0.7,0.6-1.4,0.8-2c0.2-0.6,0.4-1.1,0.5-1.5
	c0.3-1,0.6-1.9,0.9-2.8s0.7-1.8,1-2.7c-5,0-8.9,1-11.8,3c-0.2,0.2-0.6,0.1-1.1-0.1c-0.2-0.1-0.5-0.3-0.7-0.4
	c-0.2-0.2-0.5-0.4-0.7-0.6c-0.5-0.4-0.8-0.8-1-1.3c-0.2-0.4,0-0.7,0.4-1c2.4-0.9,4.9-1.5,7.6-1.9c2.7-0.4,5.5-0.6,8.5-0.5
	c0.4-0.8,0.8-1.5,1.2-2c0.4-0.6,0.7-1,1.1-1.4c0.3-0.2,0.7-0.2,1.2,0c0.4,0.2,0.8,0.4,1.3,0.7c0.1,0.1,0.2,0.2,0.3,0.2
	c0.3,0.1,0.5,0.3,0.7,0.5c0.2,0.2,0.3,0.3,0.5,0.5c0.2,0.3,0.2,0.5,0,0.8c-0.4,0.4-0.8,0.8-1.1,1.1c0.9,0.1,1.7,0.2,2.5,0.4
	c0.7,0.1,2,0.7,2.5,1.6c0.3,0.4,0.5,0.8,0.7,1.2c0.2,0.4,0.3,0.8,0.3,1.1C95.4,58.8,95.2,59.2,94.7,59.1
	C94.6,59.2,94.6,59.1,94.7,59.1z"/>
<path class="st2" d="M90.4,62.2c-0.1,0.2-0.4,0.3-0.7,0.3c-0.3,0-0.7,0-1-0.1c-0.3-0.1-0.6-0.2-0.9-0.4c-0.3-0.2-0.4-0.4-0.4-0.6
	c0-0.4,0-0.7,0.1-1.1s0.1-0.8,0.2-1.1c0.1-0.3,0.2-0.7,0.3-0.9s0.2-0.5,0.2-0.7c0.1-0.2,0.4-0.3,0.9-0.4s0.9,0.1,1.4,0.2
	s0.8,0.4,1.2,0.6s0.4,0.5,0.3,0.8c-0.1,0.2-0.2,0.4-0.3,0.7c-0.1,0.3-0.3,0.6-0.4,0.9s-0.3,0.6-0.4,0.9C90.7,61.8,90.6,62,90.4,62.2
	L90.4,62.2L90.4,62.2z M93.7,66.2c0.1-0.2,0.3-0.3,0.5-0.3c0.2,0,0.4,0,0.5,0.1c0.2,0.1,0.3,0.2,0.4,0.3c0.1,0.1,0.1,0.2,0.1,0.4
	c-0.2,0.6-0.6,1.3-1,2.3c-0.4,0.9-0.9,1.9-1.5,2.8c-0.6,0.9-1.2,1.8-1.8,2.6s-1.2,1.3-1.8,1.5C88.8,76,88.4,76,87.9,76
	c-0.5-0.1-0.9-0.2-1.4-0.4c-0.4-0.2-0.8-0.4-1.2-0.8s-0.5-0.7-0.6-1.1c-0.1-0.5,0-1.2,0-2s0.2-1.8,0.4-2.7c0.2-0.9,0.4-1.9,0.7-2.8
	s0.6-1.7,0.9-2.4c0.1-0.2,0.4-0.3,0.8-0.3s0.9,0.1,1.3,0.2s0.8,0.4,1.2,0.6s0.4,0.5,0.3,0.8c-1,2.3-1.6,4.1-1.9,5.4
	c-0.3,1.3-0.3,2.1-0.1,2.5c0.2,0.3,0.4,0.3,0.7,0.1c0.3-0.2,0.7-0.6,1.2-1.2c0.4-0.6,1-1.4,1.5-2.4C92.6,68.5,93.1,67.5,93.7,66.2
	L93.7,66.2L93.7,66.2L93.7,66.2z"/>
<path class="st2" d="M99.3,79.8c-0.1,0-0.3,0-0.4,0c-0.2,0-0.4,0-0.7-0.1c-0.5,0-1.3-0.3-2.3-0.9c-1-0.6-1.7-1.6-2.3-2.9
	c-0.1-0.1-0.1-0.3-0.1-0.4s-0.1-0.3-0.1-0.5c-0.2-0.9-0.3-2.1-0.2-3.3s0.2-2.7,0.5-4.3c0.3-1.6,0.7-3.2,1.2-4.8s1-3.2,1.7-4.9
	c0.7-1.6,1.3-3,2-4.1c0.7-1.1,1.3-2,1.9-2.6c0.2-0.1,0.4-0.2,0.6-0.2c0.2,0,0.5,0,0.8,0.2c0.3,0.1,0.7,0.3,1.2,0.6l0.3,0.1
	c0.8,0.4,1.3,0.8,1.4,1.2c0.1,0.1,0,0.3-0.2,0.5c-1.3,1.2-2.5,2.9-3.6,5c-1,2.2-1.9,4.4-2.4,6.8c-0.7,2.3-1,4.6-1.1,6.8
	c-0.1,1.6,0,2.9,0.2,4.1c0.1,0.2,0.1,0.5,0.2,0.8s0.2,0.7,0.4,1.1c0.4,0.9,1.2,1.3,2.4,1.3C100.3,79.6,99.8,79.8,99.3,79.8
	L99.3,79.8L99.3,79.8z"/>
<path class="st3" d="M45.2,30.9c0.3-0.9,0.6-1.8,1-2.8c0.3-1,0.6-1.9,0.8-2.6c0.2-0.8,0.4-1.4,0.5-1.9s0.1-0.7-0.1-0.7
	c-1.3,0.9-2.6,2-3.8,3.3c-1.2,1.3-2.5,2.9-3.7,4.8c1-0.2,1.9-0.4,2.8-0.3S44.3,30.8,45.2,30.9L45.2,30.9L45.2,30.9z M44.2,34.9
	c-0.1-0.2-0.5-0.3-1.1-0.4s-1.4,0-2.2,0.1c-0.8,0.1-1.6,0.3-2.3,0.6c-0.8,0.3-1.3,0.6-1.7,0.9c-0.2,0.3-2,2.2-3.5,7.2
	c-0.3,1.1-0.2,2.2-0.2,3.1c0,1,0.3,1.8,0.7,2.6c0.2,0.2,0.2,0.4,0.1,0.6s-0.2,0.2-0.3,0.3s-0.3,0-0.5,0s-0.4-0.1-0.5-0.2
	c-0.6-0.4-1.1-1-1.7-1.7c-0.5-0.7-1.6-2.2-1.4-3.8s0.7-3.5,1.6-5.7c0,0-0.2,0.2-0.6,0.5c-0.4,0.3-0.9,0.7-1.3,1.2
	c-0.5,0.5-0.9,1-1.3,1.5c-0.4,0.5-0.5,1-0.5,1.5c-0.3,0.2-0.7,0.1-1.1-0.2c-0.5-0.3-0.9-0.7-1.2-1.1c-0.4-0.5-0.6-1-0.8-1.5
	c-0.2-0.6-0.1-1,0.1-1.4c0.4-0.5,1-1.1,1.8-1.7c0.9-0.6,1.8-1.2,2.8-1.8c1-0.6,2-1.1,3-1.6c1-0.5,1.7-0.8,2.3-1
	c0.7-1.2,1.5-2.5,2.4-3.8s1.8-2.6,2.8-3.8c1-1.2,2-2.3,3-3.3s2-1.8,3-2.5c0.6-0.4,1.3-0.6,2.2-0.6c0.8,0,1.6,0.2,2.3,0.5
	c0.7,0.3,1.3,0.7,1.8,1.2c0.5,0.5,0.7,1,0.6,1.6c-0.1,0.7-0.3,1.6-0.6,2.6s-0.5,1.9-0.7,2.7c-0.5,1.8-1.1,3.7-1.6,5.7
	c-0.6,2-1.1,4.1-1.6,6.1c-0.5,2-1,4.1-1.3,6c-0.4,2-0.7,3.8-0.9,5.5c-0.1,0.5-0.4,0.8-0.9,1s-1.1,0.2-1.8,0.1
	c-0.6-0.1-1.2-0.3-1.7-0.6c-0.5-0.3-0.7-0.7-0.6-1.1c0.4-2.6,0.9-5.1,1.6-7.7S43.5,37.5,44.2,34.9C44.2,34.9,44.2,34.9,44.2,34.9z"
	/>
<path class="st3" d="M55.1,51.1c0.3,0.7,0.8,1.2,1.3,1.7l-0.7,0c-0.5,0-1.5-0.3-3-1.3c-1.3-0.8-2.4-2-3.2-3.9
	c-0.1-0.2-0.1-0.3-0.2-0.5c0-0.2-0.1-0.4-0.1-0.6c-0.3-1.3-0.4-2.9-0.3-4.8c0.1-1.9,0.4-4,0.9-6.3c0.5-2.4,1.1-4.7,1.9-7.1
	c0.8-2.4,1.7-4.8,2.8-7.2c1-2.4,2.1-4.3,3.2-5.9c1-1.6,2-2.8,3-3.6c0.2-0.1,0.4-0.1,0.5-0.1c0.2,0,0.6,0.1,1.1,0.2
	c0.4,0.1,0.9,0.4,1.6,0.7l0.6,0.2c1,0.5,1.4,0.9,1.6,1.1c-2.2,2-4.2,4.5-6,7.7c-1.7,3.3-3.1,6.6-4.1,10.2c-1.1,3.5-1.7,7-1.9,10.3
	c-0.2,2.4-0.1,4.5,0.3,6.4l0.4,1.2C54.6,49.8,54.9,50.4,55.1,51.1L55.1,51.1L55.1,51.1z"/>
<path class="st3" d="M64.1,37.4c0.1-0.1,0.1-0.3,0.1-0.6c0-0.3-0.1-0.5-0.3-0.8s-0.3-0.4-0.5-0.4s-0.5,0.1-0.8,0.4
	c-0.6,0.6-1.1,1.3-1.6,2.2s-0.9,1.6-1.2,2.4c-0.3,0.8-0.6,1.5-0.7,2.2c-0.2,0.7-0.2,1.2-0.2,1.5c0.3-0.2,0.7-0.7,1.2-1.2
	c0.5-0.6,1-1.2,1.5-1.9c0.5-0.7,1-1.4,1.5-2.1C63.5,38.4,63.9,37.9,64.1,37.4L64.1,37.4L64.1,37.4z M75,35.7
	c0.1-0.1,0.2-0.2,0.5-0.1c0.3,0,0.5,0.1,0.8,0.2s0.4,0.2,0.6,0.4s0.2,0.4,0.1,0.6c-0.4,0.9-0.9,1.9-1.5,3c-0.6,1.1-1.2,2.2-1.9,3.3
	c-0.7,1.1-1.4,2-2.1,2.9s-1.5,1.5-2.3,1.8c-0.4,0.2-0.9,0.2-1.4,0.2c-0.5-0.1-1-0.2-1.4-0.5c-0.4-0.2-0.8-0.5-1.2-0.9
	c-0.3-0.3-0.6-0.7-0.6-1c-0.1-0.4-0.2-1-0.1-1.8c0.1-0.8,0.2-1.5,0.3-2.1c-0.3,0.4-0.6,0.8-1,1.3c-0.3,0.5-0.7,1-1.1,1.6
	c-0.4,0.6-0.8,1.2-1.3,1.7c-0.4,0.6-0.9,1.1-1.4,1.6c-0.2,0.2-0.6,0.3-1.2,0.3s-1.2-0.2-1.7-0.4s-1.1-0.5-1.6-0.9s-0.7-0.8-0.7-1.2
	c-0.1-1,0-2.2,0.3-3.3s0.7-2.3,1.1-3.5c0.5-1.1,1-2.2,1.7-3.1c0.7-1,1.3-1.8,2-2.3c0.5-0.4,1-0.7,1.5-0.7c0.5-0.1,1,0,1.4,0.1
	c0.5,0.2,1,0.4,1.5,0.7c0.5,0.3,1,0.6,1.6,0.8c0.3-0.3,0.6-0.7,0.8-1s0.6-0.7,0.9-1.1c0.2-0.2,0.5-0.3,1-0.3
	c0.5,0.1,0.9,0.2,1.4,0.5c0.5,0.2,0.8,0.5,1.2,0.9c0.3,0.3,0.4,0.7,0.2,1c-0.8,1.6-1.4,3-1.8,4.2s-0.7,2.3-0.9,3.1
	c-0.2,0.8-0.2,1.5-0.1,1.9s0.2,0.7,0.4,0.7c0.6,0,1.4-0.8,2.4-2.2C72.4,40.7,73.6,38.6,75,35.7L75,35.7L75,35.7L75,35.7z"/>
<path class="st3" d="M93.8,36.7c0-0.1,0-0.1,0.1-0.2v-0.4c0-0.2-0.1-0.5-0.3-0.7c-0.1-0.2-0.3-0.4-0.6-0.5c-0.2,0-0.5,0.1-0.8,0.4
	c-0.6,0.7-1.1,1.5-1.6,2.2s-0.9,1.6-1.2,2.5c-0.7,1.8-1,3-0.9,3.8c0.3-0.3,0.7-0.7,1.2-1.2c0.4-0.5,0.9-1.2,1.5-1.9
	c0.6-0.7,1.1-1.4,1.5-2.1S93.4,37.3,93.8,36.7C93.8,36.7,93.8,36.7,93.8,36.7z M121.2,31.8c0-0.9-0.9-1.7-2.7-2.4
	c-1.8-0.7-4-1.1-6.7-1.4c-1.7,3.2-3,6.8-3.8,10.7c-0.9,4-1.2,7.5-0.9,10.4c0.2,2.9,1.3,4.5,3.1,4.8c-0.4,0.4-1.1,0.6-2,0.5
	c-0.9-0.1-1.8-0.5-2.8-1.3c-0.9-0.7-1.7-1.8-2.3-3.3c-0.4-1.6-0.5-3.6-0.3-6c-0.1,0.1-0.2,0.2-0.3,0.3c-0.1,0.1-0.2,0.2-0.3,0.3
	c-1.2,1.5-2.3,2.5-3.2,2.9c-0.9,0.3-1.9,0.2-2.9-0.3c-1-0.5-1.6-1.2-1.8-1.9c-0.1-0.5-0.2-1.1-0.1-1.9c0-0.4,0-0.8,0.1-1.1
	c0.1-0.4,0.1-0.7,0.2-1c-0.2,0.3-0.4,0.6-0.7,1s-0.5,0.7-0.8,1.1c-0.4,0.8-1,1.6-1.5,2.3s-1.2,1.4-1.9,2.1c-0.4,0.3-1,0.4-1.8,0.2
	c-0.8-0.2-1.6-0.5-2.3-1c-0.7-0.5-1.1-1-1.2-1.5c-0.1-1.1,0-2.3,0.3-3.4s0.6-2.3,1.2-3.5c0.5-1.2,1.1-2.3,1.7-3.2
	c0.7-0.9,1.3-1.7,2.1-2.4c0.9-0.7,1.8-0.9,2.5-0.7c0.8,0.2,1.6,0.5,2.5,1.1c0.2,0.1,0.3,0.2,0.5,0.3s0.3,0.2,0.5,0.3
	c0.2-0.2,0.3-0.4,0.5-0.6s0.3-0.4,0.5-0.6c0.1-0.2,0.2-0.3,0.4-0.5c0.1-0.2,0.3-0.3,0.4-0.5c0.3-0.3,0.7-0.4,1.4-0.2
	c0.7,0.2,1.3,0.5,1.8,1c0.5,0.4,0.7,0.9,0.6,1.3c-1.6,3.3-2.5,5.8-2.8,7.5C98,43,98.1,43.9,98.6,44c0.8-0.1,1.5-0.7,2.3-1.9
	c0.4-0.6,0.8-1.3,1.2-2c0.4-0.7,0.8-1.5,1.2-2.3c0.3-0.8,0.6-1.5,0.9-2.2s0.4-1.2,0.5-1.7c0.3-1,0.7-2.1,1-3s0.7-2,1.1-2.9
	c-5.4,0-9.6,1.1-12.8,3.3c-0.2,0.2-0.6,0.1-1.2-0.1c-0.3-0.1-0.5-0.3-0.8-0.5s-0.5-0.4-0.8-0.6c-0.6-0.4-0.9-0.9-1.1-1.4
	c-0.2-0.4,0-0.8,0.4-1c2.6-0.9,5.3-1.6,8.3-2.1c2.9-0.4,6-0.6,9.2-0.6c0.5-0.9,0.9-1.6,1.3-2.2c0.4-0.6,0.8-1.1,1.2-1.5
	c0.4-0.2,0.8-0.2,1.3,0c0.4,0.2,0.9,0.4,1.4,0.7c0.1,0.1,0.2,0.2,0.3,0.2c0.3,0.1,0.6,0.3,0.8,0.5c0.2,0.2,0.4,0.4,0.5,0.5
	c0.3,0.3,0.3,0.6,0,0.9c-0.4,0.4-0.8,0.8-1.1,1.2c1,0.1,1.9,0.2,2.7,0.4c0.8,0.1,1.5,0.3,2.1,0.5c1,0.4,1.8,1,2.3,1.9
	c0.3,0.5,0.6,0.9,0.7,1.3c0.2,0.4,0.3,0.8,0.3,1.2C122,31.4,121.8,31.8,121.2,31.8L121.2,31.8L121.2,31.8L121.2,31.8z"/>
<path class="st3" d="M118.1,36.9c0.1-0.2,0.2-0.3,0.4-0.3c0.2,0,0.4,0,0.6,0.1s0.4,0.2,0.5,0.3c0.1,0.1,0.2,0.3,0.2,0.4
	c-0.2,0.6-0.5,1.5-1,2.5s-1,2-1.6,3c-0.6,1-1.2,1.9-1.8,2.8c-0.6,0.8-1.2,1.4-1.8,1.6c-0.4,0.1-0.8,0.2-1.3,0.1s-1-0.2-1.5-0.4
	c-0.5-0.2-0.9-0.5-1.3-0.8c-0.4-0.3-0.6-0.7-0.7-1.2c-0.1-0.5-0.1-1.3,0-2.2s0.2-1.9,0.3-2.9s0.4-2,0.6-3s0.6-1.9,0.9-2.6
	c0.1-0.2,0.4-0.3,0.9-0.3s0.9,0.1,1.4,0.2s0.9,0.4,1.3,0.7s0.5,0.6,0.4,0.9c-0.9,2.5-1.5,4.4-1.7,5.8c-0.2,1.4-0.2,2.3,0,2.7
	c0.2,0.3,0.4,0.3,0.8,0.1c0.4-0.2,0.8-0.7,1.2-1.3c0.5-0.7,1-1.5,1.5-2.6C116.9,39.4,117.5,38.2,118.1,36.9L118.1,36.9L118.1,36.9
	L118.1,36.9z"/>
<path class="st3" d="M80.5,48.2c-0.4,0.1-0.9,0.1-1.4,0.1l-0.4-0.1c-0.9-0.2-1.7-0.4-1.7-0.4l-0.7-0.2c-0.6-0.2-1.1-0.5-1.6-0.9
	c-0.9-0.5-1.5-1.1-1.7-1.8c-0.3-1.5-0.3-3.3,0.2-5.4c0.2-1,0.6-1.9,0.9-2.8s0.9-1.8,1.4-2.6c1.1-1.6,2.2-2.6,3.5-2.9
	c0.3,0,0.6,0,0.8,0.1c0.2,0,0.3,0.1,0.5,0.1c0.2,0.1,0.3,0.1,0.5,0.2l0.7,0.3l0.2-0.3c0.1-0.1,0.2-0.3,0.2-0.4s0.2-0.2,0.3-0.4
	c0.1-0.2,0.2-0.4,0.3-0.4c0.5-0.2,1.1-0.1,1.8,0.2c0.7,0.3,1.2,0.8,1.7,1.3c0.4,0.5,0.5,0.8,0.3,1.1c-0.5,0.5-1,1.1-1.4,1.7
	s-0.7,1.2-1,1.8c-0.2,0.7-0.4,1.2-0.5,1.7s0,0.9,0.1,1.2c-0.2,0.2-0.5,0.2-1,0.1c-0.4-0.1-0.9-0.3-1.5-0.7c-0.5-0.4-0.9-0.8-0.9-1.4
	c0-0.3-0.1-0.6,0-0.9c0-0.3,0.1-0.7,0.2-1c0.1-0.4,0.2-0.7,0.3-1s0.2-0.5,0.3-0.8c-0.6,0.3-1.2,1.1-1.8,2.4c-0.6,1.3-1,2.7-1.3,4.2
	c-0.3,1.5-0.3,2.7,0,3.8c0.2,1,0.8,1.5,1.8,1.2c0.6-0.2,1.2-0.5,1.7-0.9s1.1-1,1.6-1.6c0.5-0.7,1-1.4,1.6-2.2
	c0.5-0.8,1.1-1.6,1.6-2.5l1.3-2.1c0.1-0.1,0.3-0.1,0.4-0.1c0.1,0.1,0.2,0.1,0.3,0.1s0.2,0.1,0.3,0.2c0.3,0.1,0.5,0.3,0.6,0.4
	c0.1,0.1,0.2,0.2,0.2,0.4c-0.1,0.2-0.2,0.4-0.3,0.6c-0.1,0.2-0.2,0.4-0.3,0.7c-0.6,1.2-1.2,2.4-2,3.8c-0.4,0.7-0.8,1.3-1.3,2
	c-0.4,0.6-0.9,1.2-1.4,1.8C82.9,47.1,81.8,47.8,80.5,48.2L80.5,48.2L80.5,48.2z"/>
<path class="st3" d="M79.7,46.9l0.1-0.2l0.3,0.1c0.5,0.1,0.9,0.2,1.4,0.4c-0.1,0.2-0.2,0.3-0.3,0.5s-0.2,0.3-0.3,0.4
	c-0.1,0.2-0.2,0.3-0.2,0.4c0,0.1-0.1,0.2-0.1,0.3c0.2-0.2,0.4-0.4,0.8-0.7c0.3-0.2,0.6-0.4,1-0.4c0.3-0.1,0.7-0.1,1.2,0
	c0.5,0,0.9,0.2,1.2,0.4c0.4,0.2,0.6,0.4,0.7,0.6c0.2,0.6,0.3,1.1,0.1,1.7c-0.2,0.6-0.6,1.1-1.1,1.6c-0.5,0.5-1.2,0.8-2,1
	c-0.5,0.1-1.1,0.1-1.6,0.1c-0.3,0-0.6-0.1-0.8-0.2s-0.5-0.2-0.7-0.3c-0.4-0.2-0.8-0.4-0.9-0.6c-0.1-0.3,0-0.6,0.4-0.8
	c0.1,0.4,0.4,0.6,1,0.6c0.6,0.1,1.1,0.1,1.5,0c0.2,0,0.5-0.1,0.7-0.3c0.2-0.1,0.5-0.3,0.7-0.5c0.3-0.3,0.6-0.6,0.8-1
	c0.2-0.3,0.2-0.6,0.1-0.9c0-0.2-0.2-0.3-0.5-0.5c-0.2,0-0.5,0-0.8,0.1c-0.3,0.1-0.6,0.3-0.8,0.5c-0.1,0.1-0.2,0.2-0.3,0.3
	s-0.2,0.2-0.2,0.2c-0.1,0.1-0.1,0.1-0.1,0.1c-0.4,0-0.8-0.1-1.2-0.3c-0.4-0.1-0.7-0.3-0.9-0.5c0-0.1,0.1-0.2,0.1-0.4
	s0.1-0.4,0.2-0.6c0.1-0.2,0.2-0.3,0.2-0.5S79.6,47.1,79.7,46.9L79.7,46.9L79.7,46.9z"/>
<path class="st4" d="M76,26.3c0,0,6.4-11-4.8-14.9c0,0,5.6-0.3,8.7-2.9c0,0-8.7-6.1-14.6-0.7c0,0,1.3-6.1-10.8-7.8
	c0,0,1.4,3.9,3.4,6.1c0,0-8.9-2.5-14.7,7.4c0,0,5.9,0,9.7-1.4c0,0-5.4,3.1-6.2,8.1c0,0,8.1,2.4,16.3-6.2c0,0-4.1,9.4,3.2,16
	c0,0,7.2-7.5,2.7-14.7c0,0,2.6,1.9,4.2,5.3S76,26.3,76,26.3L76,26.3L76,26.3z"/>
<path class="st0" d="M78.3,8.3c0,0-0.2-0.1-0.4-0.2c-3.2,1.2-7.5,1.9-11,1.5c-0.5,0.4-0.6,0.7-0.6,0.7S74.1,11.3,78.3,8.3L78.3,8.3
	L78.3,8.3z"/>
<path class="st5" d="M69,8.5c-1,0.3-1.6,0.7-2.1,1c2.7,0.3,5.3,0,7.4-0.5c1.6-0.4,2.8-0.8,3.4-1C76,7,69.7,4.3,65.2,8.7
	c0,0,3.8-1.9,8.4-0.7C73.7,8,71.3,7.8,69,8.5z"/>
<path class="st5" d="M74.8,17.9c-1.2-2.2-3.6-3.9-5.5-5c2.7,2.3,4.8,5.1,6.1,8.3c0.3,0.7,0.5,1.3,0.7,1.8c0.6-1.6,1-4.2-0.6-7.1
	C73,11.3,67.7,11,67.7,11s2.4,0.9,4.2,2.4C73.7,15,74.8,17.9,74.8,17.9L74.8,17.9L74.8,17.9z"/>
<path class="st0" d="M75.5,24.6c0,0,0.4-0.5,0.7-1.5c-1.4-4.1-3.7-7.5-7.4-10.5c-1.4-0.8-2.5-1.1-2.5-1.1s1.7,0.8,5,4.8
	C74.6,20.2,75.5,24.6,75.5,24.6C75.5,24.6,75.5,24.6,75.5,24.6z"/>
<path class="st5" d="M64.7,8.4c-0.2-4.8-4.9-6.3-7.3-6.8c0.6,2.6,2.9,5.1,5,6.8C62.8,8.6,63,8.7,63,8.7s0.3-0.3-0.6-2.2
	c-0.9-1.9-2.8-3-2.8-3C64.1,5.5,64.7,8.4,64.7,8.4C64.7,8.4,64.7,8.4,64.7,8.4z"/>
<path class="st0" d="M56.1,1.4c1.6,3.8,4.5,6,6,6.8c-3.4-2.9-4.5-5.4-4.8-6.7C56.6,1.4,56.1,1.4,56.1,1.4z"/>
<path class="st5" d="M61.9,9.1c0,0-1.6-1.1-3.8-1.8c-2.4-0.2-5.4,0.1-7.3,1c-1.4,0.6-3.5,1.9-4.3,3.4l3.1,0.4c1.2-0.3,2.5-0.6,4-1.1
	c5.3-1.6,7.9-0.7,7.9-0.7s-0.3-0.8-4-1.2c-3.7-0.4-8.3,0.9-8.3,0.9C54,6.5,61.9,9.1,61.9,9.1L61.9,9.1L61.9,9.1z"/>
<path class="st0" d="M44.5,12.8c0,0,1.9-0.1,4.9-0.7l-3-0.4c0.7-1.4,3.3-3,4.4-3.4c1.8-0.8,4-1,5.7-1c0.5,0,1,0,1.5,0.1
	c-1.7-0.5-3.8-0.8-5.9-0.1C47.3,8.8,44.5,12.8,44.5,12.8L44.5,12.8L44.5,12.8L44.5,12.8z"/>
<path class="st0" d="M63.8,11.6c0,0-0.2-0.1-0.7-0.1c-1.4,1.6-6.9,7.3-13.8,7c0,0,1.2-3.7,5.1-5.8c2.1-1.2,4.3-1.7,5.8-2
	c-1.7,0-4.2,0.4-6.5,1.7c-4.2,2.3-5.8,7.1-5.8,7.1C58.8,20.5,63.8,11.6,63.8,11.6z"/>
<path class="st6" d="M60.1,10.7c-1.5,0.3-3.6,0.8-5.8,2c-3.9,2.1-5.1,5.8-5.1,5.8c6.9,0.2,12.4-5.4,13.8-7c-0.8,0-2.5,0.2-5.5,1.5
	c-4.7,2-7.2,4.6-7.2,4.6c5-6.6,11.9-6.7,11.9-6.7S61.4,10.7,60.1,10.7z"/>
<path class="st5" d="M66.7,25c1.6-5.3-0.3-10.2-1.3-12.1c-0.1,0.3-0.2,0.6-0.4,1.1c-1.4,4.3-2,9.4,1.1,13.2c1.7-2.1,2.5-4.4,2.9-6.1
	c0.2-0.9,0.3-1.6,0.4-2.2c-0.6-3.9-2.5-5.9-2.5-5.9s0.9,0.9,1.2,4.7C68.4,21.5,66.7,25,66.7,25z"/>
<path class="st0" d="M69.5,21.2c0-0.7,0-1.4-0.1-2c-0.3,2.8-1.6,5.9-3.3,8c-3.1-3.8-2.5-9.1-1.1-13.4c0.2-0.4,0.3-0.8,0.4-1.1
	c-0.2-0.5-0.4-0.8-0.4-0.8s-1.2,2.2-2.1,6.8s3.1,9.9,3.1,9.9S69.5,25.3,69.5,21.2L69.5,21.2L69.5,21.2z"/>
<path class="st1" d="M107.6,24.2l-1.7-2.1l1.3-11.8c0,0-4-4-4.2-5.5s-0.1-2.2-0.1-2.2s3.5-0.5,5.5,2.3c2,2.8,9.4,12.9,9.4,12.9
	l5.2,0.5l1.2,1.4l-7.5,2l-6.1-6.5L107.6,24.2L107.6,24.2L107.6,24.2z"/>
<polygon class="st1" points="113.5,9.7 116.1,13.3 121.4,12.8 119,10.2 "/>
<path class="st2" d="M122.4,21.7c4.5,8,5.2,18.5,4.3,28.3c-1.7,18.2-13.3,34.6-33.6,34.2c-5.2-0.1-9.1-1.7-11.8-4.7l2-2.2
	c0.9,2.9,5.2,5.1,9.9,5.2c19,0.4,29.7-14.7,31.3-32.4c0.9-9.7-0.7-19.9-4.9-27.5L122.4,21.7C122.4,21.7,122.4,21.7,122.4,21.7z"/>
<path class="st3" d="M56,82.2c0.2-0.3,0.5-0.5,0.8-0.6c0.2,0,0.5,0,0.6,0.2c0.2,0.2,0.2,0.4,0.2,0.8c0,0.3-0.1,0.5-0.3,0.6
	s-0.3,0.2-0.4,0.2c-0.3,0-0.6-0.1-0.9-0.3C55.8,82.9,55.8,82.5,56,82.2L56,82.2L56,82.2L56,82.2z"/>
<path class="st3" d="M62.8,78.7c0,0,0.1-0.1,0.2,0c0.1,0,0.1,0.1,0.2,0.1s0.1,0.1,0.2,0.2c0,0.1,0,0.1,0,0.1
	c-0.2,0.3-0.4,0.7-0.6,1.1c-0.3,0.4-0.5,0.9-0.9,1.3c-0.3,0.4-0.7,0.8-1,1.2c-0.4,0.3-0.7,0.6-1.1,0.7c-0.2,0.1-0.4,0.1-0.7,0
	c-0.3-0.1-0.5-0.2-0.8-0.3c-0.2-0.1-0.5-0.3-0.7-0.4c-0.2-0.2-0.3-0.3-0.3-0.5c0-0.3,0-0.6,0.1-0.9s0.2-0.7,0.3-1.1
	c0.1-0.4,0.3-0.7,0.5-1.1c0.2-0.4,0.4-0.7,0.6-1c0.2-0.3,0.5-0.5,0.7-0.7c0.2-0.2,0.5-0.3,0.7-0.4c0.1,0,0.3,0,0.4,0.1
	s0.3,0.1,0.5,0.2c0-0.1,0.1-0.2,0.2-0.3c0.1-0.1,0.2-0.2,0.2-0.2c0.1-0.1,0.3-0.1,0.4,0c0.2,0.1,0.3,0.2,0.5,0.3s0.2,0.2,0.3,0.4
	s0.1,0.2,0,0.3c-0.2,0.2-0.4,0.4-0.6,0.6c-0.2,0.2-0.3,0.5-0.4,0.7c-0.1,0.2-0.2,0.4-0.3,0.6c0,0.2-0.1,0.3,0,0.5
	c0,0.1-0.1,0.1-0.2,0.1c-0.1,0-0.2-0.1-0.4-0.1c-0.1-0.1-0.2-0.2-0.3-0.3s-0.1-0.3-0.1-0.4c0-0.1,0-0.2,0-0.3c0-0.1,0.1-0.3,0.1-0.4
	s0.1-0.3,0.2-0.4c0.1-0.1,0.1-0.2,0.2-0.3c-0.2,0.1-0.3,0.2-0.5,0.5c-0.2,0.3-0.3,0.6-0.5,0.9s-0.3,0.7-0.4,1.1
	c-0.1,0.4-0.2,0.7-0.2,1s0,0.6,0.1,0.7c0.1,0.2,0.2,0.2,0.5,0.2c0.3-0.1,0.5-0.2,0.8-0.4s0.5-0.5,0.8-0.8c0.3-0.3,0.5-0.7,0.8-1.1
	C62.3,79.5,62.6,79.1,62.8,78.7L62.8,78.7L62.8,78.7L62.8,78.7z"/>
<path class="st3" d="M74.1,76.1c0.3-0.2,0.6-0.1,0.8,0.2c0.2,0.2,0.3,0.4,0.4,0.5c0.1,0.2,0,0.3-0.1,0.6c-0.1,0.2-0.2,0.3-0.3,0.6
	c-0.1,0.3-0.2,0.6-0.4,0.9c-0.2,0.4-0.3,0.8-0.4,1.1c-0.1,0.4-0.2,0.8-0.4,1.2c-0.3,0.8-0.4,1.6-0.4,2.2c0,0.6,0.2,0.9,0.6,1
	c-0.1,0.2-0.3,0.3-0.6,0.2c-0.3-0.1-0.6-0.2-0.9-0.6C72.1,83.9,72,83.5,72,83c0-0.4,0.1-0.8,0.2-1.2c0.1-0.4,0.2-0.9,0.4-1.3
	c0.3-0.9,0.6-1.6,0.8-2.1c-0.2,0.2-0.4,0.4-0.7,0.7c-0.2,0.3-0.4,0.6-0.7,1c-0.2,0.4-0.4,0.7-0.6,1.1c-0.2,0.3-0.3,0.7-0.5,1.1
	c0,0.1-0.1,0.1-0.3,0.1c-0.2,0-0.3-0.1-0.5-0.2c-0.2-0.1-0.2-0.2-0.2-0.4c0-0.2,0.1-0.5,0.1-1c0.1-0.2,0.1-0.4,0.2-0.7
	c0.1-0.2,0.1-0.4,0.2-0.6c0.1-0.2,0.1-0.4,0.1-0.5c0-0.1,0.1-0.2,0.1-0.3c-0.2,0.2-0.3,0.4-0.5,0.7s-0.4,0.7-0.7,1.1
	c-0.2,0.4-0.5,0.9-0.7,1.3c-0.2,0.4-0.4,0.8-0.6,1.3c-0.1,0.1-0.2,0.2-0.5,0.1c-0.2,0-0.5-0.1-0.7-0.2c-0.2-0.1-0.3-0.3-0.3-0.4
	c0-0.1,0.1-0.1,0.1-0.2c0-0.1,0.1-0.2,0.1-0.3c0.1-0.3,0.2-0.6,0.3-0.9c0.1-0.3,0.2-0.7,0.4-1.1c0.2-0.8,0.4-1.5,0.4-2.1
	c0-0.3-0.2-0.5-0.4-0.5c-0.2-0.1-0.5-0.1-0.9,0c-0.4,0.1-0.7,0.1-0.9,0.2c0.7,0.2,1,0.7,1,1.4s-0.2,1.5-0.6,2.4
	c-0.4,0.9-0.8,1.5-1.3,1.7c-0.5,0.2-1,0.2-1.6,0.1c-0.6-0.2-1-0.6-1.1-1.2c0-0.5,0-1.1,0.2-1.7c0.2-0.6,0.4-1.2,0.7-1.6
	c0-0.1,0.1-0.1,0.2-0.1c0.1,0,0.2,0,0.3,0c0.2,0.1,0.4,0.2,0.6,0.3c0.2,0.2,0.2,0.3,0.1,0.4c-0.1,0.1-0.1,0.2-0.2,0.4
	s-0.2,0.3-0.2,0.5c-0.1,0.2-0.2,0.4-0.2,0.6c-0.1,0.2-0.1,0.4-0.2,0.6c-0.1,0.4-0.1,0.7,0,0.9c0,0.1,0.1,0.1,0.2,0.1
	c0.1,0,0.2-0.1,0.4-0.3c0.5-0.6,0.8-1.3,1.1-2c0.2-0.8,0.2-1.3,0.1-1.7c-0.1-0.4-0.5-0.4-1,0c-0.2,0.1-0.3,0.1-0.5,0
	c-0.1,0-0.2-0.1-0.2-0.1s-0.1-0.1-0.2-0.2c-0.1-0.2-0.2-0.3-0.2-0.5c0-0.2,0-0.2,0.1-0.3c0,0,0.1,0,0.1-0.1s0.1,0,0.1-0.1
	c0.5-0.2,1.3-0.5,2.2-0.7c1-0.2,1.8-0.1,2.6,0.4c0.6,0.5,0.8,1,0.8,1.5c0,0.3-0.1,0.5-0.1,0.8c0,0.3-0.1,0.5-0.2,0.7
	c0.1-0.1,0.1-0.2,0.2-0.3c0.1-0.1,0.1-0.2,0.2-0.3c0.2-0.3,0.3-0.6,0.5-0.8c0.2-0.3,0.4-0.6,0.6-0.8c0.2-0.3,0.3-0.6,0.5-0.8
	s0.3-0.3,0.4-0.4c0.1-0.1,0.3-0.1,0.5,0c0.2,0,0.4,0.1,0.5,0.3c0.2,0.2,0.2,0.3,0.2,0.4c0,0.1,0,0.1-0.1,0.3c0,0.1-0.1,0.2-0.1,0.2
	c0,0.1-0.1,0.2-0.1,0.3c0,0.1-0.1,0.2-0.1,0.3c0,0.1-0.1,0.2-0.1,0.3c-0.1,0.2-0.1,0.3-0.1,0.5c0,0.1-0.1,0.1-0.1,0.2v0.1
	c0,0,0.1-0.1,0.2-0.4c0.2-0.2,0.3-0.4,0.5-0.7s0.4-0.5,0.6-0.8c0.2-0.3,0.4-0.5,0.6-0.7C73.8,76.4,73.9,76.3,74.1,76.1L74.1,76.1
	C74.1,76.1,74.1,76.1,74.1,76.1z"/>
<path class="st2" d="M61.8,55.6c-0.9,0.2-1.5,0.4-1.8,0.6l-3.2,0.8c-1.9,0.5-4.7,1.4-7.9,3.3c-0.4,0-0.8,0-1.2,0.1
	c-0.6,0.1-1.2-0.1-1.8-0.6c-0.3-0.2-0.5-0.5-0.6-0.7s-0.3-0.5-0.4-0.8c-0.2-0.6,0-1,0.6-1.3c1.6-0.6,3.1-1.1,4.6-1.7
	c2.1-0.7,4-1.4,5.7-1.9s3.2-1,4.5-1.4s2.5-0.7,3.6-0.9c1.1-0.2,7.3-2.2,8.2-2.3c1.8-0.1,3.1,0.1,3.9,0.7c0.8,0.6,1.3,1.3,1.5,2
	c0.2,0.8,0.2,1.5,0.1,1.9c-0.2,0.4-0.5,0.4-0.9,0.1c-1.2-0.7-8.6,1.1-11.4,1.6C63.8,55.2,62.6,55.4,61.8,55.6L61.8,55.6L61.8,55.6
	L61.8,55.6z"/>
<path class="st1" d="M60.2,56.9c0,0-8.2,20.8-32.2,22.8S0,71.4,0,71.4s8.1,17.6,35.4,12c22.2-4.5,29.7-25.6,29-27s-3.7-0.6-3.7-0.6
	L60.2,56.9L60.2,56.9L60.2,56.9z"/>
<path class="st0" d="M24.5,75c0,0,12.9,1.6,22.7-7.2c0,0-1,4.9-9.9,7.5C30.3,77.4,24.5,75,24.5,75C24.5,75,24.5,75,24.5,75z"/>
</svg>
