<?xml version="1.0" encoding="UTF-8"?>
<svg id="katman_1" data-name="katman 1" xmlns="http://www.w3.org/2000/svg" viewBox="0 0 219.3 163.06">
  <defs>
    <style>
      .cls-1 {
        fill: none;
      }

      .cls-2, .cls-3 {
        fill: #008eb4;
      }

      .cls-4, .cls-5 {
        fill: #ffcf01;
      }

      .cls-6, .cls-7 {
        fill: #4cb2ad;
      }

      .cls-8 {
        fill: #3a2417;
      }

      .cls-8, .cls-7, .cls-9, .cls-5, .cls-3 {
        fill-rule: evenodd;
      }

      .cls-9 {
        fill: #fff;
      }
    </style>
  </defs>
  <polygon class="cls-1" points="0 0 219.3 3.42 219.3 163.06 0 159.64 0 0"/>
  <path class="cls-2" d="m88.38,63.67c.31-.9.62-1.84.94-2.83.31-.99.59-1.9.84-2.71.25-.82.42-1.48.52-2,.1-.52.08-.76-.07-.73-1.3.92-2.57,2.07-3.8,3.43-1.23,1.36-2.46,3.02-3.7,4.98,1.01-.24,1.92-.35,2.72-.33.8.03,1.65.1,2.54.2Zm-.96,3.71c-.09-.22-.46-.35-1.1-.39-.64-.04-1.35,0-2.15.12-.79.12-1.57.31-2.33.57-.76.26-1.32.55-1.69.88-.17.27-.41.76-.72,1.47-.31.71-.64,1.54-.99,2.49-.35.95-.69,1.98-1.01,3.08-.33,1.1-.57,2.2-.73,3.28-.16,1.09-.22,2.12-.17,3.1.05.98.27,1.82.68,2.53.16.24.2.43.13.57-.07.14-.18.22-.34.27-.16.04-.34.04-.54,0-.2-.04-.37-.1-.5-.18-.57-.41-1.14-.97-1.68-1.69-.55-.72-.95-1.65-1.22-2.79-.27-1.14-.32-2.52-.16-4.12.16-1.6.68-3.49,1.58-5.67-.03,0-.25.16-.65.49-.4.33-.83.72-1.31,1.18-.47.46-.89.96-1.26,1.49-.37.53-.54,1.01-.5,1.45-.31.16-.68.11-1.13-.16-.45-.27-.86-.64-1.23-1.1-.37-.46-.65-.97-.82-1.53-.18-.56-.13-1.03.14-1.41.35-.49.94-1.05,1.79-1.67.85-.62,1.77-1.23,2.76-1.82.99-.58,1.96-1.11,2.91-1.57.95-.46,1.7-.79,2.24-.98.68-1.22,1.47-2.48,2.35-3.77.88-1.29,1.82-2.53,2.81-3.71.99-1.18,1.99-2.27,3.01-3.26,1.02-.99,2-1.81,2.96-2.47.6-.41,1.31-.6,2.12-.57.82.03,1.57.19,2.26.49.69.3,1.27.7,1.74,1.2.47.5.66,1.04.57,1.61-.13.71-.32,1.56-.55,2.55-.24.99-.46,1.87-.68,2.63-.51,1.77-1.04,3.66-1.6,5.67-.56,2.01-1.09,4.03-1.59,6.06-.5,2.03-.94,4.02-1.33,5.98-.39,1.96-.68,3.77-.87,5.43-.07.49-.38.82-.93.98-.55.16-1.13.2-1.74.12-.62-.08-1.17-.27-1.67-.57-.5-.3-.7-.65-.62-1.06.39-2.53.92-5.05,1.58-7.57.66-2.52,1.38-5.05,2.16-7.61Z"/>
  <path class="cls-2" d="m98.73,83.07c.3.69.75,1.23,1.33,1.65l-.7-.05c-.53,0-1.53-.33-3.02-1.25-1.28-.76-2.36-2-3.18-3.82-.06-.15-.1-.31-.15-.48-.05-.2-.1-.42-.13-.62-.28-1.3-.4-2.88-.31-4.71.09-1.84.39-3.92.9-6.23.47-2.33,1.09-4.68,1.87-7.03.78-2.36,1.68-4.72,2.72-7.09,1.04-2.32,2.07-4.28,3.11-5.88,1.01-1.56,1.99-2.76,2.92-3.6.21-.11.36-.14.45-.14.22,0,.56.05,1.05.19.41.11.92.34,1.55.72l.58.25c1,.47,1.41.85,1.55,1.06-2.21,1.94-4.14,4.47-5.89,7.65-1.7,3.22-3.04,6.57-4.03,10.06-1.08,3.5-1.7,6.87-1.87,10.14-.18,2.33-.08,4.45.3,6.29l.35,1.18c.14.48.34,1.07.58,1.73Z"/>
  <path class="cls-2" d="m107.12,69.79c.07-.11.09-.3.05-.57-.04-.27-.13-.52-.27-.75-.14-.23-.32-.37-.54-.43-.22-.05-.47.08-.75.41-.6.6-1.13,1.31-1.59,2.12-.46.82-.85,1.62-1.16,2.41-.31.79-.55,1.52-.72,2.18-.17.67-.23,1.16-.18,1.49.29-.24.67-.64,1.14-1.2.47-.56.95-1.18,1.45-1.86s.98-1.36,1.44-2.04c.47-.68.84-1.26,1.13-1.75Zm10.72-1.59c.07-.11.24-.16.5-.14.26.01.51.08.75.18s.45.25.61.43c.16.18.2.36.11.55-.43.9-.93,1.9-1.5,3-.57,1.1-1.18,2.18-1.84,3.24-.66,1.06-1.36,2.02-2.1,2.88-.74.86-1.5,1.46-2.29,1.82-.42.19-.89.25-1.39.18-.51-.07-.98-.22-1.42-.45-.44-.23-.83-.52-1.17-.86-.34-.34-.55-.67-.63-1-.13-.43-.16-1.03-.1-1.79.06-.76.15-1.45.26-2.08-.3.38-.62.82-.95,1.33-.33.5-.69,1.04-1.08,1.61-.39.57-.81,1.14-1.25,1.71-.44.57-.9,1.1-1.4,1.59-.23.24-.63.34-1.2.29-.56-.05-1.14-.2-1.71-.43-.58-.23-1.1-.53-1.56-.9-.46-.37-.7-.75-.7-1.16-.07-1.03.03-2.13.3-3.3.27-1.17.64-2.31,1.12-3.41.48-1.1,1.04-2.13,1.69-3.08.65-.95,1.32-1.73,2.01-2.33.51-.41,1-.64,1.47-.69.47-.05.95,0,1.42.14.47.15.96.37,1.45.65.5.29,1.02.56,1.57.84.28-.33.55-.67.81-1.04.26-.37.54-.73.85-1.08.17-.24.5-.34.97-.29.47.05.94.2,1.4.45.46.24.84.54,1.15.88.31.34.38.66.22.96-.78,1.58-1.38,2.98-1.81,4.2-.43,1.22-.72,2.26-.87,3.1-.16.84-.19,1.48-.11,1.92.08.43.23.65.44.65.6-.03,1.4-.76,2.41-2.2,1.01-1.44,2.2-3.56,3.57-6.36Z"/>
  <path class="cls-2" d="m136.39,69.18c.02-.05.04-.14.05-.24.01-.11,0-.23-.01-.37-.04-.25-.13-.48-.29-.69-.1-.24-.29-.41-.57-.49-.24,0-.51.14-.79.41-.58.71-1.1,1.44-1.55,2.2-.45.76-.85,1.58-1.2,2.45-.69,1.77-.99,3.01-.91,3.71.34-.3.73-.7,1.17-1.2.43-.5.94-1.13,1.51-1.9.55-.73,1.03-1.43,1.46-2.08.42-.65.81-1.25,1.14-1.79Zm27.12-4.89c-.02-.92-.91-1.7-2.66-2.33-1.73-.65-3.93-1.1-6.61-1.35-1.7,3.21-2.96,6.75-3.77,10.61-.88,4-1.19,7.44-.93,10.32.24,2.91,1.25,4.47,3.03,4.69-.45.41-1.12.56-2.01.45-.85-.08-1.79-.5-2.81-1.26-.92-.68-1.67-1.78-2.27-3.3-.42-1.55-.53-3.52-.33-5.92-.1.11-.2.22-.29.35-.09.12-.2.22-.34.31-1.21,1.5-2.25,2.46-3.12,2.9-.94.33-1.9.23-2.89-.29-.99-.54-1.6-1.17-1.82-1.88-.14-.52-.16-1.13-.06-1.84,0-.38.03-.75.08-1.1.05-.35.11-.69.18-1.02-.2.3-.41.61-.64.94-.24.33-.49.68-.76,1.06-.45.79-.96,1.54-1.52,2.26-.57.72-1.19,1.42-1.86,2.1-.41.3-1,.37-1.77.2-.81-.16-1.58-.48-2.31-.94-.7-.46-1.08-.96-1.14-1.51-.05-1.11.04-2.24.29-3.37.25-1.13.62-2.28,1.14-3.45.51-1.2,1.08-2.25,1.72-3.16.64-.91,1.32-1.69,2.03-2.35.89-.65,1.73-.87,2.52-.65.78.16,1.61.52,2.51,1.06.16.08.33.17.49.27.16.1.33.18.49.27.15-.22.3-.41.47-.59.17-.18.33-.37.47-.59.09-.16.21-.33.35-.49.14-.16.29-.33.44-.49.25-.3.72-.37,1.41-.2.66.19,1.27.5,1.81.94.52.44.71.87.56,1.31-1.54,3.24-2.46,5.7-2.74,7.38-.28,1.71-.18,2.61.28,2.69.74-.05,1.5-.69,2.27-1.92.41-.62.82-1.29,1.2-2,.39-.71.78-1.45,1.16-2.24.33-.79.62-1.5.86-2.14.25-.64.42-1.19.53-1.65.32-1.03.65-2.04,1-3.02.34-.98.7-1.94,1.06-2.9-5.32.03-9.53,1.1-12.63,3.22-.22.16-.61.12-1.19-.12-.26-.14-.52-.29-.77-.47-.25-.18-.5-.39-.75-.63-.55-.43-.9-.88-1.07-1.35-.18-.41-.04-.75.43-1.02,2.56-.92,5.29-1.6,8.17-2.04,2.88-.43,5.92-.63,9.11-.57.47-.84.9-1.56,1.29-2.16.39-.6.78-1.09,1.17-1.47.36-.22.78-.23,1.26-.04.45.16.9.39,1.37.69.14.11.24.18.3.2.29.14.54.3.75.49.21.19.37.37.49.53.26.3.27.59.04.86-.45.41-.82.82-1.12,1.22.98.11,1.86.24,2.63.39.77.15,1.46.32,2.06.51.96.35,1.73.99,2.33,1.92.31.46.55.9.72,1.31.17.41.29.82.35,1.22.12.76-.11,1.14-.68,1.14Z"/>
  <path class="cls-2" d="m160.45,69.34c.09-.19.24-.29.45-.31.21-.01.41.02.6.1.19.08.36.19.5.33.14.14.19.27.15.41-.21.63-.53,1.44-.97,2.45-.45,1.01-.96,2.01-1.54,3.02-.58,1.01-1.18,1.92-1.81,2.73-.63.82-1.23,1.35-1.83,1.59-.37.14-.82.18-1.33.12-.52-.05-1.02-.18-1.5-.39-.48-.2-.91-.48-1.28-.82-.37-.34-.59-.73-.65-1.16-.08-.54-.09-1.27-.02-2.18.07-.91.18-1.88.34-2.9.16-1.02.37-2.03.64-3.02.27-.99.57-1.84.91-2.55.12-.22.4-.33.85-.33s.92.08,1.41.24c.49.16.91.38,1.25.65s.46.56.36.86c-.91,2.48-1.48,4.39-1.7,5.75-.23,1.36-.23,2.24-.02,2.65.17.3.43.33.78.1.36-.23.77-.67,1.24-1.33.47-.65.97-1.49,1.5-2.53.53-1.03,1.09-2.2,1.67-3.51Z"/>
  <path class="cls-4" d="m109.14,98.95c.02-.05.04-.14.05-.24.01-.11.01-.23-.01-.37-.04-.25-.14-.48-.3-.69-.1-.24-.3-.41-.6-.49-.25,0-.53.14-.83.41-.61.71-1.16,1.44-1.63,2.2-.48.76-.9,1.58-1.26,2.45-.72,1.77-1.04,3.01-.96,3.71.36-.3.77-.7,1.22-1.2.46-.5.98-1.13,1.59-1.9.57-.73,1.08-1.43,1.53-2.08.45-.65.85-1.25,1.2-1.79Zm26.67-5.61c-.02-.92-.95-1.7-2.79-2.33-1.81-.65-2.34-.38-5.16-.63-1.78,3.21-3.1,6.75-3.96,10.61-.93,4-1.25,7.44-.97,10.32.25,2.91,1.31,4.47,3.18,4.69-.47.41-1.17.56-2.1.45-.9-.08-1.88-.5-2.95-1.26-.96-.68-1.76-1.78-2.38-3.3-.44-1.55-.56-3.52-.35-5.91-.11.11-.21.22-.3.35-.09.12-.21.22-.35.31-1.27,1.5-2.36,2.46-3.27,2.9-.99.33-2,.23-3.03-.29-1.04-.54-1.67-1.17-1.92-1.88-.15-.52-.17-1.13-.06-1.84,0-.38.03-.75.08-1.1.05-.35.12-.69.19-1.02-.2.3-.43.61-.68.94-.25.33-.51.68-.8,1.06-.47.79-1,1.54-1.6,2.26-.59.72-1.25,1.42-1.95,2.1-.43.3-1.04.37-1.86.2-.85-.16-1.66-.48-2.42-.94-.74-.46-1.13-.96-1.19-1.51-.05-1.11.05-2.24.31-3.37.26-1.13.66-2.28,1.19-3.45.53-1.2,1.13-2.25,1.81-3.16.67-.91,1.38-1.69,2.13-2.35.94-.65,1.82-.87,2.64-.65.81.16,1.69.52,2.63,1.06.17.08.34.17.52.27.17.1.34.18.52.27.15-.22.32-.41.5-.59.18-.18.34-.37.5-.59.1-.16.22-.33.37-.49.15-.16.3-.33.47-.49.27-.3.76-.37,1.48-.2.69.19,1.33.5,1.9.94.54.44.74.87.59,1.31-1.62,3.24-2.58,5.7-2.87,7.38-.29,1.71-.19,2.61.29,2.69.78-.05,1.58-.69,2.39-1.92.43-.62.86-1.29,1.26-2,.41-.71.81-1.45,1.22-2.24.35-.79.65-1.5.91-2.14.26-.64.45-1.19.56-1.65.34-1.03.69-2.04,1.05-3.02.36-.98.73-1.94,1.12-2.9-5.58.03-10,1.1-13.25,3.22-.23.16-.64.12-1.25-.12-.27-.14-.54-.29-.81-.47-.27-.18-.53-.39-.79-.63-.58-.43-.95-.88-1.12-1.35-.19-.41-.04-.75.45-1.02,2.69-.92,5.54-1.6,8.57-2.04,3.02-.43,6.21-.63,9.56-.57.5-.84.95-1.56,1.35-2.16.41-.6.82-1.09,1.23-1.47.37-.22.81-.23,1.32-.04.47.16.95.39,1.44.69.14.11.25.18.32.2.31.14.57.3.79.49.22.19.39.37.51.53.27.3.28.59.04.86-.47.41-.86.82-1.17,1.22,1.03.11,1.95.24,2.76.39.81.15,2.2.79,2.83,1.71.33.46.58.9.76,1.31.18.41.3.82.37,1.22.12.76-.12,1.14-.71,1.14Z"/>
  <path class="cls-4" d="m131.36,96.62c-.15.22-.39.34-.73.37-.34.03-.69,0-1.05-.1-.36-.09-.68-.24-.97-.43-.29-.19-.43-.39-.43-.61,0-.38.04-.78.11-1.2.07-.42.15-.82.25-1.18.09-.37.19-.7.3-1,.1-.3.19-.53.25-.69.14-.25.45-.37.93-.39.48-.01.96.06,1.46.22.49.16.91.38,1.25.65.34.27.45.54.31.82-.06.16-.17.4-.32.71-.15.31-.3.64-.46.98-.16.34-.32.67-.48,1-.16.33-.3.61-.41.86Zm3.5,4.28c.12-.19.29-.29.49-.31.21-.01.4.02.58.1.18.08.33.19.46.33.12.14.15.27.09.41-.23.63-.59,1.44-1.06,2.45-.48,1.01-1.01,2.01-1.61,3.02-.6,1.01-1.23,1.92-1.9,2.73-.67.82-1.3,1.35-1.9,1.59-.37.14-.82.18-1.33.12-.52-.05-1.02-.18-1.5-.39-.48-.2-.9-.48-1.25-.82-.35-.34-.55-.73-.59-1.16-.05-.54-.04-1.27.05-2.18.08-.91.24-1.88.45-2.9.22-1.02.48-2.03.77-3.02.3-.99.63-1.84,1-2.55.12-.22.41-.33.87-.33s.94.08,1.41.24c.48.16.89.38,1.23.65.34.27.46.56.36.86-1.03,2.45-1.7,4.36-2,5.73-.3,1.37-.33,2.26-.08,2.67.17.3.43.33.78.1.35-.23.78-.67,1.26-1.33.48-.65,1.02-1.5,1.62-2.53.59-1.03,1.19-2.2,1.8-3.51Z"/>
  <path class="cls-4" d="m140.82,115.39c-.12.03-.27.03-.47.02-.2-.01-.45-.03-.75-.06-.57,0-1.38-.34-2.41-1.02-1.03-.65-1.85-1.69-2.46-3.1-.05-.14-.1-.29-.14-.45-.04-.16-.07-.33-.1-.49-.22-1.01-.3-2.19-.26-3.55.05-1.36.24-2.9.57-4.61.31-1.71.72-3.43,1.23-5.16.51-1.73,1.12-3.46,1.81-5.2.7-1.71,1.4-3.16,2.1-4.34.7-1.18,1.4-2.1,2.08-2.75.22-.14.43-.2.65-.2.24,0,.54.06.91.16.36.11.78.31,1.25.61l.29.12c.88.44,1.38.87,1.51,1.31.05.14-.01.3-.19.49-1.39,1.31-2.66,3.1-3.81,5.38-1.12,2.31-1.99,4.72-2.63,7.22-.7,2.5-1.09,4.92-1.18,7.26-.1,1.66-.03,3.13.23,4.41.06.22.15.5.24.84.1.34.23.74.39,1.2.38.92,1.24,1.4,2.57,1.43-.37.33-.84.49-1.41.49Z"/>
  <path class="cls-2" d="m123.29,80.48c-.4.1-.87.12-1.4.06l-.36-.08c-.93-.21-1.69-.41-1.69-.41l-.65-.18c-.6-.23-1.13-.52-1.58-.85-.92-.52-1.48-1.1-1.67-1.75-.35-1.47-.28-3.24.22-5.3.24-.98.55-1.92.94-2.81.39-.9.85-1.75,1.38-2.57,1.04-1.6,2.2-2.57,3.48-2.9.32-.05.58-.03.78.08.16.03.31.08.47.14.16.07.32.14.49.22l.72.29.18-.29c.1-.14.18-.27.23-.39.06-.12.15-.25.28-.39.12-.22.23-.35.34-.41.48-.19,1.08-.12,1.79.2.65.33,1.21.75,1.68,1.26.41.49.51.84.3,1.06-.52.52-.98,1.06-1.37,1.63-.39.57-.72,1.16-.99,1.75-.23.65-.38,1.22-.46,1.69-.08.48-.04.88.1,1.2-.16.16-.5.2-1.02.12-.4-.08-.89-.33-1.47-.73-.54-.35-.85-.82-.94-1.39-.04-.27-.05-.56-.02-.86.03-.3.09-.64.18-1.02.09-.38.18-.71.27-1,.09-.29.2-.54.31-.75-.59.3-1.17,1.09-1.75,2.37-.56,1.25-.98,2.62-1.26,4.12-.29,1.44-.3,2.71-.04,3.79.22,1.03.82,1.44,1.81,1.22.61-.16,1.18-.46,1.71-.88.54-.42,1.07-.96,1.6-1.61.5-.68,1.01-1.4,1.54-2.16.53-.76,1.04-1.58,1.54-2.45l1.3-2.08c.14-.08.27-.11.39-.08.1.05.2.1.32.14.11.04.22.1.32.18.29.14.48.27.56.41.14.11.19.23.15.37-.12.19-.23.39-.33.61-.1.22-.21.44-.33.65-.54,1.14-1.21,2.41-1.98,3.79-.41.68-.82,1.33-1.25,1.96-.43.63-.9,1.21-1.42,1.75-1.03,1.14-2.16,1.89-3.4,2.24Z"/>
  <path class="cls-2" d="m120.52,79.95l.1-.17.31.08c.45.12.92.25,1.4.36-.1.17-.19.31-.27.46-.09.15-.17.29-.26.43-.08.16-.15.3-.18.42-.04.12-.07.21-.11.27.17-.2.42-.42.76-.66.27-.22.59-.36.96-.42.33-.12.73-.13,1.18-.03.47.04.87.17,1.21.39.38.2.62.4.72.6.24.56.26,1.11.06,1.67-.2.58-.57,1.11-1.1,1.61-.52.48-1.18.82-1.99,1.01-.54.1-1.07.12-1.61.06-.31-.04-.59-.09-.83-.16-.24-.07-.48-.15-.72-.25-.45-.18-.74-.39-.89-.63-.13-.3,0-.58.4-.83.06.36.37.57.95.63.59.1,1.09.09,1.51-.03.24-.04.47-.12.7-.25.23-.13.46-.3.69-.52.33-.28.59-.61.77-.98.17-.34.21-.63.13-.87-.03-.2-.2-.35-.5-.45-.25-.04-.53,0-.84.09-.29.1-.54.26-.75.48-.12.1-.22.19-.3.28-.08.09-.17.15-.25.19-.05.06-.07.07-.08.09-.38.03-.76-.07-1.16-.27-.4-.14-.69-.32-.87-.54.03-.1.07-.23.14-.4.06-.17.14-.36.24-.58.09-.16.17-.33.25-.51.08-.18.16-.37.24-.57Z"/>
  <path class="cls-8" d="m118.83,58.83s6.29-10.86-4.74-14.78c0,0,5.54-.32,8.61-2.83,0,0-8.64-6.02-14.42-.71,0,0,1.29-6.02-10.65-7.66,0,0,1.37,3.82,3.33,6.07,0,0-8.83-2.43-14.53,7.27,0,0,5.82-.04,9.56-1.37,0,0-5.3,3.11-6.1,8,0,0,7.99,2.4,16.14-6.15,0,0-4.1,9.26,3.17,15.8,0,0,7.07-7.44,2.62-14.55,0,0,2.54,1.89,4.1,5.22,1.56,3.32,2.9,5.69,2.9,5.69Z"/>
  <path class="cls-9" d="m121.14,41.02s-.15-.09-.44-.24c-3.16,1.23-7.43,1.91-10.88,1.5-.5.38-.63.68-.63.68,0,0,7.77,1.06,11.95-1.94Z"/>
  <path class="cls-7" d="m111.91,41.27c-.97.3-1.61.66-2.02.97,2.63.32,5.26-.03,7.32-.49,1.54-.35,2.76-.76,3.41-1-1.81-.93-8-3.6-12.42.71,0,0,3.74-1.93,8.32-.71,0,0-2.36-.19-4.62.52Z"/>
  <path class="cls-7" d="m117.71,50.55c-1.23-2.22-3.54-3.87-5.44-4.93,2.71,2.25,4.71,5.08,6.06,8.2.3.69.53,1.3.71,1.78.55-1.57.98-4.18-.61-7.02-2.56-4.56-7.81-4.8-7.81-4.8,0,0,2.33.91,4.16,2.41,1.83,1.5,2.94,4.36,2.94,4.36Z"/>
  <path class="cls-9" d="m118.31,57.14s.36-.54.69-1.46c-1.4-4.1-3.66-7.45-7.28-10.34-1.41-.74-2.48-1.11-2.48-1.11,0,0,1.67.83,4.92,4.71,3.27,3.91,4.13,8.19,4.13,8.19Z"/>
  <path class="cls-7" d="m107.65,41.13c-.16-4.69-4.88-6.23-7.21-6.71.64,2.59,2.82,5.02,4.98,6.77.35.2.56.29.56.29,0,0,.28-.33-.62-2.2-.9-1.87-2.77-2.96-2.77-2.96,4.55,1.94,5.07,4.82,5.07,4.82Z"/>
  <path class="cls-9" d="m99.15,34.22c1.58,3.77,4.46,5.89,5.92,6.77-3.38-2.83-4.4-5.33-4.71-6.59-.73-.15-1.22-.18-1.22-.18Z"/>
  <path class="cls-7" d="m104.92,41.87s-1.55-1.12-3.74-1.83c-2.41-.17-5.31.05-7.25.95-1.39.64-3.51,1.92-4.27,3.31l3.02.41c1.18-.26,2.52-.6,3.98-1.05,5.23-1.63,7.82-.72,7.82-.72,0,0-.3-.78-3.92-1.15s-8.19.88-8.19.88c4.74-3.43,12.55-.8,12.55-.8Z"/>
  <path class="cls-9" d="m87.68,45.46s1.88-.09,4.83-.72l-2.95-.4c.69-1.44,3.31-2.94,4.33-3.41,1.74-.8,3.91-1,5.65-1,.53,0,1.02.02,1.44.04-1.72-.53-3.8-.8-5.83-.09-4.73,1.64-7.47,5.58-7.47,5.58Z"/>
  <path class="cls-9" d="m106.8,44.29s-.2-.08-.7-.09c-1.38,1.56-6.85,7.18-13.66,6.93,0,0,1.16-3.64,5.02-5.75,2.1-1.14,4.21-1.69,5.7-1.95-1.68.03-4.13.35-6.48,1.66-4.16,2.32-5.76,7.03-5.76,7.03,10.94,1.01,15.87-7.84,15.87-7.84Z"/>
  <path class="cls-6" d="m103.16,43.45c-1.49.26-3.59.8-5.7,1.95-3.86,2.1-5.02,5.75-5.02,5.75,6.81.25,12.28-5.38,13.66-6.93-.84,0-2.51.21-5.45,1.44-4.67,1.96-7.08,4.54-7.08,4.54,4.95-6.56,11.74-6.62,11.74-6.62,0,0-.85-.15-2.15-.13Z"/>
  <path class="cls-7" d="m109.59,57.55c1.58-5.25-.34-10.08-1.28-11.99-.11.29-.24.64-.38,1.06-1.38,4.26-1.93,9.27,1.06,13.1,1.65-2.07,2.47-4.32,2.89-6.05.21-.88.31-1.62.36-2.14-.58-3.82-2.49-5.87-2.49-5.87,0,0,.86.91,1.23,4.67.37,3.76-1.38,7.22-1.38,7.22Z"/>
  <path class="cls-9" d="m112.41,53.85c0-.7-.04-1.36-.12-1.97-.3,2.76-1.62,5.84-3.3,7.93-3.09-3.76-2.5-8.99-1.12-13.21.15-.45.28-.82.4-1.12-.25-.5-.42-.78-.42-.78,0,0-1.18,2.16-2.07,6.68-.89,4.53,3.03,9.83,3.03,9.83,0,0,3.58-3.33,3.6-7.37Z"/>
  <path class="cls-5" d="m149.7,55.94l-1.83-2.23,1.44-12.64s-4.31-4.26-4.51-5.9c-.2-1.64-.05-2.33-.05-2.33,0,0,3.77-.55,5.9,2.43,2.13,2.97,10.11,13.78,10.11,13.78l5.55.5,1.34,1.54-7.98,2.13-6.54-6.99-3.42,9.72Z"/>
  <polygon class="cls-5" points="156 40.43 158.82 44.19 164.52 43.65 161.89 40.92 156 40.43"/>
  <path class="cls-4" d="m164.72,53.26c4.69,8.57,5.45,19.76,4.51,30.24-1.75,19.44-13.92,37-35.21,36.59-5.43-.1-8.47-2.18-12.4-5.01l1.05-1.46c3.9,2.8,6.55,4.58,11.39,4.67,19.96.38,31.11-15.77,32.81-34.72.93-10.37-.74-21.33-5.17-29.42l3.02-.89Z"/>
  <path class="cls-2" d="m97.47,117.45c.27-.37.55-.58.83-.63.27-.04.5.04.68.25.18.19.24.48.19.86-.06.28-.15.49-.28.63-.13.14-.29.23-.46.26-.37.03-.68-.08-.93-.35-.26-.29-.26-.64-.02-1.03Z"/>
  <path class="cls-2" d="m104.95,113.8s.09-.05.16-.03c.07.03.15.07.22.12.07.05.13.11.18.18.04.07.06.12.03.15-.18.3-.41.69-.68,1.16-.28.47-.58.94-.92,1.4-.34.47-.7.89-1.09,1.27-.39.38-.79.62-1.21.74-.2.06-.45.05-.74,0-.29-.06-.56-.16-.83-.29-.26-.13-.5-.29-.69-.47-.2-.19-.3-.37-.31-.57-.03-.29-.01-.63.06-1.01.07-.38.18-.77.33-1.18.15-.4.32-.79.52-1.18.2-.39.42-.74.66-1.06.24-.32.48-.58.74-.79.25-.21.5-.35.74-.41.15-.02.28,0,.39.05.11.06.28.14.49.25.06-.09.14-.21.25-.36.11-.15.19-.23.22-.25.14-.07.29-.06.47.02.18.08.34.18.48.31.14.13.25.26.32.41.07.14.07.25,0,.31-.21.2-.41.43-.6.68-.19.25-.34.5-.47.74-.13.25-.22.48-.28.69-.06.21-.07.37-.03.5-.04.07-.13.1-.26.08-.13-.01-.26-.06-.4-.13-.14-.08-.25-.18-.36-.31s-.15-.28-.15-.47c0-.1.01-.22.04-.35.03-.14.07-.27.12-.41.05-.14.11-.28.17-.41.06-.13.12-.24.16-.33-.16.07-.33.24-.52.52-.19.28-.37.61-.55.99-.17.38-.32.77-.45,1.18-.12.41-.2.78-.24,1.12-.03.33,0,.59.08.78.09.19.27.25.54.18.28-.07.56-.23.84-.47.28-.25.56-.55.84-.9.28-.35.57-.74.85-1.16.29-.42.58-.85.89-1.28Z"/>
  <path class="cls-2" d="m117.04,111.04c.33-.17.63-.08.91.25.21.21.34.4.39.56.06.16.02.35-.1.59-.08.16-.17.38-.29.66-.11.28-.24.62-.39,1.01-.16.39-.3.8-.44,1.21-.13.41-.27.84-.41,1.29-.28.9-.43,1.67-.44,2.32-.02.65.17,1.01.59,1.08-.08.21-.3.29-.66.22-.36-.06-.69-.25-.98-.59-.3-.28-.46-.7-.46-1.25.03-.39.1-.82.2-1.28.1-.46.24-.94.41-1.45.33-1,.6-1.75.81-2.25-.23.23-.46.48-.7.78-.24.29-.48.64-.72,1.03-.25.38-.47.76-.67,1.14-.2.38-.38.76-.53,1.16-.03.09-.14.12-.32.08-.18,0-.36-.06-.54-.19-.17-.1-.26-.24-.27-.42,0-.21.05-.56.15-1.03.06-.24.11-.47.17-.69.06-.23.11-.45.17-.68.06-.23.11-.41.15-.54.04-.14.08-.24.1-.3-.16.16-.34.39-.54.7-.2.31-.44.7-.71,1.18-.26.46-.51.92-.74,1.37-.24.45-.46.9-.68,1.35-.07.12-.24.17-.51.13-.27-.04-.52-.13-.74-.27-.21-.12-.31-.28-.29-.47.02-.06.05-.13.09-.23.04-.1.09-.21.14-.33.12-.29.25-.61.37-.96.12-.34.26-.72.41-1.14.27-.86.4-1.59.39-2.21-.04-.34-.19-.52-.44-.56-.27-.06-.58-.05-.93.02-.42.06-.75.15-1,.27.72.21,1.08.71,1.08,1.49s-.22,1.64-.66,2.62c-.42.97-.9,1.57-1.44,1.81-.5.21-1.07.24-1.71.07-.62-.18-1.01-.59-1.18-1.23-.06-.56.03-1.18.25-1.84.21-.68.47-1.25.78-1.71.06-.06.13-.1.22-.13.09-.03.2-.02.32.03.25.07.46.19.64.35.17.17.21.33.14.47-.07.12-.15.26-.24.41-.09.15-.18.33-.27.53-.1.2-.19.41-.25.61-.07.2-.13.41-.19.63-.09.44-.09.76,0,.96.06.1.15.15.27.14.1-.01.26-.12.47-.34.53-.64.91-1.36,1.15-2.16.23-.8.26-1.4.12-1.81-.14-.44-.5-.45-1.1-.03-.17.1-.34.11-.52.03-.09-.04-.17-.1-.25-.15-.07-.06-.15-.13-.23-.22-.15-.2-.24-.38-.27-.52-.03-.16.02-.27.15-.34.03-.02.07-.04.1-.05.03-.01.08-.03.13-.05.56-.27,1.36-.52,2.4-.76,1.05-.23,1.97-.1,2.77.39.61.5.91,1.04.91,1.64-.02.29-.06.58-.1.85-.04.28-.12.53-.22.77.06-.09.12-.19.18-.3.06-.11.13-.23.21-.35.17-.29.35-.59.53-.89.19-.3.38-.6.58-.9.19-.33.37-.59.54-.8.17-.21.32-.37.44-.48.15-.09.32-.1.52-.02.2.05.39.15.56.32.17.16.25.32.24.47,0,.06-.02.15-.07.29-.03.08-.07.16-.09.25-.03.09-.07.19-.11.29-.03.09-.07.19-.1.29-.03.1-.07.2-.1.3-.07.17-.12.33-.15.49-.03.09-.05.15-.05.17v.05s.12-.15.27-.39c.16-.23.33-.47.52-.73.19-.26.4-.54.62-.85.24-.29.45-.54.65-.75.2-.21.37-.37.53-.48Z"/>
  <path class="cls-5" d="m58.68,112.79s-1.12-2.4,12.1-7.05c0,0,1.47,8.86.55,14.33,0,0-3.32-.08-7.76-2.68-3.96-2.32-4.89-4.6-4.89-4.6Zm5.41-5.85l-3.33-6.75s-2.19-3.19,1.26-4.49c3.45-1.29,6.4-1.78,5.32-4.5-1.08-2.72-3.96-5.35-7.79-3.71-3.83,1.65-4.17,2.59-3.78,3.75l-2.4,2.63s-.27-3.68,5.59-6.94c5.86-3.26,8.36-2.76,8.36-2.76,0,0-2.92-6.38,1.22-6.53,4.14-.16,3.17,5.34,1.85,6.87,0,0,6.09,1.59,8.87,7.46,2.78,5.87-2.05,12.29-2.05,12.29l.29-3.42s1.64-.83,1.7-1.7c.06-.86-.08-4.71-2.55-7.21-2.48-2.5-2.99-1.75-2.61-.22.38,1.53,2.33,7.28-.89,8.75-3.22,1.47-5.58-1.27-7.16.84-.92,1.23-.16,4.72-.16,4.72l-1.74.92Z"/>
  <path class="cls-4" d="m89.96,107.99c.12-.5.23-.97.33-1.43l3.47-9.38.09.19.54-1.87,2.06-5.58s-.17.01-.48.05l-.59.08c-1.86.29-5.96,1.2-10.91,3.89-.44.01-.91.07-1.39.16-.73.16-1.45-.03-2.14-.56-.34-.24-.6-.49-.78-.75-.18-.26-.33-.53-.47-.83-.23-.59,0-1.06.7-1.41,1.87-.64,3.71-1.3,5.51-1.96,2.53-.83,4.8-1.55,6.81-2.18,2.01-.63,3.79-1.15,5.34-1.57,1.56-.42,2.98-.76,4.28-1.04,1.29-.28,8.78-2.6,9.85-2.68,2.22-.18,3.79,0,4.7.54.96.62,1.59,1.29,1.88,2.01.25.86.3,1.51.17,1.94-.2.44-.56.48-1.07.11-1.53-.7-10.31,1.43-13.75,2.1-1.76.33-3.17.62-4.23.87-1.06.25-1.79.47-2.19.65.64-.07,1.22,0,1.73.19.27.08.54.18.82.29l.83.33c.49.28.68.59.57.94-2.73,6.52-4.89,12.64-6.5,18.37v.13c-.74,1.91-2.09,6.42-2.09,6.42-.04.08-6.25,14.08-21.44,10.14-.47-.12-.94-.21-1.4-.34-6.3-1.48-13.54-5.75-18.25-12.93-6.51-9.93-1.46-19.35-.78-21.37.6-1.78,3.97-5.03,4.78-5.79-1.41,1.36-10.73,11.05-2.79,23.29-.45-.88-.77-1.57-.95-1.98.54,1.17,1.82,3.32,3.76,5.6.78.86,1.66,1.74,2.63,2.62,1.05.95,2.07,1.8,3.04,2.55,3.45,2.36,7.76,4.03,12.83,3.69,13.32-.89,14.64-11.2,14.64-11.2l.29-.39c.2-.69.37-1.32.53-1.9Z"/>
  <path class="cls-3" d="m73.47,120.11s9.95-2.63,14.56-12.01c0,0,.69,3.89-5.03,8.47-4.52,3.61-9.53,3.54-9.53,3.54Z"/>
</svg>