<svg enable-background="new 0 0 512 512" height="512" viewBox="0 0 512 512" width="512"
    xmlns="http://www.w3.org/2000/svg">
    <g id="_x31_0_Yacht">
        <g>
            <g>
                <path
                    d="m95.948 302.059c-10.002 0-18.135 8.161-18.135 18.192 0 9.999 8.133 18.135 18.135 18.135 10.033 0 18.192-8.135 18.192-18.135 0-10.031-8.159-18.192-18.192-18.192zm0 25.664c-4.118 0-7.472-3.351-7.472-7.472 0-4.223 3.28-7.529 7.472-7.529 4.223 0 7.529 3.306 7.529 7.529 0 4.121-3.379 7.472-7.529 7.472z" />
                <path
                    d="m141.954 302.059c-10.002 0-18.135 8.161-18.135 18.192 0 9.999 8.133 18.135 18.135 18.135 10.033 0 18.192-8.135 18.192-18.135.001-10.031-8.158-18.192-18.192-18.192zm0 25.664c-4.118 0-7.472-3.351-7.472-7.472 0-4.223 3.28-7.529 7.472-7.529 4.223 0 7.529 3.306 7.529 7.529 0 4.189-3.306 7.472-7.529 7.472z" />
                <path
                    d="m187.966 302.059c-10.002 0-18.135 8.161-18.135 18.192 0 9.999 8.133 18.135 18.135 18.135 10.033 0 18.192-8.135 18.192-18.135 0-10.031-8.159-18.192-18.192-18.192zm0 25.664c-4.118 0-7.472-3.351-7.472-7.472 0-4.223 3.28-7.529 7.472-7.529 4.223 0 7.529 3.306 7.529 7.529 0 4.121-3.379 7.472-7.529 7.472z" />
                <path
                    d="m511.411 374.31c-1.255-2.666-4.436-3.803-7.097-2.546-11.751 5.546-24.674 7.876-37.455 6.944 11.085-9.072 17.95-22.803 17.95-37.554v-11.08c0-11.384-9.263-20.647-20.645-20.647h-22.001c-2.505-13.544-14.381-23.841-28.639-23.841h-53.654v-15.358c.001-.023.015-.041.016-.064.002-.036-.017-.068-.016-.104v-41.583h33.213c16.172 0 30.282-10.968 34.317-26.674.865-3.355-1.676-6.657-5.165-6.657h-113.875v-54.376c0-10.132-8.247-18.377-18.38-18.377-10.132 0-18.374 8.245-18.374 18.377v54.376h-38.675c-13.334 0-26.335 3.944-37.618 11.41l-102.972 68.511h-71.578c-14.845 0-24.83 15.153-18.994 28.814 14.128 33.164 40.218 59.372 72.857 73.776-15.333 2.842-31.361.864-45.662-5.894-2.671-1.257-5.842-.115-7.097 2.543-1.255 2.663-.12 5.842 2.546 7.099 23.393 11.053 50.645 10.766 73.112 0 19.832-9.349 44.121-9.354 63.964 0 21.976 10.581 49.472 11.194 73.107.005 20.192-9.481 43.773-9.513 64.032 0 21.585 10.377 48.6 11.427 73.164-.008 20.316-9.612 43.632-9.612 63.949 0 21.694 10.46 48.956 11.409 73.123.003 2.666-1.256 3.802-4.432 2.547-7.095zm-261.387-85.898c-8.893-8.607-20.582-13.345-32.906-13.345h-4.368l23.235-39.433h39.266c.837 0 1.658.096 2.489.137v54.45c-5.134 3.304-9.158 8.166-11.413 13.923zm25.727 20.991c1.473-4.875 4.919-8.883 9.393-11.149.003-.001.006-.003.009-.004 2.501-1.265 5.312-2.002 8.301-2.002h55.753v13.155zm137.774-13.155c8.341 0 15.407 5.553 17.703 13.155h-71.358v-13.155zm-120.072-10.663c-1.725 0-3.407.179-5.051.468v-48.583c9.74 2.667 18.551 8.199 25.169 16.161 5.665 6.875 12.876 12.467 20.863 16.167 4.893 2.26 9.698 3.817 14.771 4.731v11.055h-55.752zm-11.183-144.816c0-4.254 3.457-7.714 7.711-7.714s7.716 3.46 7.716 7.714v54.376h-15.427zm-81.063 74.671c9.523-6.303 20.494-9.632 31.724-9.632h181.354c-4.394 7.308-12.361 12.004-21.202 12.004h-38.545c-2.947 0-5.332 2.387-5.332 5.332v40.489c-3.412-.773-6.818-1.906-10.294-3.511-6.54-3.03-12.454-7.617-17.125-13.287-11.548-13.894-28.512-21.863-46.537-21.863h-88.369zm-30.352 20.195h52.755l-23.235 39.433h-88.786zm196.789 135.938c-22.452 7.967-40.473 11.531-64.417.193-21.678-10.452-49.257-11.232-73.175 0-19.333 9.159-43.019 9.885-63.959-.003-21.427-10.317-49.649-11.073-73.149.013-.591.285-1.243.539-1.856.804-35.831-11.738-64.736-38.205-79.509-72.886-2.849-6.649 1.969-13.964 9.185-13.964h196.355c9.544 0 18.598 3.673 25.497 10.351l23.331 22.514c.653.63 2.145 1.494 3.702 1.494h194.517c5.503 0 9.981 4.478 9.981 9.984v11.08c0 15.039-9.106 28.769-22.828 34.72-6.878-2.01-10.491-3.949-11.406-4.292-22.988-10.733-49.282-10.736-72.269-.008z" />
            </g>
        </g>
    </g>
</svg>