<?xml version="1.0" encoding="utf-8"?>
<!-- Generator: Adobe Illustrator 27.2.0, SVG Export Plug-In . SVG Version: 6.00 Build 0)  -->
<svg version="1.1" id="katman_1" xmlns="http://www.w3.org/2000/svg" xmlns:xlink="http://www.w3.org/1999/xlink" x="0px" y="0px"
	 viewBox="0 0 100 100" style="enable-background:new 0 0 100 100;" xml:space="preserve">
<path d="M37.7,71.4c0-0.6,0-1.1,0-1.6c0-20,0-40,0-60.1c0-0.5,0-1,0.1-1.5c0.2-1.1,1-1.7,2.1-1.7c1.1,0,1.8,0.8,2,1.8
	c0,0.4,0,0.7,0.1,1.2c1.7,0,3.4-0.1,5.1,0c0.9,0,1.8,0.2,2.6,0.6c9.3,4.1,16,11,21.1,19.5c4.7,7.8,7.7,16.2,9.6,25
	c0.7,3.1,1.2,6.3,1.6,9.5c0.3,2.3-0.4,3-2.7,3c-11.9,0-23.9,0-35.8,0c-0.5,0-0.9,0-1.5,0c0,1.4,0,2.7,0,4.2c0.4,0,0.9,0,1.3,0
	c10.4,0,20.9,0,31.3,0c0.4,0,0.7,0,1.1,0c2,0.1,2.8,1.8,1.7,3.4c-2,2.9-4,5.8-5.9,8.7c-1.2,1.7-2.3,3.4-3.5,5.1
	c-0.6,0.9-1.4,1.4-2.5,1.4c-12,0-24,0-36.1,0c-1.2,0-2-0.4-2.6-1.5c-2.7-4.5-5.5-9-8.2-13.5c-0.5-0.8-0.8-1.6-0.3-2.6
	c0.5-0.9,1.3-1,2.3-1c5.2,0,10.4,0,15.7,0C36.7,71.4,37.1,71.4,37.7,71.4z M77.6,63.1c0-0.2,0-0.4-0.1-0.6
	c-1.2-8.2-3.4-16.1-6.8-23.6c-3.4-7.6-7.8-14.4-14.3-19.7c-2-1.6-4.2-3-6.5-4.6c0,16.4,0,32.4,0,48.4C59.2,63.1,68.4,63.1,77.6,63.1
	z M23.8,75.6c0.2,0.3,0.2,0.5,0.4,0.7c1.8,2.9,3.6,5.8,5.3,8.7c0.4,0.6,0.8,0.8,1.5,0.8c11,0,22,0,33,0c0.7,0,1.1-0.2,1.4-0.7
	c1.1-1.6,2.2-3.2,3.3-4.8c1-1.5,2.1-3.1,3.2-4.7C55.8,75.6,39.9,75.6,23.8,75.6z M41.9,13.8c0,16.5,0,32.9,0,49.3c1.3,0,2.5,0,3.7,0
	c0-16.5,0-32.8,0-49.3C44.4,13.8,43.2,13.8,41.9,13.8z"/>
</svg>
