<?xml version="1.0" encoding="utf-8"?>
<!-- Generator: Adobe Illustrator 27.2.0, SVG Export Plug-In . SVG Version: 6.00 Build 0)  -->
<svg version="1.1" id="katman_1" xmlns="http://www.w3.org/2000/svg" xmlns:xlink="http://www.w3.org/1999/xlink" x="0px" y="0px"
	 viewBox="0 0 100 100" style="enable-background:new 0 0 100 100;" xml:space="preserve">
<style type="text/css">
	.st0{fill:#00AFFF;}
</style>
<g>
	<g>
		<rect x="35.76" y="39.17" class="st0" width="10.36" height="10.09"/>
		<rect x="48.71" y="39.17" class="st0" width="10.36" height="10.09"/>
		<rect x="61.65" y="39.17" class="st0" width="10.36" height="10.09"/>
		<rect x="22.81" y="51.77" class="st0" width="10.36" height="10.09"/>
		<rect x="35.76" y="51.77" class="st0" width="10.36" height="10.09"/>
		<rect x="48.71" y="51.77" class="st0" width="10.36" height="10.09"/>
		<rect x="61.65" y="51.77" class="st0" width="10.36" height="10.09"/>
		<rect x="22.81" y="64.38" class="st0" width="10.36" height="10.09"/>
		<rect x="35.76" y="64.38" class="st0" width="10.36" height="10.09"/>
		<rect x="48.71" y="64.38" class="st0" width="10.36" height="10.09"/>
	</g>
	<g>
		<path class="st0" d="M82.37,78.25V34.13V20.26c0-1.39-1.16-2.52-2.59-2.52H64.24v-4.36c0-0.02-0.01-0.04-0.02-0.06
			c-1.14-1.22-2.57-0.46-2.57,0.63l0,13.18c0,0.02,0.01,0.04,0.02,0.06c1.14,1.22,2.57,0.46,2.57-0.63v-2.13
			c1.18,0.68,1.82,2.16,0.76,3.77c-0.11,0.17-0.26,0.31-0.43,0.41c-1.94,1.15-3.77,0.06-4.11-1.55c-0.07-0.15-0.1-0.32-0.1-0.49
			v-6.3V19v-1.26H30.58l0-4.36c0-0.02-0.01-0.04-0.02-0.06c-1.14-1.22-2.57-0.46-2.57,0.63v13.18c0,0.02,0.01,0.04,0.02,0.06
			c1.14,1.22,2.57,0.46,2.57-0.63v-2.13c1.18,0.68,1.82,2.16,0.76,3.77c-0.11,0.17-0.26,0.31-0.43,0.41
			c-1.94,1.15-3.77,0.06-4.11-1.55c-0.07-0.15-0.1-0.32-0.1-0.49v-6.3V19v-1.26H15.04c-1.43,0-2.59,1.13-2.59,2.52v13.87v44.12
			c0,1.39,1.16,2.52,2.59,2.52h64.74C81.21,80.77,82.37,79.64,82.37,78.25z M15.04,78.25V35.39h64.74v42.86H15.04z"/>
		<path class="st0" d="M84.98,23.41c-0.01,0.02-0.02,0.04-0.02,0.06v57.31c0,1.39-1.16,2.52-2.59,2.52H18.33
			c-0.02,0-0.04,0.01-0.06,0.02c-1.26,1.11-0.47,2.5,0.65,2.5h63.44c2.86,0,5.18-2.26,5.18-5.04V24.04
			C87.55,22.95,86.12,22.18,84.98,23.41z"/>
	</g>
</g>
</svg>
