<?xml version="1.0"?>
<svg xmlns="http://www.w3.org/2000/svg" viewBox="0 0 64 64" width="512" height="512">
    <g id="Campaign_lunch" data-name="Campaign lunch">
        <path
            d="M52.719,6.755a1,1,0,0,1-.5-1.866l2.6-1.5a1,1,0,1,1,1,1.732l-2.6,1.5A.992.992,0,0,1,52.719,6.755Z" />
        <path
            d="M61.9,30.553l-4-8A1,1,0,0,0,57,22H42.107l-1.061-3.964,8.588,2.15,2.181-.585a2,2,0,0,0,1.414-2.449L49.606,3.629a2,2,0,0,0-2.449-1.414L44.976,2.8l-7.4,7.16L31.064,11.7a4,4,0,1,0,2.072,7.727l1.926-.516L35.888,22H23a1,1,0,0,0-.895.553l-4,8A1,1,0,0,0,19,32h3V44.219l-2,.5V43a1,1,0,0,0-1-1H11a1,1,0,0,0-1,1v1H3a1,1,0,0,0-1,1V59a1,1,0,0,0,1,1h7v1a1,1,0,0,0,1,1h8a1,1,0,0,0,1-1V59.618l1.286.643A7.028,7.028,0,0,0,24.417,61H39.393a7.011,7.011,0,0,0,3.5-.938l16.8-9.7A4,4,0,0,0,58,42.921V32h3a1,1,0,0,0,.9-1.447ZM47.675,4.146,51.3,17.669l-.966.259L46.709,4.405ZM44.958,5.6,48.219,17.77l-7.765-1.944L39.2,11.167ZM32.618,17.5a2,2,0,0,1-1.036-3.864l5.8-1.553,1.035,3.862Zm4.376.9.191-.051,1.748-.468L40.037,22H37.958ZM23.618,24H38.382l-3,6H20.618ZM24,32H36a1,1,0,0,0,.9-.553L39,27.236V46.18L28.76,43.437a7,7,0,0,0-3.51-.03L24,43.719ZM4,58V46h6V58Zm14,2H12V44h6ZM59.414,45.9a2.008,2.008,0,0,1-.724,2.735l-16.8,9.7a5,5,0,0,1-2.5.67H24.417a5.036,5.036,0,0,1-2.237-.528L20,57.382v-10.6l5.735-1.434a5,5,0,0,1,2.507.021l14.92,4a2,2,0,1,1-1.035,3.863L30.2,50.034a1,1,0,0,0-.517,1.932l11.925,3.2a4.043,4.043,0,0,0,1.042.138,3.952,3.952,0,0,0,3.965-4.317l10.072-5.815A2.034,2.034,0,0,1,59.414,45.9ZM56,43.281c-.1.049-.209.095-.31.153l-9.751,5.629a3.964,3.964,0,0,0-2.259-1.629L41,46.716V27.236l2.1,4.211A1,1,0,0,0,44,32H56ZM44.618,30l-3-6H56.382l3,6Z" />
        <path
            d="M54.315,10.614a1.015,1.015,0,0,0,.26-.034l2.9-.777a1,1,0,1,0-.518-1.931l-2.9.776a1,1,0,0,0,.257,1.966Z" />
        <path d="M54.861,12.755a1,1,0,0,0,0,2h3a1,1,0,0,0,0-2Z" />
    </g>
</svg>