<?xml version="1.0" encoding="utf-8"?>
<!-- Generator: Adobe Illustrator 27.2.0, SVG Export Plug-In . SVG Version: 6.00 Build 0)  -->
<svg version="1.1" id="katman_1" xmlns="http://www.w3.org/2000/svg" xmlns:xlink="http://www.w3.org/1999/xlink" x="0px" y="0px"
	 viewBox="0 0 100 100" style="enable-background:new 0 0 100 100;" xml:space="preserve">
<style type="text/css">
	.st0{fill:#FFFFFF;}
</style>
<path d="M50,52.3c10.7,0,21.4,0,32.1,0c0.7,0,1.2-0.2,1.7-0.7c1.9-2.3,4.1-4.5,5.9-7c3.4-4.5,1.5-11.3-3.7-13.3
	c-11-4.2-21.8-8.7-32.7-13.1c-2.3-0.9-4.4-0.9-6.7,0c-5.9,2.4-11.8,4.8-17.7,7.2c-0.3,0.1-0.6,0.3-0.9,0.3c-0.7,0.2-1.3-0.1-1.6-0.7
	c-0.3-0.7,0-1.2,0.6-1.6c0.2-0.1,0.4-0.2,0.6-0.3c6.3-2.5,12.5-5,18.8-7.5c2.3-0.9,4.6-0.9,7,0c11.4,4.6,22.7,9.1,34.1,13.7
	c5,2,7.7,8,6.1,13.3c-0.6,1.9-1.5,3.5-2.8,5c-1.8,2.1-3.6,4.1-5.4,6.2c-0.3,0.3-0.4,0.8-0.5,1.3c-0.4,3.2,0.3,6.1,2,8.8
	c0.4,0.6,0.7,1.4,1,2.1c0.7,1.5,0.5,2.6-0.8,3.6c-4.1,3.7-9,5.9-14.2,7.6c-6.9,2.2-14.1,2.9-21.3,3c-5.3,0-10.6-0.1-15.8-0.9
	c-7.8-1.2-15.3-3.5-21.7-8.3c-0.6-0.4-1.1-0.9-1.7-1.4c-1.2-1-1.5-2.2-0.8-3.6c0.9-1.8,1.8-3.5,2.6-5.3c0.3-0.6,0.4-1.2,0.4-1.9
	c0-1.5,0.3-3.2-0.2-4.5c-0.5-1.3-1.8-2.3-2.8-3.4c-1.3-1.5-2.6-2.9-3.8-4.5c-3.4-4.6-3-11,1.1-14.9c0.8-0.8,1.9-1.5,3-2
	c2.4-1.1,4.9-2,7.4-3c0.4-0.1,0.9-0.3,1.1-0.1c0.4,0.2,0.8,0.7,0.9,1.1c0.2,0.6-0.3,1.1-0.8,1.3c-1.2,0.5-2.4,1-3.6,1.5
	c-1.3,0.5-2.5,1-3.7,1.5c-3.4,1.4-5.5,5.2-5,8.8c0.3,2.1,1.2,3.9,2.6,5.4c1.7,1.9,3.4,3.9,5.1,5.9c0.4,0.5,0.8,0.7,1.5,0.7
	C28.4,52.3,39.2,52.3,50,52.3z M16.1,63.2c0.1,0.1,0.2,0.2,0.3,0.2c0.8,0.5,1.6,1,2.4,1.4c6.9,3.8,14.4,5.5,22.2,6.1
	c6.3,0.5,12.6,0.4,18.9-0.1c1-0.1,1.7,0.4,1.8,1.2c0.1,0.8-0.5,1.3-1.5,1.4c-7.5,0.5-15,0.7-22.5-0.2c-5.1-0.6-10-1.7-14.7-3.7
	c-2.7-1.1-5.3-2.5-8-3.8c0,0-0.1,0.2-0.2,0.4c-0.6,0.8-0.5,1.3,0.3,2c2.3,1.9,4.8,3.4,7.4,4.6c5.6,2.5,11.5,3.7,17.5,4.3
	c8,0.8,16,0.7,24-0.5c5.7-0.9,11.3-2.4,16.4-5.2c2-1.1,4-2.4,5.7-4.1c-0.3-0.6-0.5-1.1-0.8-1.6c-0.2,0.1-0.4,0.2-0.6,0.3
	c-3.5,2.2-7.2,3.8-11.1,5c-1.6,0.5-3.2,0.9-4.8,1.3c-0.8,0.2-1.5-0.2-1.6-0.9c-0.2-0.7,0.2-1.3,1-1.6c0.3-0.1,0.6-0.2,0.9-0.2
	c3.9-0.9,7.7-2.2,11.2-4c1.3-0.7,2.6-1.5,3.8-2.2C83,61.2,83,61.2,81,61.2c-20.7,0-41.3,0-62,0C16.9,61.2,16.9,61.2,16.1,63.2z
	 M82.4,55c-21.7,0-43.3,0-64.9,0c0,0.6,0,1.2,0,1.8c0,0.6,0,1.1,0,1.7c21.7,0,43.3,0,64.9,0C82.4,57.2,82.4,56.1,82.4,55z"/>
<path d="M50,49c-7-0.1-12.7-5.8-12.7-12.8c0.1-7,5.8-12.7,12.8-12.6c7,0.1,12.7,5.8,12.6,12.7C62.7,43.4,56.9,49.1,50,49z M50,46.5
	c5.6,0,10.1-4.6,10.1-10.1c0-5.6-4.6-10.1-10.2-10.1c-5.6,0-10.1,4.6-10.1,10.1C39.9,41.9,44.4,46.5,50,46.5z"/>
<path class="st0" d="M16.1,63.2c0.8-2,0.8-2,2.9-2c20.7,0,41.3,0,62,0c2.1,0,2.1,0,2.9,2.1c-1.3,0.7-2.5,1.5-3.8,2.2
	c-3.6,1.8-7.3,3.1-11.2,4c-0.3,0.1-0.6,0.1-0.9,0.2c-0.8,0.3-1.2,0.9-1,1.6c0.2,0.7,0.8,1.1,1.6,0.9c1.6-0.4,3.2-0.8,4.8-1.3
	c3.9-1.2,7.6-2.8,11.1-5c0.2-0.1,0.3-0.2,0.6-0.3c0.3,0.6,0.5,1.1,0.8,1.6c-1.7,1.7-3.6,2.9-5.7,4.1c-5.1,2.8-10.7,4.3-16.4,5.2
	c-8,1.2-16,1.3-24,0.5c-6-0.6-11.9-1.8-17.5-4.3c-2.7-1.2-5.2-2.7-7.4-4.6c-0.8-0.7-0.9-1.2-0.3-2c0.1-0.2,0.2-0.3,0.2-0.4
	c2.7,1.3,5.3,2.7,8,3.8c4.7,1.9,9.7,3.1,14.7,3.7c7.5,0.9,15,0.8,22.5,0.2c1-0.1,1.6-0.6,1.5-1.4c-0.1-0.8-0.7-1.3-1.8-1.2
	C53.6,71.4,47.3,71.5,41,71c-7.8-0.6-15.3-2.4-22.2-6.1c-0.8-0.4-1.6-1-2.4-1.4C16.2,63.4,16.2,63.3,16.1,63.2z"/>
<path class="st0" d="M82.4,55c0,1.2,0,2.3,0,3.5c-21.6,0-43.2,0-64.9,0c0-0.5,0-1.1,0-1.7c0-0.6,0-1.1,0-1.8
	C39.1,55,60.7,55,82.4,55z"/>
<path class="st0" d="M50,46.5c-5.6,0-10.1-4.6-10.2-10.1c0-5.6,4.6-10.1,10.1-10.1c5.6,0,10.1,4.6,10.2,10.1
	C60.1,41.9,55.6,46.5,50,46.5z M48.7,39.8c-1.1-0.4-1.7-1.2-2.1-2.1c-0.4-0.8-1.1-1.1-1.8-0.7c-0.7,0.3-0.9,1-0.5,1.8
	c0.5,1.4,1.5,2.4,2.8,3.1c3.2,1.8,7.4,0.3,8.7-3.1c0.2-0.6,0.3-1.2-0.3-1.6c-0.4-0.2-1-0.3-1.4-0.2c-0.3,0.1-0.6,0.6-0.8,1
	c-0.4,0.8-1,1.5-1.9,1.8c0-1.9,0-3.8,0-5.6c1.9-0.3,2.4-0.6,2.4-1.4c0-0.8-0.5-1.1-2.4-1.3c-0.1-0.8-0.2-1.7-1.3-1.7
	c-1.1,0-1.3,0.9-1.4,1.8c-1,0.1-2.3-0.2-2.3,1.3c0,1.6,1.4,1.3,2.3,1.4C48.7,36.1,48.7,37.9,48.7,39.8z"/>
<path d="M48.7,39.8c0-1.9,0-3.7,0-5.6c-1-0.1-2.4,0.2-2.3-1.4c0-1.5,1.3-1.2,2.3-1.3c0.1-0.9,0.3-1.8,1.4-1.8c1.1,0,1.3,0.9,1.3,1.7
	c1.9,0.2,2.4,0.5,2.4,1.3c0,0.8-0.5,1.1-2.4,1.4c0,1.8,0,3.7,0,5.6c1-0.3,1.5-1,1.9-1.8c0.2-0.4,0.5-0.9,0.8-1
	c0.4-0.1,1-0.1,1.4,0.2c0.6,0.3,0.5,1,0.3,1.6c-1.3,3.4-5.5,4.9-8.7,3.1c-1.3-0.7-2.2-1.7-2.8-3.1c-0.3-0.8-0.1-1.5,0.5-1.8
	c0.7-0.3,1.4-0.1,1.8,0.7C47,38.6,47.6,39.4,48.7,39.8z"/>
</svg>
