<?xml version="1.0" encoding="utf-8"?>
<!-- Generator: Adobe Illustrator 27.2.0, SVG Export Plug-In . SVG Version: 6.00 Build 0)  -->
<svg version="1.1" id="katman_1" xmlns="http://www.w3.org/2000/svg" xmlns:xlink="http://www.w3.org/1999/xlink" x="0px" y="0px"
	 viewBox="0 0 100 100" style="enable-background:new 0 0 100 100;" xml:space="preserve">
<g>
	<path d="M16.81,45.33l-3.51,2.95c-2.42,2.03-3.81,5.01-3.81,8.17v13.39c0,2.38,1.3,4.47,3.22,5.6v5.69c0,2.45,2,4.44,4.46,4.44
		h7.17c2.46,0,4.46-1.99,4.46-4.44v-4.78h42.74v4.78c0,2.45,2,4.44,4.46,4.44h7.17c2.46,0,4.46-1.99,4.46-4.44v-5.87
		c1.76-1.17,2.92-3.16,2.92-5.42V56.44c0-3.16-1.39-6.13-3.81-8.17l-3.51-2.94l2.7-2.35h7.37v-3.52h-8.7l-3.45,3l-5.17-11.69
		c-1.5-3.79-4.55-5.8-8.82-5.8h-5.62l-2.45-7.87H41.22l-2.45,7.87h-5.9c-4.27,0-7.32,2.01-8.79,5.73l-5.2,11.76l-3.45-3h-8.7v3.52
		h7.37L16.81,45.33z M25.24,81.13c0,0.5-0.41,0.91-0.92,0.91h-7.17c-0.51,0-0.92-0.41-0.92-0.91v-4.78h9V81.13z M84.06,81.13
		c0,0.5-0.41,0.91-0.92,0.91h-7.17c-0.51,0-0.92-0.41-0.92-0.91v-4.78h8.91c0.03,0,0.06,0,0.09,0V81.13z M84.42,50.97
		c1.62,1.36,2.56,3.36,2.56,5.47v13.39c0,1.65-1.35,2.99-3.01,2.99H16.03c-1.66,0-3.01-1.34-3.01-2.99V56.44
		c0-2.11,0.93-4.11,2.56-5.47l3.93-3.29l1.07,0.93l0,0l3.82,3.37h24.95h26.27l3.82-3.37l0,0l1.07-0.93L84.42,50.97z M43.83,20.62
		h12.63l1.35,4.35h-8.47h-6.86L43.83,20.62z M21.68,44.88l5.67-12.82c0.96-2.43,2.72-3.56,5.52-3.56h4.8h11.66h13.27h4.52
		c2.81,0,4.56,1.13,5.55,3.63l5.64,12.76l-4.05,3.58H49.34h-23.6l-2.83-2.5l0,0l-0.02-0.02L21.68,44.88z"/>
	<rect x="34.99" y="66.29" width="30.02" height="3.52"/>
	<path d="M37.38,62.46c0.27-0.67,0.1-1.44-0.43-1.93l-5.37-5.05c-0.71-0.67-1.83-0.64-2.5,0.07c-0.67,0.71-0.64,1.82,0.07,2.49
		l2.14,2.01h-7.79c-3.68,0-4.98-3.66-5.04-3.84c-0.3-0.92-1.3-1.43-2.23-1.13c-0.93,0.3-1.44,1.29-1.14,2.22
		c0.08,0.26,2.11,6.27,8.4,6.27h12.24C36.46,63.57,37.11,63.13,37.38,62.46z"/>
	<path d="M68.72,60.05l2.14-2.01c0.71-0.67,0.74-1.78,0.07-2.49c-0.67-0.71-1.79-0.74-2.5-0.07l-5.37,5.05
		c-0.53,0.5-0.7,1.26-0.43,1.93c0.27,0.67,0.92,1.11,1.64,1.11h12.24c6.29,0,8.32-6.02,8.4-6.27c0.3-0.92-0.21-1.91-1.13-2.21
		c-0.92-0.3-1.92,0.2-2.23,1.12c-0.05,0.16-1.34,3.84-5.04,3.84H68.72z"/>
</g>
</svg>
