<?xml version="1.0" encoding="utf-8"?>
<!-- Generator: Adobe Illustrator 27.2.0, SVG Export Plug-In . SVG Version: 6.00 Build 0)  -->
<svg version="1.1" id="katman_1" xmlns="http://www.w3.org/2000/svg"
	xmlns:xlink="http://www.w3.org/1999/xlink" x="0px" y="0px"
	viewBox="0 0 100 100" style="enable-background:new 0 0 100 100;" xml:space="preserve">
<style type="text/css">
	.st0{fill:#FFFFFF;}
</style>
<path class="st0" d="M59,31.4c0-2.5,0.1-5,0-7.4c-0.3-3.4-1.8-6.1-4.6-8c-2.4-1.7-5.1-2.9-7.8-3.7c-8.2-2.4-16.4-2.5-24.8-0.9
	c-4,0.8-7.8,2.2-11.3,4.6c-2,1.4-3.6,3.2-4.2,5.8c-0.3,1.5-0.6,3.1-0.6,4.6C5.7,38.2,5.7,50,5.7,61.8c0,3.3,1.2,6,3.9,8
	c0.3,0.2,0.6,0.8,0.6,1.2c0.1,2.4,0,4.8,0,7.3c0,1.7,0.8,2.7,2.2,2.7c1.4,0,2.2-1,2.2-2.7c0-1.9,0-3.8,0-5.7c0-0.3,0-0.6,0.1-1
	c7.4,0,14.8,0,22.2,0c0-1.6,0-3.1,0-4.6c-0.4,0-0.8,0-1.2,0c-6.9,0-13.8,0-20.7,0c-3.1,0-4.8-1.8-4.8-5.1c0-4.3,0-8.6,0-12.9
	c0-0.3,0-0.6,0-1c11.4,0,22.7,0,34,0c0.4-1.5,0.8-3,1.2-4.7c-3.7,0-7.1,0-10.7,0c0-4.8,0-9.4,0-14.1c6.7,0,13.4,0,20.1,0
	c0,1,0,1.8,0,2.8c0.8-0.1,1.5-0.3,2.2-0.4C57.7,31.4,58.4,31.4,59,31.4z M90.4,78.6c0.1,0.1,0.1,0.2,0.1,0.2c0,1.4,0,2.9,0,4.3
	c0,1,0.3,1.9,1.3,2.3c1.6,0.7,3.1-0.4,3.1-2.5c0-6.1,0.1-12.2,0-18.4c-0.1-4.2-1.7-7.7-5.2-10c-0.4-0.3-0.7-0.8-0.8-1.3
	c-0.9-3.3-1.7-6.7-2.6-10c-1.2-4.4-4.5-7-8.9-7.1c-2.4,0-4.8,0-7.3,0c-3.7,0-7.4,0-11.1,0c-4.3,0-7.6,2.6-8.8,7
	c-1,3.4-1.9,6.8-2.8,10.2c-0.1,0.4-0.4,0.9-0.7,1.2c-3.7,2.5-5.3,6.2-5.3,10.7c-0.1,5.8,0,11.5,0,17.3c0,0.5,0,1,0.2,1.5
	c0.4,1.5,2,2.2,3.3,1.3c0.7-0.5,0.9-1.3,0.9-2.1c0-1.5,0-3,0-4.5C60.7,78.6,75.5,78.6,90.4,78.6z M20,59.7c1.7,0.1,3.3-1.5,3.4-3.4
	c0.1-1.8-1.4-3.5-3.2-3.6c-1.7-0.1-3.3,1.5-3.4,3.4C16.8,57.9,18.3,59.6,20,59.7z"/>
<path d="M59,31.4c-0.6,0-1.3,0.1-2,0.1c-0.7,0.1-1.4,0.2-2.2,0.4c0-0.9,0-1.8,0-2.8c-6.7,0-13.4,0-20.1,0c0,4.7,0,9.3,0,14.1
	c3.5,0,7,0,10.7,0c-0.4,1.6-0.8,3.1-1.2,4.7c-11.3,0-22.6,0-34,0c0,0.4,0,0.7,0,1c0,4.3,0,8.6,0,12.9c0,3.3,1.7,5.1,4.8,5.1
	c6.9,0,13.8,0,20.7,0c0.4,0,0.7,0,1.2,0c0,1.6,0,3.1,0,4.6c-7.4,0-14.8,0-22.2,0c0,0.4,0,0.7-0.1,1c0,1.9,0,3.8,0,5.7
	c0,1.7-0.8,2.7-2.2,2.7c-1.4,0-2.2-1-2.2-2.7c0-2.4,0-4.8,0-7.3c0-0.4-0.3-1-0.6-1.2c-2.6-2-3.8-4.7-3.9-8c0-11.8,0-23.6,0-35.5
	c0-1.5,0.3-3.1,0.6-4.6c0.5-2.6,2.2-4.4,4.2-5.8c3.4-2.4,7.3-3.8,11.3-4.6c8.3-1.6,16.6-1.5,24.8,0.9c2.8,0.8,5.4,2,7.8,3.7
	c2.8,1.9,4.3,4.6,4.6,8C59.2,26.4,59,28.9,59,31.4z M54.6,24.4c-0.1-1.7-0.7-3.1-1.9-3.9c-1.3-1-2.8-1.9-4.3-2.5
	c-4.1-1.8-8.3-2.6-12.7-2.9c-5.1-0.3-10.1,0-15,1.3c-3,0.8-5.9,1.9-8.3,3.9c-1.3,1-2,2.3-2.1,4.1C25.1,24.4,39.8,24.4,54.6,24.4z
	 M10.2,29.1c0,4.8,0,9.4,0,14.1c6.7,0,13.4,0,20,0c0-4.7,0-9.4,0-14.1C23.5,29.1,16.9,29.1,10.2,29.1z"/>
<path d="M90.4,78.6c-14.9,0-29.8,0-44.8,0c0,1.5,0,3,0,4.5c0,0.9-0.2,1.6-0.9,2.1c-1.3,0.8-2.9,0.2-3.3-1.3c-0.1-0.5-0.2-1-0.2-1.5
	c0-5.8-0.1-11.5,0-17.3c0-4.5,1.6-8.2,5.3-10.7c0.3-0.2,0.6-0.7,0.7-1.2c1-3.4,1.9-6.8,2.8-10.2c1.2-4.4,4.5-6.9,8.8-7
	c3.7,0,7.4,0,11.1,0c2.4,0,4.8,0,7.3,0c4.4,0,7.7,2.6,8.9,7.1c0.9,3.3,1.7,6.7,2.6,10c0.1,0.5,0.5,1,0.8,1.3c3.5,2.3,5.2,5.8,5.2,10
	c0.1,6.1,0,12.2,0,18.4c0,2.1-1.5,3.2-3.1,2.5c-1-0.4-1.2-1.3-1.3-2.3c0-1.4,0-2.9,0-4.3C90.5,78.8,90.5,78.8,90.4,78.6z M90.5,73.9
	c0-3.2,0-6.2,0-9.3c0-4.1-2.9-7.2-6.7-7.2c-10.4-0.1-20.8-0.1-31.2,0c-3.6,0-6.5,2.8-6.7,6.5c-0.2,3.3,0,6.5,0,9.8
	c0,0,0.1,0.1,0.1,0.2C60.8,73.9,75.6,73.9,90.5,73.9z M84.3,52.7c-0.9-3-1.6-6-2.5-8.9c-0.6-2-2.2-2.9-4.1-2.9c-6.3,0-12.6,0-19,0
	c-2,0-3.4,1-4.2,3c-0.4,1.1-0.7,2.2-1,3.4c-0.5,1.8-0.9,3.6-1.4,5.4C62.9,52.7,73.5,52.7,84.3,52.7z"/>
<path d="M20,59.7c-1.8-0.1-3.2-1.8-3.2-3.6c0.1-1.9,1.7-3.5,3.4-3.4c1.8,0.1,3.2,1.8,3.2,3.6C23.4,58.2,21.8,59.8,20,59.7z"/>
<path class="st0" d="M54.6,24.4c-14.8,0-29.5,0-44.3,0c0.1-1.8,0.8-3.1,2.1-4.1c2.5-2,5.4-3.1,8.3-3.9c4.9-1.4,9.9-1.6,15-1.3
	c4.4,0.3,8.7,1.1,12.7,2.9c1.5,0.7,2.9,1.6,4.3,2.5C53.9,21.3,54.5,22.7,54.6,24.4z"/>
<path class="st0" d="M10.2,29.1c6.7,0,13.3,0,20,0c0,4.7,0,9.4,0,14.1c-6.7,0-13.3,0-20,0C10.2,38.6,10.2,33.9,10.2,29.1z"/>
<path class="st0" d="M90.5,73.9c-15,0-29.8,0-44.5,0c-0.1-0.1-0.1-0.1-0.1-0.2c0-3.3-0.1-6.5,0-9.8c0.2-3.7,3.1-6.5,6.7-6.5
	c10.4-0.1,20.8-0.1,31.2,0c3.9,0,6.7,3.2,6.7,7.2C90.6,67.7,90.5,70.8,90.5,73.9z M52.4,69.1c1.7,0.1,3.3-1.5,3.4-3.4
	c0.1-1.8-1.4-3.4-3.2-3.5c-1.7-0.1-3.3,1.4-3.4,3.3C49.1,67.3,50.6,69,52.4,69.1z M83.7,69.1c1.7,0.1,3.3-1.5,3.4-3.4
	c0.1-1.8-1.4-3.5-3.2-3.6c-1.7-0.1-3.3,1.4-3.4,3.3C80.4,67.3,81.9,69,83.7,69.1z"/>
<path class="st0" d="M84.3,52.7c-10.8,0-21.4,0-32.2,0c0.5-1.8,0.9-3.6,1.4-5.4c0.3-1.1,0.6-2.3,1-3.4c0.7-2,2.2-3,4.2-3
	c6.3,0,12.6,0,19,0c1.9,0,3.5,0.9,4.1,2.9C82.7,46.7,83.5,49.6,84.3,52.7z"/>
<path d="M52.4,69.1c-1.8-0.1-3.3-1.8-3.2-3.6c0.1-1.9,1.7-3.4,3.4-3.3c1.8,0.1,3.3,1.7,3.2,3.5C55.8,67.6,54.2,69.2,52.4,69.1z"/>
<path d="M83.7,69.1c-1.8-0.1-3.3-1.8-3.2-3.7c0.1-1.9,1.7-3.4,3.4-3.3c1.8,0.1,3.3,1.8,3.2,3.6C87,67.6,85.4,69.2,83.7,69.1z"/>
</svg>