<?xml version="1.0" encoding="utf-8"?>
<!-- Generator: Adobe Illustrator 27.2.0, SVG Export Plug-In . SVG Version: 6.00 Build 0)  -->
<svg version="1.1" id="katman_1" xmlns="http://www.w3.org/2000/svg" xmlns:xlink="http://www.w3.org/1999/xlink" x="0px" y="0px"
	 viewBox="0 0 100 100" style="enable-background:new 0 0 100 100;" xml:space="preserve">
<path d="M51.3,56.9c0,1,0,1.9,0,2.9c0.3,0,0.6,0,0.9,0c6.4,0,12.7,0,19.1,0c1.5,0,1.7,0.2,1.7,1.8c0,1.7,0,3.5,0,5.2
	c0,0.3,0,0.6,0,0.9c0.4,0,0.7,0,0.9,0c3,0,6,0,9.1,0c1.3,0,1.7,0.5,1.4,1.8c-1.5,7.1-3.1,14.3-4.6,21.4c-0.2,1.2-0.5,1.4-1.7,1.4
	c-0.9,0-1.8,0-2.6,0c-0.8,0-1.2-0.3-1.6-1c-0.8-1.9-1.7-3.7-2.5-5.6c-0.2-0.5-0.5-0.6-1-0.6c-13.7,0-27.4,0-41.1,0
	c-0.5,0-0.8,0.2-1,0.6c-0.8,1.9-1.7,3.7-2.5,5.6c-0.3,0.7-0.8,1-1.6,1c-0.9,0-1.9,0-2.8,0c-1,0-1.3-0.3-1.5-1.2
	c-1.1-5.3-2.3-10.6-3.4-15.9c-0.4-1.9-0.8-3.8-1.2-5.6c-0.3-1.4,0.1-1.8,1.5-1.8c3.3,0,6.5,0,9.9,0c0-0.3,0.1-0.6,0.1-0.9
	c0-1.9,0-3.7,0-5.6c0-1.2,0.3-1.5,1.5-1.5c6.5,0,13,0,19.5,0c0.3,0,0.6,0,1,0c0-1.1,0-2.2,0-3.3c-0.4,0-0.7,0-1,0
	c-8.4,0-16.9,0-25.3,0c-0.4,0-0.8,0-1.1-0.1c-0.7-0.3-0.7-0.9-0.5-1.6c1.2-3.4,2.8-6.6,4.6-9.8c5.8-10,13.4-18.4,22.6-25.3
	c0.5-0.4,0.7-0.8,0.7-1.5c0-2.1,0-4.3,0-6.4c0-0.6,0-1.1,0.6-1.4c0.6-0.3,1.1,0,1.5,0.4c8.1,6.1,14.7,13.5,20.3,21.9
	C76.2,39.6,80.1,47,83,55c0.5,1.4,0.1,2-1.4,2c-9.7,0-19.5,0-29.2,0C52,56.9,51.6,56.9,51.3,56.9z M51.3,13.5c0,13.8,0,27.5,0,41.2
	c9.8,0,19.5,0,29.3,0C74.1,38.6,64.9,24.7,51.3,13.5z M49,21.9c-11.2,8.8-19.8,19.4-25.4,32.4c8.6,0,17,0,25.4,0
	C49,43.5,49,32.8,49,21.9z M36.2,77.8c9.2,0,18.4,0,27.7,0c0-3.8,0-7.5,0-11.3c-9.3,0-18.5,0-27.7,0C36.2,70.3,36.2,74,36.2,77.8z
	 M70.8,83c0-7.1,0-14,0-21c-1.6,0-3.1,0-4.7,0c0,0.3,0,0.6,0,0.9c0,5.1,0,10.2,0,15.3c0,1.4-0.3,1.7-1.7,1.7c-9.6,0-19.2,0-28.8,0
	c-1.3,0-1.7-0.3-1.7-1.6c0-5.1,0-10.2,0-15.3c0-0.3,0-0.6,0-1c-1.6,0-3.2,0-4.7,0c0,7,0,14,0,21C43.1,83,56.9,83,70.8,83z M73.1,70
	c0,0.2-0.1,0.3-0.1,0.4c0,4.4,0,8.8,0,13.2c0,0.2,0.1,0.5,0.1,0.7c0.8,1.8,1.6,3.7,2.5,5.5c0.4,0.9,1.2,0.3,1.8,0.4
	c0.1,0,0.5-0.4,0.5-0.7c0.9-4.1,1.8-8.3,2.7-12.5c0.5-2.3,1-4.6,1.5-7C79.1,70,76.1,70,73.1,70z M22.2,90.2c0.4,0,0.7,0,0.9,0
	c0.8,0.1,1.2-0.2,1.5-0.9c0.6-1.6,1.4-3.1,2.1-4.7c0.2-0.4,0.3-0.9,0.3-1.4c0-4.1,0-8.2,0-12.3c0-0.3,0-0.6,0-0.9c-3,0-6,0-9.1,0
	C19.3,76.8,20.8,83.4,22.2,90.2z M49,62c-4.3,0-8.6,0-12.8,0c0,0.7,0,1.4,0,2.1c4.3,0,8.6,0,12.8,0C49,63.4,49,62.8,49,62z M63.9,62
	c-4.2,0-8.4,0-12.6,0c0,0.7,0,1.4,0,2.1c4.2,0,8.4,0,12.6,0C63.9,63.4,63.9,62.8,63.9,62z"/>
</svg>
