<?xml version="1.0" encoding="utf-8"?>
<!-- Generator: Adobe Illustrator 27.2.0, SVG Export Plug-In . SVG Version: 6.00 Build 0)  -->
<svg version="1.1" id="katman_1" xmlns="http://www.w3.org/2000/svg" xmlns:xlink="http://www.w3.org/1999/xlink" x="0px" y="0px"
	 viewBox="0 0 100 100" style="enable-background:new 0 0 100 100;" xml:space="preserve">
<style type="text/css">
	.st0{fill:#FFFFFF;}
</style>
<path class="st0" d="M16.1,63.2c0.8-2,0.8-2,2.9-2c20.7,0,41.3,0,62,0c2.1,0,2.1,0,2.9,2.1c-1.3,0.7-2.5,1.5-3.8,2.2
	c-3.6,1.8-7.3,3.1-11.2,4c-0.3,0.1-0.6,0.1-0.9,0.2c-0.8,0.3-1.2,0.9-1,1.6c0.2,0.7,0.8,1.1,1.6,0.9c1.6-0.4,3.2-0.8,4.8-1.3
	c3.9-1.2,7.6-2.8,11.1-5c0.2-0.1,0.3-0.2,0.6-0.3c0.3,0.6,0.5,1.1,0.8,1.6c-1.7,1.7-3.6,2.9-5.7,4.1c-5.1,2.8-10.7,4.3-16.4,5.2
	c-8,1.2-16,1.3-24,0.5c-6-0.6-11.9-1.8-17.5-4.3c-2.7-1.2-5.2-2.7-7.4-4.6c-0.8-0.7-0.9-1.2-0.3-2c0.1-0.2,0.2-0.3,0.2-0.4
	c2.7,1.3,5.3,2.7,8,3.8c4.7,1.9,9.7,3.1,14.7,3.7c7.5,0.9,15,0.8,22.5,0.2c1-0.1,1.6-0.6,1.5-1.4c-0.1-0.8-0.7-1.3-1.8-1.2
	C53.6,71.4,47.3,71.5,41,71c-7.8-0.6-15.3-2.4-22.2-6.1c-0.8-0.4-1.6-1-2.4-1.4C16.2,63.4,16.2,63.3,16.1,63.2z"/>
<path class="st0" d="M82.4,55c0,1.2,0,2.3,0,3.5c-21.6,0-43.2,0-64.9,0c0-0.5,0-1.1,0-1.7c0-0.6,0-1.1,0-1.8
	C39.1,55,60.7,55,82.4,55z"/>
<g>
	<path class="st0" d="M48.1,33.5c-0.7,1.6-1.9,2.7-3.4,3.5c-0.2,0.1-0.4,0.1-0.6,0.1c-5.9,0.6-10.9,4.7-12.3,10.5
		c-0.5,2.1-0.4,4.4-0.5,6.6c0,0.9,0.6,1.4,1.4,1.4c0.8,0,1.3-0.6,1.3-1.5c0-1,0-2.1,0-3.1c0.1-5.6,4.1-10.2,9.6-11.1
		c0.5-0.1,0.9,0,1.3,0.4c2.3,2.3,4.6,4.6,6.8,6.9c0.3,0.3,0.6,0.9,0.6,1.4c0.1,1.8,0,3.6,0,5.4c0,1.1,0.7,1.7,1.7,1.5
		c0.8-0.2,1-0.8,1-1.6c0-1.8,0-3.6,0-5.4c0-0.4,0.2-0.9,0.5-1.2c2.3-2.4,4.6-4.7,7-7c0.3-0.3,0.8-0.4,1.2-0.4c4.5,0.6,8.4,4,9.3,8.5
		c0.4,1.8,0.3,3.7,0.4,5.5c0.1,1.2,0.4,1.7,1.3,1.8c0.9,0,1.4-0.6,1.4-1.8c0-0.9,0-1.9,0-2.8c0-6.8-5-12.6-11.7-13.8
		c-0.6-0.1-1.2-0.1-1.7-0.3c-1.6-0.9-2.9-2.1-3.7-3.8c0.1-0.1,0.1-0.2,0.2-0.2c3.6-2.4,5.1-5.9,5.1-10.1c0-0.6,0.2-1.3,0.5-1.9
		c1.3-2.6,2.3-5.3,2.9-8.1c0.8-3.7-2.4-7.9-6.4-8.8c-2-0.4-4-0.2-5.3,1.4c-1,1.2-2,1.1-3.3,1c-3.3-0.3-6.5,0.2-9.3,2.2
		c-1.6,1.1-2.6,2.6-2.9,4.6c-0.3,2.5-0.1,5,1,7.4c0.4,0.9,0.6,1.8,0.6,2.8c0,3.5,1.4,6.4,4.1,8.6C46.8,32.6,47.4,33,48.1,33.5z
		 M24,66.9c-0.1,0-0.2-0.1-0.2-0.1c0-0.6,0-1.2,0-1.9c0-1.4-0.4-1.8-1.8-1.8c-2.9,0-5.8,0-8.7,0c-1.4,0-1.8,0.4-1.8,1.8
		c0,3,0,6,0,9.1c0,1,0,2,0,3c0,1.1,0.8,1.6,1.7,1.4c0.8-0.2,0.9-0.8,0.9-1.5c0-2.8,0-5.6,0-8.4c0-0.8-0.3-2,0.2-2.4
		c0.5-0.4,1.6-0.2,2.5-0.2c1.4,0,2.8,0,4.2,0c0,7.1,0,14.2,0,21.2c-2.2,0-4.2,0-6.3,0c-0.2,0-0.5-0.4-0.5-0.6c-0.1-0.9,0-1.7,0-2.6
		c0-1.1-0.5-1.6-1.4-1.6c-0.8,0-1.3,0.5-1.3,1.6c0,1.4,0,2.8,0,4.2c0,1.3,0.4,1.8,1.8,1.8c2.8,0,5.7,0,8.5,0c1.7,0,2-0.4,2-2
		c0-5.6,0-11.1,0-16.7c0-0.3,0.1-0.7,0.3-0.8c2.3-1.5,4.1-3.5,5.7-5.7c0.9-1.2,2.1-2.1,3.6-2.4c2.1-0.4,4.3-0.7,6.4-0.7
		c3.5,0,6.8,1.2,10,2.5c4.9,1.9,9.7,4.1,14.8,5.3c2.4,0.6,4.9,0.9,7.4,1.4c1.2,0.2,2.1,0.8,2.6,2c0.6,1.5,0,2.6-1.6,2.5
		c-1.6-0.1-3.3-0.3-4.8-0.8c-3.7-1.1-7.5-1.9-11.5-1.8c-3.2,0.1-6.2,0.6-9.1,2c-0.9,0.4-1.1,1.3-0.6,2.1c0.5,0.6,1,0.5,1.7,0.3
		c1.8-0.5,3.5-1.2,5.3-1.5c4.6-0.6,9.1,0.1,13.4,1.4c2,0.6,4,1.2,6.1,1c1.9-0.1,3.2-1.1,3.7-3c1-3.1-1.4-6.5-4.8-6.9
		c-1.7-0.2-3.5-0.5-5.2-0.8c-5.4-1.2-10.5-3.2-15.6-5.3c-3.6-1.5-7.2-2.8-11.1-3.1c-5.7-0.4-10.9,0.5-14.2,5.9
		C25.6,65.4,24.7,66.1,24,66.9z M59.2,88.1c1.6-0.2,3.3-0.3,4.9-0.5c4.3-0.4,8.2-1.9,11.5-4.7c2.7-2.3,5.5-4.7,8.1-7.1
		c3.2-3,6.3-6.2,9.6-9.2c2.6-2.4,2.4-5.9-0.6-7.8c-2.3-1.4-4.6-1.2-7,0.5c-2.4,1.6-4.9,3.2-7.4,4.7c-1.3,0.7-1.7,1.3-1.3,2.1
		c0.4,0.9,1.2,1.1,2.5,0.3c2.7-1.6,5.4-3.3,8-5.1c1.2-0.9,2.3-1.1,3.6-0.3c1.5,0.9,1.8,2,0.5,3.3c-4.2,4.1-8.5,8.2-12.8,12.2
		C77,78.4,75,79.9,73,81.3c-2.2,1.7-4.7,2.9-7.5,3.1c-0.9,0.1-1.8,0.2-2.7,0.4c-3.3,0.7-6.6,0.4-9.7-1c-1.4-0.6-2.9-1.1-4.4-1.7
		c-3.2-1.3-6.5-2.1-10-2.3c-4.1-0.2-8,0.4-11.6,2.3c-0.9,0.5-1.2,1.2-0.8,2c0.4,0.7,1.2,0.9,2.1,0.5c3.9-2,8.1-2.3,12.4-1.8
		c3.5,0.5,6.7,1.7,9.9,3.2C53.3,87.3,56.1,88.1,59.2,88.1z M64.2,51.5c1.5,0,3,0,4.5,0c1.1,0,1.6-0.5,1.6-1.4c0-0.8-0.6-1.3-1.6-1.3
		c-3,0-6,0-9,0c-1,0-1.5,0.5-1.5,1.4c0,0.9,0.5,1.3,1.5,1.3C61.3,51.6,62.7,51.5,64.2,51.5z"/>
	<path d="M48.1,33.5c-0.6-0.5-1.3-0.9-1.8-1.3c-2.7-2.3-4.1-5.1-4.1-8.6c0-1-0.2-1.9-0.6-2.8c-1.1-2.3-1.3-4.8-1-7.4
		c0.3-2,1.3-3.4,2.9-4.6c2.8-2,6-2.6,9.3-2.2C54,6.7,55,6.7,56,5.5c1.3-1.6,3.3-1.9,5.3-1.4c4.1,0.9,7.2,5.1,6.4,8.8
		c-0.6,2.8-1.5,5.5-2.9,8.1c-0.3,0.6-0.5,1.2-0.5,1.9c0,4.2-1.4,7.7-5.1,10.1c-0.1,0-0.1,0.1-0.2,0.2c0.8,1.7,2,2.9,3.7,3.8
		c0.5,0.3,1.2,0.2,1.7,0.3c6.7,1.1,11.7,6.9,11.7,13.8c0,0.9,0,1.9,0,2.8c0,1.2-0.5,1.8-1.4,1.8c-0.9,0-1.3-0.6-1.3-1.8
		c-0.1-1.8,0-3.7-0.4-5.5c-0.9-4.4-4.8-7.9-9.3-8.5c-0.4,0-0.9,0.1-1.2,0.4c-2.4,2.3-4.7,4.6-7,7c-0.3,0.3-0.5,0.8-0.5,1.2
		c-0.1,1.8,0,3.6,0,5.4c0,0.7-0.2,1.4-1,1.6c-1,0.2-1.6-0.4-1.7-1.5c0-1.8,0-3.6,0-5.4c0-0.5-0.2-1.1-0.6-1.4
		c-2.3-2.3-4.6-4.6-6.8-6.9c-0.4-0.4-0.8-0.5-1.3-0.4c-5.5,0.9-9.5,5.5-9.6,11.1c0,1,0,2.1,0,3.1c0,0.9-0.5,1.5-1.3,1.5
		c-0.8,0-1.4-0.5-1.4-1.4c0.1-2.2,0-4.5,0.5-6.6c1.3-5.8,6.3-9.9,12.3-10.5c0.2,0,0.4,0,0.6-0.1C46.2,36.2,47.3,35.1,48.1,33.5z
		 M53,18c-1.8,0-3.5,0-5.3,0c-0.3,0-0.7,0.1-0.8,0.3c-0.9,1.8-2.1,3.4-2,5.6c0.3,4.1,3.2,7.4,7.4,8.1c3.7,0.6,7.5-1.8,8.8-5.6
		c0.7-2.2,1-4.4-0.8-6.4c-0.4-0.4-0.6-1-1-1.5c-0.2-0.3-0.7-0.5-1-0.5C56.5,18,54.7,18,53,18z M43.6,18.7c0.4-0.6,0.7-1.1,0.9-1.6
		c0.6-1.1,1.5-1.6,2.8-1.6c3.8,0,7.7,0,11.5,0c1.1,0,2,0.5,2.6,1.4c0.4,0.7,0.9,1.3,1.4,2.1c0.3-0.7,0.6-1.2,0.8-1.8
		c0.5-1.5,0.9-3,1.3-4.5c0.3-1.1,0.1-2.1-0.5-3c-0.7-0.9-1.6-1.8-2.5-2.3c-2.1-1.2-3.9-0.6-5,1.6c-0.4,0.8-1,1-1.8,0.9
		c-0.8-0.1-1.5-0.3-2.3-0.4c-2.5-0.2-5,0-7.2,1.4c-0.8,0.5-1.7,1.3-2.1,2.2C42.9,14.7,43.1,16.6,43.6,18.7z M47.5,38.7
		c2,2.1,4.1,4.4,6.1,6.6c2.3-2.2,4.4-4.4,6.5-6.4c-1.2-1.4-2.5-2.9-3.8-4.4c-1.6,0.4-3.3,0.6-5.1,0.2c-0.2,0-0.5,0.1-0.6,0.3
		C49.5,36.1,48.4,37.5,47.5,38.7z"/>
	<path d="M24,66.9c0.7-0.8,1.6-1.5,2.1-2.4c3.4-5.4,8.5-6.3,14.2-5.9c3.9,0.3,7.5,1.6,11.1,3.1c5.1,2.1,10.2,4.1,15.6,5.3
		c1.7,0.4,3.5,0.6,5.2,0.8c3.4,0.4,5.8,3.8,4.8,6.9c-0.6,1.8-1.8,2.8-3.7,3c-2.1,0.1-4.1-0.4-6.1-1c-4.4-1.4-8.9-2.1-13.4-1.4
		c-1.8,0.3-3.6,0.9-5.3,1.5c-0.7,0.2-1.2,0.3-1.7-0.3c-0.6-0.8-0.4-1.6,0.6-2.1c2.9-1.4,6-1.9,9.1-2c3.9-0.1,7.7,0.7,11.5,1.8
		c1.6,0.5,3.2,0.7,4.8,0.8c1.6,0.1,2.2-1,1.6-2.5c-0.5-1.1-1.3-1.8-2.6-2c-2.5-0.4-5-0.8-7.4-1.4c-5.1-1.2-10-3.3-14.8-5.3
		c-3.2-1.3-6.5-2.5-10-2.5c-2.1,0-4.3,0.4-6.4,0.7c-1.5,0.3-2.7,1.2-3.6,2.4c-1.6,2.2-3.3,4.2-5.7,5.7c-0.2,0.1-0.3,0.6-0.3,0.8
		c0,5.6,0,11.1,0,16.7c0,1.6-0.4,2-2,2c-2.8,0-5.7,0-8.5,0c-1.4,0-1.8-0.4-1.8-1.8c0-1.4,0-2.8,0-4.2c0-1,0.5-1.6,1.3-1.6
		c0.9,0,1.4,0.5,1.4,1.6c0,0.9,0,1.7,0,2.6c0,0.2,0.3,0.6,0.5,0.6c2.1,0,4.2,0,6.3,0c0-7.1,0-14.1,0-21.2c-1.4,0-2.8,0-4.2,0
		c-0.9,0-2-0.2-2.5,0.2c-0.4,0.4-0.2,1.6-0.2,2.4c0,2.8,0,5.6,0,8.4c0,0.7-0.2,1.3-0.9,1.5c-1,0.3-1.7-0.3-1.7-1.4c0-1,0-2,0-3
		c0-3,0-6,0-9.1c0-1.4,0.4-1.8,1.8-1.8c2.9,0,5.8,0,8.7,0c1.4,0,1.8,0.4,1.8,1.8c0,0.6,0,1.2,0,1.9C23.9,66.8,23.9,66.8,24,66.9z"/>
	<path d="M59.2,88.1c-3.1,0-5.9-0.8-8.7-2.1c-3.2-1.5-6.4-2.7-9.9-3.2c-4.3-0.6-8.5-0.3-12.4,1.8c-0.9,0.5-1.7,0.3-2.1-0.5
		c-0.4-0.7-0.1-1.5,0.8-2c3.6-1.9,7.5-2.6,11.6-2.3c3.5,0.2,6.8,1.1,10,2.3c1.5,0.6,3,1.1,4.4,1.7c3.1,1.4,6.4,1.6,9.7,1
		c0.9-0.2,1.8-0.3,2.7-0.4c2.9-0.2,5.3-1.4,7.5-3.1c2-1.5,3.9-3,5.7-4.6c4.3-4,8.5-8.1,12.8-12.2c1.3-1.2,1.1-2.4-0.5-3.3
		c-1.3-0.8-2.4-0.6-3.6,0.3c-2.6,1.8-5.3,3.5-8,5.1c-1.3,0.8-2.1,0.6-2.5-0.3c-0.4-0.8,0.1-1.4,1.3-2.1c2.5-1.5,5-3,7.4-4.7
		c2.5-1.7,4.7-1.9,7-0.5c3,1.9,3.2,5.4,0.6,7.8c-3.3,3-6.4,6.2-9.6,9.2c-2.6,2.4-5.4,4.8-8.1,7.1c-3.3,2.8-7.2,4.2-11.5,4.7
		C62.5,87.8,60.8,87.9,59.2,88.1z"/>
	<path d="M64.2,51.5c-1.5,0-2.9,0-4.4,0c-1.1,0-1.5-0.4-1.5-1.3c0-0.9,0.5-1.4,1.5-1.4c3,0,6,0,9,0c1,0,1.5,0.5,1.6,1.3
		c0,0.9-0.5,1.3-1.6,1.4C67.2,51.6,65.7,51.5,64.2,51.5z"/>
	<path class="st0" d="M53,18c1.8,0,3.5,0,5.3,0c0.3,0,0.8,0.3,1,0.5c0.4,0.4,0.6,1,1,1.5c1.8,1.9,1.5,4.2,0.8,6.4
		c-1.2,3.8-5.1,6.2-8.8,5.6c-4.2-0.7-7.1-4-7.4-8.1c-0.2-2.2,1-3.8,2-5.6c0.1-0.2,0.5-0.2,0.8-0.3C49.5,18,51.2,18,53,18z"/>
	<path class="st0" d="M43.6,18.7c-0.6-2-0.8-3.9-0.1-5.7c0.3-0.9,1.2-1.7,2.1-2.2c2.2-1.4,4.7-1.6,7.2-1.4c0.8,0.1,1.5,0.2,2.3,0.4
		c0.8,0.2,1.4-0.1,1.8-0.9c1.1-2.2,2.9-2.8,5-1.6c1,0.6,1.8,1.5,2.5,2.3c0.7,0.8,0.9,1.9,0.5,3c-0.5,1.5-0.9,3-1.3,4.5
		c-0.2,0.6-0.5,1.1-0.8,1.8c-0.5-0.8-1-1.4-1.4-2.1c-0.6-1-1.5-1.4-2.6-1.4c-3.8,0-7.7,0-11.5,0c-1.2,0-2.2,0.5-2.8,1.6
		C44.3,17.6,44,18,43.6,18.7z"/>
	<path class="st0" d="M47.5,38.7c0.9-1.2,2-2.5,3.1-3.8c0.1-0.2,0.4-0.3,0.6-0.3c1.8,0.4,3.6,0.2,5.1-0.2c1.3,1.5,2.6,3,3.8,4.4
		c-2.1,2.1-4.3,4.2-6.5,6.4C51.6,43,49.5,40.8,47.5,38.7z"/>
</g>
</svg>
