<?xml version="1.0" encoding="UTF-8"?>
<svg xmlns="http://www.w3.org/2000/svg" xmlns:xlink="http://www.w3.org/1999/xlink" viewBox="0 0 974.18 715.39">
  <defs>
    <style>
      .cls-1 {
        fill: url(#_ÅÂÁ_ÏşÌÌ_È_ËÂÌÚ_27);
        mix-blend-mode: multiply;
      }

      .cls-2 {
        fill: url(#_ÅÂÁ_ÏşÌÌ_È_ËÂÌÚ_6-10);
      }

      .cls-3 {
        fill: url(#_ÅÂÁ_ÏşÌÌ_È_ËÂÌÚ_6-11);
      }

      .cls-4 {
        fill: url(#_ÅÂÁ_ÏşÌÌ_È_ËÂÌÚ_6-16);
      }

      .cls-5 {
        fill: url(#_ÅÂÁ_ÏşÌÌ_È_ËÂÌÚ_6-18);
      }

      .cls-6 {
        fill: url(#_ÅÂÁ_ÏşÌÌ_È_ËÂÌÚ_6-13);
      }

      .cls-7 {
        fill: url(#_ÅÂÁ_ÏşÌÌ_È_ËÂÌÚ_6-15);
      }

      .cls-8 {
        fill: url(#_ÅÂÁ_ÏşÌÌ_È_ËÂÌÚ_6-17);
      }

      .cls-9 {
        fill: url(#_ÅÂÁ_ÏşÌÌ_È_ËÂÌÚ_6-12);
      }

      .cls-10 {
        fill: url(#_ÅÂÁ_ÏşÌÌ_È_ËÂÌÚ_6-14);
      }

      .cls-11 {
        fill: url(#_ÅÂÁ_ÏşÌÌ_È_ËÂÌÚ_6-19);
      }

      .cls-12 {
        fill: url(#_ÅÂÁ_ÏşÌÌ_È_ËÂÌÚ_6-44);
      }

      .cls-13 {
        fill: url(#_ÅÂÁ_ÏşÌÌ_È_ËÂÌÚ_6-40);
      }

      .cls-14 {
        fill: url(#_ÅÂÁ_ÏşÌÌ_È_ËÂÌÚ_6-43);
      }

      .cls-15 {
        fill: url(#_ÅÂÁ_ÏşÌÌ_È_ËÂÌÚ_6-34);
      }

      .cls-16 {
        fill: url(#_ÅÂÁ_ÏşÌÌ_È_ËÂÌÚ_6-35);
      }

      .cls-17 {
        fill: url(#_ÅÂÁ_ÏşÌÌ_È_ËÂÌÚ_6-32);
      }

      .cls-18 {
        fill: url(#_ÅÂÁ_ÏşÌÌ_È_ËÂÌÚ_6-33);
      }

      .cls-19 {
        fill: url(#_ÅÂÁ_ÏşÌÌ_È_ËÂÌÚ_6-22);
      }

      .cls-20 {
        fill: url(#_ÅÂÁ_ÏşÌÌ_È_ËÂÌÚ_6-20);
      }

      .cls-21 {
        fill: url(#_ÅÂÁ_ÏşÌÌ_È_ËÂÌÚ_6-39);
      }

      .cls-22 {
        fill: url(#_ÅÂÁ_ÏşÌÌ_È_ËÂÌÚ_6-38);
      }

      .cls-23 {
        fill: url(#_ÅÂÁ_ÏşÌÌ_È_ËÂÌÚ_6-36);
      }

      .cls-24 {
        fill: url(#_ÅÂÁ_ÏşÌÌ_È_ËÂÌÚ_6-37);
      }

      .cls-25 {
        fill: url(#_ÅÂÁ_ÏşÌÌ_È_ËÂÌÚ_6-24);
      }

      .cls-26 {
        fill: url(#_ÅÂÁ_ÏşÌÌ_È_ËÂÌÚ_6-23);
      }

      .cls-27 {
        fill: url(#_ÅÂÁ_ÏşÌÌ_È_ËÂÌÚ_6-26);
      }

      .cls-28 {
        fill: url(#_ÅÂÁ_ÏşÌÌ_È_ËÂÌÚ_6-21);
      }

      .cls-29 {
        fill: url(#_ÅÂÁ_ÏşÌÌ_È_ËÂÌÚ_6-25);
      }

      .cls-30 {
        fill: url(#_ÅÂÁ_ÏşÌÌ_È_ËÂÌÚ_6-27);
      }

      .cls-31 {
        fill: url(#_ÅÂÁ_ÏşÌÌ_È_ËÂÌÚ_6-28);
      }

      .cls-32 {
        fill: url(#_ÅÂÁ_ÏşÌÌ_È_ËÂÌÚ_6-29);
      }

      .cls-33 {
        fill: url(#_ÅÂÁ_ÏşÌÌ_È_ËÂÌÚ_6-31);
      }

      .cls-34 {
        fill: url(#_ÅÂÁ_ÏşÌÌ_È_ËÂÌÚ_6-30);
      }

      .cls-35 {
        fill: url(#_ÅÂÁ_ÏşÌÌ_È_ËÂÌÚ_6-42);
      }

      .cls-36 {
        fill: url(#_ÅÂÁ_ÏşÌÌ_È_ËÂÌÚ_6-41);
      }

      .cls-37 {
        clip-path: url(#clippath);
      }

      .cls-38 {
        fill: #fff;
      }

      .cls-39 {
        fill: #00afff;
      }

      .cls-40 {
        fill: url(#_ÅÂÁ_ÏşÌÌ_È_ËÂÌÚ_6);
      }

      .cls-41 {
        fill: url(#_ÅÂÁ_ÏşÌÌ_È_ËÂÌÚ_100);
      }

      .cls-42 {
        fill: url(#_ÅÂÁ_ÏşÌÌ_È_ËÂÌÚ_6-3);
      }

      .cls-43 {
        fill: url(#_ÅÂÁ_ÏşÌÌ_È_ËÂÌÚ_6-2);
      }

      .cls-44 {
        fill: url(#_ÅÂÁ_ÏşÌÌ_È_ËÂÌÚ_6-8);
      }

      .cls-45 {
        fill: url(#_ÅÂÁ_ÏşÌÌ_È_ËÂÌÚ_6-9);
      }

      .cls-46 {
        fill: url(#_ÅÂÁ_ÏşÌÌ_È_ËÂÌÚ_6-4);
      }

      .cls-47 {
        fill: url(#_ÅÂÁ_ÏşÌÌ_È_ËÂÌÚ_6-5);
      }

      .cls-48 {
        fill: url(#_ÅÂÁ_ÏşÌÌ_È_ËÂÌÚ_6-6);
      }

      .cls-49 {
        fill: url(#_ÅÂÁ_ÏşÌÌ_È_ËÂÌÚ_6-7);
      }

      .cls-50 {
        isolation: isolate;
      }

      .cls-51 {
        fill: url(#_ÅÂÁ_ÏşÌÌ_È_ËÂÌÚ_24);
      }

      .cls-52 {
        fill: url(#_ÅÂÁ_ÏşÌÌ_È_ËÂÌÚ_18);
      }
    </style>
    <clipPath id="clippath">
      <rect class="cls-38" x="149.98" width="674.22" height="547.5"/>
    </clipPath>
    <radialGradient id="_ÅÂÁ_ÏşÌÌ_È_ËÂÌÚ_6" data-name="ÅÂÁ˚ÏşÌÌ˚È „‡‰ËÂÌÚ 6" cx="507.65" cy="281.73" fx="507.65" fy="281.73" r="114.79" gradientTransform="translate(-845.2 11.34) scale(2.7 1.11)" gradientUnits="userSpaceOnUse">
      <stop offset="0" stop-color="#c2c2c2"/>
      <stop offset="1" stop-color="#fff"/>
    </radialGradient>
    <radialGradient id="_ÅÂÁ_ÏşÌÌ_È_ËÂÌÚ_6-2" data-name="ÅÂÁ˚ÏşÌÌ˚È „‡‰ËÂÌÚ 6" cx="513.52" cy="355.87" fx="513.52" fy="355.87" r="146.34" gradientTransform="translate(-483.67 117.91) scale(1.8 .77)" xlink:href="#_ÅÂÁ_ÏşÌÌ_È_ËÂÌÚ_6"/>
    <radialGradient id="_ÅÂÁ_ÏşÌÌ_È_ËÂÌÚ_6-3" data-name="ÅÂÁ˚ÏşÌÌ˚È „‡‰ËÂÌÚ 6" cx="484.67" cy="340.73" fx="484.67" fy="340.73" r="159.27" xlink:href="#_ÅÂÁ_ÏşÌÌ_È_ËÂÌÚ_6"/>
    <radialGradient id="_ÅÂÁ_ÏşÌÌ_È_ËÂÌÚ_6-4" data-name="ÅÂÁ˚ÏşÌÌ˚È „‡‰ËÂÌÚ 6" cx="548.17" cy="331.38" fx="548.17" fy="331.38" r="185.85" xlink:href="#_ÅÂÁ_ÏşÌÌ_È_ËÂÌÚ_6"/>
    <radialGradient id="_ÅÂÁ_ÏşÌÌ_È_ËÂÌÚ_6-5" data-name="ÅÂÁ˚ÏşÌÌ˚È „‡‰ËÂÌÚ 6" cx="518.95" cy="280.42" fx="518.95" fy="280.42" r="152.6" xlink:href="#_ÅÂÁ_ÏşÌÌ_È_ËÂÌÚ_6"/>
    <radialGradient id="_ÅÂÁ_ÏşÌÌ_È_ËÂÌÚ_6-6" data-name="ÅÂÁ˚ÏşÌÌ˚È „‡‰ËÂÌÚ 6" cx="496.53" cy="329.87" fx="496.53" fy="329.87" r="156.21" xlink:href="#_ÅÂÁ_ÏşÌÌ_È_ËÂÌÚ_6"/>
    <radialGradient id="_ÅÂÁ_ÏşÌÌ_È_ËÂÌÚ_6-7" data-name="ÅÂÁ˚ÏşÌÌ˚È „‡‰ËÂÌÚ 6" cx="486.02" cy="330.44" fx="486.02" fy="330.44" r="159.06" xlink:href="#_ÅÂÁ_ÏşÌÌ_È_ËÂÌÚ_6"/>
    <radialGradient id="_ÅÂÁ_ÏşÌÌ_È_ËÂÌÚ_6-8" data-name="ÅÂÁ˚ÏşÌÌ˚È „‡‰ËÂÌÚ 6" cx="528.19" cy="290.24" fx="528.19" fy="290.24" r="170.67" xlink:href="#_ÅÂÁ_ÏşÌÌ_È_ËÂÌÚ_6"/>
    <radialGradient id="_ÅÂÁ_ÏşÌÌ_È_ËÂÌÚ_6-9" data-name="ÅÂÁ˚ÏşÌÌ˚È „‡‰ËÂÌÚ 6" cx="507.92" cy="284.56" fx="507.92" fy="284.56" r="121.66" xlink:href="#_ÅÂÁ_ÏşÌÌ_È_ËÂÌÚ_6"/>
    <radialGradient id="_ÅÂÁ_ÏşÌÌ_È_ËÂÌÚ_6-10" data-name="ÅÂÁ˚ÏşÌÌ˚È „‡‰ËÂÌÚ 6" cx="500.72" cy="453.11" fx="500.72" fy="453.11" r="119.43" gradientTransform="translate(-845.2 -1102.55) scale(2.7 3.13)" xlink:href="#_ÅÂÁ_ÏşÌÌ_È_ËÂÌÚ_6"/>
    <radialGradient id="_ÅÂÁ_ÏşÌÌ_È_ËÂÌÚ_6-11" data-name="ÅÂÁ˚ÏşÌÌ˚È „‡‰ËÂÌÚ 6" cx="514.24" cy="304.64" fx="514.24" fy="304.64" r="124.21" xlink:href="#_ÅÂÁ_ÏşÌÌ_È_ËÂÌÚ_6"/>
    <radialGradient id="_ÅÂÁ_ÏşÌÌ_È_ËÂÌÚ_6-12" data-name="ÅÂÁ˚ÏşÌÌ˚È „‡‰ËÂÌÚ 6" cx="463.39" cy="285.39" fx="463.39" fy="285.39" r="176.73" xlink:href="#_ÅÂÁ_ÏşÌÌ_È_ËÂÌÚ_6"/>
    <radialGradient id="_ÅÂÁ_ÏşÌÌ_È_ËÂÌÚ_6-13" data-name="ÅÂÁ˚ÏşÌÌ˚È „‡‰ËÂÌÚ 6" cx="439.29" cy="284.33" fx="439.29" fy="284.33" r="190.34" xlink:href="#_ÅÂÁ_ÏşÌÌ_È_ËÂÌÚ_6"/>
    <radialGradient id="_ÅÂÁ_ÏşÌÌ_È_ËÂÌÚ_6-14" data-name="ÅÂÁ˚ÏşÌÌ˚È „‡‰ËÂÌÚ 6" cx="558.27" cy="278.95" fx="558.27" fy="278.95" r="155.07" xlink:href="#_ÅÂÁ_ÏşÌÌ_È_ËÂÌÚ_6"/>
    <radialGradient id="_ÅÂÁ_ÏşÌÌ_È_ËÂÌÚ_6-15" data-name="ÅÂÁ˚ÏşÌÌ˚È „‡‰ËÂÌÚ 6" cx="456.04" cy="281.13" fx="456.04" fy="281.13" r="207.18" xlink:href="#_ÅÂÁ_ÏşÌÌ_È_ËÂÌÚ_6"/>
    <radialGradient id="_ÅÂÁ_ÏşÌÌ_È_ËÂÌÚ_6-16" data-name="ÅÂÁ˚ÏşÌÌ˚È „‡‰ËÂÌÚ 6" cx="548.71" cy="277.35" fx="548.71" fy="277.35" r="184.18" xlink:href="#_ÅÂÁ_ÏşÌÌ_È_ËÂÌÚ_6"/>
    <radialGradient id="_ÅÂÁ_ÏşÌÌ_È_ËÂÌÚ_6-17" data-name="ÅÂÁ˚ÏşÌÌ˚È „‡‰ËÂÌÚ 6" cx="530.29" cy="283.16" fx="530.29" fy="283.16" r="166.43" xlink:href="#_ÅÂÁ_ÏşÌÌ_È_ËÂÌÚ_6"/>
    <radialGradient id="_ÅÂÁ_ÏşÌÌ_È_ËÂÌÚ_6-18" data-name="ÅÂÁ˚ÏşÌÌ˚È „‡‰ËÂÌÚ 6" cx="491.32" cy="281.75" fx="491.32" fy="281.75" r="110.69" xlink:href="#_ÅÂÁ_ÏşÌÌ_È_ËÂÌÚ_6"/>
    <radialGradient id="_ÅÂÁ_ÏşÌÌ_È_ËÂÌÚ_6-19" data-name="ÅÂÁ˚ÏşÌÌ˚È „‡‰ËÂÌÚ 6" cx="497.43" cy="280.33" fx="497.43" fy="280.33" r="122.31" xlink:href="#_ÅÂÁ_ÏşÌÌ_È_ËÂÌÚ_6"/>
    <radialGradient id="_ÅÂÁ_ÏşÌÌ_È_ËÂÌÚ_6-20" data-name="ÅÂÁ˚ÏşÌÌ˚È „‡‰ËÂÌÚ 6" cx="500.35" cy="272.33" fx="500.35" fy="272.33" r="100.1" xlink:href="#_ÅÂÁ_ÏşÌÌ_È_ËÂÌÚ_6"/>
    <radialGradient id="_ÅÂÁ_ÏşÌÌ_È_ËÂÌÚ_6-21" data-name="ÅÂÁ˚ÏşÌÌ˚È „‡‰ËÂÌÚ 6" cx="501.09" cy="266.17" fx="501.09" fy="266.17" r="91.6" xlink:href="#_ÅÂÁ_ÏşÌÌ_È_ËÂÌÚ_6"/>
    <radialGradient id="_ÅÂÁ_ÏşÌÌ_È_ËÂÌÚ_6-22" data-name="ÅÂÁ˚ÏşÌÌ˚È „‡‰ËÂÌÚ 6" cx="516.81" cy="293.1" fx="516.81" fy="293.1" r="147.75" xlink:href="#_ÅÂÁ_ÏşÌÌ_È_ËÂÌÚ_6"/>
    <radialGradient id="_ÅÂÁ_ÏşÌÌ_È_ËÂÌÚ_6-23" data-name="ÅÂÁ˚ÏşÌÌ˚È „‡‰ËÂÌÚ 6" cx="505.61" cy="240.58" fx="505.61" fy="240.58" r="218.1" xlink:href="#_ÅÂÁ_ÏşÌÌ_È_ËÂÌÚ_6"/>
    <radialGradient id="_ÅÂÁ_ÏşÌÌ_È_ËÂÌÚ_6-24" data-name="ÅÂÁ˚ÏşÌÌ˚È „‡‰ËÂÌÚ 6" cx="534.75" cy="217.46" fx="534.75" fy="217.46" r="251.24" xlink:href="#_ÅÂÁ_ÏşÌÌ_È_ËÂÌÚ_6"/>
    <radialGradient id="_ÅÂÁ_ÏşÌÌ_È_ËÂÌÚ_6-25" data-name="ÅÂÁ˚ÏşÌÌ˚È „‡‰ËÂÌÚ 6" cx="499.8" cy="262.81" fx="499.8" fy="262.81" r="218.71" xlink:href="#_ÅÂÁ_ÏşÌÌ_È_ËÂÌÚ_6"/>
    <radialGradient id="_ÅÂÁ_ÏşÌÌ_È_ËÂÌÚ_6-26" data-name="ÅÂÁ˚ÏşÌÌ˚È „‡‰ËÂÌÚ 6" cx="568.23" cy="276.9" fx="568.23" fy="276.9" r="209.6" xlink:href="#_ÅÂÁ_ÏşÌÌ_È_ËÂÌÚ_6"/>
    <radialGradient id="_ÅÂÁ_ÏşÌÌ_È_ËÂÌÚ_6-27" data-name="ÅÂÁ˚ÏşÌÌ˚È „‡‰ËÂÌÚ 6" cx="568.47" cy="272.88" fx="568.47" fy="272.88" r="220.17" xlink:href="#_ÅÂÁ_ÏşÌÌ_È_ËÂÌÚ_6"/>
    <radialGradient id="_ÅÂÁ_ÏşÌÌ_È_ËÂÌÚ_6-28" data-name="ÅÂÁ˚ÏşÌÌ˚È „‡‰ËÂÌÚ 6" cx="530.26" cy="280.38" fx="530.26" fy="280.38" r="157.26" xlink:href="#_ÅÂÁ_ÏşÌÌ_È_ËÂÌÚ_6"/>
    <radialGradient id="_ÅÂÁ_ÏşÌÌ_È_ËÂÌÚ_6-29" data-name="ÅÂÁ˚ÏşÌÌ˚È „‡‰ËÂÌÚ 6" cx="488.92" cy="274.01" fx="488.92" fy="274.01" r="91.2" xlink:href="#_ÅÂÁ_ÏşÌÌ_È_ËÂÌÚ_6"/>
    <radialGradient id="_ÅÂÁ_ÏşÌÌ_È_ËÂÌÚ_6-30" data-name="ÅÂÁ˚ÏşÌÌ˚È „‡‰ËÂÌÚ 6" cx="501.29" cy="276.46" fx="501.29" fy="276.46" r="165.2" xlink:href="#_ÅÂÁ_ÏşÌÌ_È_ËÂÌÚ_6"/>
    <radialGradient id="_ÅÂÁ_ÏşÌÌ_È_ËÂÌÚ_6-31" data-name="ÅÂÁ˚ÏşÌÌ˚È „‡‰ËÂÌÚ 6" cx="528.31" cy="270.74" fx="528.31" fy="270.74" r="148.81" xlink:href="#_ÅÂÁ_ÏşÌÌ_È_ËÂÌÚ_6"/>
    <radialGradient id="_ÅÂÁ_ÏşÌÌ_È_ËÂÌÚ_6-32" data-name="ÅÂÁ˚ÏşÌÌ˚È „‡‰ËÂÌÚ 6" cx="104.31" cy="275.69" fx="104.31" fy="275.69" r="574.43" xlink:href="#_ÅÂÁ_ÏşÌÌ_È_ËÂÌÚ_6"/>
    <radialGradient id="_ÅÂÁ_ÏşÌÌ_È_ËÂÌÚ_6-33" data-name="ÅÂÁ˚ÏşÌÌ˚È „‡‰ËÂÌÚ 6" cx="-1210.98" cy="278.97" fx="-1210.98" fy="278.97" r="2154.05" xlink:href="#_ÅÂÁ_ÏşÌÌ_È_ËÂÌÚ_6"/>
    <radialGradient id="_ÅÂÁ_ÏşÌÌ_È_ËÂÌÚ_6-34" data-name="ÅÂÁ˚ÏşÌÌ˚È „‡‰ËÂÌÚ 6" cx="500.48" cy="269.76" fx="500.48" fy="269.76" r="98.55" xlink:href="#_ÅÂÁ_ÏşÌÌ_È_ËÂÌÚ_6"/>
    <radialGradient id="_ÅÂÁ_ÏşÌÌ_È_ËÂÌÚ_6-35" data-name="ÅÂÁ˚ÏşÌÌ˚È „‡‰ËÂÌÚ 6" cx="503.8" cy="273.09" fx="503.8" fy="273.09" r="104.82" xlink:href="#_ÅÂÁ_ÏşÌÌ_È_ËÂÌÚ_6"/>
    <radialGradient id="_ÅÂÁ_ÏşÌÌ_È_ËÂÌÚ_6-36" data-name="ÅÂÁ˚ÏşÌÌ˚È „‡‰ËÂÌÚ 6" cx="499.34" cy="264.87" fx="499.34" fy="264.87" r="87.43" xlink:href="#_ÅÂÁ_ÏşÌÌ_È_ËÂÌÚ_6"/>
    <radialGradient id="_ÅÂÁ_ÏşÌÌ_È_ËÂÌÚ_6-37" data-name="ÅÂÁ˚ÏşÌÌ˚È „‡‰ËÂÌÚ 6" cx="557.9" cy="235.53" fx="557.9" fy="235.53" r="263.66" xlink:href="#_ÅÂÁ_ÏşÌÌ_È_ËÂÌÚ_6"/>
    <radialGradient id="_ÅÂÁ_ÏşÌÌ_È_ËÂÌÚ_6-38" data-name="ÅÂÁ˚ÏşÌÌ˚È „‡‰ËÂÌÚ 6" cx="510.23" cy="258.7" fx="510.23" fy="258.7" r="243.47" xlink:href="#_ÅÂÁ_ÏşÌÌ_È_ËÂÌÚ_6"/>
    <radialGradient id="_ÅÂÁ_ÏşÌÌ_È_ËÂÌÚ_6-39" data-name="ÅÂÁ˚ÏşÌÌ˚È „‡‰ËÂÌÚ 6" cx="500.37" cy="281.69" fx="500.37" fy="281.69" r="204.57" xlink:href="#_ÅÂÁ_ÏşÌÌ_È_ËÂÌÚ_6"/>
    <radialGradient id="_ÅÂÁ_ÏşÌÌ_È_ËÂÌÚ_6-40" data-name="ÅÂÁ˚ÏşÌÌ˚È „‡‰ËÂÌÚ 6" cx="508.74" cy="275.13" fx="508.74" fy="275.13" r="169.41" xlink:href="#_ÅÂÁ_ÏşÌÌ_È_ËÂÌÚ_6"/>
    <radialGradient id="_ÅÂÁ_ÏşÌÌ_È_ËÂÌÚ_6-41" data-name="ÅÂÁ˚ÏşÌÌ˚È „‡‰ËÂÌÚ 6" cx="500.72" cy="278.14" fx="500.72" fy="278.14" r="158.32" xlink:href="#_ÅÂÁ_ÏşÌÌ_È_ËÂÌÚ_6"/>
    <radialGradient id="_ÅÂÁ_ÏşÌÌ_È_ËÂÌÚ_6-42" data-name="ÅÂÁ˚ÏşÌÌ˚È „‡‰ËÂÌÚ 6" cx="499.49" cy="277.23" fx="499.49" fy="277.23" r="108.81" xlink:href="#_ÅÂÁ_ÏşÌÌ_È_ËÂÌÚ_6"/>
    <radialGradient id="_ÅÂÁ_ÏşÌÌ_È_ËÂÌÚ_6-43" data-name="ÅÂÁ˚ÏşÌÌ˚È „‡‰ËÂÌÚ 6" cx="515.93" cy="279.17" fx="515.93" fy="279.17" r="149.98" xlink:href="#_ÅÂÁ_ÏşÌÌ_È_ËÂÌÚ_6"/>
    <radialGradient id="_ÅÂÁ_ÏşÌÌ_È_ËÂÌÚ_6-44" data-name="ÅÂÁ˚ÏşÌÌ˚È „‡‰ËÂÌÚ 6" cx="451.25" cy="250.03" fx="451.25" fy="250.03" r="248.85" xlink:href="#_ÅÂÁ_ÏşÌÌ_È_ËÂÌÚ_6"/>
    <linearGradient id="_ÅÂÁ_ÏşÌÌ_È_ËÂÌÚ_24" data-name="ÅÂÁ˚ÏşÌÌ˚È „‡‰ËÂÌÚ 24" x1="598.52" y1="640.41" x2="598.52" y2="395.22" gradientTransform="translate(-12.33 -9.08) scale(1 1.02) skewX(1.54)" gradientUnits="userSpaceOnUse">
      <stop offset="0" stop-color="#0f0f0f"/>
      <stop offset="1" stop-color="#737373"/>
    </linearGradient>
    <linearGradient id="_ÅÂÁ_ÏşÌÌ_È_ËÂÌÚ_18" data-name="ÅÂÁ˚ÏşÌÌ˚È „‡‰ËÂÌÚ 18" x1="588.51" y1="680.36" x2="588.51" y2="391.95" gradientUnits="userSpaceOnUse">
      <stop offset="0" stop-color="#1a1a1a"/>
      <stop offset="1" stop-color="#a6a6a6"/>
    </linearGradient>
    <radialGradient id="_ÅÂÁ_ÏşÌÌ_È_ËÂÌÚ_27" data-name="ÅÂÁ˚ÏşÌÌ˚È „‡‰ËÂÌÚ 27" cx="495.93" cy="133.72" fx="495.93" fy="133.72" r="34.98" gradientTransform="translate(-305.82 366.56) scale(1.63 .22)" gradientUnits="userSpaceOnUse">
      <stop offset="0" stop-color="#705b5b"/>
      <stop offset=".01" stop-color="#776363"/>
      <stop offset=".06" stop-color="#978888"/>
      <stop offset=".12" stop-color="#b3a8a8"/>
      <stop offset=".18" stop-color="#cbc3c3"/>
      <stop offset=".26" stop-color="#ded9d9"/>
      <stop offset=".34" stop-color="#edeaea"/>
      <stop offset=".45" stop-color="#f7f6f6"/>
      <stop offset=".59" stop-color="#fdfdfd"/>
      <stop offset="1" stop-color="#fff"/>
    </radialGradient>
    <linearGradient id="_ÅÂÁ_ÏşÌÌ_È_ËÂÌÚ_100" data-name="ÅÂÁ˚ÏşÌÌ˚È „‡‰ËÂÌÚ 100" x1="573.37" y1="371.78" x2="574.19" y2="371.78" gradientUnits="userSpaceOnUse">
      <stop offset="0" stop-color="#750000"/>
      <stop offset=".52" stop-color="#d60000"/>
      <stop offset="1" stop-color="#ff8585"/>
    </linearGradient>
  </defs>
  <g class="cls-50">
    <g id="_ëÎÓÈ_1" data-name="ëÎÓÈ 1">
      <g>
        <rect class="cls-38" x="149.98" width="674.22" height="547.5"/>
        <g class="cls-37">
          <g>
            <polygon class="cls-40" points="758.33 332.33 713.92 322.47 545.63 326.63 544.89 326.53 381.26 303.76 332.24 280.4 231.05 262.56 235.54 260.29 337.42 278.07 386.21 300.98 546.09 323.02 713.69 318.91 756.08 328.23 865.26 306.21 871.44 309.24 758.33 332.33"/>
            <polygon class="cls-43" points="163.9 487.59 161.67 486.99 249.71 409.55 347.3 339.37 391.11 304.91 408.52 281.25 409.79 281.34 392.49 305.07 348.78 339.66 251.52 410.01 163.9 487.59"/>
            <polygon class="cls-42" points="383.48 572.92 379.28 571.97 452.19 445.83 544.56 324.59 583.91 261.29 595.51 223.86 597.51 224 586.15 261.51 547.19 325.01 455.56 446.53 383.48 572.92"/>
            <polygon class="cls-46" points="898.28 617.41 756.34 545.06 756.42 544.12 767.53 408.98 712.57 320.86 584.47 261.8 449.15 252.91 387.81 256.17 331.33 259.8 257.77 252.64 258.88 251.89 331.82 258.97 387.7 255.39 449.27 252.13 449.45 252.14 585.57 261.05 715.04 320.5 771.07 409.47 761.05 544.26 899.92 614.66 898.28 617.41"/>
            <polygon class="cls-47" points="453.73 447.22 453.27 447.13 236.77 404.57 169.64 378.79 133.9 359.81 119.16 323.34 122.08 322.72 137.04 358.95 172.34 377.49 239.16 403.01 454.09 445.05 662.7 420.23 768.43 408.27 839.9 390.93 840.62 391.07 973.74 416.54 974.18 418.25 841.3 392.73 770.45 409.99 664.09 422.09 453.73 447.22"/>
            <polygon class="cls-48" points="182.8 536.07 179.05 535.33 288.93 413.86 424.03 307.87 485.62 254.82 501.56 227.61 503.54 227.74 487.73 255.05 426.35 308.31 291.85 414.48 182.8 536.07"/>
            <polygon class="cls-49" points="297.66 543.06 293.76 542.24 375.44 430.8 485.99 316.48 535.95 258.14 547.79 229.57 549.81 229.71 538.14 258.36 488.48 316.89 378.6 431.45 297.66 543.06"/>
            <polygon class="cls-44" points="467.9 525 506.01 439.44 523.9 410.24 487.37 401.93 417.31 389.41 338.45 376.52 274.87 363.96 238.22 351.27 204.76 341.46 189.68 341.46 193.56 330.08 164.5 303.59 167.09 302.91 196.56 329.54 193.02 340.16 206.4 340.16 206.66 340.24 240.39 350.08 276.84 362.66 339.95 375.06 418.53 387.85 488.53 400.31 528.08 409.26 509.43 440.08 473.81 521.47 535.12 514.49 641.27 485.86 723.43 502.87 791.67 502.87 790.49 435.69 830.93 427.49 831.73 427.69 959 459.23 959.06 461.19 832.12 429.61 794.29 437.32 796.01 505.5 723.53 505.42 642.14 488.5 536.28 517.18 467.9 525"/>
            <polygon class="cls-45" points="700.33 364.15 687.93 340.65 529.39 347.15 529.13 347.11 465.95 338.98 400.35 327.72 357.8 320.17 304 298.13 212.45 281.51 214.07 280.65 305.78 297.24 305.9 297.29 359.67 319.22 401.58 326.59 466.88 337.76 529.51 345.79 690.02 339.24 702.42 362.41 737.71 359.21 799.64 350.05 859.77 327.91 862.26 328.96 801.66 351.34 739.26 360.6 700.33 364.15"/>
            <path class="cls-2" d="m523.41,410.97l29.9-46.96h-36.54l-.12-1.46h185.85l14.26,26.64-193.35,21.78Zm33.14-46.96l-28,44.52,184.3-20.68-12.59-23.85h-143.71Z"/>
            <polygon class="cls-3" points="639.84 487.41 605.06 428.09 587.86 402.56 587.95 402.32 603.47 363.16 591.85 323.44 592.1 323.28 645.3 289.08 703.98 287.57 758.12 262.35 760.19 262.97 705.62 288.51 647 290.03 594.69 323.86 606.51 363.51 591.31 402.64 608.36 427.69 643.56 486.96 639.84 487.41"/>
            <polygon class="cls-9" points="947.14 380.69 849.97 365.8 786.55 324.26 754.43 306.02 706.35 289.16 715.19 320.77 712.42 320.59 703.25 286.93 756.36 305.53 788.77 323.85 851.4 364.67 946.6 379.21 947.14 380.69"/>
            <polygon class="cls-6" points="929.86 357.76 860.48 351.27 808.82 319.75 792.88 308.87 749.11 292.32 780.91 275.57 783.13 276.23 752.53 292.44 795.02 308.5 811.12 319.43 861.63 350.1 928.97 356.38 929.86 357.76"/>
            <polygon class="cls-10" points="955.53 543.95 850.56 511.93 829.65 428.07 838.86 391.43 849.06 364.84 859.46 350.33 859.51 327.88 894.45 325.62 896.14 326.81 862.52 328.99 862.61 351.11 852.29 365.68 842.32 392.27 833.43 428.91 854.47 510.64 955.62 541.35 955.53 543.95"/>
            <polygon class="cls-7" points="690.39 339.95 687.55 339.95 677.83 321.53 674.6 303.17 677.23 303.33 680.57 321.62 690.39 339.95"/>
            <polygon class="cls-4" points=".23 393.64 0 392.24 135.19 358.84 190.71 340.35 191.99 341.28 136.1 359.95 .23 393.64"/>
            <polygon class="cls-8" points="222.63 335.88 220.25 335.48 250.94 314.24 304 297.38 333.6 279.19 330.44 259.48 332.39 242.96 303.97 232.56 305.66 232.06 334.58 242.6 332.72 259.33 336.08 279.28 305.56 298.06 252.84 314.87 222.63 335.88"/>
            <polygon class="cls-5" points="293.89 345.86 254.95 335.97 268.28 328.16 270.44 328.71 259.08 335.39 293.48 344.09 326.97 323.22 297.48 312.75 277.22 323.87 250.86 315.03 206.88 298.1 209.03 297.27 252.96 314.1 277.19 322.19 297.45 311.12 330.62 322.85 293.89 345.86"/>
            <polygon class="cls-11" points="389.52 336.28 345.38 328.95 327.86 323.53 329.73 322.53 347.11 327.88 390.74 335.08 389.52 336.28"/>
            <polygon class="cls-20" points="646.47 290.04 568.64 288.53 460.1 278.09 420.76 273.92 368.38 257.18 362.85 239.46 362.91 239.39 376.1 223.89 378.03 223.98 365 239.42 370.54 256.73 422.18 273.17 460.76 277.21 516.23 282.51 568.76 287.57 645.97 289.06 702.66 287.6 649.79 258.19 650.23 257.99 693.24 238.95 695.09 239.46 652.56 258.37 706.94 288.48 646.47 290.04"/>
            <polygon class="cls-28" points="585.3 261.83 584.74 261.02 649.36 257.95 622.38 242.89 637.59 228.29 639.55 228.59 624.75 242.91 652.99 258.61 585.3 261.83"/>
            <polygon class="cls-19" points="792.81 437.51 766.97 435.7 698.14 417.71 675.18 392.94 644.46 322.5 619.42 306.87 559.14 303.77 405.06 286.08 379.9 278.18 334.74 279.69 334.94 278.77 380.89 277.24 406.36 285.21 559.43 302.74 620.72 305.87 647.05 322.21 678.37 392.84 700.49 416.46 767.27 433.84 791.96 435.5 792.81 437.51"/>
            <polygon class="cls-26" points="727.95 479.38 663.78 465.54 645.46 439.43 648.81 439 666.44 463.86 724.71 476.38 737.6 441.15 738.19 427.39 741.83 428 741.32 441.93 727.95 479.38"/>
            <polygon class="cls-25" points="691.16 497.51 687.1 496.52 694.23 470.94 698.11 471.83 691.16 497.51"/>
            <polygon class="cls-29" points="583.58 502.76 571.03 483 611.42 476.98 592.05 442.67 553.52 447.38 547.4 434.71 578.83 363.06 581.8 363.51 551.07 434.83 556 444.89 594.32 440.22 616.37 478.78 576.24 484.79 587.31 502.03 583.58 502.76"/>
            <polygon class="cls-27" points="45.32 437.09 43.51 435.92 170.01 377.66 231.35 348.25 256 335.36 258.03 336 233.34 348.98 171.91 378.55 45.32 437.09"/>
            <polygon class="cls-30" points="108.83 464.6 106.09 463.67 210.55 393.43 265.36 359.75 292.62 344.63 294.75 345.32 267.58 360.45 213.01 394.16 108.83 464.6"/>
            <polygon class="cls-31" points="222.69 323.52 201.82 315.62 228.57 305.56 271.61 291.53 303 273.64 330.67 259.2 332.49 259.57 304.91 274.02 273.15 292.16 229.99 306.27 205.88 315.37 224.91 322.54 222.69 323.52"/>
            <polygon class="cls-32" points="379.26 277.91 367.73 266.2 369.93 265.82 381.52 277.5 379.26 277.91"/>
            <polygon class="cls-34" points="506.8 376.52 439.94 365.93 367.06 353.97 368.37 352.66 441.03 364.53 507.66 375.05 506.8 376.52"/>
            <polygon class="cls-33" points="634.81 397.9 631.51 397.5 634.04 375.6 637.18 375.96 634.81 397.9"/>
            <polygon class="cls-17" points="839.04 391.9 799.32 350.74 802.14 350.63 842.14 391.76 839.04 391.9"/>
            <polygon class="cls-18" points="809.38 399.81 806.09 399.81 755.81 330.27 758.58 330.27 809.38 399.81"/>
            <polygon class="cls-15" points="616.01 276.04 615.84 276.03 577.28 274.38 526.68 270.65 473.41 266.42 435.23 263.03 414.84 254.46 412.89 238.85 402.3 231.35 404.17 231.03 414.99 238.69 417.02 254.11 436.55 262.29 473.94 265.6 527.03 269.8 577.39 273.51 615.58 275.13 674.71 271.33 726.66 252.88 728.52 253.49 676.18 272.16 675.9 272.18 616.01 276.04"/>
            <polygon class="cls-16" points="675.91 289 616.89 259.58 589.92 243.76 461.41 236.75 414 239.08 363.97 239.79 333.65 243.13 299.14 247.3 298.82 246.6 333.28 242.44 364.03 239.09 413.98 238.38 461.48 236.05 461.64 236.06 591.14 243.1 618.73 259.21 677.78 288.52 675.91 289"/>
            <polygon class="cls-23" points="613.77 244.35 612.85 243.65 623.09 242.56 624.03 243.25 613.77 244.35"/>
            <polygon class="cls-24" points="266.63 508.02 262.91 507.4 299.95 458.84 332.49 422.45 335.59 423.02 303.31 459.43 266.63 508.02"/>
            <polygon class="cls-22" points="565.23 568.03 534.05 516.54 487.16 484.96 437.35 474.9 352.33 465.25 300.34 460.04 263.32 444.01 198.35 437.46 171.1 421.05 116.48 402.95 133.91 359.59 137.09 359.28 120.33 401.76 174.11 419.5 200.94 435.55 265.77 442.14 302.71 458.04 353.54 463.02 438.48 472.63 489.31 482.83 537.71 515.37 569.36 566.96 565.23 568.03"/>
            <polygon class="cls-21" points="470.43 524.62 413.33 517.17 328.01 498.24 279.33 488.37 226.38 485.04 161.95 468.57 122.42 452.48 61.47 428.38 75.86 373.82 76.2 373.6 126.54 339.63 184.35 320.28 185.66 321.08 128.53 340.27 79.16 373.75 65.52 427.01 125.51 450.57 164.79 466.48 228.61 482.7 281.01 485.95 329.9 495.79 414.69 514.52 471.29 521.85 470.43 524.62"/>
            <polygon class="cls-13" points="377.16 382.14 374.57 381.39 403.84 359.1 406.34 359.77 377.16 382.14"/>
            <polygon class="cls-36" points="473.92 370.57 471.07 370.03 493.84 341.83 496.52 342.3 473.92 370.57"/>
            <polygon class="cls-35" points="473.9 293.55 471.65 293.12 487.31 280.13 489.49 280.52 473.9 293.55"/>
            <polygon class="cls-14" points="331.88 308.54 329.78 308.04 358.61 290.73 360.65 291.18 331.88 308.54"/>
            <polygon class="cls-12" points="700.42 451.78 673.44 420.07 676.58 419.62 703.75 451.27 700.42 451.78"/>
          </g>
          <g>
            <path class="cls-51" d="m718.18,715.39c-107.18-145.4-199.46-177.75-268.95-202.11-32.32-11.33-60.66-21.27-73.92-33.24-13.26-11.96-8.18-23.82,8.82-34.55,13.65-8.61,31.65-14.6,53.16-18.76,15.06-2.91,30.67-4.76,44.7-6.42,20.2-2.4,31.51-3.88,31.85-5.86.44-2.53-7.88-3.83-20.44-5.6-10.34-1.46-21.07-2.97-18.73-5.31,2.19-2.19,12.82-3.15,20.13-3.81,6.06-.55,9.39-.88,9.63-1.43.3-.67-1.6-.88-5.29-1.29-3.48-.39-8.07-.9-8.65-1.81-.59-.93,4.19-1.59,7.49-2.05,1.78-.25,3.58-.49,3.49-.64l10.27-.09c.62.52-2.29.96-4.97,1.37-3.12.47-5.05.8-4.57,1.21.46.39,2.14.58,5.38.91,4.2.43,10.22,1.04,10.37,2.48.16,1.52-8.17,2.35-15.26,3.05-7.27.72-11.23,1.15-11.65,2.08-.39.86,4.79,1.57,13.88,2.71,12.4,1.55,29.58,3.69,31.41,8.58,2,5.35-21.12,8.53-44.32,11.73-33.62,4.64-57.7,8.48-67.9,18.29-12.99,12.5,11.79,19.26,62.31,31.13,63.24,14.86,161.49,37.95,348.19,182.11l-116.45,57.34Z"/>
            <path class="cls-52" d="m695.2,680.36c-92.57-124.24-179.81-153.08-246.42-175.11-31.25-10.34-58.8-19.44-71.83-30.48-13.1-11.1-8.3-22.16,8.27-32.22,13.37-8.12,31.08-13.79,52.32-17.73,14.9-2.76,30.34-4.52,44.24-6.11,20.03-2.28,31.26-3.7,31.64-5.59.49-2.42-7.73-3.66-20.15-5.35-10.24-1.4-20.87-2.85-18.51-5.1,2.2-2.1,12.79-3.03,20.07-3.67,6.03-.53,9.35-.84,9.6-1.38.31-.65-1.58-.85-5.24-1.25-3.46-.37-8.01-.87-8.57-1.75-.57-.9,4.2-1.54,7.49-1.98,1.78-.24,3.58-.48,3.49-.62l10.23-.09c.61.5-2.3.93-4.98,1.32-3.12.46-5.05.77-4.58,1.16.45.37,2.12.56,5.34.87,4.17.41,10.14,1.01,10.26,2.39.13,1.46-8.18,2.26-15.24,2.94-7.23.69-11.18,1.11-11.62,2-.4.83,4.73,1.51,13.73,2.6,12.28,1.48,29.26,3.53,30.93,8.21,1.83,5.1-21.12,8.14-44.1,11.18-33.25,4.4-57.01,8.03-67.06,17.29-12.73,11.73,11.53,18.04,60.77,29.07,61.23,13.72,155.48,34.83,322.27,161.41l-112.38,47.97Z"/>
            <path class="cls-38" d="m709.6,680.07l-3.47-4.37c-99.25-125.18-186.54-152.94-253.35-174.19-57.23-18.2-105.14-33.44-64.25-59,24.52-15.33,65.79-20.09,93.98-23.35,18.07-2.08,32.4-3.74,32.75-6,.4-2.55-8.07-3.87-20.96-5.61-9.95-1.34-20.32-2.74-18.18-4.87,2.01-2.01,11.86-2.88,19.33-3.53,6.36-.56,9.85-.9,10.11-1.5.3-.71-1.97-.95-5.62-1.35-3.53-.38-7.75-.83-8.33-1.67-.59-.86,3.85-1.45,7.22-1.91,1.96-.26,3.75-.5,3.63-.68v-.02s8.51-.08,8.51-.08l.02.02c.55.47-2.15.87-4.88,1.26-2.68.39-5.32.77-4.79,1.23.5.43,2.62.64,5.63.94,4.24.42,9.76.97,9.81,2.3.05,1.39-7.98,2.15-14.8,2.8-7.38.7-11.75,1.16-12.28,2.15-.5.93,4.83,1.65,14.19,2.79,11.99,1.46,28.55,3.48,29.96,7.99,1.5,4.82-19.83,7.61-43.15,10.65-32.88,4.29-58.36,8.15-69.39,17.89-14.03,12.39,10.38,19.36,61.72,31.18,61.17,14.08,155.42,35.78,316.57,162.67l4.18,3.3-94.16,40.96Zm-206.79-288.02c.02.18-1.77.42-3.7.68-3.33.45-7.71,1.04-7.11,1.88.58.82,4.75,1.27,8.23,1.64,3.75.4,6.08.65,5.78,1.39-.26.63-3.81.97-10.31,1.55-7.37.65-17.09,1.51-19.03,3.48-2.05,2.08,8.21,3.46,18.04,4.78,13.06,1.76,21.65,3.09,21.29,5.71-.33,2.36-14.85,4.04-33.19,6.17-28.03,3.25-69.02,8-92.96,23.15-39.53,25.01,7.99,39.89,64.47,57.58,66.37,20.79,152.83,47.87,252.66,169.6l85.27-35.7c-155.8-123.99-249.36-145.77-310.19-159.93-52.13-12.13-76.77-19.27-62.07-32.05,11.45-9.95,37.18-13.82,70.33-18.13,23.04-2.99,44.14-5.73,42.76-10.45-1.3-4.44-17.69-6.44-29.57-7.9-9.51-1.16-14.91-1.9-14.37-2.87.57-1.03,5.03-1.5,12.55-2.21,6.72-.64,14.65-1.39,14.63-2.74-.03-1.3-5.45-1.84-9.63-2.26-3.07-.31-5.24-.52-5.75-.97-.54-.47,2.15-.86,4.88-1.26,2.66-.39,5.3-.77,4.86-1.22l-7.86.07Z"/>
            <g>
              <path class="cls-38" d="m754.3,655.15c-9.86-9.64-19.25-18.59-28-26.71l3.04-1.74c8.95,8.15,18.57,17.15,28.68,26.85l-3.72,1.59Z"/>
              <path class="cls-38" d="m680.89,588.8c-12.45-10.12-24.41-19.15-35.68-27.02l1.47-1.91c11.44,7.86,23.6,16.89,36.29,27.03l-2.07,1.9Zm-65.38-46.18c-8.55-5.07-17.17-9.77-25.64-14.03l.93-1.75c8.52,4.22,17.21,8.89,25.83,13.92l-1.11,1.85Zm-48.38-24.62c-6.7-2.88-13.63-5.66-20.58-8.25l.84-1.53c6.96,2.56,13.89,5.3,20.59,8.14l-.85,1.64Zm-39.5-14.91c-5.62-1.86-11.38-3.68-17.57-5.54l.95-1.33c6.17,1.83,11.9,3.62,17.51,5.45l-.88,1.42Zm-34.01-10.31c-5.22-1.47-10.37-2.88-15.4-4.24l1.13-1.16c5.01,1.34,10.12,2.72,15.31,4.16l-1.03,1.25Zm-29.84-8.13c-4.62-1.25-9.11-2.47-13.45-3.67l1.33-1.01c4.31,1.18,8.76,2.38,13.35,3.6l-1.23,1.09Zm-25.85-7.24c-4.23-1.27-7.9-2.43-11.23-3.56l1.54-.86c3.31,1.11,6.94,2.25,11.13,3.48l-1.44.94Zm-21.12-7.2c-3.15-1.28-5.94-2.55-8.29-3.78l1.71-.68c2.33,1.2,5.09,2.44,8.22,3.69l-1.63.77Zm-14.67-7.75c-1.81-1.39-3.19-2.79-4.13-4.17l1.77-.45c.95,1.34,2.33,2.71,4.12,4.05l-1.76.57Zm-5.75-8.48c-.1-1.42.22-2.88.92-4.31l1.61-.2c-.66,1.39-.94,2.8-.81,4.18l-1.73.32Zm4.02-8.44c1.09-1.09,2.41-2.2,3.92-3.3.24-.18.49-.36.74-.53h1.29c-.24.16-.48.33-.72.51-1.46,1.07-2.73,2.16-3.77,3.23l-1.45.09Zm11.43-7.23l-1.12-.05c2.01-1.08,4.2-2.1,6.49-3.06l.95.11c-2.23.93-4.36,1.94-6.31,3Zm13.33-5.6l-.77-.15c2.4-.78,4.97-1.54,7.64-2.24l.62.18c-2.62.69-5.14,1.44-7.48,2.21Zm15.19-4.06l-.49-.2c2.47-.54,5.1-1.06,7.83-1.57l.41.21c-2.7.5-5.3,1.02-7.74,1.56Zm15.4-2.88l-.35-.21c2.38-.38,4.92-.77,7.55-1.15l.32.21c-2.62.38-5.15.76-7.52,1.15Zm14.86-2.17l-.31-.21c2.18-.29,4.52-.59,7.15-.92l.31.2c-2.62.33-4.97.63-7.15.92Zm14.11-1.79l-.32-.2,1.76-.21c1.67-.2,3.32-.41,4.94-.61l.35.19c-1.63.2-3.29.41-4.96.61l-1.77.22Zm13.2-1.65l-.38-.18c2.3-.3,4.3-.56,6.12-.82l.43.17c-1.84.26-3.85.53-6.16.83Zm11.93-1.7l-.48-.16c1.96-.32,3.64-.62,5.16-.92l.55.14c-1.54.31-3.25.62-5.23.94Zm9.69-1.98l-.63-.12c1.34-.37,2.42-.74,3.24-1.12l.71.08c-.83.38-1.94.77-3.31,1.15Zm5.09-2.39l-.75-.04c.19-.25.28-.52.26-.78,0-.15-.04-.29-.09-.43h.73c.05.15.09.29.1.44.02.27-.06.54-.26.8Zm-1.49-2.39c-.47-.36-1.1-.71-1.89-1.04l.63-.05c.81.34,1.47.7,1.95,1.07l-.69.02Zm-4.61-1.96c-.97-.27-2.09-.54-3.33-.8l.49-.08c1.26.26,2.4.53,3.39.81l-.55.07Zm-7.02-1.49c-1.19-.2-2.46-.4-3.88-.61l.4-.09c1.44.21,2.72.41,3.92.61l-.44.08Zm-7.83-1.16c-1.35-.18-2.74-.36-3.93-.51l.38-.08c1.19.15,2.58.33,3.93.51l-.39.09Zm-7.76-1.01c-1.45-.19-2.61-.35-3.65-.5l.41-.08c1.03.15,2.18.3,3.63.49l-.39.08Zm-7.01-1.01c-1.14-.19-2.09-.37-2.9-.55l.48-.06c.8.18,1.73.35,2.86.54l-.44.07Zm-5.09-1.16c-.59-.22-.98-.44-1.16-.66l.55-.02c.18.21.56.43,1.13.63l-.53.04Zm-.57-1.33h-.54c.2-.23.55-.44,1.04-.64l.5.02c-.47.19-.8.4-1,.62Zm2.87-1.19l-.43-.03c.76-.17,1.64-.34,2.68-.5l.36.05c-1.02.16-1.87.31-2.61.48Zm5.69-.89l-.3-.05c.97-.11,2.06-.23,3.33-.35l.27.05c-1.26.12-2.34.24-3.3.35Zm6.66-.66l-.26-.05.32-.03c.99-.09,2.01-.18,2.97-.28l.27.05c-.97.09-1.99.19-2.98.28l-.32.03Zm6.43-.63l-.3-.05c1.07-.12,1.96-.23,2.72-.35l.36.04c-.78.12-1.68.23-2.77.36Zm4.92-.76l-.41-.03c.56-.14.98-.28,1.23-.43h.44c-.26.17-.68.32-1.27.46Zm1.59-.9h-.45s0-.02,0-.02c-.02-.15-.13-.28-.33-.41h.43c.21.12.32.26.35.41v.02Zm-1.8-.83c-.45-.12-1.02-.24-1.74-.35l.34-.03c.73.11,1.32.23,1.79.36l-.39.02Zm-3.97-.64c-.73-.08-1.5-.16-2.24-.24l-.21-.02.28-.04.21.02c.74.08,1.52.16,2.25.24l-.29.04Zm-4.83-.52c-.83-.1-1.5-.19-2.06-.28l.34-.03c.55.09,1.21.18,2.03.28l-.3.03Zm-3.56-.6c-.37-.11-.64-.22-.81-.34h.39c.16.11.43.22.8.32l-.37.02Zm-.97-.68h0c.06-.11.24-.22.52-.33h.37c-.28.11-.45.22-.5.33h-.39Zm1.96-.62h-.34c.41-.11.89-.2,1.48-.29l.31.02c-.58.1-1.05.19-1.45.27Zm3.11-.53l-.3-.02c.42-.06.84-.12,1.25-.18l.47-.07.29.02-.47.07c-.41.06-.83.12-1.25.18Zm3.36-.48l-.3-.02c.58-.09,1.03-.17,1.36-.24h.32c-.34.09-.79.17-1.38.26Z"/>
              <path class="cls-38" d="m506.9,392.13h-.34s.05-.09.01-.13h.34s.04.09-.01.13Z"/>
            </g>
          </g>
        </g>
      </g>
      <ellipse class="cls-1" cx="504.53" cy="395.55" rx="57.16" ry="7.58"/>
      <g>
        <path class="cls-41" d="m506.8,349.66c-8.65,0-15.66,6.56-15.66,14.66,0,11.82,12.87,29.58,15.66,29.58s15.66-17.63,15.66-29.58c0-8.1-7.01-14.66-15.66-14.66Zm0,25.24c-6.24,0-11.3-4.74-11.3-10.58s5.06-10.58,11.3-10.58,11.3,4.74,11.3,10.58-5.06,10.58-11.3,10.58Z"/>
        <path class="cls-39" d="m506.8,348.8c-9.5,0-17.2,7.21-17.2,16.1,0,12.98,14.14,32.48,17.2,32.48s17.2-19.36,17.2-32.48c0-8.89-7.7-16.1-17.2-16.1Zm0,27.72c-6.86,0-12.41-5.2-12.41-11.62s5.56-11.62,12.41-11.62,12.41,5.2,12.41,11.62-5.56,11.62-12.41,11.62Z"/>
      </g>
    </g>
  </g>
</svg>