<?xml version="1.0" encoding="UTF-8"?>
<svg id="Layer_1" data-name="Layer 1" xmlns="http://www.w3.org/2000/svg" viewBox="0 0 122.88 103.75">
  <defs>
    <style>
      .cls-1 {
        fill: #ffcb00;
      }

      .cls-2 {
        fill: #fd5;
      }

      .cls-2, .cls-3 {
        fill-rule: evenodd;
      }

      .cls-4, .cls-3 {
        fill: #fff;
        stroke: #745200;
        stroke-miterlimit: 10;
        stroke-width: 3px;
      }
    </style>
  </defs>
  <path class="cls-4" d="m23.5,46.74c-1.66,1.28-4.04.97-5.32-.68-1.28-1.66-.97-4.04.68-5.32L52.14,14.94v7.4h2.78l-31.42,24.4ZM70.31,14.6l33.69,26.18c1.66,1.28,1.96,3.66.68,5.32s-3.66,1.96-5.32.68l-31.36-24.44h2.35v-7.74h-.04Z"/>
  <path class="cls-1" d="m9.12,41.89h104.64c2.42,0,4.74.97,6.44,2.68l.17.18c1.61,1.69,2.51,3.94,2.51,6.27v43.61c0,5.03-4.09,9.11-9.12,9.12H9.11c-5.02-.01-9.09-4.08-9.11-9.1h0v-43.63c0-2.42.97-4.74,2.68-6.44h0c1.7-1.71,4.02-2.68,6.44-2.68h0Z"/>
  <path class="cls-2" d="m9.12,44.64h104.64c3.52.01,6.36,2.86,6.37,6.38v43.61c0,3.52-2.85,6.37-6.37,6.38H9.12c-3.52,0-6.36-2.85-6.37-6.37v-43.62c0-3.52,2.85-6.37,6.37-6.38Z"/>
  <path class="cls-3" d="m61.44,1.5c7.42,0,13.43,6.01,13.43,13.43,0,7.42-6.01,13.43-13.43,13.43-7.42,0-13.43-6.01-13.43-13.43,0-3.56,1.41-6.97,3.93-9.49,2.51-2.53,5.93-3.95,9.5-3.94Zm0,7.75c3.14-.01,5.69,2.52,5.7,5.66.01,3.14-2.52,5.69-5.66,5.7-3.14.01-5.69-2.52-5.7-5.66,0-1.51.59-2.96,1.66-4.03,1.06-1.06,2.5-1.67,4-1.67Z"/>
</svg>