<?xml version="1.0" encoding="utf-8"?>
<!-- Generator: Adobe Illustrator 27.2.0, SVG Export Plug-In . SVG Version: 6.00 Build 0)  -->
<svg version="1.1" id="katman_1" xmlns="http://www.w3.org/2000/svg" xmlns:xlink="http://www.w3.org/1999/xlink" x="0px" y="0px"
	 viewBox="0 0 100 100" style="enable-background:new 0 0 100 100;" xml:space="preserve">
<path d="M45.1,15.9c-3.1-0.9-6-1.8-8.9-2.7c-1.7-0.5-3.3-0.9-5-1.5c-0.4-0.1-0.6-0.6-0.9-1c0.3-0.3,0.6-0.7,1-0.8
	c4.5-1.4,9-2.7,13.5-4c1-0.3,1.6,0,1.4,1.1c-0.2,1.7,0.5,3,1.4,4.3C57.8,26.8,68,42.3,78.2,57.8c0.4,0.5,0.4,1.3,0.6,2
	c-0.6,0.1-1.3,0.4-1.9,0.4c-9.5,0-19,0-28.5,0c-0.7,0-1.9,0.2-2,0.6c-0.2,1.1-0.1,2.3,0.1,3.5c0,0.2,1,0.3,1.5,0.4
	c4.3,0,8.6,0.1,12.9,0c1.9,0,3.2,0.4,4.2,2.1c1,1.7,2.2,3.2,3.3,4.9c0.7,1,1.5,1.5,2.7,1.5c6.5-0.1,13,0,19.4,0c0.7,0,1.3,0.3,2,0.5
	c-0.2,0.6-0.3,1.4-0.7,1.9c-2,3.2-4.1,6.4-6.2,9.6c-0.6,1-1.4,1.4-2.6,1.4c-20.5,0-41,0-61.5-0.1c-0.8,0-1.8-0.5-2.2-1.1
	c-2.3-3.3-4.5-6.8-6.7-10.2c-1-1.5-0.6-2.1,1.2-2.1c2.2,0,4.4-0.1,6.5,0c1.1,0,1.9-0.4,2.5-1.3c1.2-1.8,2.5-3.6,3.7-5.4
	c0.8-1.3,1.9-1.8,3.4-1.7c4.3,0,8.6,0,12.9,0c2.4,0,2.4,0,2.4-2.2c0-2.1,0-2.2-2.3-2.2c-8.7,0-17.3,0-26,0c-0.7,0-1.4-0.3-2.2-0.5
	c0.3-0.7,0.5-1.6,0.9-2.2c9.6-13.4,19.2-26.8,28.8-40.2C44.6,17,44.8,16.6,45.1,15.9z M13.6,74.2c0.1,0.4,0.2,0.7,0.3,0.9
	c2,3.1,4,6.2,6.1,9.2c0.4,0.5,1.4,0.9,2.1,0.9c20.1,0,40.2,0,60.3,0.1c1.2,0,1.9-0.4,2.6-1.4c1.5-2.5,3.2-4.9,4.7-7.3
	c0.4-0.7,0.8-1.4,1.4-2.3C65.1,74.2,39.4,74.2,13.6,74.2z M45,19.4c-0.2-0.1-0.3-0.1-0.5-0.2C35,32.3,25.6,45.5,16.1,58.7
	c0.1,0.1,0.2,0.3,0.3,0.4c0.5,0,1.1,0,1.6,0c8.3,0,16.6,0,24.9,0c1.7,0,2.2-0.4,2.2-2.1c-0.1-12,0-24,0-36
	C45.1,20.5,45,19.9,45,19.4z M77.6,59c-9.8-14.8-19.3-29.3-28.8-43.7c-0.1,0.1-0.3,0.1-0.4,0.2c0.1,0.3,0.1,0.6,0.3,0.9
	c3.7,8.8,5.4,17.9,4.6,27.5c-0.5,5.2-1.7,10.1-5.4,14.1c-0.2,0.2-0.3,0.6-0.6,1.1C57.4,59,67.2,59,77.6,59z M23.4,72.8
	c15,0,29.4,0,44.4,0c-1.7-2.4-3.1-4.6-4.7-6.6c-0.3-0.3-1-0.4-1.5-0.4c-10.7,0-21.3,0-32,0c-0.6,0-1.4,0.3-1.7,0.7
	C26.4,68.4,25.1,70.5,23.4,72.8z M46.9,14.8c-0.2,0.1-0.3,0.1-0.5,0.2c0,14.1,0,28.2,0,42.8c2.7-2.6,4.2-5.5,4.9-8.7
	c1.9-8.7,1.1-17.3-1.4-25.8C49,20.3,47.9,17.6,46.9,14.8z M45,7.1c-4.2,1.3-8.1,2.4-11.9,3.6c0,0.2,0,0.4,0,0.5
	c3.9,1.1,7.8,2.3,11.9,3.5C45,12,45,9.7,45,7.1z"/>
</svg>
