<?xml version="1.0" encoding="utf-8"?>
<!-- Generator: Adobe Illustrator 27.2.0, SVG Export Plug-In . SVG Version: 6.00 Build 0)  -->
<svg version="1.1" id="katman_1" xmlns="http://www.w3.org/2000/svg" xmlns:xlink="http://www.w3.org/1999/xlink" x="0px" y="0px"
	 viewBox="0 0 100 100" style="enable-background:new 0 0 100 100;" xml:space="preserve">
<path d="M86.8,46.1c-25,0.5-49.6,3.5-73.5,11.5c0.3,0,0.7,0,1,0c4.4,0,8.9,0,13.3,0c1.3,0,2.1,0.8,2.1,1.9c0,1.1-0.8,1.9-2,1.9
	c-7.3,0-14.6,0-21.8,0c-3,0-5.2-3-4.3-5.9c1.2-4.2,2.6-8.3,4.1-12.4c0.6-1.8,2.1-2.8,4-2.9c7.4-0.6,14.8-1.2,22.1-1.8
	c4.4-0.4,8.9-0.7,13.3-1.1c0.5,0,1-0.2,1.4-0.4c7.6-4.4,15.2-8.8,22.8-13.2c2.8-1.7,4.9-1.4,7.1,1.1c2.6,2.9,5.2,5.8,7.7,8.7
	c0.5,0.5,0.9,0.7,1.6,0.7c2.9-0.3,5.7-0.5,8.6-0.7c1.7-0.1,3,0.5,3.8,1.9c0.8,1.5,0.6,2.9-0.3,4.3c-8.2,11.8-19.3,18.9-33.5,21.2
	c-2.5,0.4-5.1,0.5-7.7,0.6c-3.8,0.1-7.7,0-11.5,0c-1.4,0-2.2-0.8-2.2-1.9c0-1.1,0.9-1.9,2.2-1.9c4,0,8,0,12.1,0
	c11-0.1,20.8-3.7,29.2-10.8c0.1-0.1,0.3-0.3,0.4-0.4C86.8,46.3,86.8,46.2,86.8,46.1z M94.9,37.3c-0.6,0-0.9,0-1.2,0
	c-4.2,0.3-8.3,0.7-12.5,1c-8.4,0.7-16.8,1.3-25.1,2c-7.6,0.6-15.2,1.2-22.8,1.8c-7.6,0.6-15.2,1.2-22.8,1.8
	c-1.2,0.1-1.5,0.6-1.7,2.4c-0.3,3-1.4,5.9-2.9,8.6c-0.3,0.4-0.3,0.7-0.4,1.3C5.7,56.1,6,56,6.3,55.9c6-1.9,12-4,18.1-5.7
	c9.6-2.6,19.4-4.4,29.3-5.5c6.9-0.8,13.8-1.4,20.7-1.9c5.3-0.4,10.6-0.3,15.9-0.5c0.3,0,0.8-0.1,1-0.4C92.4,40.5,93.6,39,94.9,37.3z
	 M67.5,29.1c1.4,1.6,2.8,3,4,4.5c0.8,1.1,2.2,1.6,3.5,1.4c1.5-0.3,3.1-0.3,4.9-0.4c-2.4-2.7-4.6-5.2-6.9-7.7c-0.2-0.3-1-0.3-1.3-0.2
	C70.3,27.4,69,28.2,67.5,29.1z M54.9,36.4c0,0.1,0,0.1,0.1,0.2c4.3-0.3,8.7-0.7,13.2-1.1c-1.4-1.6-2.7-3-4-4.5
	C61.1,32.8,58,34.6,54.9,36.4z"/>
</svg>
