<?xml version="1.0" encoding="UTF-8"?>
<svg id="katman_1" data-name="katman 1" xmlns="http://www.w3.org/2000/svg" viewBox="0 0 379 297">
  <defs>
    <style>
      .cls-1 {
        fill: #f7f8f8;
      }

      .cls-2 {
        fill: #f9f6ed;
      }

      .cls-3 {
        fill: #f9f6ee;
      }

      .cls-4 {
        fill: #f8fafb;
      }

      .cls-5 {
        fill: #f8f9fa;
      }

      .cls-6 {
        fill: #f1d1a3;
      }

      .cls-7 {
        fill: #f4e0c1;
      }

      .cls-8 {
        fill: #e9e4d7;
      }

      .cls-9 {
        fill: #e6e6e6;
      }

      .cls-10 {
        fill: #efebdd;
      }

      .cls-11 {
        fill: #cf5752;
      }

      .cls-12 {
        fill: #dc645f;
      }

      .cls-13 {
        fill: #e2bb8b;
      }
    </style>
  </defs>
  <path class="cls-4" d="m189.5.05C251.9.05,314.3.06,376.71,0c1.87,0,2.29.42,2.29,2.29-.05,97.47-.05,194.94,0,292.42,0,1.87-.42,2.29-2.29,2.29-124.8-.05-249.61-.05-374.41,0-1.87,0-2.29-.42-2.29-2.29C.05,197.24.05,99.76,0,2.29,0,.42.42,0,2.29,0c62.4.06,124.8.05,187.21.05Zm-16.79,64.34c-1.64.18-3.28.36-4.92.53-17.98,0-35.96,0-53.94.01-2.9,0-5.81-.05-8.71,0-3.3.06-5.3,1.59-5.91,4.84-.81,4.34-.15,8.75-.35,13.13-1.62.58-3.47.05-5,1.06-2.96.79-5.92,1.58-8.88,2.36-4.32,1.13-6.06,3.96-4.95,8.23,3.55,13.62,7.14,27.22,10.68,40.84,2.41,9.27,4.77,18.55,7.15,27.82,0,.63.31.98.95,1.01-.59,1.8.09,3.59.09,5.38-.05,28.02-.04,56.03-.04,84.05,0,5.25,2.15,7.36,7.46,7.37,2.5,0,4.99,0,7.49,0,3.17,0,6.34,0,9.5.01.85,3.53,1.72,7.06,2.55,10.6.94,3.97,3.52,5.62,7.53,4.67,2.97-.71,5.91-1.56,8.87-2.35,6.78-1.8,13.55-3.62,20.34-5.38,9.19-2.38,18.39-4.71,27.58-7.06,1-.16,2.01-.32,3.01-.48,14.56,0,29.11,0,43.67,0,4.99,0,9.98.05,14.97-.02,3.24-.05,6.66-1.83,6.33-6.3-.27-3.72-.04-7.48-.03-11.22.66.01,1.36.17,1.98.02,5.53-1.39,11.08-2.72,16.54-4.32,3.1-.91,4.64-3.63,3.79-6.61-.47-1.66-.77-3.34-1.2-5-1.99-7.69-4-15.36-5.99-23.05-2.7-10.4-5.38-20.81-8.08-31.22-2.03-7.84-4.07-15.69-6.1-23.53-.28-.95-.06-2.19-1.46-2.48.16-.18.33-.35.49-.53,1.43-.86,1.51-2.25,1.5-3.7-.01-6.4,0-12.8,0-19.2,0-16.79,0-33.58,0-50.37,0-1.53.23-3.16-1.49-4.07-.44-1.96-1.54-3.35-3.5-3.99-.1-.63-.21-1.25-1-.5-5.5,0-10.99,0-16.49,0-.73-2.95-1.43-5.91-2.22-8.85-.4-1.47-.46-3.13-1.87-4.16.58-1.51,1.85-2.44,2.94-3.51.28.02.56.04.84.06.6.56,1.24,1.08,1.8,1.69,2.49,2.71,7,2.78,9.9.14,2.71-2.47,2.89-7.15.36-9.81-2.4-2.51-4.82-4.98-7.24-7.47-3.32-3.36-6.55-6.83-10-10.05-2.9-2.71-7.61-2.6-10.11-.05-2.53,2.58-2.52,7.11-.08,10.03,1.25,1.49,1.75,2.89-.02,4.64-4.78,4.72-10.14,8.78-14.92,13.48-1.58,1.55-2.45,1.42-3.7-.1-.84-1.02-1.89-1.87-2.8-2.84-2.18-2.31-5.34-3.12-7.87-2.36-4.37,1.3-6.45,7.45-3.87,10.69.72.91,2.04,1.54,2.03,2.98-5.59,1.38-11.18,2.74-16.75,4.15-.34.09-.58.54-.87.82Z"/>
  <path class="cls-3" d="m254.65,65.41c1.96.64,3.05,2.03,3.5,3.99,0,25.78,0,51.56,0,77.35-.16.18-.33.35-.49.53.19.83.37,1.67.56,2.51l-.04,93.7c0,3.74-.24,7.5.03,11.22.32,4.47-3.09,6.26-6.33,6.3-4.99.07-9.98.02-14.97.02-14.56,0-29.11,0-43.67,0-.98-.75-1.97-.73-2.97-.02-17.48.01-34.96.03-52.44.04-4.82,0-9.65,0-14.47-.01-3.17,0-6.34,0-9.5-.01-.41-1.36-.49-2.75-.49-4.17.02-62.58.02-125.16,0-187.74,0-1.42.08-2.81.49-4.17,17.98,0,35.96,0,53.94-.01,1.66.78,3.32.77,4.98,0,7.84-.02,15.69-.04,23.53-.06.72.51,1.5.97,1.52,2-.21.13-.47.21-.63.38-5.07,5.21-10.12,10.42-15.19,15.62-.57.58-.81,1.22-.75,2.01-.5,1.94-1.22,3.99.95,5.37,2.02,1.28,4.14.74,6.23-1.33,1.53-1.52,3.09-3.02,4.58-4.58,3.72-3.9,7.86-7.39,11.26-11.59,2.93,2.92,6.01,5.72,8.76,8.81,2.32,2.61,5.39,3.19,8.13,2.28,4.2-1.39,6.55-6.39,3.39-10.51-1.71-2.22-4.16-3.8-5.37-6.42.68-.66,1.36-1.32,2.04-1.98,5.31,0,10.62-.01,15.93-.02,5.5,0,10.99,0,16.49,0,.22.4.59.49,1,.5Zm-125.81,110.9,0-59.37"/>
  <path class="cls-8" d="m113.85,64.93c-.41,1.36-.49,2.75-.49,4.17.02,62.58.02,125.16,0,187.74,0,1.42.08,2.81.49,4.17-2.5,0-4.99,0-7.49,0-5.31,0-7.46-2.12-7.46-7.37,0-28.02-.02-56.03.04-84.05,0-1.8-.68-3.58-.09-5.38-.16-.3-.31-.59-.47-.89.61-.49.52-1.18.52-1.84-.02-17.38-.04-34.76-.06-52.14,0-.18,0-.36,0-.54,0-.31,0-.63,0-.94.02-8.32.04-16.65.07-24.97.19-4.38-.46-8.79.35-13.13.61-3.25,2.61-4.78,5.91-4.84,2.9-.05,5.8,0,8.71,0Z"/>
  <path class="cls-6" d="m258.17,243.48c.01-31.23.03-62.46.04-93.7.3,0,.6-.01.9-.02,2.03,7.84,4.07,15.69,6.1,23.53,2.69,10.4,5.38,20.81,8.08,31.22,1.99,7.68,4,15.36,5.99,23.05.43,1.66.73,3.34,1.2,5,.85,2.98-.69,5.7-3.79,6.61-5.47,1.61-11.02,2.93-16.54,4.32-.62.16-1.32,0-1.98-.02Z"/>
  <path class="cls-11" d="m197.83,66.87c-.02-1.04-.8-1.5-1.52-2-1.92-1.9-3.37-4.31-5.97-5.45,0-1.44-1.31-2.07-2.03-2.98-2.58-3.24-.5-9.39,3.87-10.69,2.53-.75,5.69.05,7.87,2.36.91.97,1.96,1.82,2.8,2.84,1.25,1.52,2.13,1.65,3.7.1,4.77-4.7,10.14-8.76,14.92-13.48,1.77-1.75,1.26-3.16.02-4.64-2.44-2.91-2.45-7.44.08-10.03,2.5-2.55,7.2-2.67,10.11.05,3.45,3.23,6.68,6.69,10,10.05-.65.76-1.54.38-2.33.5-3.19.49-5.45,2.15-6.65,5.2-1.13,2.87-.21,5.11,2,7.05.66.58,1.47,1.13,1.49,2.18-.06.15-.11.31-.16.47-1.09,1.08-2.36,2.01-2.94,3.51-4.33,4-8,8.59-11.84,13.03-.68.66-1.36,1.32-2.04,1.98-2.38-.86-3.58-3.09-5.35-4.66-.91-.81-1.75-1.35-3.04-1.35-4.37-.02-7.86,3.24-8.07,7.7-.03.65.13,1.35-.52,1.82-1.14-1.03-2.28-2.07-3.42-3.1-.18-.45-.57-.45-.96-.45Z"/>
  <path class="cls-13" d="m98.83,107.87c0,.31,0,.63,0,.94-.06.05-.17.12-.16.16.03.13.11.25.17.38.02,17.38.04,34.76.06,52.14,0,.66.09,1.35-.52,1.84-.16-.04-.32-.09-.48-.12-2.38-9.27-4.74-18.55-7.15-27.82-3.54-13.62-7.14-27.22-10.68-40.84-1.11-4.27.63-7.09,4.95-8.23,2.96-.78,5.92-1.57,8.88-2.36-.54,1.88-1.13,3.64-.51,5.74,1.37,4.65,2.32,9.42,3.64,14.09.4,1.39.23,3.16,1.8,4.07Z"/>
  <path class="cls-6" d="m137.82,261.04c17.48-.01,34.96-.03,52.44-.04-.01.17-.03.34-.04.51-9.19,2.35-18.39,4.68-27.58,7.06-6.79,1.76-13.56,3.59-20.34,5.38-2.85-3.83-3.5-8.42-4.48-12.91Z"/>
  <path class="cls-12" d="m236.17,47.92c-.01-1.05-.82-1.6-1.49-2.18-2.21-1.93-3.13-4.17-2-7.05,1.2-3.05,3.46-4.72,6.65-5.2.79-.12,1.68.26,2.33-.5,2.41,2.49,4.84,4.96,7.24,7.47,2.54,2.66,2.35,7.34-.36,9.81-2.9,2.64-7.41,2.57-9.9-.14-.55-.6-1.2-1.13-1.8-1.69-.23-.18-.45-.35-.68-.53Z"/>
  <path class="cls-13" d="m137.82,261.04c.98,4.48,1.62,9.08,4.48,12.91-2.95.79-5.89,1.64-8.87,2.35-4.01.96-6.59-.69-7.53-4.67-.84-3.54-1.7-7.07-2.55-10.6,4.82,0,9.65,0,14.47.01Z"/>
  <path class="cls-5" d="m258.14,146.75c0-25.78,0-51.56,0-77.35,1.73.91,1.49,2.54,1.49,4.07,0,16.79,0,33.58,0,50.37,0,6.4,0,12.8,0,19.2,0,1.45-.07,2.85-1.5,3.7Z"/>
  <path class="cls-6" d="m221.23,64.93c3.84-4.44,7.51-9.04,11.84-13.03,1.41,1.03,1.47,2.69,1.87,4.16.79,2.94,1.48,5.9,2.22,8.85-5.31,0-10.62.01-15.93.02Z"/>
  <path class="cls-6" d="m98.83,107.87c-1.57-.92-1.4-2.68-1.8-4.07-1.33-4.66-2.28-9.44-3.64-14.09-.62-2.1-.03-3.87.51-5.74,1.53-1.01,3.38-.48,5-1.06-.02,8.32-.04,16.65-.07,24.97Z"/>
  <path class="cls-6" d="m190.33,59.41c2.61,1.14,4.06,3.55,5.97,5.45-7.84.02-15.69.04-23.53.06-.02-.18-.04-.36-.06-.54.29-.28.53-.74.87-.82,5.58-1.41,11.17-2.78,16.75-4.15Z"/>
  <path class="cls-10" d="m172.71,64.39c.02.18.04.36.06.54-1.66.76-3.32.77-4.98,0,1.64-.18,3.28-.36,4.92-.53Z"/>
  <path class="cls-7" d="m259.11,149.77c-.3,0-.6.01-.9.02-.19-.83-.37-1.67-.56-2.51,1.4.29,1.17,1.54,1.46,2.48Z"/>
  <path class="cls-10" d="m190.22,261.5c.01-.17.03-.34.04-.51.99-.71,1.98-.72,2.97.02-1,.16-2.01.32-3.01.48Z"/>
  <path class="cls-5" d="m254.65,65.41c-.41,0-.78-.1-1-.5.79-.75.9-.13,1,.5Z"/>
  <path class="cls-1" d="m97.9,163.21c.16.04.32.08.48.12.16.3.31.59.47.89-.64-.03-.94-.39-.95-1.01Z"/>
  <path class="cls-5" d="m236.17,47.92c.23.18.45.35.68.53-.28-.02-.56-.04-.84-.06.04-.16.1-.31.16-.47Z"/>
  <path class="cls-12" d="m202.21,70.41c.64-.48.49-1.18.52-1.82.21-4.45,3.69-7.71,8.07-7.7,1.29,0,2.13.54,3.04,1.35,1.77,1.57,2.97,3.8,5.35,4.66,1.22,2.61,3.67,4.2,5.37,6.42,3.17,4.12.82,9.12-3.39,10.51-2.74.9-5.81.33-8.13-2.28-2.75-3.09-5.82-5.89-8.76-8.81-.69-.78-1.38-1.55-2.08-2.33Z"/>
  <path class="cls-9" d="m202.21,70.41c.69.78,1.38,1.55,2.08,2.33-3.41,4.2-7.55,7.69-11.26,11.59-1.49,1.56-3.04,3.07-4.58,4.58-2.09,2.07-4.22,2.61-6.23,1.33-2.16-1.37-1.45-3.43-.95-5.37,6.03-5.66,11.94-11.46,17.52-17.57,1.14,1.03,2.28,2.07,3.42,3.1Z"/>
  <path class="cls-2" d="m138.83,180.21c31.12,0,62.23,0,93.35,0-.26,1.89-1.74,1.45-2.91,1.45-10.56.02-21.11.01-31.67.01-18.62,0-37.24,0-55.86-.01-1.17,0-2.65.43-2.9-1.46Z"/>
  <path class="cls-2" d="m198.79,67.32c-5.59,6.11-11.49,11.9-17.52,17.57-.06-.78.18-1.43.75-2.01,5.07-5.2,10.12-10.42,15.19-15.62.17-.17.42-.26.63-.38.39,0,.78,0,.96.45Z"/>
  <path class="cls-6" d="m98.84,109.35c-.06-.13-.13-.25-.17-.38,0-.04.1-.11.16-.16,0,.18,0,.36,0,.54Z"/>
</svg>