<?xml version="1.0" encoding="utf-8"?>
<!-- Generator: Adobe Illustrator 27.2.0, SVG Export Plug-In . SVG Version: 6.00 Build 0)  -->
<svg version="1.1" id="katman_1" xmlns="http://www.w3.org/2000/svg" xmlns:xlink="http://www.w3.org/1999/xlink" x="0px" y="0px"
	 viewBox="0 0 100 100" style="enable-background:new 0 0 100 100;" xml:space="preserve">
<path d="M87.69,25.31c0.21,0.21,0.53,0.33,0.87,0.33c0.26,0,0.51-0.07,0.71-0.2c0.23-0.15,0.38-0.36,0.41-0.6
	c0.03-0.24-0.06-0.47-0.25-0.65c-0.1-0.09-9.19-8.8-22.14-4.16c2.58-1.83,5.86-1.36,6-1.34c0.6,0.09,1.19-0.22,1.31-0.7
	c0.06-0.23,0-0.47-0.17-0.67c-0.17-0.2-0.42-0.33-0.71-0.38c-0.63-0.1-2.21-0.27-4.16,0.15c3.47-2.18,7.26-1.75,7.43-1.73
	c0.61,0.08,1.18-0.26,1.28-0.74c0.05-0.24-0.02-0.47-0.2-0.66c-0.18-0.19-0.43-0.32-0.73-0.36c-0.03,0-2.8-0.32-5.98,0.67
	c4.25-2.19,9.02-2.12,9.23-2.12c0.62,0,1.13-0.38,1.15-0.87c0.01-0.24-0.1-0.46-0.31-0.64c-0.21-0.17-0.48-0.27-0.78-0.28
	c-5.17-0.11-14.57,1.91-17.4,10.13c-2.84-8.24-12.23-10.25-17.4-10.13c-0.61,0.01-1.1,0.42-1.09,0.91c0.02,0.48,0.53,0.87,1.15,0.87
	c0.22-0.01,4.96-0.08,9.22,2.11c-3.18-0.98-5.94-0.67-5.97-0.66c-0.29,0.04-0.55,0.16-0.73,0.36c-0.18,0.19-0.25,0.43-0.2,0.66
	c0.1,0.48,0.67,0.82,1.28,0.74c0.17-0.02,3.98-0.49,7.47,1.74c-1.96-0.43-3.57-0.26-4.21-0.16c-0.6,0.09-1,0.56-0.88,1.04
	c0.12,0.48,0.7,0.8,1.31,0.71c0.18-0.03,4.18-0.59,6.81,2.03c-7.97-3.51-14.64-1.86-18.88,0.2c0.68,0.33,1.3,0.72,1.87,1.14
	c1.38-0.6,3-1.13,4.83-1.41c-1.73,0.57-3.07,1.34-4.04,2.05c0.5,0.43,0.95,0.9,1.36,1.38c1.23-0.94,3.31-2.1,6.36-2.39
	c-1.48,0.7-2.77,1.72-3.54,2.8c-0.3,0.43-0.11,0.97,0.43,1.21c0.17,0.08,0.36,0.11,0.55,0.11c0.4,0,0.78-0.17,0.97-0.45
	c0.13-0.18,3.23-4.38,9.86-2.47c-6.45,1.01-9.69,4-11.31,6.84c0.08,0.19,0.15,0.37,0.23,0.55c0.3,0.74,0.57,1.51,0.83,2.3
	c0.26-0.85,0.66-1.79,1.29-2.73c-0.68,1.96-0.35,3.5-0.34,3.52c0.11,0.47,0.68,0.8,1.3,0.71c0.6-0.09,1.01-0.55,0.9-1.03
	c-0.02-0.11-0.53-2.53,1.54-4.88c-0.21,0.88-0.21,1.81,0.01,2.59c0.13,0.47,0.74,0.78,1.34,0.67c0.6-0.11,0.98-0.58,0.85-1.06
	c-0.05-0.17-1.1-4.16,4.6-5.79c-0.02,0.12-0.05,0.24-0.07,0.36c-0.15,0.8-0.31,1.62-0.35,2.44l0,0.05c-0.01,0.3-0.03,0.61,0.27,0.91
	c0.09,0.09,0.47,0.23,0.69,0.31v10.28L50.2,34.78c0.13,0.48,0.24,0.96,0.36,1.45c0.11,0.47,0.21,0.95,0.3,1.43l10.71,3.9l2.24,0.82
	l12.75,4.65H63.81h-2.24h-9.61h-0.64v1.54h0.72h9.53h2.24h15.37v9.99H63.81h-2.24H51.9h-0.82h-0.82c0.38-4.63,0.31-9.58-0.22-15.11
	c-0.19-2.03-0.47-3.93-0.83-5.73c-0.08-0.41-0.17-0.83-0.26-1.23c-0.02-0.1-0.05-0.19-0.07-0.29c-0.07-0.31-0.15-0.62-0.23-0.92
	c-0.32-1.23-0.68-2.41-1.1-3.54c-0.13-0.36-0.26-0.72-0.4-1.07c-0.73-1.81-1.68-3.85-3.11-5.6c-0.42-0.51-0.88-1-1.39-1.45
	c-0.35-0.31-0.71-0.59-1.1-0.86c-0.27-0.18-0.54-0.36-0.83-0.52v0.98v14.97v1.33v1.33v17.71h-0.82H39.1v-17.1v-1.33V38.8V24.32v-2.3
	v-0.04c-3.66,1.79-5.55,5.53-6.79,8.6c-1.37,3.4-2.31,7.26-2.85,11.77c-0.04,0.32-0.08,0.63-0.11,0.96
	c-0.02,0.14-0.03,0.29-0.04,0.43c-0.05,0.46-0.09,0.92-0.12,1.37c-0.07,0.97-0.13,1.92-0.15,2.84c-0.03,1.21-0.06,2.81-0.07,4.42
	c-0.01,2.27,0.04,4.3,0.16,6.19h-0.81h-0.82h-6.72v-9.99h6.61h0.82h0.01v-0.63v-0.91h-0.79h-3.46l3.53-1.3
	c0.03-0.45,0.06-0.91,0.1-1.36c0.03-0.39,0.07-0.78,0.11-1.17c0.01-0.07,0.02-0.14,0.03-0.21l-9.99,3.69v32.07
	c-0.62-0.21-1.15-0.5-1.73-0.82c-1.32-0.73-2.81-1.56-5.7-1.56v2.06c2.07,0,3.02,0.53,4.21,1.19c1.32,0.73,2.81,1.56,5.7,1.56
	c2.88,0,4.38-0.83,5.7-1.56c0.17-0.1,0.34-0.19,0.51-0.28c0.99-0.53,1.93-0.91,3.7-0.91c1.77,0,2.72,0.39,3.71,0.91
	c0.17,0.09,0.34,0.18,0.51,0.28c1.32,0.73,2.81,1.56,5.7,1.56c2.89,0,4.38-0.83,5.7-1.56c0.17-0.1,0.34-0.19,0.51-0.28
	c0.99-0.53,1.93-0.91,3.7-0.91c1.77,0,2.72,0.39,3.71,0.91c0.17,0.09,0.34,0.18,0.51,0.28c1.32,0.73,2.81,1.56,5.7,1.56
	c2.89,0,4.38-0.83,5.7-1.56c0.17-0.1,0.34-0.19,0.51-0.28c0.99-0.53,1.93-0.91,3.71-0.91c1.77,0,2.72,0.39,3.71,0.91
	c0.17,0.09,0.34,0.18,0.51,0.28c1.32,0.73,2.81,1.56,5.7,1.56c2.89,0,4.38-0.83,5.7-1.56c1.2-0.67,2.14-1.19,4.22-1.19v-2.06
	c-2.89,0-4.38,0.83-5.7,1.56c-0.58,0.32-1.11,0.61-1.73,0.82v-32.3l-18.39-6.7V28.65c0.22-0.08,0.6-0.22,0.69-0.31
	c0.3-0.3,0.29-0.61,0.27-0.91l0-0.05c-0.04-0.8-0.19-1.61-0.34-2.39c0.17-0.15,0.27-0.34,0.28-0.54c0-0.01,0-0.02,0-0.03l0.07,0.01
	c0.11,0.01,0.22,0.02,0.31,0.02c0.12,0.03,0.23,0.05,0.34,0.08l0.13,0.03c5.73,1.6,4.72,5.64,4.67,5.81
	c-0.13,0.48,0.25,0.95,0.85,1.06c0.6,0.1,1.2-0.21,1.34-0.67c0.22-0.78,0.22-1.71,0.01-2.59c2.06,2.35,1.56,4.77,1.54,4.88
	c-0.11,0.48,0.29,0.95,0.9,1.03c0.62,0.09,1.19-0.24,1.3-0.71c0-0.02,0.34-1.56-0.34-3.52c1.89,2.8,1.75,5.67,1.74,5.81
	c-0.03,0.49,0.45,0.91,1.06,0.93c0.61,0.03,1.14-0.36,1.17-0.85c0.01-0.11,0.49-11.12-13.63-12.96c6.38-1.65,9.37,2.4,9.5,2.57
	c0.2,0.28,0.57,0.45,0.97,0.45c0.19,0,0.38-0.04,0.55-0.11c0.54-0.24,0.73-0.78,0.43-1.21c-0.76-1.08-2.06-2.11-3.54-2.8
	c5.19,0.5,7.6,3.52,7.7,3.65c0.21,0.27,0.56,0.42,0.95,0.42c0.2,0,0.41-0.05,0.58-0.13c0.53-0.26,0.69-0.81,0.37-1.22
	c-0.02-0.03-1.92-2.45-5.92-3.76C83.76,21.54,87.53,25.14,87.69,25.31z M79.18,79.09c-1.71-0.08-2.6-0.57-3.68-1.17
	c-0.22-0.12-0.44-0.24-0.67-0.36V60.96h4.35V79.09z M63.81,60.96h2.27v16c-0.76,0.28-1.39,0.63-1.97,0.95
	c-0.91,0.51-1.69,0.93-2.92,1.11V60.96h0.39H63.81z M59.25,79.09c-1.64-0.1-2.51-0.58-3.58-1.17c-0.41-0.23-0.84-0.46-1.32-0.68
	V60.96h4.9V79.09z M45.6,77.23c-0.48,0.22-0.91,0.46-1.32,0.69c-1.07,0.59-1.94,1.07-3.57,1.17V60.96h4.9V77.23z M33.87,60.96h4.9
	v18.06c-1.24-0.17-2.01-0.6-2.93-1.11c-0.59-0.33-1.21-0.67-1.97-0.95V60.96z M25.12,60.96v16.59c-0.23,0.12-0.45,0.24-0.67,0.36
	c-1.09,0.6-1.98,1.09-3.68,1.17V60.96H25.12z M27.05,76.76V60.96h4.9v15.52c-0.54-0.08-1.13-0.12-1.8-0.12
	C28.88,76.35,27.88,76.51,27.05,76.76z M47.53,76.59V60.96h4.9v15.63c-0.69-0.15-1.5-0.24-2.45-0.24
	C49.02,76.35,48.22,76.45,47.53,76.59z M68,76.48V60.96h4.9v15.79c-0.83-0.24-1.83-0.4-3.1-0.4C69.13,76.35,68.54,76.4,68,76.48z"/>
<path d="M79.71,84.42c-2.07,0-3.02-0.53-4.22-1.19c-1.32-0.73-2.81-1.56-5.7-1.56c-2.89,0-4.38,0.83-5.7,1.56
	c-1.2,0.67-2.14,1.19-4.22,1.19c-2.07,0-3.02-0.53-4.22-1.19c-1.32-0.73-2.81-1.56-5.7-1.56c-2.89,0-4.38,0.83-5.7,1.56
	c-1.2,0.67-2.14,1.19-4.22,1.19c-2.07,0-3.02-0.53-4.22-1.19c-1.32-0.73-2.81-1.56-5.7-1.56c-2.88,0-4.38,0.83-5.7,1.56
	c-1.2,0.67-2.14,1.19-4.21,1.19c-2.07,0-3.02-0.53-4.21-1.19c-1.32-0.73-2.81-1.56-5.7-1.56v2.06c2.07,0,3.02,0.53,4.21,1.19
	c1.32,0.73,2.81,1.56,5.7,1.56c2.88,0,4.38-0.83,5.7-1.56c1.2-0.67,2.14-1.19,4.21-1.19c2.07,0,3.02,0.53,4.22,1.19
	c1.32,0.73,2.81,1.56,5.7,1.56c2.89,0,4.38-0.83,5.7-1.56c1.2-0.67,2.14-1.19,4.22-1.19c2.07,0,3.02,0.53,4.22,1.19
	c1.32,0.73,2.81,1.56,5.7,1.56c2.89,0,4.38-0.83,5.7-1.56c1.2-0.67,2.14-1.19,4.22-1.19c2.07,0,3.02,0.53,4.22,1.19
	c1.32,0.73,2.81,1.56,5.7,1.56c2.89,0,4.38-0.83,5.7-1.56c1.2-0.67,2.14-1.19,4.22-1.19v-2.06c-2.89,0-4.38,0.83-5.7,1.56
	C82.73,83.9,81.78,84.42,79.71,84.42z"/>
<path d="M22.88,63.31c0.47,0,0.85-0.3,0.85-0.68c0-0.38-0.38-0.68-0.85-0.68c-0.47,0-0.85,0.3-0.85,0.68
	C22.03,63,22.41,63.31,22.88,63.31z"/>
<path d="M29.5,61.95c-0.47,0-0.85,0.3-0.85,0.68c0,0.38,0.38,0.68,0.85,0.68c0.47,0,0.85-0.3,0.85-0.68
	C30.35,62.25,29.97,61.95,29.5,61.95z"/>
<path d="M37.2,62.63c0-0.38-0.38-0.68-0.85-0.68c-0.47,0-0.85,0.3-0.85,0.68c0,0.38,0.38,0.68,0.85,0.68
	C36.82,63.31,37.2,63,37.2,62.63z"/>
<path d="M43.2,63.31c0.47,0,0.85-0.3,0.85-0.68c0-0.38-0.38-0.68-0.85-0.68s-0.85,0.3-0.85,0.68C42.35,63,42.73,63.31,43.2,63.31z"
	/>
<path d="M50.06,61.95c-0.47,0-0.85,0.3-0.85,0.68c0,0.38,0.38,0.68,0.85,0.68c0.47,0,0.85-0.3,0.85-0.68
	C50.91,62.25,50.53,61.95,50.06,61.95z"/>
<path d="M56.67,63.31c0.47,0,0.85-0.3,0.85-0.68c0-0.38-0.38-0.68-0.85-0.68c-0.47,0-0.85,0.3-0.85,0.68
	C55.82,63,56.2,63.31,56.67,63.31z"/>
<path d="M63.52,63.31c0.1,0,0.2-0.02,0.28-0.04c0.33-0.09,0.57-0.34,0.57-0.64c0-0.3-0.24-0.54-0.57-0.64
	c-0.09-0.03-0.18-0.04-0.28-0.04c-0.47,0-0.85,0.3-0.85,0.68C62.67,63,63.05,63.31,63.52,63.31z"/>
<path d="M70.38,61.95c-0.47,0-0.85,0.3-0.85,0.68c0,0.38,0.38,0.68,0.85,0.68c0.47,0,0.85-0.3,0.85-0.68
	C71.23,62.25,70.85,61.95,70.38,61.95z"/>
<path d="M76.88,63.31c0.47,0,0.85-0.3,0.85-0.68c0-0.38-0.38-0.68-0.85-0.68c-0.47,0-0.85,0.3-0.85,0.68
	C76.02,63,76.41,63.31,76.88,63.31z"/>
</svg>
