<?xml version="1.0" encoding="UTF-8"?>
<svg id="katman_1" data-name="katman 1" xmlns="http://www.w3.org/2000/svg" viewBox="0 0 190.79 190.82">
  <defs>
    <style>
      .cls-1 {
        fill: #fff;
      }
    </style>
  </defs>
  <g id="Ck77o1.tif">
    <g>
      <path class="cls-1" d="m50.13,37.57c-3.2,1.18-5.82,2.16-8.44,3.12C15.74,50.17-2.19,78.28.22,105.71c2.75,31.33,23.43,54.03,54.61,59.8,2.34.43,5.65,2.26,6.51-1.62.16-.73-3.63-3.11-5.8-3.46-27.19-4.33-48.56-28.07-49.75-55.55-1.7-39.42,32.33-69.13,71.23-62.19,35,6.25,57.26,44.28,45.41,77.74-4.87,13.76-13.54,24.51-25.91,32.38-1.55.99-3.54,4.17-3.06,4.98,1.87,3.15,4.3.84,6.22-.52,3.51-2.49,7.05-4.99,10.26-7.84,29.63-26.32,28.11-75.16-3.43-99.04-7.39-5.6-16.12-9.45-24.54-14.28-.11.65-.15.27.01.02,3.88-5.98,7.64-12.04,11.73-17.88,2.02-2.89,1.6-4.88-.65-7.38C83.31.05,83.37,0,68.66,0h-5.98c-14.64,0-14.57.07-24.44,10.82-2.48,2.7-2.68,4.9-.62,7.86,4.15,5.99,8.06,12.14,12.51,18.89Zm75.42,147.61c-32.18.06-59.01-25.62-59.92-57.74-.65-22.97,9.22-40.52,28.57-52.86,2.19-1.4,5.89-2.21,4.22-5.87-.25-.55-5.04.15-7.1,1.36-16.15,9.5-26.12,23.53-30.06,41.87-9.81,45.61,31.36,86.82,77.08,77.57,31.33-6.34,56.38-35.83,51.95-71.15-3.42-27.21-18.46-45.41-44.04-54.96-1.45-.54-3.48.45-5.24.73.98,1.45,1.76,3.11,3,4.29.89.85,2.4,1.05,3.63,1.54,26.89,10.72,42.1,38.66,36.54,67.15-5.4,27.65-30.24,48.02-58.61,48.07Z"/>
      <path d="m50.13,37.57c-4.45-6.75-8.36-12.9-12.51-18.89-2.05-2.96-1.86-5.16.62-7.86C48.11.07,48.04,0,62.68,0h5.98c14.72,0,14.66.05,24.41,10.88,2.25,2.5,2.67,4.49.65,7.38-4.09,5.83-7.85,11.9-11.73,17.88-.16.25-.12.63-.01-.02,8.43,4.84,17.15,8.68,24.54,14.28,31.54,23.88,33.06,72.73,3.43,99.04-3.21,2.85-6.75,5.36-10.26,7.84-1.92,1.36-4.35,3.67-6.22.52-.49-.82,1.5-3.99,3.06-4.98,12.37-7.87,21.04-18.62,25.91-32.38,11.84-33.46-10.41-71.49-45.41-77.74C38.12,35.76,4.09,65.47,5.79,104.89c1.18,27.47,22.56,51.21,49.75,55.55,2.17.35,5.96,2.73,5.8,3.46-.85,3.89-4.17,2.05-6.51,1.62C23.65,159.75,2.96,137.04.22,105.71c-2.41-27.43,15.53-55.55,41.47-65.03,2.62-.96,5.24-1.93,8.44-3.12Zm-7.59-22.04c3.06,4.75,6.56,9.41,9.22,14.52,2.74,5.24,6.15,7.54,12.18,6.04,2.45-.61,5.27.46,7.89.28,1.57-.11,3.7-.74,4.5-1.89,4.36-6.22,8.38-12.67,12.43-18.92-4.08-6.99-9.03-11.5-17.68-9.96-3.53.63-7.37.63-10.9,0-8.66-1.55-13.6,2.98-17.64,9.93Z"/>
      <path d="m125.54,185.18c28.37-.05,53.22-20.43,58.61-48.07,5.56-28.49-9.64-56.44-36.54-67.15-1.23-.49-2.74-.69-3.63-1.54-1.24-1.18-2.02-2.84-3-4.29,1.76-.28,3.79-1.27,5.24-.73,25.58,9.55,40.63,27.75,44.04,54.96,4.43,35.32-20.62,64.81-51.95,71.15-45.72,9.25-86.89-31.96-77.08-77.57,3.95-18.34,13.91-32.38,30.06-41.87,2.05-1.21,6.85-1.91,7.1-1.36,1.67,3.66-2.03,4.47-4.22,5.87-19.35,12.34-29.21,29.9-28.57,52.86.9,32.12,27.74,57.8,59.92,57.74Z"/>
      <path class="cls-1" d="m42.54,15.52c4.05-6.95,8.98-11.48,17.64-9.93,3.53.63,7.37.63,10.9,0,8.65-1.55,13.6,2.97,17.68,9.96-4.06,6.25-8.08,12.7-12.43,18.92-.8,1.15-2.93,1.78-4.5,1.89-2.62.19-5.44-.88-7.89-.28-6.04,1.5-9.44-.8-12.18-6.04-2.66-5.1-6.16-9.77-9.22-14.52Z"/>
    </g>
  </g>
</svg>