<?xml version="1.0" encoding="utf-8"?>
<!-- Generator: Adobe Illustrator 27.2.0, SVG Export Plug-In . SVG Version: 6.00 Build 0)  -->
<svg version="1.1" id="katman_1" xmlns="http://www.w3.org/2000/svg" xmlns:xlink="http://www.w3.org/1999/xlink" x="0px" y="0px"
	 viewBox="0 0 100 100" style="enable-background:new 0 0 100 100;" xml:space="preserve">
<path d="M14.8,54.9c-1-1.9-2-3.8-3-5.7c-0.4-0.9-0.1-1.9,0.8-2.3c2.7-1.4,5.4-2.7,8.1-4c0.9-0.4,1.6-0.2,2.4,0.6c1.8,2,3.6,4,5.4,6
	c0.2,0.2,0.4,0.4,0.7,0.7c2.1-2.7,5.2-2.5,8.1-2.8c3.6-0.4,7.2-0.6,10.9-0.9c-0.8-1.2-1.7-2.5-2.5-3.7c-0.3-0.4-0.7-0.8-0.9-1.3
	c-0.7-1.2-0.1-2.6,1.3-2.9c1.4-0.2,2.9-0.1,3.8,1.2c1.4,1.9,2.8,3.9,4.1,6c0.5,0.8,1,1.2,2,1.1c0.4-0.1,0.8-0.2,1.1-0.4
	c2.3-2.1,3.9-4.8,5.2-7.6c0.6-1.3,0.8-1.4,2.2-0.8c5.6,2.7,11.2,5.3,16.8,7.9c0.4,0.2,1,0.3,1.5,0.2c3.1-0.3,6.2-0.6,9.2-0.9
	c0.4,0,0.8-0.1,1.1,0.1c0.7,0.2,0.7,1.1,0.1,1.6c-8.7,6.8-18.1,11.6-29.5,11.5c-14.4-0.1-28.7,0-43.1,0c-1.3,0-1.3,0-1.5-1.3
	c-0.1-0.5-1.7-1.2-2.3-1c-1.6,0.7-3.2,1.4-4.8,2.1c-0.6,0.3-1.1,0.3-1.4-0.4c-0.3-0.7,0-1.1,0.6-1.3C12.4,56,13.7,55.4,14.8,54.9z
	 M29.8,52.8c0.4,0,0.6,0,0.8,0c8,0,16.1,0,24.1,0c9.5,0,18.8-1.4,27.8-4.3c0.2-0.1,0.4-0.2,0.6-0.2c-0.4-0.1-0.7-0.1-1.1,0
	c-5.8,0.7-11.6,1.2-17.4,1c-3.8-0.1-7.5-0.4-11.3-0.6c-6.5-0.3-13,0.3-19.4,1C32,49.9,30.8,51,29.8,52.8z M22.2,56.3
	c0.1,0.1,0.1,0.2,0.2,0.3c0.2,0,0.4,0,0.6,0c13.6,0,27.1,0,40.7,0c7.9,0,15.2-2.2,21.8-6.6c0.2-0.2,0.5-0.3,0.7-0.5
	c-0.4,0-0.7,0.1-1,0.2c-9.7,3.2-19.6,5-29.8,5c-10.2,0.1-20.4,0-30.6,0c-0.3,0-0.7,0-1,0.2C23.3,55.3,22.8,55.8,22.2,56.3z
	 M13.5,48.5c0.7,1.4,1.3,2.7,2,3.9c0.2,0.4,0.5,0.7,0.9,0.9c1.3,0.8,2.6,1.5,3.9,2.2c0.2-0.2,0.5-0.4,0.6-0.6
	c1.3-1.9,3.1-2.6,5.4-2.2c0.9,0.1,1.3-0.3,1.6-1.1c-2-2.3-4.1-4.5-6.1-6.8c-0.2-0.2-0.6-0.3-0.8-0.2C18.6,46,16.1,47.2,13.5,48.5z
	 M63.9,40c-1.6,2.4-3.2,4.8-4.7,7.1c6.1,0.5,12.3,0.4,18.6-0.5C73.1,44.4,68.5,42.2,63.9,40z M46.4,40.6c1.1,1.7,2.3,3.4,3.4,5.1
	c0.8,1.2,0.8,1.2,2.4,0.9c-1.2-1.8-2.4-3.5-3.6-5.2C48.1,40.7,47.4,40.3,46.4,40.6z"/>
<path d="M41,26.5c-4.5,0-8.9,0-13.4,0c-1.5,0-2.3-0.6-1.6-1.2c0.3-0.3,1.2-0.4,1.8-0.5c3.6,0,7.1,0,10.7,0c5.2,0,10.4,0,15.7,0
	c0.9,0,1.7,0.1,2,0.7c0.3,0.6-0.5,1-1.9,1C49.8,26.5,45.4,26.5,41,26.5z"/>
<path d="M14.8,26.5c-2.2,0-4.3,0-6.5,0c-0.7,0-1.1-0.6-0.8-1.2c0.2-0.3,0.6-0.4,0.9-0.5c1.7,0,3.4,0,5.2,0c2.5,0,5,0,7.6,0
	c0.4,0,0.8,0.1,1,0.7c0.1,0.6-0.2,1-0.9,1C19,26.5,16.9,26.5,14.8,26.5z"/>
<path d="M72.6,26.9c-0.8,0-1.7,0-2.5,0c-0.4,0-0.7-0.4-0.5-0.7c0.1-0.2,0.3-0.3,0.6-0.3c0.5,0,1.1,0,1.6,0c1.1,0,2.2,0,3.2,0
	c0.9,0,1.6-0.6,1.7-1.4c0.1-0.7-0.4-1.4-1.1-1.6c-0.7-0.2-1.5,0-2,0.6c-0.2,0.3-0.3,0.5-0.3,0.9c0,0.3-0.2,0.4-0.5,0.5
	c-0.3,0-0.5-0.1-0.6-0.3c0-0.2,0-0.4,0-0.5c0.2-1.3,1.4-2.2,2.8-2.2c1.4,0,2.6,0.9,2.8,2.2c0.2,1.5-1,2.9-2.7,2.9
	C74.2,26.9,73.4,26.9,72.6,26.9C72.6,26.9,72.6,26.9,72.6,26.9z"/>
<path d="M76.7,28.5c-1.5,0-3,0-4.5,0c-0.3,0-0.6-0.2-0.6-0.5c0-0.3,0.2-0.5,0.5-0.5c0.1,0,0.1,0,0.2,0c2.9,0,5.8,0,8.7,0
	c0.9,0,1.6-0.6,1.7-1.4c0.1-0.9-0.6-1.7-1.5-1.8c-1-0.1-1.8,0.6-1.8,1.6c0,0.3-0.2,0.5-0.5,0.6c-0.3,0-0.6-0.2-0.6-0.4
	c0-0.2,0-0.5,0.1-0.7c0.3-1.3,1.5-2.1,2.9-2.1c1.3,0,2.4,1,2.6,2.3c0.3,1.6-1,3.1-2.7,3.1C79.6,28.5,78.2,28.5,76.7,28.5z"/>
<path d="M73.9,29.5c1.2,0,2.5,0,3.7,0c1.2,0,2.1,0.9,2.4,2.1c0.3,1.5-0.7,3-2.1,3.2c-1.4,0.2-2.7-1-2.7-2.6c0-0.3,0.2-0.6,0.5-0.6
	c0.3,0,0.5,0.2,0.5,0.6c0,0.8,0.6,1.5,1.3,1.5c0.7,0.1,1.4-0.5,1.5-1.3c0.1-0.9-0.5-1.8-1.3-1.8c-0.1,0-0.1,0-0.2,0
	c-2.5,0-5,0-7.4,0c-0.3,0-0.5-0.1-0.5-0.4c-0.1-0.3,0.1-0.6,0.4-0.7c0.1,0,0.1,0,0.2,0C71.3,29.5,72.6,29.5,73.9,29.5z"/>
<path d="M52.4,31.1c-2.8,0-5.5,0-8.3,0c-1,0-1.9-0.1-1.9-0.8c0-0.7,0.9-0.8,1.9-0.8c5.5,0,11.1,0,16.6,0c1,0,1.8,0.1,1.9,0.8
	c0.1,0.6-0.6,0.8-2,0.8C57.9,31.1,55.2,31.1,52.4,31.1z"/>
<path d="M9.8,64.2c-0.8,0-1.6,0-2.4,0c-0.3,0-0.5-0.1-0.5-0.6c0-0.5,0.3-0.6,0.6-0.6c1.6,0,3.3,0,4.9,0c0.3,0,0.5,0.1,0.6,0.6
	c0,0.4-0.2,0.6-0.6,0.6C11.4,64.2,10.6,64.2,9.8,64.2z"/>
<path d="M23.2,64.1c-2,0-4.1,0-6.1,0c-0.7,0-1.4-0.1-1.4-0.6c0-0.5,0.7-0.6,1.4-0.6c4.1,0,8.1,0,12.2,0c0.7,0,1.3,0.1,1.4,0.5
	c0.1,0.4-0.4,0.6-1.4,0.6C27.2,64.1,25.2,64.1,23.2,64.1z"/>
<path d="M79.1,62c-2,0-4.1,0-6.1,0c-0.7,0-1.4-0.1-1.4-0.6c0-0.5,0.7-0.6,1.4-0.6c4.1,0,8.1,0,12.2,0c0.7,0,1.3,0.1,1.4,0.5
	c0.1,0.4-0.4,0.6-1.4,0.6C83.1,62,81.1,62,79.1,62z"/>
<path d="M86.6,58.4c-0.8,0-1.6,0-2.4,0c-0.3,0-0.5-0.1-0.5-0.6c0-0.5,0.3-0.6,0.6-0.6c1.6,0,3.3,0,4.9,0c0.3,0,0.5,0.1,0.6,0.6
	c0,0.4-0.2,0.6-0.6,0.6C88.2,58.4,87.4,58.4,86.6,58.4z"/>
</svg>
