<?xml version="1.0" encoding="utf-8"?>
<!-- Generator: Adobe Illustrator 27.2.0, SVG Export Plug-In . SVG Version: 6.00 Build 0)  -->
<svg version="1.1" id="katman_1" xmlns="http://www.w3.org/2000/svg" xmlns:xlink="http://www.w3.org/1999/xlink" x="0px" y="0px"
	 viewBox="0 0 100 100" style="enable-background:new 0 0 100 100;" xml:space="preserve">
<style type="text/css">
	.st0{fill:#FFFFFF;}
</style>
<g>
	<path d="M5.4,0.9 M41.6,30.3c0.3,0.7,0.9,1.4,1.4,2c0.7-0.6,1.6-1.1,1.9-1.9c3.6-8.5,7.2-17,10.6-25C55,4,54.6,2.9,54.2,1.9
		C55.3,1.6,56.3,1,57.4,1c16.2-0.1,32.3-0.1,48.5,0c1,0,2,0.7,3,1.1c-0.4,0.9-0.7,1.8-1.3,3.3c1.4,3.3,3,7.3,4.8,11.2
		c0.3,0.6,1.5,1.1,2.4,1.1c5.7,0.1,11.3,0.1,17,0c1.7,0,3.4,0.1,4.3,1.9c0.9,1.8,0.1,3.2-1,4.6c-5.7,7.6-11.4,15.2-17,22.8
		c-0.5,0.7-1,1.3-1.7,2.4c6.1-2,11.3-0.9,16.4,2c4.1,2.3,8.3,1.6,12.4-0.4c2.6-1.2,5.4-1.9,8.2-2.6c1.7-0.4,2.6,0.6,2.6,2.4
		c0,14.2,0,28.3,0,42.5c0,1.8-0.7,2.6-2.5,2.6c-0.6,0-1.2,0-1.7,0c-72.2,0-144.3,0-216.5,0c-4.1,0-4.2,0-4.2-4.2
		c0-13.2,0-26.5-0.1-39.7c0-3.4,0.7-4.1,4-3.4c2.3,0.5,4.6,1.3,6.7,2.4c4.7,2.5,9.2,2.5,13.8-0.1c5.8-3.3,11.6-3.3,17.6-0.1
		c2.1,1.1,4.6,1.7,6.9,2.5c0.1-0.2,0.3-0.4,0.4-0.7c-0.3-0.8-0.6-1.6-0.9-2.4c-2.7-6.1-5.4-12.2-8-18.3c-1.7-3.8-0.3-6,3.8-6
		c3.4,0,6.8,0.1,10.2,0c3.4-0.2,6.4,0.1,7.7,4.6 M25.1,19.1 M-65.4,92.4c72.7,0,145.2,0,217.8,0c0-8.6,0-16.9,0-25.8
		c-1.7,0.6-3.3,1-4.6,1.7c-6.3,3.7-12.6,3.6-18.9-0.1c-4.1-2.4-8.5-2.4-12.6,0c-6.4,3.7-12.6,3.7-18.9,0.1c-4.2-2.4-8.7-2.4-12.9,0
		C78.2,72,72,72,65.7,68.4c-4.3-2.5-8.8-2.4-13.1,0c-6.2,3.5-12.3,3.5-18.5,0c-4.4-2.5-8.9-2.4-13.3,0.1c-6.1,3.5-12.1,3.4-18.2,0
		c-4.4-2.5-8.9-2.5-13.3,0c-6.1,3.5-12.1,3.5-18.2,0c-4.4-2.5-8.9-2.6-13.3,0c-6.2,3.5-12.3,3.5-18.5,0c-1.4-0.8-2.9-1.2-4.7-1.8
		C-65.4,75.5-65.4,83.8-65.4,92.4z M-65.4,62.8c2.8,1.2,5.4,2.2,7.9,3.4c4.1,1.9,8.3,2.1,12.2-0.2c6.4-3.7,12.7-3.7,19.2,0
		c4,2.3,8.4,2.3,12.4,0C-7.3,62.4-1,62.3,5.5,66c4.1,2.4,8.5,2.3,12.6,0c6.4-3.6,12.6-3.7,18.9,0c4.1,2.4,8.5,2.4,12.6,0.1
		c6.5-3.7,12.7-3.7,19.2,0c4,2.3,8.4,2.3,12.4,0c6.5-3.8,12.9-3.7,19.4,0.1c3.9,2.3,8.2,2.2,12.2,0c6.6-3.8,13-3.7,19.6,0.1
		c3.8,2.2,8,1.9,12,0c2.5-1.2,5.1-2.2,7.9-3.5c0-3.3,0-6.9,0-10.9c-1.8,0.7-3.5,1.2-5,2.1c-6,3.4-11.9,3.4-17.8,0
		c-4.8-2.7-9.5-2.6-14.2,0.1c-5.7,3.2-11.4,3.3-17.1,0.1c-4.9-2.8-9.8-2.8-14.7,0c-5.6,3.2-11.3,3.3-16.9,0.1c-5-2.8-9.9-2.9-14.9,0
		c-5.5,3.1-11.1,3.2-16.6,0c-5.1-2.9-10-2.9-15.1,0c-5.4,3.1-11,3.1-16.4,0c-5.1-2.9-10-3-15.1-0.1c-5.5,3.1-11.1,3.1-16.6,0
		c-5-2.9-9.9-2.9-14.9,0c-5.6,3.2-11.2,3.1-16.9,0c-1.6-0.9-3.5-1.5-5.4-2.3C-65.4,55.9-65.4,59.5-65.4,62.8z M128.4,27.5
		c-0.7-0.2-0.9-0.3-1.1-0.3c-22,0-44,0-66,0c-0.9,0-2,0.7-2.6,1.5c-2.6,3.5-5.1,7-7.5,10.6c-1.1,1.7-2.5,2.4-4.5,2.3
		c-17.6-0.1-35.2-0.1-52.8,0c-3.6,0-6-0.7-7.4-4.2c-0.3-0.8-1.2-1.9-1.9-1.9c-2.5-0.2-5-0.1-8-0.1c2.6,5.9,5,11.3,7.5,16.9
		c0.9-0.4,1.7-0.6,2.3-1c6.4-3.9,12.7-3.7,19.1,0c4.4,2.5,8.9,2.1,13.3-0.4c5.8-3.3,11.6-3.4,17.3-0.1c4.9,2.8,9.6,2.8,14.5,0
		c5.7-3.2,11.4-3.3,17.1-0.1c5,2.9,9.8,2.6,14.9-0.1c2.6-1.3,5.7-2.3,8.5-2.1c3.3,0.2,6.6,1.6,9.6,2.9c5.3,2.3,8.2,1.8,11.5-2.7
		c0.1-0.2,0.3-0.4,0.5-0.6C118,41.5,123.1,34.6,128.4,27.5z M-25.6,29.5c0,2,0.9,2.6,2.6,2.5c1.8-0.1,3.7,0.2,5.5-0.1
		c3.7-0.5,6,0.8,7.3,4.2c0.5,1.3,1.3,2.1,3,2.1c17.7-0.1,35.5,0,53.2-0.1c0.9,0,2-0.7,2.6-1.4c2.2-2.8,4.4-5.7,6.2-8.8
		c1.9-3.3,4.3-4.3,8.1-4.2c22,0.2,44,0.1,66,0.1c1.7,0,3.1-0.2,3.5-2.3c-0.5-0.1-0.9-0.1-1.3-0.1c-24.3,0-48.6,0-73,0
		c-0.9,0-2,0.7-2.6,1.4c-2.6,3.5-5.1,7-7.5,10.6c-1.2,1.8-2.6,2.5-4.7,2.5c-15.2-0.1-30.3-0.2-45.5,0.1c-4,0.1-6.7-0.8-8.2-4.7
		c-0.3-0.7-1.3-1.6-2.1-1.7C-16.7,29.4-21.1,29.5-25.6,29.5z M-3.1,32.2c13.8,0,27.5,0,41.4,0 M77.1,17.5c1.9,0.8,2.8,0.2,3.4-1.5
		c0.9-2.3,2.1-4.6,2.8-6.9c0.7-2.1,2-2.7,4.1-2.7c5.5,0.1,10.9,0,16.4,0c0.1-0.3,0.2-0.5,0.3-0.8c-0.8-0.4-1.5-1.2-2.3-1.2
		c-13.6-0.1-27.2-0.1-40.7,0c-0.6,0-1.6,0.5-1.9,1.1c-1.9,4.4-3.7,8.8-5.5,13c1.5-0.2,3-0.4,4.5-0.8c0.8-0.2,1.8-0.8,2.1-1.5
		c1.2-2.5,2.3-5.2,3.3-7.8c0.6-1.4,1.4-2.1,3-2c3.8,0.1,7.7,0,11.5,0c2.6,0,3.2,0.9,2.2,3.2C79.3,12.3,78.2,14.9,77.1,17.5z
		 M11.7,1.8 M108.9,17.7c-1-2.5-2-4.8-3.1-7.1c-0.2-0.4-1.1-0.6-1.7-0.6c-5.3,0-10.6-0.1-15.9,0c-0.6,0-1.5,0.4-1.7,0.9
		c-1,2.1-1.9,4.4-2.9,6.8C92.1,17.7,100.3,17.7,108.9,17.7z M76.5,9.9c-3.1,0-5.8,0-8.4,0c-0.5,0-1.3,0.3-1.4,0.7
		c-1.1,2.3-2,4.6-3.1,7.2c3.1,0,5.7,0.1,8.2-0.1c0.7,0,1.6-0.6,1.8-1.1C74.6,14.6,75.4,12.4,76.5,9.9z"/>
	<path class="st0" d="M-65.4,92.4c0-8.6,0-16.9,0-25.8c1.7,0.7,3.3,1,4.7,1.8c6.2,3.5,12.3,3.5,18.5,0c4.4-2.5,8.9-2.5,13.3,0
		c6.1,3.5,12.1,3.4,18.2,0c4.4-2.5,8.9-2.5,13.3,0c6.1,3.5,12.1,3.5,18.2,0c4.4-2.5,8.9-2.6,13.3-0.1c6.2,3.5,12.3,3.5,18.5,0
		c4.3-2.5,8.8-2.5,13.1,0c6.3,3.6,12.4,3.6,18.7,0c4.2-2.4,8.6-2.4,12.9,0c6.4,3.6,12.6,3.6,18.9-0.1c4.1-2.4,8.5-2.3,12.6,0
		c6.4,3.6,12.6,3.8,18.9,0.1c1.3-0.8,2.9-1.1,4.6-1.7c0,8.8,0,17.2,0,25.8C79.8,92.4,7.3,92.4-65.4,92.4z M124.5,79.8
		c3.4-0.7,7.3-1.5,11.1-2.4c0.6-0.1,1.4-1.4,1.2-1.7c-0.3-0.7-1.2-1.5-1.9-1.4c-1.6,0.1-3.3,0.4-4.9,0.9c-3.6,1.2-7.1,1-10.8,0.5
		c-3.4-0.4-6.9,0-10.3,0.1c-2.7,0.1-5.7,1-8.1,0.2c-6-1.9-11.9-0.8-17.8-0.3c-0.7,0.1-1.2,1.1-1.9,1.6c0.6,0.6,1.1,1.6,1.8,1.6
		c1.5,0.2,3.2,0.2,4.7-0.2c3.8-0.9,7.4-0.7,11.1,0.4c3.6,1.1,7.2,0.7,10.8,0.1c3-0.5,6.2-0.2,9.3-0.2
		C120.6,79.1,122.2,79.5,124.5,79.8z M-14.3,82.8c3.5-0.7,7.4-1.5,11.3-2.4c0.6-0.1,1.3-1.3,1.2-1.8C-1.9,78-3,77.2-3.5,77.3
		c-1.7,0.1-3.5,0.4-5.1,0.9c-3.5,1.1-7,0.9-10.6,0.5c-3.4-0.4-6.9,0-10.3,0.1c-3,0.1-6.2,1-8.8,0.1c-5.9-1.8-11.6-0.5-17.3-0.2
		c-0.6,0-1.2,1.1-1.8,1.7c0.6,0.6,1.2,1.5,1.8,1.6c1.6,0.1,3.3-0.2,5-0.2c3.4,0,6.8-0.3,10.1,0.3c4.1,0.7,8,0.8,12.1,0
		c2.7-0.5,5.6-0.3,8.4-0.1C-18.4,82-16.6,82.5-14.3,82.8z M58.9,88.4c3.4-0.7,7.3-1.5,11.1-2.4c0.6-0.1,1.3-1.2,1.3-1.7
		c-0.1-0.6-1.1-1.4-1.7-1.4c-1.8,0.1-3.6,0.5-5.4,1c-3.4,1-6.8,0.9-10.3,0.4c-3.4-0.5-6.9-0.1-10.3,0c-2.7,0.1-5.7,1.1-8.1,0.3
		c-6.1-1.9-12-0.9-18-0.3c-0.7,0.1-1.2,1-1.9,1.6c0.6,0.6,1.2,1.6,1.8,1.6c1.6,0.2,3.4,0.1,5-0.2c3.6-0.8,7.1-0.7,10.6,0.4
		c3.7,1.1,7.3,0.7,11.1,0.1c3.1-0.5,6.4-0.2,9.6-0.1C55.2,87.7,56.7,88,58.9,88.4z"/>
	<path class="st0" d="M-65.4,62.8c0-3.3,0-6.9,0-11c2,0.8,3.8,1.4,5.4,2.3c5.7,3.1,11.3,3.2,16.9,0c5-2.9,9.9-2.9,14.9,0
		c5.5,3.1,11.2,3.1,16.6,0c5.1-2.9,10-2.9,15.1,0.1c5.4,3.1,11,3.1,16.4,0c5.1-2.9,10.1-2.9,15.1,0c5.5,3.1,11.1,3.1,16.6,0
		c5-2.9,9.9-2.9,14.9,0c5.6,3.2,11.3,3.1,16.9-0.1c4.9-2.8,9.8-2.8,14.7,0c5.7,3.2,11.4,3.2,17.1-0.1c4.7-2.7,9.5-2.8,14.2-0.1
		c5.9,3.4,11.8,3.3,17.8,0c1.5-0.8,3.2-1.3,5-2.1c0,4.1,0,7.7,0,10.9c-2.8,1.2-5.4,2.3-7.9,3.5c-4,1.9-8.2,2.2-12,0
		c-6.6-3.8-13-3.9-19.6-0.1c-3.9,2.3-8.2,2.3-12.2,0c-6.5-3.7-12.8-3.8-19.4-0.1c-4,2.3-8.4,2.3-12.4,0c-6.4-3.7-12.7-3.7-19.2,0
		c-4.1,2.4-8.5,2.3-12.6-0.1c-6.4-3.6-12.6-3.6-18.9,0c-4.1,2.4-8.5,2.4-12.6,0C-1,62.3-7.3,62.4-13.7,66c-4,2.3-8.4,2.3-12.4,0
		c-6.4-3.7-12.7-3.7-19.2,0c-4,2.3-8.1,2.1-12.2,0.2C-60,65-62.6,64-65.4,62.8z"/>
	<path class="st0" d="M128.4,27.5c-5.3,7.1-10.4,14-15.5,20.9c-0.1,0.2-0.3,0.4-0.5,0.6c-3.3,4.5-6.3,5-11.5,2.7
		c-3.1-1.4-6.4-2.7-9.6-2.9c-2.8-0.2-6,0.7-8.5,2.1c-5.1,2.7-9.9,2.9-14.9,0.1c-5.7-3.2-11.4-3.2-17.1,0.1c-4.8,2.8-9.6,2.8-14.5,0
		c-5.8-3.3-11.6-3.2-17.3,0.1c-4.4,2.5-8.9,2.9-13.3,0.4c-6.5-3.7-12.8-3.9-19.1,0c-0.6,0.4-1.4,0.6-2.3,1c-2.5-5.5-4.9-11-7.5-16.9
		c2.9,0,5.4-0.1,8,0.1c0.7,0.1,1.6,1.1,1.9,1.9c1.3,3.5,3.8,4.3,7.4,4.2c17.6-0.2,35.2-0.1,52.8,0c2.1,0,3.4-0.6,4.5-2.3
		c2.4-3.6,4.9-7.1,7.5-10.6c0.6-0.7,1.7-1.5,2.6-1.5c22-0.1,44-0.1,66,0C127.5,27.2,127.7,27.3,128.4,27.5z M74.5,33.7
		c0.1-3.1-2.4-5.6-5.5-5.7c-3-0.1-5.6,2.5-5.6,5.5c0,3,2.3,5.4,5.3,5.5C71.9,39.1,74.5,36.8,74.5,33.7z M112.8,39.1
		c3.1,0,5.6-2.4,5.6-5.5c0-3-2.6-5.6-5.6-5.5c-2.9,0-5.4,2.4-5.4,5.4C107.4,36.6,109.7,39.1,112.8,39.1z M98.2,39.1
		c3.1,0,5.7-2.4,5.7-5.4c0-3-2.6-5.6-5.6-5.6c-2.9,0-5.4,2.5-5.5,5.4C92.7,36.6,95.1,39,98.2,39.1z M89.2,33.7
		c0.1-3-2.4-5.6-5.5-5.7c-3,0-5.6,2.6-5.6,5.6c0,2.9,2.4,5.4,5.4,5.5C86.6,39.1,89.1,36.8,89.2,33.7z"/>
	<path class="st0" d="M-25.6,29.5c4.4,0,8.9-0.1,13.3,0.1c0.7,0,1.8,0.9,2.1,1.7c1.5,3.9,4.2,4.7,8.2,4.7
		c15.2-0.3,30.3-0.1,45.5-0.1c2.1,0,3.5-0.6,4.7-2.5c2.3-3.6,4.9-7.2,7.5-10.6c0.5-0.7,1.7-1.4,2.6-1.4c24.3-0.1,48.6,0,73,0
		c0.4,0,0.8,0.1,1.3,0.1c-0.4,2.1-1.8,2.3-3.5,2.3c-22,0-44,0.1-66-0.1c-3.8,0-6.2,0.9-8.1,4.2c-1.8,3.1-4,5.9-6.2,8.8
		c-0.6,0.7-1.7,1.4-2.6,1.4c-17.7,0.1-35.5,0-53.2,0.1c-1.7,0-2.5-0.8-3-2.1c-1.3-3.5-3.7-4.8-7.3-4.2c-1.8,0.3-3.7-0.1-5.5,0.1
		C-24.7,32.1-25.6,31.5-25.6,29.5z"/>
	<path class="st0" d="M-3.1,32.2c0.1-4.3,4.5-9.4,13.9-9.5"/>
	<path class="st0" d="M77.1,17.5c1.1-2.6,2.2-5.2,3.3-7.8c0.9-2.4,0.3-3.2-2.2-3.2c-3.8,0-7.7,0.1-11.5,0c-1.6,0-2.4,0.6-3,2
		c-1,2.6-2.1,5.3-3.3,7.8C60,17,59,17.6,58.2,17.8c-1.4,0.4-3,0.5-4.5,0.8c1.8-4.2,3.5-8.7,5.5-13c0.2-0.5,1.2-1.1,1.9-1.1
		c13.6-0.1,27.2-0.1,40.7,0c0.8,0,1.6,0.8,2.3,1.2c-0.1,0.3-0.2,0.5-0.3,0.8c-5.5,0-10.9,0.1-16.4,0c-2.1-0.1-3.4,0.5-4.1,2.7
		c-0.8,2.4-2,4.6-2.8,6.9C79.9,17.7,79,18.3,77.1,17.5z"/>
	<path class="st0" d="M108.9,17.7c-8.6,0-16.8,0-25.3,0c1-2.5,1.9-4.7,2.9-6.8c0.2-0.5,1.1-0.9,1.7-0.9c5.3-0.1,10.6-0.1,15.9,0
		c0.6,0,1.5,0.2,1.7,0.6C107,12.9,107.9,15.2,108.9,17.7z"/>
	<path class="st0" d="M76.5,9.9c-1,2.5-1.8,4.7-2.9,6.7c-0.3,0.6-1.2,1.1-1.8,1.1c-2.6,0.1-5.1,0.1-8.2,0.1c1.1-2.6,2-5,3.1-7.2
		c0.2-0.4,0.9-0.6,1.4-0.7C70.7,9.9,73.3,9.9,76.5,9.9z"/>
	<path d="M124.5,79.8c-2.2-0.3-3.9-0.7-5.5-0.8c-3.1-0.1-6.3-0.3-9.3,0.2c-3.7,0.6-7.2,1-10.8-0.1c-3.7-1.1-7.3-1.3-11.1-0.4
		c-1.5,0.4-3.2,0.4-4.7,0.2c-0.7-0.1-1.2-1.1-1.8-1.6c0.6-0.6,1.2-1.6,1.9-1.6c5.9-0.5,11.8-1.6,17.8,0.3c2.4,0.8,5.4-0.1,8.1-0.2
		c3.4-0.1,7-0.6,10.3-0.1c3.7,0.5,7.2,0.7,10.8-0.5c1.6-0.5,3.2-0.9,4.9-0.9c0.6,0,1.6,0.8,1.9,1.4c0.2,0.4-0.7,1.6-1.2,1.7
		C131.8,78.4,127.9,79.1,124.5,79.8z"/>
	<path d="M-14.3,82.8c-2.3-0.4-4.1-0.8-5.9-0.9c-2.8-0.1-5.7-0.4-8.4,0.1c-4.1,0.8-8,0.8-12.1,0c-3.3-0.6-6.7-0.3-10.1-0.3
		c-1.7,0-3.3,0.4-5,0.2c-0.7-0.1-1.2-1-1.8-1.6c0.6-0.6,1.2-1.6,1.8-1.7c5.8-0.4,11.4-1.6,17.3,0.2c2.7,0.8,5.9-0.1,8.8-0.1
		c3.5-0.1,7-0.5,10.3-0.1c3.6,0.5,7.1,0.7,10.6-0.5c1.6-0.5,3.4-0.8,5.1-0.9c0.6,0,1.6,0.8,1.7,1.4c0.1,0.5-0.6,1.7-1.2,1.8
		C-6.9,81.3-10.8,82.1-14.3,82.8z"/>
	<path d="M58.9,88.4c-2.2-0.3-3.7-0.7-5.3-0.7c-3.2-0.1-6.5-0.4-9.6,0.1c-3.8,0.6-7.4,1-11.1-0.1c-3.5-1-7-1.2-10.6-0.4
		c-1.6,0.4-3.3,0.4-5,0.2c-0.7-0.1-1.2-1.1-1.8-1.6c0.6-0.6,1.2-1.5,1.9-1.6c6-0.6,12-1.5,18,0.3c2.4,0.8,5.4-0.2,8.1-0.3
		c3.4-0.1,6.9-0.5,10.3,0c3.5,0.5,6.9,0.6,10.3-0.4c1.7-0.5,3.6-0.8,5.4-1c0.6,0,1.6,0.8,1.7,1.4c0.1,0.5-0.7,1.6-1.3,1.7
		C66.1,86.9,62.2,87.7,58.9,88.4z"/>
	<path d="M74.5,33.7c-0.1,3.1-2.6,5.4-5.7,5.3c-3-0.1-5.3-2.5-5.3-5.5c0-3.1,2.6-5.6,5.6-5.5C72.1,28.1,74.6,30.6,74.5,33.7z
		 M68.9,36.5c1-1.4,2.1-2.2,2-2.9c-0.1-0.8-1.2-1.4-1.8-2.1c-0.7,0.7-1.8,1.2-2,2C67,34.2,68,35.1,68.9,36.5z"/>
	<path d="M112.8,39.1c-3.1,0-5.5-2.4-5.4-5.6c0.1-3,2.5-5.4,5.4-5.4c3,0,5.6,2.5,5.6,5.5C118.5,36.6,116,39.1,112.8,39.1z
		 M112.8,30.6c-0.9,1.4-1.9,2.3-1.8,3c0.1,0.7,1.3,1.8,1.9,1.8c0.7,0,1.8-1.2,1.9-1.9C114.9,32.8,113.8,32,112.8,30.6z"/>
	<path d="M98.2,39.1c-3.1,0-5.5-2.5-5.4-5.6c0.1-2.9,2.6-5.4,5.5-5.4c3,0,5.6,2.6,5.6,5.6C103.8,36.7,101.3,39.1,98.2,39.1z
		 M101.2,33.5c-1.4-0.9-2.2-2-3-1.9c-0.7,0.1-1.4,1.2-2.1,1.9c0.7,0.7,1.3,1.8,2.1,1.8C99,35.5,99.9,34.5,101.2,33.5z"/>
	<path d="M89.2,33.7c-0.1,3.1-2.6,5.4-5.7,5.4c-3-0.1-5.4-2.5-5.4-5.5c0-3,2.6-5.6,5.6-5.6C86.7,28.1,89.2,30.7,89.2,33.7z
		 M86.6,33.6c-1.4-1-2.2-2-2.9-1.9c-0.8,0.1-1.4,1.2-2.1,1.9c0.7,0.7,1.3,1.8,2.1,1.9C84.3,35.5,85.2,34.5,86.6,33.6z"/>
	<path class="st0" d="M68.9,36.5c-0.9-1.4-1.9-2.3-1.8-3c0.1-0.7,1.3-1.3,2-2c0.7,0.7,1.8,1.4,1.8,2.1C71,34.3,69.9,35.1,68.9,36.5z
		"/>
	<path class="st0" d="M112.8,30.6c1,1.3,2.1,2.1,2,2.9c0,0.7-1.2,1.9-1.9,1.9c-0.7,0-1.8-1.1-1.9-1.8
		C110.9,32.9,111.9,32,112.8,30.6z"/>
	<path class="st0" d="M101.2,33.5c-1.4,0.9-2.2,1.9-2.9,1.9c-0.7-0.1-1.4-1.2-2.1-1.8c0.7-0.7,1.3-1.9,2.1-1.9
		C99,31.6,99.8,32.6,101.2,33.5z"/>
	<path class="st0" d="M86.6,33.6c-1.4,0.9-2.2,1.9-2.9,1.8c-0.8-0.1-1.4-1.2-2.1-1.9c0.7-0.7,1.3-1.8,2.1-1.9
		C84.4,31.6,85.2,32.6,86.6,33.6z"/>
</g>
<path d="M24.9,31.2c0-0.2,0-0.4,0.1-0.6c0.1-2.3,0.2-4.7,0.4-7c0.1-1.3,1.2-1.9,2.3-1.2c0.5,0.3,1.1,0.7,1.6,1
	c0.3,0.2,0.6,0.3,1,0.3c1.7,0,3.3,0,5,0c1,0,1.7-0.7,1.7-1.6c0-0.9-0.7-1.6-1.7-1.6c-1.1,0-2.2,0.1-3.2,0c-0.7-0.1-1.4-0.2-2-0.5
	c-1.1-0.5-2.2-1-3.2-1.7c-1.8-1.2-3.8-1.5-5.9-1.4c-1.2,0.1-2,0.7-2.1,2c-0.3,3.1-0.5,6.2-0.8,9.3c-0.1,1-0.2,2-0.2,3
	C20.1,31.2,22.5,31.2,24.9,31.2z M27.8,10.7c0-2-1.7-3.7-3.7-3.7c-2,0-3.8,1.7-3.8,3.7c0,2,1.7,3.7,3.7,3.7
	C26.1,14.5,27.8,12.8,27.8,10.7z"/>
<path d="M67.3,63.6c0.3-2.7,0.5-5,0.8-7.7c-2.5,1-4.6,1.9-6.6,2.7c0,0.2,0,0.4,0,0.6C63.2,60.6,65,61.9,67.3,63.6z"/>
<path d="M60.5,60.2c-3.6,4.6-5.5,9.6-5.8,15.2c4.9-2.5,8.8-6.2,11.6-11.4C64.4,62.7,62.5,61.5,60.5,60.2z"/>
<path d="M54.7,75.4c-2.1,1.6-3.8,2.7-5.5,4c1.4,1,2.6,1.8,4,2.7C53.7,80,54.1,78,54.7,75.4z"/>
</svg>
