<?xml version="1.0" encoding="UTF-8"?>
<svg id="katman_1" data-name="katman 1" xmlns="http://www.w3.org/2000/svg" viewBox="0 0 129 111.5">
  <defs>
    <style>
      .cls-1 {
        fill: #f9fafb;
      }

      .cls-2 {
        fill: #668094;
      }

      .cls-3 {
        fill: #698395;
      }

      .cls-4 {
        fill: #fff;
      }

      .cls-5 {
        fill: #fefefe;
      }

      .cls-6 {
        fill: #e5e9ed;
      }

      .cls-7 {
        fill: #7e93a4;
      }

      .cls-8 {
        fill: #7e94a5;
      }

      .cls-9 {
        fill: #7e94a3;
      }

      .cls-10 {
        fill: #8095a5;
      }

      .cls-11 {
        fill: #678194;
      }

      .cls-12 {
        fill: #6b8397;
      }

      .cls-13 {
        fill: #6a8496;
      }

      .cls-14 {
        fill: #6a8396;
      }

      .cls-15 {
        fill: #7f94a5;
      }

      .cls-16 {
        fill: #7c91a1;
      }

      .cls-17 {
        fill: #8b9fad;
      }

      .cls-18 {
        fill: #8499a8;
      }

      .cls-19 {
        fill: #a0b0bd;
      }

      .cls-20 {
        fill: #a0b0bc;
      }

      .cls-21 {
        fill: #8498a8;
      }

      .cls-22 {
        fill: #859ba9;
      }

      .cls-23 {
        fill: #8a9fad;
      }

      .cls-24 {
        fill: #8a9dab;
      }

      .cls-25 {
        fill: #8a9dad;
      }

      .cls-26 {
        fill: #8b9ead;
      }

      .cls-27 {
        fill: #8fa2b1;
      }

      .cls-28 {
        fill: #90a4b1;
      }

      .cls-29 {
        fill: #90a3b1;
      }

      .cls-30 {
        fill: #8d9fae;
      }

      .cls-31 {
        fill: #8da0ae;
      }

      .cls-32 {
        fill: #aab8c3;
      }

      .cls-33 {
        fill: #093351;
      }

      .cls-34 {
        fill: #0c3653;
      }

      .cls-35 {
        fill: #95a7b5;
      }

      .cls-36 {
        fill: #718a9b;
      }

      .cls-37 {
        fill: #899cab;
      }

      .cls-38 {
        fill: #899dac;
      }

      .cls-39 {
        fill: #899dad;
      }

      .cls-40 {
        fill: #899eac;
      }

      .cls-41 {
        fill: #879bab;
      }

      .cls-42 {
        fill: #879dab;
      }

      .cls-43 {
        fill: #879cab;
      }

      .cls-44 {
        fill: #869caa;
      }

      .cls-45 {
        fill: #889dab;
      }

      .cls-46 {
        fill: #577489;
      }

      .cls-47 {
        fill: #57748a;
      }

      .cls-48 {
        fill: #577388;
      }

      .cls-49 {
        fill: #70889a;
      }

      .cls-50 {
        fill: #627d91;
      }

      .cls-51 {
        fill: #7990a1;
      }

      .cls-52 {
        fill: #798fa1;
      }

      .cls-53 {
        fill: #788e9f;
      }

      .cls-54 {
        fill: #788ea0;
      }

      .cls-55 {
        fill: #768c9f;
      }

      .cls-56 {
        fill: #768d9f;
      }

      .cls-57 {
        fill: #8398a8;
      }

      .cls-58 {
        fill: #8398a7;
      }

      .cls-59 {
        fill: #8399a7;
      }

      .cls-60 {
        fill: #8399a9;
      }

      .cls-61 {
        fill: #8297a6;
      }

      .cls-62 {
        fill: #8298a7;
      }

      .cls-63 {
        fill: #778e9f;
      }

      .cls-64 {
        fill: #7b92a1;
      }

      .cls-65 {
        fill: #7b91a1;
      }

      .cls-66 {
        fill: #4e6c82;
      }

      .cls-67 {
        fill: #7a90a1;
      }

      .cls-68 {
        fill: #7a91a1;
      }
    </style>
  </defs>
  <path class="cls-4" d="m64.5.04C85.46.04,106.42.05,127.38,0c1.34,0,1.62.26,1.62,1.61-.05,36.09-.05,72.18,0,108.27,0,1.34-.26,1.62-1.61,1.62-41.92-.05-83.85-.05-125.77,0-1.34,0-1.62-.26-1.62-1.61C.05,73.8.05,37.71,0,1.62,0,.28.26,0,1.61,0c20.96.05,41.92.04,62.88.04Z"/>
  <path class="cls-33" d="m101.43,64.54c-.11-.09-.13-.19-.04-.3-.11-3.38-1.17-6.21-4.39-7.84l-.03-.03c-1.48-3.02-3.58-5.47-6.66-6.95-2.02-.97-4.44-5.62-3.98-7.76.17-.82.75-.99,1.34-.64,3.51,2.1,8.01,2.55,10.7,5.91,2.17,2.72,5.52,4.4,6.8,7.89.31.85,1.01,1.48,1.77,2.01l-.03-.03c.09.18.2.36.33.52.13.08.17.19.12.33.05.22.21.38.31.57.05.15.09.3.14.45.04,3.11.39,6.14,2.19,8.81.12.17.18.37.18.58-1.23,1.32-.96,2.54.25,3.7v.9c-1.23,1.08-1.54,2.24-.31,3.54.08.2.07.39-.02.58-1.31,1.89-2.04,3.92-1.43,6.25-.03.15-.07.3-.1.45-2.35,2.56-3.23,6.03-5.36,8.73-.24.31.03.72.14,1.08.09.21.06.4-.08.57l-.12-.03c-.06.18-.18.31-.36.38l-.06.08c-.08.18-.21.31-.38.4l-.05.05c-.1.17-.23.31-.4.41l-.04.04c-.1.17-.24.31-.41.41l-.04.04c-.1.17-.24.3-.41.4l-.05.04c-3.81,2.24-7.63,4.45-11.53,6.54-1.66.89-3.66.74-5.07,2.08l.05.07c-.41.15-.83.13-1.26.1-1.5-1.03-3.01-1.47-4.57-.09-.5.12-.99.38-1.53.25-.2-.06-.38-.15-.55-.27-.56-.78-1.24-.8-2-.31-.2.06-.4.08-.61.06-.2-.05-.38-.14-.54-.28-1.67-2.66-2.43-3.02-5.06-2.4-.22,0-.42-.03-.62-.12-.2-.09-.38-.21-.53-.37-.13-.17-.24-.35-.32-.55-.25-.93-.83-1.57-1.69-1.98-.61-.29-1.32-.57-1.61-1.18-.81-1.7-2.3-1.97-3.92-2.05-.89-.21-.88-1.17-1.41-1.67l-.04-.05c-.14-.26-.11-.61-.38-.81-1.63-.48-3.3.1-4.94-.18-.89-.48-1.73.14-2.59.16-.44.01-.87-.05-1.29-.15-.5-.14-1-.28-1.52-.33-.31-.03-.61-.09-.91-.18-.4-.11-.81-.2-1.23-.26-4.46-.92-7.85-3.68-11.18-6.54-.67-.57-.77-1.39-1.13-2.1h0c-3.98-2.59-5.52-6.78-7.18-10.9-.09-.4-.18-.8-.31-1.19-.07-.19-.13-.38-.19-.58-.12-.39-.26-.78-.38-1.17-.23-.94-.51-1.86-.6-2.83-.03-.57-.18-1.12-.33-1.67-.13-.61-.19-1.22-.14-1.84.51-1.89.56-3.79.09-5.7-.19-.85-.12-1.7.02-2.55.08-.44.24-.85.34-1.29.06-.3.14-.6.24-.9.12-.37.24-.75.3-1.14.05-.3.11-.59.19-.87.15-.49.21-1,.29-1.51.84-3.35,2.56-6.31,4.29-9.24.68-1.16,1.6-2.13,2.87-2.71l.04-.05c.18-.08.31-.21.38-.39l.07-.07c.18-.08.32-.2.41-.38l.04-.03c.26-1.34,1.13-2.28,2.23-2.93,2.24-1.33,4.04-3.34,6.58-4.19,1.21-.41.98-1.21.74-2.16-.66-2.62-2.53-4.77-2.85-7.51-.06-.69-.05-1.39-.04-2.08.45-2.65,1.87-4.89,3.11-7.19.46-.85,1.25-1.55,2.43-1.03,5.41,0,10.82,0,16.23,0,1.74-.7,2.38.54,3.05,1.73.12.36.17.75.27,1.11.06.16.11.32.16.48.09.22.18.44.28.65.07.13.13.27.19.41.09.2.19.39.29.59.07.13.13.26.19.4.1.2.21.39.31.59.08.13.14.27.21.41.11.21.22.43.31.66.06.16.1.32.13.49.06.43.19.83.33,1.24.09.35.1.7.02,1.06-.06.25-.16.5-.24.75-.07.24-.15.48-.24.72-.09.23-.18.45-.26.68-.06.23-.13.46-.22.68-.09.22-.2.43-.3.65-.06.15-.14.29-.21.44-.11.22-.23.45-.34.68-.08.16-.18.31-.3.45-.13.14-.27.26-.43.37-.17.11-.34.2-.52.29-2.32,2.13-1.89,3.63.43,5.65,1.99,1.73,4.52,2.59,6.32,4.5.68.72,1.63.67,2.45.97.17.1.33.23.46.38.27.64.79,1.06,1.35,1.44.12.17.21.36.28.56.17,1.28.42,2.56,1.32,3.53,2.45,2.63,3.34,5.95,4.19,9.28.36,1.39.77,2.74,1.89,3.74.32.53,0,1.07.04,1.6-.59,1.19-1.15,2.37.2,3.45l-.02,1.35c-1.11.89-1.48,1.87-.34,3.01.1.19.13.38.08.59-.92.92-1.21,1.95-.59,3.16l-.08.47c-.08.19-.17.38-.27.56-.13.16-.28.31-.45.44-.95,1.27-1.7,2.67-2.15,4.19-.88,2.96-2.71,5.48-3.81,8.33h0c-.89.51-1.82.89-2.56,1.7-1.34,1.47-3.76,1.06-4.54-.83-.7-1.7-1.26-3.53-.09-5.32l.04-.04c.1-.17.23-.31.4-.4l.05-.05c.1-.17.23-.31.4-.41l.04-.05c.1-.17.23-.31.41-.41l.03-.03c1.95-.11,1.86-2.07,2.83-3.05,1.61-1.63,2.16-3.69,2.8-5.75.33-1.06.26-2.05-.41-2.97-.09-.32-.08-.63.07-.93l.08.05c1.65-1.42,1.11-3.43,1.02-5.08-.14-2.73-.72-5.47-1.77-8.05-.33-.81-.78-1.78-1.91-.73l.05-.05c-.26-.05-.37.2-.56.3l-.14.12h-.19c-.37.11-.31.56-.58.76l-.16.13h-.21c-.26.16-.37.48-.66.6-.2.05-.41.05-.61.04-2.92.03-3.24.34-3.95,3.73-.12.18-.28.33-.47.43-2.31.24-3.23,2.11-3.91,3.83-.78,1.96-1.72,3.9-1.77,6.17-.03,1.45-1.13,2.86-.2,4.39.11,1.77-.23,3.56.2,5.32.27.23.42.54.5.88.11.53.16,1.08.31,1.6.17.52-.14,1.05.06,1.56.06.24.11.49.17.73,1.42,1.75,2.41,3.72,2.96,5.91.09.14.18.29.27.43.02.22.07.43.14.63,1.26,4.29,4.76,6.37,8.42,8.05,1.71.78,3.73,1.88,5.8.6.44-.04.89-.09,1.31.1,1.47-.01,2.94-.03,4.41-.04.65.35,1.22.8,2.08.42,3.31-1.47,6.73-2.65,9.69-4.9,2.76-2.1,4.18-4.73,4.47-8.1.05-.14.09-.27.14-.41.1-.17.2-.33.3-.5l-.02.03c2.32-1.8,2.94-4.05,1.72-6.29-.09-.32-.09-.63.09-.92l.09.04c1.72-2.46,1.7-3.41-.1-5.8-.17-.28-.16-.59-.11-.9.94-1.6-.1-2.84-.76-4.15Z"/>
  <path class="cls-4" d="m64.49,11.78c-.28-1.5-1.27-2.17-2.7-2.35.11-1.08.83-1.36,1.75-1.26,1.18.12,2.3.6,2.65,1.77.65,2.18,1.85,4.1,2.68,6.18,1.1,2.75.59,5.31-1.43,7.45-1.2,1.26-.37,2.9-1.04,4.23-.05.1.21.5.32.5,2.23.02,3.28,1.99,4.77,3.09,2.38,1.77,5.11,3.3,6.29,6.39.56,1.47,2.31,2.08,2.89,3.8,1.12,3.3,3.46,6.19,3.19,9.94-.05.73.4,1.25.64,1.86.44,1.1.62,2.26-1.04,2.59-.46-.29-.11-1-.65-1.25-.18-.24-.27-.52-.33-.82-.08-.38-.17-.75-.29-1.12-.09-.28-.15-.56-.21-.85-.09-.39-.2-.77-.32-1.15-.28-1.42-1.02-2.69-1.36-4.08-.12-.49-.22-.99-.49-1.42-1.47-2.47-3.18-4.79-4.53-7.33h0c-.56-.34-1-.8-1.35-1.34l-.02-.02c-2.61-2.16-5.38-4.09-8.27-5.86-.84-.52-2.05-.63-2.33-1.86-.02-.31.05-.6.14-.89.07-.27.16-.54.26-.8.12-.33.24-.66.3-1.01.04-.26.1-.51.18-.76.09-.25.23-.47.4-.66.12-.13.26-.22.42-.29l-.02.04c.09-.18.19-.36.3-.53.13-.1.17-.23.12-.38.11-.17.22-.34.31-.52.04-.14.09-.28.13-.42.13-.14.23-.3.3-.48.05-.31.09-.61.14-.92.15-.11.24-.25.28-.43.08-.24.16-.48.24-.71,0-.26.18-.44.29-.65.02-.45.03-.89.05-1.34-.32-.42-.03-1-.37-1.41-.07-.14-.14-.28-.21-.43-.04-.18-.14-.32-.29-.42-.05-.16-.11-.32-.16-.49-.04-.18-.14-.31-.29-.42-.05-.16-.11-.32-.16-.49-.04-.18-.14-.31-.29-.42-.05-.16-.11-.32-.16-.49-.04-.18-.14-.32-.29-.42-.05-.16-.11-.33-.16-.49-.05-.3-.03-.63-.29-.86Z"/>
  <path class="cls-33" d="m106.94,56.83c-.8,0-1.6-.23-1.88-.98-1.49-4.04-5.17-6.2-7.9-9.15-1.32-1.43-2.98-2.81-5.23-3.03-.93-.09-1.79-.75-2.71-1.02-.88-.27-1.63-1.73-2.16-1.26-.81.71.22,1.87.45,2.81.5,2.09.9,3.9,3.55,5,2.87,1.19,5.58,3.44,5.92,7.17-.31-.28-.62-.57-.92-.85-.26-.24-.17-.67-.47-.89-1.61-1.47-3.37-2.74-5.35-3.68-.32-.16-.2-.64-.56-.77-2.06-.35-2.65-1.94-3.11-3.66-.36-.4-.03-.99-.39-1.39-.63-1.35-1.24-2.71-1.88-4.05-.51-1.07-.51-1.7.96-1.37,1.02.22,2.06.37,3.08.55.3.18.69.12.98.33.13.03.26.06.39.09.34.26.62.57.97.82,7.77,2.61,12.92,8.01,16.26,15.33Z"/>
  <path class="cls-4" d="m45.57,9.44c-.83.17-1.7.45-2.01,1.26-.89,2.35-2.37,4.44-2.98,6.91-.31.77-.31,1.54,0,2.31,1.03,2.55,1.96,5.14,3.12,7.62.6,1.28.32,1.75-.92,2.26-3.64,1.51-6.71,3.87-9.4,6.73-.86-.93-1.21-2.04-.21-2.96,1.72-1.58,3.48-3.25,5.76-3.95,1.66-.51,2.43-1.39,2.02-3.05-.38-1.56-.71-3.07-1.78-4.49-1.48-1.96-1.31-4.52-.3-6.62.93-1.94,1.9-3.87,2.68-5.88.37-.93,1.01-1.43,2.04-1.43.95,0,1.84.04,1.98,1.28Z"/>
  <path class="cls-4" d="m25.7,70.89c.02.13.05.26.07.39.22.28.14.68.38.95,1.47,4.23,3.69,8.01,6.78,11.26-3.11.73-4.88-1.31-5.66-3.61-1.11-3.26-3.21-6.08-3.99-9.45-.4-1.74-.81-3.49-1.1-5.25-.22-1.36,0-2.59,1.68-2.91.54.34.12.99.44,1.4.04.58.08,1.15.12,1.73.3.44.06.99.31,1.44.2,1.03.39,2.05.59,3.08.22.28.14.68.37.96Z"/>
  <path class="cls-4" d="m25.34,51.04c-.04.28-.09.55-.13.83-.18.31-.13.69-.33.98-.03.28-.05.56-.08.83-.23.28-.18.65-.31.97-.06.88-.12,1.76-.17,2.64-.23.27-.05.73-.43.94-1.58.08-2.21-.99-1.65-2.13,1.35-2.75.94-5.85,2.03-8.63,1.26-3.22,2.77-6.3,4.62-9.2.75-1.18,2.1-1.66,3.54-.82-3.11,3.58-5.27,7.69-6.73,12.18-.35.41-.06.99-.36,1.41Z"/>
  <path class="cls-4" d="m73.52,104.15c.12.09.26.14.41.15.54.36,1.03-.19,1.55-.09.46,0,.86.17,1.19.49l-.05.05c.34.52,1.07-.11,1.4.47-.47,1.89-1.74,2.07-3.27,1.43-1.39-.58-2.8-.97-4.3-1.06-1.02-.06-2.28-.48-2.4-1.34-.3-2.13-1.73-1.53-3.03-1.91-1.9-.55-3.98-1.32-4.6-3.69-.07-.28-.2-.72-.38-.76-2.32-.53-1.8-2.38-1.87-3.95.49.42.98.84,1.48,1.26,2.78,1.65,4.86,4.17,7.54,5.94l-.03-.02c.16.11.33.22.5.32.09.14.21.18.37.14.61.19,1.3.12,1.82.58.28.21.5.49.77.7.14.09.29.18.44.25.32.13.66.2,1,.26.58.09,1.04.4,1.47.77Z"/>
  <path class="cls-4" d="m46.5,92.02c.27.03.55.07.82.1.43.31,1,.03,1.43.35.42.03.85.07,1.27.1.41.36,1.07-.07,1.41.46-.72,1.69-1.68,2.1-3.52,1.29-1.49-.65-3.27-.93-4.77-1.5-2.39-.9-4.91-1.72-7.03-3.27-.54-.39-.92-1.03-1.49-1.35-1.98-1.09-2.46-2.65-1.67-4.7,3.5,3.79,7.42,6.94,12.58,8.17.3.19.68.13.98.34Z"/>
  <path class="cls-33" d="m100.09,83.43c.78,2.23-1,6.51-3.37,8.06-2.08,1.36-4.03,3.1-6.32,3.89-1.76.61-3.49,1.2-5.2,1.96-.86.39-1.26-.51-1.35-1.33.6-.13,1.2-.27,1.79-.4.3-.18.69-.13.98-.33,6.32-1.87,10.53-6.12,13.46-11.85Z"/>
  <path class="cls-33" d="m84.35,104.72c0-.61,0-1.13.8-1.37,4.74-1.46,9.28-3.31,12.98-6.78.81-.76,1.87-.33,2.81-.47-2.28,3.09-5.47,4.93-8.92,6.38-.34.26-.63.57-.96.83-.13.02-.26.04-.39.07-.28.23-.68.14-.95.38l-2.2.52c-.42.33-.99.04-1.42.36-.58.03-1.17.06-1.75.08Z"/>
  <path class="cls-33" d="m78.02,96.19c-.62,1.56-1.98.88-2.9.74-4.39-.66-7.46-3.65-10.58-6.46-1.03-.93-1.07-2.25-.86-3.56.12.06.26.08.39.08l.08.08c.05.19.18.31.36.37,1.34,2.69,3.75,4.18,6.24,5.58.33.16.21.64.55.79,1.27.64,2.58,1.18,3.98,1.45.28.23.67.16.97.35.28.04.56.07.84.11.26.25.75.04.92.46Z"/>
  <path class="cls-33" d="m72.68,49.79c.15-.68.55-1.1,1.26-.94.71.16,1.13.68,1.33,1.37,1.07,3.75,1.8,7.56,1.82,11.48,0,1.15-.65,1.76-1.75,1.94-.04-2.24-.08-4.48-.11-6.72-.24-.45.03-1.01-.32-1.43-.17-.88-.35-1.77-.52-2.65-.22-.28-.14-.68-.39-.95-.69-.54.06-1.98-1.31-2.11Z"/>
  <path class="cls-33" d="m59.12,70.03c-1.24-.92-1.93-1.88-.4-3.18.24-.2.35-.68.34-1.02-.1-3.65,1.77-6.56,3.49-9.54.71-1.23,1.86-.59,2.82-.78.3,1.41-1.03,1.61-1.7,2.3l-.04.06c-.98,2.91-2.65,5.57-3.19,8.64-.12.4-.37.73-.57,1.09-.08.18-.16.37-.24.55-.06.58-.12,1.16-.17,1.74-.04.23-.16.26-.34.14Z"/>
  <path class="cls-33" d="m68.58,77.69c-.02,1.4.16,2.78.29,4.17.16,1.72,1.42,1.93,2.44,2.42,1.1.53,1.22-.67,1.64-1.29.7-1.06,1.8-.83,2.82-.85-1.08,1.38-2.04,2.85-3.49,3.93-.77.58-1.19.49-1.87-.08-1.68-1.42-2.83-3.26-3.74-5.16-.75-1.57.91-2.29,1.91-3.13Z"/>
  <path class="cls-33" d="m75.77,82.14c0-1.33.09-2.44,1.16-3.62,1.07-1.18,1.28-3.11,2.03-4.63.84-1.73.89-4,3.13-4.83.25.3.21.63.1.97-.84,3-2.09,5.83-3.75,8.47-.23.28-.15.68-.38.95-.78.88-1.24,2.03-2.28,2.69Z"/>
  <path class="cls-33" d="m75.39,64.55c1.09.33,1.29,1.01.97,2.06-.76,2.52-1.02,5.27-3.34,7.05-.49.38-.3.95-.44,1.43-.39,1.4-1.19,2.02-2.62,1.23,1.25-2.08,2.67-4.05,3.61-6.3.2-.3.15-.68.33-.98.04-.13.08-.25.1-.39.23-.28.15-.67.37-.96.03-.13.05-.27.08-.4.23-.28.15-.67.37-.96.03-.28.05-.56.08-.85.27-.25.06-.76.48-.92Z"/>
  <path class="cls-33" d="m103.19,93.42c-1-.63-.98-1.31-.23-2.19,1.59-1.86,2.95-3.86,3.54-6.31.24-1,1.2-1.21,2.08-1.42-.81,3.57-2.57,6.66-4.88,9.46-.16.17-.19.47-.51.46Z"/>
  <path class="cls-33" d="m109.95,67.71c-1.01-.16-1.61-.75-1.71-1.76-.18-1.92-.57-3.79-1.2-5.62-.26-.76-.34-1.5.77-1.66.16.29.32.57.48.86.17.31.12.69.31,1,.7,2.03,1.2,4.12,1.46,6.25.21.34.25.65-.11.92Z"/>
  <path class="cls-4" d="m59.92,66.75c.59-3.23,1.7-6.25,3.72-8.89.46,1.54.62,2.79-.88,4.17-.88.81-1.42,2.49-1.41,4,0,.94-.32,1.59-1.35,1.69-.06-.06-.13-.12-.19-.19-.04-.27-.02-.53.11-.78Z"/>
  <path class="cls-33" d="m97.01,56.41c3.26.13,5.66,4.42,4.39,7.84-1.45-2.62-2.31-5.57-4.39-7.84Z"/>
  <path class="cls-4" d="m63.67,57.81c.57-.77,1.14-1.53,1.7-2.3,0,0,.01-.01.01-.01.74-2.21,2.36-3.42,4.55-3.96.14-.06.29-.13.43-.19.15-.09.29-.08.41.05-.01.29.09.77-.05.86-2.13,1.3-3.22,3.56-4.92,5.23-.56.55-1.42.23-2.14.33Z"/>
  <path class="cls-33" d="m102.44,76.28c.32.15.8.22.95.47,1.02,1.75-.85,5.48-2.88,5.81.18-.58.36-1.16.54-1.75.23-.28.16-.67.38-.95.02-.14.05-.27.09-.4.32-.43.05-1,.33-1.44.03-.27.07-.55.1-.82.28-.24.06-.76.49-.92Z"/>
  <path class="cls-33" d="m102.46,69.51c1.79.54,1.77,1.94,1.73,3.44-.04,1.29-.42,2.19-1.79,2.44-.04-1.8-.08-3.6-.12-5.4-.13-.23-.07-.39.18-.48Z"/>
  <path class="cls-4" d="m63.5,86.24c-1.45-1.73-2.16-3.85-2.96-5.91,1.12-.18,2.03.3,2.11,1.37.12,1.56,2.19,2.74.85,4.54Z"/>
  <path class="cls-33" d="m108.68,83.04c-1.34-2.07-.8-4.77,1.28-6.32.17.06.25.16.24.28,0,.14-.03.21-.07.21-.22,2.01-.48,4-1.45,5.82Z"/>
  <path class="cls-33" d="m78.47,104.64c1.35-1.86,3.14-1.86,4.51,0-.18.42-.65.21-.93.43-.74,0-1.48.02-2.22.02-.38-.36-1.03.07-1.36-.45Z"/>
  <path class="cls-33" d="m110.02,76.28c-1.17-.09-1.32-.88-1.35-1.84-.04-1.27.77-1.59,1.77-1.77,0,1.04,0,2.08,0,3.12-.11.19-.13.45-.41.49Z"/>
  <path class="cls-33" d="m110.44,71.76c-1.1-.17-1.69-.82-1.75-1.94-.05-.94.28-1.59,1.32-1.67.28.04.31.31.42.49,0,1.04,0,2.08,0,3.11Z"/>
  <path class="cls-33" d="m82.98,64.55c-1.21-.09-1.41-.9-1.33-1.89.09-1.08.82-1.3,1.73-1.27,0,.89-.01,1.78-.02,2.67-.06.21-.19.37-.38.49Z"/>
  <path class="cls-33" d="m83.39,60.04c-2.23-1.08-2.29-1.51-.44-3.16.29.04.31.3.39.5.02.89.03,1.77.05,2.66Z"/>
  <path class="cls-4" d="m59.58,76.71l-.07-.86c-.21-.24-.17-.39.14-.47,2.46,1.03.96,2.74.71,4.23-.47-.41-.25-1-.41-1.49-.35-.41-.03-1-.38-1.4Z"/>
  <path class="cls-33" d="m101.43,64.54c.91,1.21,2.96,2.15,1,4.06-.41-.18-.2-.68-.49-.93-.03-.28-.06-.56-.08-.83-.18-.3-.13-.69-.33-.98-.03-.44-.06-.88-.09-1.32Z"/>
  <path class="cls-33" d="m82.52,68.15c-1.77-1.3-1.29-2.3.41-3.15.33.28.29.61.11.95-.03.28-.06.56-.1.84-.34.42-.07.98-.35,1.41l-.07-.05Z"/>
  <path class="cls-43" d="m23.89,58.23l.43-.94c0,2.13,0,4.27-.01,6.4-.15-.47-.3-.93-.44-1.4,0-1.35.02-2.71.03-4.06Z"/>
  <path class="cls-29" d="m59.66,75.37c-.05.16-.1.32-.14.47-.85-1.89-.3-3.88-.4-5.82.11-.06.22-.1.34-.14.07,1.83.13,3.65.2,5.48Z"/>
  <path class="cls-66" d="m78.47,104.64c.47.1,1,.03,1.36.45-.61.04-1.21.08-1.82.12-.45-.22-1.07.09-1.4-.47.62-.03,1.23-.07,1.85-.1Z"/>
  <path class="cls-48" d="m51.43,93.03c-.47-.15-.94-.31-1.41-.46.95-.1,1.91-.27,2.78.33-.46.04-.91.09-1.37.13Z"/>
  <path class="cls-7" d="m83.35,57.38c-.13-.17-.26-.33-.39-.5-.03-.6-.06-1.2-.09-1.81-.06-.2-.01-.37.17-.49.15.47.3.93.46,1.4-.05.47-.09.94-.14,1.4Z"/>
  <path class="cls-32" d="m101.94,67.68c.16.31.33.62.49.93,0,.3.02.6.03.9l-.18.48c-.53-.71-.38-1.52-.34-2.31Z"/>
  <path class="cls-50" d="m78.02,96.19c-.31-.15-.61-.31-.92-.46.81-.11,1.61-.14,2.34.32-.47.05-.95.09-1.42.14Z"/>
  <path class="cls-46" d="m82.06,105.06c.31-.14.62-.29.93-.43.47.05.94.1,1.41.16-.73.53-1.54.37-2.34.28Z"/>
  <path class="cls-57" d="m102.44,76.28c-.16.31-.33.62-.49.92-.12-.67-.09-1.3.37-1.85.04.31.08.62.12.93Z"/>
  <path class="cls-63" d="m90.68,41.5c-.68.15-.82-.35-.97-.82.7-.17.83.34.97.82Z"/>
  <path class="cls-29" d="m110.43,68.65c-.14-.16-.28-.33-.42-.49-.02-.15-.04-.3-.06-.45.04-.31.07-.62.11-.92.47.56.52,1.19.36,1.87Z"/>
  <path class="cls-27" d="m91.06,103.31c.16-.47.26-1,.96-.83-.16.46-.27.98-.96.83Z"/>
  <path class="cls-53" d="m75.39,64.55c-.16.31-.32.62-.48.92-.06-.65-.18-1.32.35-1.86.05.31.09.63.14.94Z"/>
  <path class="cls-36" d="m83.04,65.94c-.04-.32-.07-.63-.11-.95.02-.15.03-.3.05-.45.13-.16.25-.33.38-.49.18.68.15,1.32-.32,1.89Z"/>
  <path class="cls-28" d="m110.02,76.28c.14-.16.27-.33.41-.49.15.53.14,1.03-.3,1.44-.06-.16-.11-.33-.17-.49.02-.15.04-.3.06-.45Z"/>
  <path class="cls-14" d="m101.85,78.02c.11.53.12,1.04-.33,1.44-.12-.53-.13-1.04.33-1.44Z"/>
  <path class="cls-38" d="m74.9,55.5c.36.42.5.89.32,1.43-.44-.4-.45-.9-.32-1.43Z"/>
  <path class="cls-2" d="m82.59,68.2c-.16-.54-.05-1.01.35-1.41.11.53.09,1.02-.35,1.41Z"/>
  <path class="cls-61" d="m86.1,104.64c.4-.39.88-.47,1.42-.36-.4.41-.87.53-1.42.36Z"/>
  <path class="cls-3" d="m86.18,45.13c.41.39.46.87.39,1.39-.44-.38-.53-.85-.39-1.39Z"/>
  <path class="cls-68" d="m74.83,66.32c.11.41-.07.71-.37.96-.11-.41.05-.71.37-.96Z"/>
  <path class="cls-65" d="m108.6,60.53c-.42-.24-.37-.61-.31-1,.43.23.38.61.31,1Z"/>
  <path class="cls-60" d="m101.53,65.86c.33.25.45.58.33.98-.33-.25-.45-.58-.33-.98Z"/>
  <path class="cls-64" d="m89.72,103.76c.26-.28.54-.49.95-.38-.25.3-.54.5-.95.38Z"/>
  <path class="cls-18" d="m74.38,67.68c.11.41-.06.71-.37.96-.11-.41.06-.71.37-.96Z"/>
  <path class="cls-45" d="m95.59,54.64c.52.1.44.52.47.89-.47-.13-.43-.53-.47-.89Z"/>
  <path class="cls-42" d="m73.91,69.02c.06.39.1.76-.33.98-.06-.38-.09-.76.33-.98Z"/>
  <path class="cls-10" d="m73.99,51.9c.3.25.5.53.39.95-.3-.25-.49-.54-.39-.95Z"/>
  <path class="cls-65" d="m82.18,70.03c-.03-.32-.06-.65-.1-.97,0,0,0,0,0,0,.1-.15.22-.17.36-.06.08.39.15.77-.26,1.03Z"/>
  <path class="cls-62" d="m86.63,95.28c-.25.33-.58.45-.98.33.25-.33.58-.44.98-.33Z"/>
  <path class="cls-53" d="m89.68,50.18c.54,0,.49.43.56.77-.55,0-.51-.42-.56-.77Z"/>
  <path class="cls-33" d="m71.26,50.92c.03-.38.16-.68.58-.77-.11.32-.03.78-.58.77Z"/>
  <path class="cls-54" d="m76.26,95.62c-.41.12-.72-.05-.97-.35.4-.11.72.03.97.35Z"/>
  <path class="cls-40" d="m103.19,93.42c.17-.15.34-.31.51-.46,0,.37.06.78-.43.92-.03-.15-.05-.3-.08-.46Z"/>
  <path class="cls-22" d="m71.31,93.81c-.54-.02-.47-.46-.55-.79.54.02.47.46.55.79Z"/>
  <path class="cls-4" d="m57.74,93.08c.49.1.26.53.38.81-.13-.27-.26-.54-.38-.81Z"/>
  <path class="cls-44" d="m78.05,79.46c-.02-.38-.07-.77.38-.95.03.38.08.77-.38.95Z"/>
  <path class="cls-24" d="m101.43,79.86c.12.41-.07.71-.38.95-.11-.41.08-.7.38-.95Z"/>
  <path class="cls-17" d="m89.32,40.59c-.4.09-.73,0-.98-.33.41-.15.73,0,.98.33Z"/>
  <path class="cls-33" d="m100.53,82.53c-.1.17-.2.33-.3.5.1-.17.2-.33.3-.5Z"/>
  <path class="cls-4" d="m64.08,86.99c-.13-.02-.26-.05-.39-.08.03-.08.06-.16.08-.24.1.11.21.21.31.32Z"/>
  <path class="cls-4" d="m64.52,87.44l-.36-.37.36.37Z"/>
  <path class="cls-33" d="m69.03,77.25c-.13.13-.27.27-.4.4.13-.13.27-.27.4-.4Z"/>
  <path class="cls-33" d="m69.48,76.79c-.13.14-.27.27-.4.41.13-.14.27-.27.4-.41Z"/>
  <path class="cls-33" d="m102.79,94.22c.12-.13.24-.25.36-.38-.12.13-.24.25-.36.38Z"/>
  <path class="cls-33" d="m102.34,94.7c.13-.13.25-.27.38-.4-.13.13-.25.27-.38.4Z"/>
  <path class="cls-33" d="m101.9,95.16l.4-.41-.4.41Z"/>
  <path class="cls-33" d="m72.17,50.04c.19-.1.37-.2.56-.3-.19.1-.37.2-.56.3Z"/>
  <path class="cls-33" d="m69.93,76.34l-.41.41.41-.41Z"/>
  <path class="cls-33" d="m70.78,51.39c-.14-.01-.27-.03-.41-.05.17-.1.34-.21.52-.31-.05.11-.08.23-.1.35Z"/>
  <path class="cls-33" d="m101.44,95.61c.14-.14.27-.27.41-.41-.14.14-.27.27-.41.41Z"/>
  <path class="cls-4" d="m32.85,37c-.13.13-.26.26-.38.39.13-.13.26-.26.38-.39Z"/>
  <path class="cls-33" d="m100.99,96.05c.14-.13.27-.27.41-.4-.14.13-.27.27-.41.4Z"/>
  <path class="cls-4" d="m33.33,36.56c-.14.13-.27.25-.41.38.14-.13.27-.25.41-.38Z"/>
  <path class="cls-33" d="m82.45,69c-.12,0-.24.03-.36.06.12-.15.24-.3.36-.45.06.13.06.26,0,.39Z"/>
  <path class="cls-4" d="m59.63,68.15c-.07-.13-.08-.26-.03-.4.07-.21.18-.25.34-.09,0,0,.06.06.06.06-.12.14-.25.28-.37.43Z"/>
  <path class="cls-33" d="m107.25,57.32c-.11-.17-.22-.35-.33-.52.11.17.22.35.33.52Z"/>
  <path class="cls-33" d="m107.68,58.22c-.1-.19-.21-.38-.31-.57.1.19.21.38.31.57Z"/>
  <path class="cls-4" d="m32.41,57.27c.06-.57.13-1.13.19-1.7.23-.45-.02-1,.31-1.43,1.74-7.06,5.49-12.56,12.19-15.78.27-.25.67-.16.94-.4.13-.02.26-.05.39-.07.28-.22.68-.14.96-.38,1.02-.19,2.04-.38,3.05-.58.61-.28,1.31.04,1.91-.29.87,0,1.75,0,2.62-.01.74.38,1.59-.03,2.34.31.88.19,1.75.39,2.63.58.29.21.68.14.97.36,1.19.49,2.37.97,3.56,1.46.28-.02.5.11.71.27.14.1.27.21.41.32.07.05.14.11.21.16.14.1.28.21.41.32.26.23.47.51.69.78.11.13.22.26.33.39.06.06.11.13.17.19.11.12.21.26.31.4.04.07.07.15.11.22.04.16.03.32-.02.48-.1.13-.22.23-.35.32-.2.12-.4.22-.61.34-.13.08-.27.14-.4.21-.2.11-.39.24-.57.39-.25.21-.53.38-.8.57-.21.17-.4.35-.58.55-1.11,1.11-1.98,2.52-3.67,2.88-.72.66-1.45,1.32-2.17,1.98-.28.24-.19.66-.43.92-2.29,2.81-4.06,5.91-5.02,9.43-.24.27-.16.67-.38.95-.54,1.44-.87,2.92-1.01,4.44-.18.31-.14.68-.3,1-.05.72-.11,1.44-.16,2.16-.24,2.43-.28,4.87.02,7.3.03.43.07.86.1,1.29.39.57-.03,1.3.36,1.87.04.28.07.55.11.83.19.3.14.68.33.98.21.72.41,1.43.62,2.15.11.32.21.64-.17.87l-.16.03h-.16c-.53-.52-1.37-.27-1.89-.8-7.77-.77-14.69-7.18-17.14-15.81-.21-.29-.14-.68-.36-.97-.38-1.3-.55-2.63-.55-3.98-.28-1.84-.23-3.67-.02-5.51Z"/>
  <path class="cls-5" d="m53.9,18.53c.15,0,.3-.01.45,0,1.38.12,2.78-.26,4.14.22-.47,1.32-.81,2.71-1.46,3.93-.69,1.28-.56,3.3-3.05,3.15-1.56-.1-2.46-.46-2.96-1.96-.47-1.41-1.06-2.77-1.67-4.13-.51-1.13.04-1.25.96-1.22,1.19.04,2.39,0,3.59,0Z"/>
  <path class="cls-33" d="m83.03,54.58c-.06.16-.11.33-.17.49-1.14-.12-1.39-1.06-1.64-1.9-.67-2.26-1.23-4.55-1.88-6.82-.36-1.25-1.34-2.12-2.11-3.11-1.21-1.57-2.26-3.18-1.92-5.3,2.4,1.88,3.3,4.81,4.99,7.19.37.39.02,1,.41,1.38.43,1.49,1.47,2.79,1.45,4.43.16.31.11.7.33.99l.12.83c.17.31.12.69.33.99.03.28.07.55.1.83Z"/>
  <path class="cls-33" d="m63.64,28.46c-.43,1.26.77,1.1,1.29,1.31,3.21,1.31,5.67,3.68,8.4,5.69.4.3.55.68.61,1.13-3.28-.23-5.2-2.96-7.87-4.34-.8-.42-1.39-1.29-2.44-1.69-1.35-.5-1.51-2.02-1.29-3.25.26-1.42.54-3.11,2.7-2.86-.05.14-.1.27-.15.41-.15.18-.3.36-.33.61-.02.25-.04.49-.06.74-.28.24-.22.58-.29.89-.08.24-.16.49-.25.73,0,.26-.17.44-.32.63Z"/>
  <path class="cls-33" d="m67.31,42.93c.15.04.27-.01.34-.15.11-.07.15-.15.12-.22-.04-.08-.07-.11-.11-.11h0c-.14-.16-.29-.3-.46-.43h-.02c-.1-.17-.24-.29-.41-.36-.37-.28-.2-.98-.83-1.05-.2-.11-.37-.26-.54-.41h0c-.11-.16-.25-.27-.43-.35-.16-.17-.32-.34-.48-.51.24-.27.46-.75.73-.79,1.87-.26,2.21,1.72,3.39,2.51.75.51.62,1.68-.04,2.44-1.73,1.99-3.96,3.41-6.02,5.02-.56.43-1.3.36-1.73-.4,1.23-1.19,2.47-2.39,3.7-3.58.18-.05.32-.16.42-.31.31-.16.61-.32.92-.48.18-.16.36-.31.6-.36.14.04.24,0,.3-.13.18-.11.34-.27.55-.34Z"/>
  <path class="cls-33" d="m67.17,101.14c-3.2-1.11-5.31-3.6-7.54-5.94,1.71-.04,3.44-.21,4.1,2.01.22.74,1.11.94,1.78,1.21,1.27.5,1.93,1.31,1.65,2.72Z"/>
  <path class="cls-33" d="m69.86,102.5l-1.84-.92c2.61-1.27,4.79-.25,5.5,2.57-.59-.13-1.18-.26-1.77-.39-.28-.23-.68-.15-.96-.37-.13-.03-.25-.06-.37-.1-.33-.16-.21-.64-.56-.78Z"/>
  <path class="cls-33" d="m69.94,51.54c-1.52,1.32-3.43,2.19-4.55,3.96.03-3.76,1.7-5.22,4.55-3.96Z"/>
  <path class="cls-21" d="m51.37,76.32c-.73-2.43-.6-4.87-.02-7.3,0,2.43.01,4.87.02,7.3Z"/>
  <path class="cls-30" d="m32.41,57.27c0,1.84.02,3.67.02,5.51-.64-1.83-.69-3.67-.02-5.51Z"/>
  <path class="cls-33" d="m76.67,104.69c-.44-.01-.89-.03-1.33-.04-.25-.27-.78-.03-.93-.5,1.1-1.28,1.85-1.07,2.26.54Z"/>
  <path class="cls-37" d="m50.49,83.54c.77-.07,1.62-.32,1.89.79-.8.14-1.56.2-1.89-.79Z"/>
  <path class="cls-33" d="m73.95,36.61c.61.28,1.06.72,1.35,1.33-.98.09-1.43-.35-1.35-1.33Z"/>
  <path class="cls-56" d="m40.57,19.92c-.63-.77-.7-1.54,0-2.31,0,.77,0,1.54,0,2.31Z"/>
  <path class="cls-49" d="m57.32,36.95c-.81.14-1.61.15-2.34-.31.81-.16,1.62-.22,2.34.31Z"/>
  <path class="cls-10" d="m51.83,79.47c-.47-.56-.47-1.2-.36-1.87.46.56.53,1.19.36,1.87Z"/>
  <path class="cls-20" d="m52.36,36.65c-.59.42-1.23.46-1.91.29.58-.47,1.23-.46,1.91-.29Z"/>
  <path class="cls-11" d="m25.34,51.04c-.12-.53-.14-1.04.36-1.41.07.52.09,1.03-.36,1.41Z"/>
  <path class="cls-35" d="m59.58,76.71c.38.4.51.87.38,1.4-.42-.39-.52-.86-.38-1.4Z"/>
  <path class="cls-27" d="m32.92,54.15c.07.51.14,1.03-.31,1.43-.19-.54-.1-1.02.31-1.43Z"/>
  <path class="cls-12" d="m48.74,92.47c-.53.11-1.03.09-1.43-.35.54-.15,1.02-.06,1.43.35Z"/>
  <path class="cls-13" d="m66.8,16.69c.5.37.42.9.37,1.41-.43-.39-.49-.88-.37-1.41Z"/>
  <path class="cls-25" d="m24.73,66.86c-.44-.41-.44-.91-.31-1.44.36.42.48.9.31,1.44Z"/>
  <path class="cls-68" d="m74.42,104.15l.93.5c-.53.12-1.02.08-1.41-.35.16-.05.32-.1.49-.15Z"/>
  <path class="cls-58" d="m52.81,61.41c-.12-.42.09-.7.38-.95.12.42-.09.7-.38.95Z"/>
  <path class="cls-41" d="m51.51,66.86c-.14-.4-.05-.74.3-1,.13.4.05.74-.3,1Z"/>
  <path class="cls-63" d="m32.99,66.76c.33.24.47.56.36.97-.3-.25-.47-.56-.36-.97Z"/>
  <path class="cls-47" d="m24.49,54.65c-.12-.39.04-.7.31-.97.12.39.06.73-.31.97Z"/>
  <path class="cls-34" d="m64.49,11.78c.35.2.28.55.29.86-.1-.29-.19-.57-.29-.86Z"/>
  <path class="cls-67" d="m24.88,52.85c-.1-.4,0-.73.33-.98.15.41,0,.73-.33.98Z"/>
  <path class="cls-51" d="m25.7,70.89c-.32-.24-.49-.54-.37-.96.29.25.48.55.37.96Z"/>
  <path class="cls-26" d="m26.15,72.24c-.29-.25-.49-.54-.38-.95.3.25.5.54.38.95Z"/>
  <path class="cls-23" d="m58.21,51.03c0-.38-.07-.78.43-.92-.02.36.02.76-.43.92Z"/>
  <path class="cls-31" d="m47.4,37.52c-.25.29-.54.49-.96.38.25-.31.54-.49.96-.38Z"/>
  <path class="cls-52" d="m60.92,37.89c-.4.11-.72-.03-.97-.36.41-.12.71.05.97.36Z"/>
  <path class="cls-9" d="m46.05,37.97c-.25.3-.53.49-.94.4.24-.3.52-.51.94-.4Z"/>
  <path class="cls-16" d="m46.5,92.02c-.4.1-.73,0-.98-.34.41-.13.72.01.98.34Z"/>
  <path class="cls-8" d="m52.26,81.28c-.34-.25-.44-.58-.33-.98.33.25.45.58.33.98Z"/>
  <path class="cls-37" d="m52.71,84.3c.06-.29.11-.58.17-.87.44.39.58.72-.17.87Z"/>
  <path class="cls-34" d="m65.4,14.04c.1.14.19.28.29.42-.1-.14-.19-.28-.29-.42Z"/>
  <path class="cls-34" d="m65.85,14.94c.1.14.19.28.29.42-.1-.14-.19-.28-.29-.42Z"/>
  <path class="cls-34" d="m66.3,15.84c.1.14.19.28.29.42-.1-.14-.19-.28-.29-.42Z"/>
  <path class="cls-33" d="m67.64,101.44c-.17-.11-.33-.22-.5-.32.17.11.33.22.5.32Z"/>
  <path class="cls-34" d="m64.95,13.14c.1.14.19.28.29.42-.1-.14-.19-.28-.29-.42Z"/>
  <path class="cls-34" d="m65.31,23.96c-.1.18-.2.35-.3.53.1-.18.2-.35.3-.53Z"/>
  <path class="cls-34" d="m65.74,23.06c-.1.17-.2.35-.31.52.1-.17.2-.35.31-.52Z"/>
  <path class="cls-34" d="m66.16,22.16c-.1.16-.2.32-.3.48.1-.16.2-.32.3-.48Z"/>
  <path class="cls-34" d="m66.59,20.81l-.28.43c.09-.14.19-.29.28-.43Z"/>
  <path class="cls-34" d="m67.12,19.44c.07.29-.02.51-.29.65.1-.22.19-.43.29-.65Z"/>
  <path class="cls-19" d="m80.71,46.52c-.43-.37-.54-.84-.41-1.38.42.38.48.86.41,1.38Z"/>
  <path class="cls-6" d="m64.21,27.1c.1-.3.2-.59.29-.89.05.34.05.67-.29.89Z"/>
  <path class="cls-15" d="m82.93,53.75c-.33-.25-.47-.57-.33-.99.33.25.43.59.33.99Z"/>
  <path class="cls-55" d="m82.48,51.94c-.32-.26-.48-.57-.33-.99.34.25.42.59.33.99Z"/>
  <path class="cls-6" d="m63.64,28.46c.11-.21.22-.42.32-.63-.11.21-.22.42-.32.63Z"/>
  <path class="cls-34" d="m64.56,25.47c.11-.2.22-.41.33-.61-.11.2-.22.41-.33.61Z"/>
  <path class="cls-17" d="m70.79,103.38c.41-.11.72.05.96.37-.41.1-.71-.06-.96-.37Z"/>
  <path class="cls-59" d="m69.86,102.5c.54,0,.48.45.56.78-.54,0-.48-.44-.56-.78Z"/>
  <path class="cls-39" d="m59.95,67.66c-.12.02-.23.05-.34.09-.12-.4-.04-.74.31-1,.01.3.02.61.03.91Z"/>
  <path class="cls-1" d="m66.77,41.66c.14.11.27.23.41.34-.14-.11-.27-.23-.41-.34Z"/>
  <path class="cls-1" d="m67.19,42.02c.27.02.44.14.46.43-.15-.14-.31-.28-.46-.43Z"/>
  <path class="cls-1" d="m65.4,40.2c.18.14.36.27.54.41-.18-.14-.36-.27-.54-.41Z"/>
  <path class="cls-1" d="m64.96,39.85c.14.11.28.23.43.34-.14-.11-.28-.23-.43-.34Z"/>
  <path class="cls-1" d="m67.65,42.45l.29.19c-.1.05-.2.1-.29.14,0-.11,0-.22,0-.34Z"/>
  <path class="cls-1" d="m67.31,42.93c-.18.11-.37.23-.55.34.18-.11.37-.23.55-.34Z"/>
  <path class="cls-1" d="m66.46,43.4c-.2.12-.4.24-.6.36.2-.12.4-.24.6-.36Z"/>
  <path class="cls-1" d="m64.94,44.24c-.14.1-.28.21-.42.31.14-.1.28-.21.42-.31Z"/>
</svg>