<svg xmlns="http://www.w3.org/2000/svg" viewBox="0 0 1148.28 279.35"><defs><style>.cls-1{fill:#6d6e71;}.cls-2{fill:#ed1d24;}</style></defs><g id="Layer_2" data-name="Layer 2"><g id="Layer_1-2" data-name="Layer 1"><path class="cls-1" d="M998.88,202.69c-.54-.43-1.8-2.25-1.8-9.75V132.08c0-12.23-3.26-22-9.68-28.89s-15.48-10.46-26.81-10.46a51.72,51.72,0,0,0-23.22,5.62c-2.86,1.35-9.07,5.1-19,11.47L915.22,92.5,877,98.92v8.58l10.37,1.35c4,.56,5,1.64,5.27,2.09.47.83,1,2.75,1,7.11v74.89c0,7.44-1.41,9.27-2.06,9.75s-3.22,1.71-14.38,2.51l-1.41.1v9.83h61.07V205.3l-1.42-.1c-10.8-.77-13.8-1.93-14.6-2.51-.54-.44-1.83-2.27-1.83-9.75V137.29c0-5.41.75-9.56,2.24-12.36a31.29,31.29,0,0,1,26.9-16.31c15.79,0,23.46,9.22,23.46,28.18v56.14c0,7.45-1.38,9.28-2,9.75s-3.21,1.71-14.38,2.51l-1.42.1v9.83h61V205.3l-1.4-.1c-10.78-.77-13.82-1.93-14.61-2.51"/><path class="cls-1" d="M1147.13,206.68c-6.52-1.67-13.16-5.85-19.74-12.44a371.3,371.3,0,0,1-42.17-49.74c-.61-.85-1-1.86.62-3.59,10-11.18,18.91-19.74,26.64-25.44a54.63,54.63,0,0,1,27.31-10.18l1.37-.14V95.59h-26c-4,0-7,.42-9.19,1.32-1.94.88-4.22,2.89-7,6.14-15.48,18.7-26.78,33-33.69,42.7V41.88l-42,.09v8.66l10.42,1.11c2.82.26,4.67,1,5.23,2.09.45.8,1,2.71,1,7.32V192.94c0,7.2-1.24,9.17-2,9.71l-.07,0c-.6.48-3.19,1.7-14.37,2.5l-1.41.1v9.83h61.06V205.3l-1.41-.1c-10.65-.77-13.74-1.9-14.64-2.53-.56-.47-1.78-2.36-1.78-9.73V157.69a292.87,292.87,0,0,0,36.87,45.37c7.86,8,16.84,12.22,26.71,12.56l19.4.76V207Z"/><path class="cls-1" d="M700.54,193.84c-5.46,8.61-13.44,12.79-24.4,12.79-12.56,0-20.64-5.66-24.71-17.29-1-3-1.58-7.85-1.58-14.47V137.29a38.74,38.74,0,0,1,.68-8,22.33,22.33,0,0,1,10.52-15.38,33.29,33.29,0,0,1,18.67-5.25,24.18,24.18,0,0,1,17.93,7.61c7.45,7.62,11.22,20.39,11.22,37.93s-2.8,31-8.33,39.68M689.24,92.73c-7.85,0-16.17,2.23-24.74,6.61l-.12.07c-4.59,2.89-9.47,5.92-14.53,9V41.74l-42.05.31V50.9L618.23,52c2.82.27,4.67,1,5.22,2.08.46.82,1,2.77,1,7.33V215.56l6.11,2.73,9.46-9.2A73.13,73.13,0,0,0,675.92,218c40.29,0,60.72-22,60.72-65.27,0-13.8-2.37-25.69-7-35.33-7.87-16.37-21.45-24.67-40.35-24.67"/><path class="cls-1" d="M819.13,148.66v31c0,8-2.66,14.06-8,18a22.84,22.84,0,0,1-14.55,4.68c-6.71,0-11.7-2-15.22-6.09-3.4-4.31-5.13-10-5.13-16.89,0-5.13,1.32-9.18,3.93-12.07,2.68-3.14,7.27-5.95,13.64-8.38,12.6-4.73,20.94-8.11,25.28-10.27m43.07,53.49a27.13,27.13,0,0,1-11.47.24c-4.75-1.08-7.15-7.47-7.15-19V125.9c0-9.51-2.12-16.88-6.31-21.93-6.29-7.45-17.8-11.24-34.21-11.24-13.24,0-24.87,3-34.53,8.79-10,5.84-15,12.52-15,19.86,0,4,1.91,7.22,5.68,9.58a15.68,15.68,0,0,0,9.17,3.11c3.12,0,7.24-1.34,9.06-7.74,4.43-15,12-22.22,23-22.22,12.58,0,18.68,7.28,18.68,22.26v9.34c-1.92,1.76-6.63,4.57-17.94,8.45-10.7,3.16-20.12,6-28.77,8.8-15.39,4.78-23.18,14.81-23.18,29.78,0,9.84,3.09,18.18,9.19,24.8,6.47,7,15.17,10.47,25.88,10.47H785c6.52-.18,13.6-2,21.1-5.39,3.36-1.71,7.92-4.44,13.57-8.11,3.86,9,9.3,13.5,16.17,13.5,9.39,0,19.06-2.45,28.74-7.3l1.09-.55-2.08-8.3Z"/><path class="cls-2" d="M62.81,64.91A174.47,174.47,0,0,1,180.35,19.52,176.27,176.27,0,0,1,219.73,24l9.13,2.11-8-4.89A145,145,0,0,0,145.25,0C65.16,0,0,65.15,0,145.23a144.82,144.82,0,0,0,3.39,31.32l2,9.24,1-9.4A174.4,174.4,0,0,1,62.81,64.91"/><path class="cls-2" d="M275.29,194.24a371.25,371.25,0,0,1-42.15-49.74c-.6-.84-1-1.85.62-3.59,10-11.2,18.94-19.76,26.65-25.44a54.56,54.56,0,0,1,27.29-10.18l1.36-.14V95.59h-26a24.86,24.86,0,0,0-9.19,1.32c-1.94.87-4.15,2.82-7,6.15-15.49,18.72-26.81,33.05-33.68,42.68V41.87l-42,.1v8.66l10.4,1.11c2.89.26,4.69.95,5.26,2.08.45.79,1,2.71,1,7.32V193c0,7.44-1.38,9.27-2,9.75s-3.24,1.7-14.4,2.49l-1.42.11v9.84H231V205.3l-1.41-.11c-10.64-.75-13.73-1.89-14.63-2.51-.56-.49-1.78-2.39-1.78-9.73V157.7a293.45,293.45,0,0,0,36.87,45.36c7.85,8,16.84,12.22,26.71,12.56l19.4.77V207l-1.15-.3c-6.5-1.64-13.15-5.83-19.76-12.43"/><path class="cls-2" d="M366,206.65,363.1,199l-1.45.61a42.53,42.53,0,0,1-16.3,3c-9.54,0-14.19-7.27-14.19-22.26V108.17h30.68V95.59H331.16V41.81H305.83l0,64.84v82.72c0,19,9.38,28.64,27.9,28.64,9.29,0,19.8-3.6,31.23-10.7Z"/><path class="cls-2" d="M435.86,205.3l-1.41-.11c-10.78-.76-13.82-1.92-14.61-2.5-.54-.43-1.79-2.25-1.79-9.74V95.45L376,95.27v8.81l10.37,1.36c4,.53,5,1.64,5.3,2.08.46.82,1,2.71,1,7.1V193c0,7.44-1.4,9.26-2,9.74s-3.22,1.71-14.37,2.5l-1.42.11v9.83h61.05Z"/><path class="cls-2" d="M405.09,79a16.19,16.19,0,0,0,11.53-4.25,15.71,15.71,0,0,0,4.5-11.55,15.6,15.6,0,0,0-4.47-11.49C413.85,48.55,410,47,405.09,47a15.21,15.21,0,0,0-11.54,4.74,15.61,15.61,0,0,0-4.49,11.52,15.38,15.38,0,0,0,4.49,11.3A15.72,15.72,0,0,0,405.09,79"/><path class="cls-2" d="M459.22,192.94c0,7.45-1.39,9.28-2.05,9.76s-3.2,1.7-14.37,2.5l-1.42.1v9.83H507.2v-9.87l-1.46-.06c-13.71-.58-17.66-1.76-18.77-2.39-.87-.53-2.35-2.49-2.35-9.64v-85h29V95.58H484.55l-.9-19.3c-.42-10.93,1.14-18.56,4.52-22.07A7.12,7.12,0,0,1,493.56,52c5.34,0,10.32,5.13,14.76,15.22,1.34,3.27,4.05,5,7.84,5A13.87,13.87,0,0,0,525,68.77a11.41,11.41,0,0,0,4.38-9.29c0-4.94-2.7-9.28-8-12.9-5.79-3.95-13.37-6-22.51-6-14.12,0-24.71,5.27-31.46,15.66-4.88,7.39-7.87,22-8.09,39.3H440.92v12.59h18.3Z"/><path class="cls-2" d="M582.66,93.51l-1,9.41A174.93,174.93,0,0,1,368.37,255.34l-9.12-2.11,8,4.89a144.83,144.83,0,0,0,75.61,21.23c80.09,0,145.26-65.17,145.26-145.26a146,146,0,0,0-3.39-31.34Z"/><path class="cls-2" d="M117.57,148.65v31c0,8.12-2.6,14-8,18a23,23,0,0,1-14.52,4.68c-6.64,0-11.77-2.06-15.21-6.09-3.41-4.3-5.13-10-5.13-16.89,0-5.23,1.26-9.17,3.9-12.07,2.67-3.13,7.27-5.95,13.66-8.38,12.61-4.73,20.94-8.12,25.27-10.28m43.07,53.5a27.26,27.26,0,0,1-11.46.25c-4.74-1.09-7.15-7.48-7.15-19V125.9c0-9.5-2.12-16.87-6.31-21.93-6.29-7.45-17.8-11.24-34.22-11.24-13.23,0-24.85,3-34.53,8.79C57,107.35,52,114,52,121.38c0,4,1.9,7.22,5.65,9.58a15.73,15.73,0,0,0,9.17,3.11c3.13,0,7.25-1.35,9.06-7.74,4.43-15,12-22.22,23.06-22.22,12.56,0,18.67,7.28,18.67,22.26v9.34c-1.92,1.76-6.62,4.57-17.93,8.45-10.84,3.2-20.27,6.08-28.79,8.8-15.39,4.8-23.19,14.82-23.19,29.78,0,9.82,3.1,18.17,9.22,24.8C63.34,214.49,72,218,82.73,218h.73c6.55-.18,13.63-2,21.1-5.39a155.76,155.76,0,0,0,13.59-8.11c3.86,9,9.29,13.5,16.16,13.5,9.4,0,19.07-2.45,28.75-7.3l1.09-.55-2.07-8.3Z"/></g></g></svg>