<?xml version="1.0" encoding="UTF-8"?>
<svg width="535px" height="75px" viewBox="0 0 535 75" version="1.1" xmlns="http://www.w3.org/2000/svg" xmlns:xlink="http://www.w3.org/1999/xlink">
    <title>logo</title>
    <g id="Page-1" stroke="none" stroke-width="1" fill="none" fill-rule="evenodd">
        <g id="logo" fill-rule="nonzero">
            <g id="Group">
                <path d="M97.3,74.3 L82.3,74.3 C71.1,74.3 62,65.2 62,54.1 L62,18.8 C62,18.8 97.3,18.8 97.3,18.8 C108.5,18.8 117.5,27.9 117.5,39 L117.5,54 C117.5,65.2 108.5,74.3 97.3,74.3" id="Path" fill="#2D79BE"></path>
                <path d="M20.2,0 L35.2,0 C46.4,0 55.4,9.1 55.4,20.2 L55.4,55.4 L20.1,55.4 C9.1,55.5 0,46.4 0,35.2 L0,20.2 C0,9.1 9.1,0 20.2,0" id="Path" fill="#201D1E"></path>
                <path d="M157.2,27 L150.9,45 L163.2,45 L157.2,27 Z M168.8,62 L165.9,53.2 L148.3,53.2 L145.3,62 L135.2,62 L153.2,12.4 L160.8,12.4 L178.9,62 L168.8,62 Z" id="Shape" fill="#201D1E"></path>
                <path d="M205.3,62 L205.3,40.1 C205.3,36.2 203.1,33.5 199.3,33.5 C195.4,33.5 193.2,36.1 193.2,40.1 L193.2,62 L184.1,62 L184.1,25.7 L192.9,25.7 L192.9,29 C195.3,26.5 198.3,25.2 202,25.2 C206,25.2 209,26.4 211.2,29 C213.2,31.4 214.3,34.6 214.3,38.7 L214.3,62 L205.3,62 L205.3,62 Z" id="Path" fill="#201D1E"></path>
                <path d="M241.3,46.7 L234.1,46.7 C230.7,46.7 229,48.1 229,50.8 C229,53.6 230.7,55 234.2,55 C237.3,55 239.3,54.2 240.4,52.7 C241,51.9 241.2,50.5 241.2,48.7 L241.3,46.7 L241.3,46.7 Z M241.5,62 L241.5,58.9 C239.2,61.2 236.2,62.4 232.6,62.4 C228.8,62.4 225.9,61.4 223.8,59.5 C221.5,57.5 220.4,54.7 220.4,51 C220.4,47.5 221.6,44.9 224.1,43 C226.3,41.3 229.2,40.5 232.8,40.5 L241.4,40.5 L241.4,38.7 C241.4,34.9 239.2,33 234.6,33 C231.7,33 229.4,34 227.6,36 L221.8,30.4 C223.5,28.4 225.6,27.1 227.7,26.4 C229.6,25.8 231.9,25.4 234.9,25.4 C245.2,25.4 250.4,29.6 250.4,38.2 L250.4,62 L241.5,62 L241.5,62 Z" id="Shape" fill="#201D1E"></path>
                <path d="M278.2,36.9 C277.3,34.6 275.5,33.4 272.8,33.4 C270.1,33.4 268.3,34.6 267.4,36.9 C266.9,38.2 266.6,40.5 266.6,43.8 C266.6,47.1 266.9,49.4 267.4,50.7 C268.3,53.1 270.1,54.2 272.8,54.2 C275.4,54.2 277.3,53 278.2,50.7 C278.8,49.2 279,46.9 279,43.7 C279.1,40.7 278.8,38.4 278.2,36.9 M279.3,62 L279.3,58.6 C277,61.2 274,62.4 270.3,62.4 C263.4,62.4 259.4,59 258.2,52.2 C257.8,50.3 257.7,47.5 257.7,43.8 C257.7,40.2 257.8,37.4 258.2,35.5 C259.4,28.7 263.3,25.3 270.2,25.3 C273.9,25.3 276.9,26.5 279,28.9 L279,12.4 L288,12.4 L288,62 L279.3,62 L279.3,62 Z" id="Shape" fill="#201D1E"></path>
                <path d="M314.7,36.9 C313.8,34.6 312,33.5 309.3,33.5 C306.7,33.5 304.9,34.7 304,37 C303.4,38.5 303,40.8 303,43.9 C303,47 303.3,49.3 303.9,50.9 C304.9,53.2 306.7,54.4 309.3,54.4 C311.9,54.4 313.8,53.2 314.7,50.9 C315.3,49.4 315.7,47.1 315.7,43.9 C315.7,40.7 315.3,38.4 314.7,36.9 M320.6,57.9 C317.7,60.9 314,62.4 309.3,62.4 C304.6,62.4 300.9,60.9 298.1,57.9 C295.4,55 294,50.4 294,43.8 C294,31.5 299.1,25.3 309.3,25.3 C319.5,25.3 324.7,31.5 324.7,43.8 C324.7,50.4 323.3,55.1 320.6,57.9" id="Shape" fill="#201D1E"></path>
                <path d="M340.9,62 C334.6,62 330.3,58 330.3,51.6 L330.3,12.4 L339.3,12.4 L339.3,51 C339.3,53.2 340.3,54.3 342.5,54.3 L346,54.3 L346,62 L340.9,62 Z" id="Path" fill="#201D1E"></path>
                <path d="M371.4,62 L371.4,58.7 C369,61.2 366,62.5 362.4,62.5 C358.4,62.5 355.4,61.3 353.2,58.7 C351.2,56.3 350.1,53.1 350.1,49 L350.1,25.7 L359.1,25.7 L359.1,47.6 C359.1,51.5 361.3,54.2 365.1,54.2 C369,54.2 371.1,51.6 371.1,47.6 L371.1,25.7 L380.1,25.7 L380.1,62 L371.4,62 L371.4,62 Z" id="Path" fill="#201D1E"></path>
                <path d="M409.5,36.9 C408.6,34.6 406.9,33.4 404.1,33.4 C401.3,33.4 399.6,34.6 398.7,36.9 C398.2,38.2 397.9,40.5 397.9,43.8 C397.9,47.1 398.2,49.4 398.7,50.7 C399.6,53.1 401.4,54.2 404.1,54.2 C406.8,54.2 408.6,53 409.5,50.7 C410,49.4 410.3,47.1 410.3,43.8 C410.3,40.5 410,38.2 409.5,36.9 M418.9,52.2 C417.7,59 413.8,62.4 406.9,62.4 C403.2,62.4 400.1,61.2 397.9,58.6 L397.9,62 L389,62 L389,12.4 L398,12.4 L398,28.9 C400.1,26.5 403.1,25.3 406.8,25.3 C413.7,25.3 417.7,28.7 418.8,35.5 C419.2,37.4 419.3,40.2 419.3,43.8 C419.4,47.5 419.2,50.3 418.9,52.2" id="Shape" fill="#201D1E"></path>
                <path d="M445.6,46.7 L438.4,46.7 C435,46.7 433.3,48.1 433.3,50.8 C433.3,53.6 435,55 438.5,55 C441.6,55 443.6,54.2 444.7,52.7 C445.3,51.9 445.5,50.5 445.5,48.7 L445.5,46.7 L445.6,46.7 Z M445.8,62 L445.8,58.9 C443.5,61.2 440.5,62.4 436.9,62.4 C433.1,62.4 430.2,61.4 428.1,59.5 C425.8,57.5 424.7,54.7 424.7,51 C424.7,47.5 425.9,44.9 428.4,43 C430.6,41.3 433.5,40.5 437.1,40.5 L445.7,40.5 L445.7,38.7 C445.7,34.9 443.5,33 438.9,33 C436,33 433.7,34 431.9,36 L426.1,30.4 C427.8,28.4 429.9,27.1 432,26.4 C433.9,25.8 436.2,25.4 439.2,25.4 C449.5,25.4 454.7,29.6 454.7,38.2 L454.7,62 L445.8,62 L445.8,62 Z" id="Shape" fill="#201D1E"></path>
                <path d="M484.2,62 L484.2,40.1 C484.2,36.2 482,33.5 478.2,33.5 C474.3,33.5 472.1,36.1 472.1,40.1 L472.1,62 L463.1,62 L463.1,25.7 L471.9,25.7 L471.9,29 C474.3,26.5 477.3,25.2 480.9,25.2 C484.9,25.2 487.9,26.4 490.1,29 C492.1,31.4 493.2,34.6 493.2,38.7 L493.2,62 L484.2,62 L484.2,62 Z" id="Path" fill="#201D1E"></path>
                <polygon id="Path" fill="#201D1E" points="523.6 62 514.7 46.9 510.8 51.2 510.8 62 501.8 62 501.8 12.4 510.8 12.4 510.8 40.5 522.9 25.7 533.8 25.7 520.8 40.3 534.8 62"></polygon>
            </g>
        </g>
    </g>
</svg>