<?xml version="1.0" encoding="utf-8"?>
<!-- Generator: Adobe Illustrator 24.2.3, SVG Export Plug-In . SVG Version: 6.00 Build 0)  -->
<svg version="1.1" id="Layer_1" xmlns="http://www.w3.org/2000/svg" xmlns:xlink="http://www.w3.org/1999/xlink" x="0px" y="0px"
	 viewBox="0 0 145.7 32.4" style="enable-background:new 0 0 145.7 32.4;" xml:space="preserve">
<style type="text/css">
	.st0{fill-rule:evenodd;clip-rule:evenodd;fill:#FFFFFF;}
	.st1{fill:#FFFFFF;}
	.st2{fill-rule:evenodd;clip-rule:evenodd;fill:#CE2145;}
</style>
<g>
	<path class="st0" d="M25.8,22.4c0.2-5.1-2.5-8.2-6-8.2c-3.1,0-5.7,2.8-5.7,7.3c0,4.7,2.8,6.9,5.9,6.9c2.3,0,4.9-1.5,5.6-4.8h-4.7
		c-0.1,0.6-0.5,1.1-1,1.1c-1,0-1.1-1.2-1.1-2.3 M18.8,19.6c0-0.9,0.4-1.8,1.1-1.8s1.2,0.8,1.2,1.8H18.8z"/>
	<path class="st0" d="M32.1,14.5h-4.7v13.6h4.8v-6.6c0-0.8,0-1.9,0.8-1.9s0.8,1.1,0.8,1.9v6.6h4.8v-8.4c0-3-1-5.5-3.4-5.5
		c-1.5,0-2.2,1-3.2,2.5h-0.1"/>
	<polyline class="st0" points="56.8,15.2 56.8,14.5 46.6,14.5 46.6,18.8 48.9,18.8 50,18.6 50,18.7 46.1,27.2 46.1,28.1 56.5,28.1 
		56.5,23.8 53.8,23.8 52.8,23.9 52.8,23.8 53.8,21.2 	"/>
	<path class="st0" d="M91,14.5h-5v13.6h5.2v-6.6c0-0.8,0-1.9,0.8-1.9s0.8,1.1,0.8,1.9v6.6h4.8v-8.4c0-3-1-5.5-3.4-5.5
		c-1.5,0-2.2,1-3.2,2.5h-0.1"/>
	<polyline class="st0" points="99,28.1 103.9,28.1 103.9,21.3 106.2,28.1 112,28.1 108.3,20.5 111.9,14.5 106.3,14.5 104.1,20.2 
		103.8,19.5 103.8,8.9 99,8.9 	"/>
	<path class="st0" d="M63.4,16.2v-2.7h0.4c0.7,0,1.7-0.1,1.7,1.3c0,1.3-0.8,1.4-1.6,1.4 M58.3,28.1h8c2.5,0,5.1-1.4,5.1-5.3
		c0-2.3-0.9-3.6-2.8-4.6c2-1.2,2.3-2.2,2.3-3.9c0-4-3.8-5.5-5.7-5.5h-7L58.3,28.1L58.3,28.1z M63.4,20.2h0.5c0.8,0,2.1,0,2.1,1.6
		s-1.2,1.6-2,1.6h-0.6V20.2z"/>
	<path class="st0" d="M79.4,28.1h5.1V14.5h-5.1l0.1,1.6h-0.1c-0.7-1.3-1.7-1.9-2.9-1.9c-3.1,0-4.3,3.7-4.3,7.2c0,3.3,1.5,7,4.2,7
		c1.4,0,2.1-0.8,3-2.1h0.1 M77,21.2c0-1,0.5-2.6,1.2-2.6c0.8,0,1.3,1.5,1.3,2.6c0,1-0.2,2.9-1.2,2.9C77.5,24,77,22.3,77,21.2"/>
	<path class="st0" d="M0,28.1h6.4c4.1,0,7-3.6,7-9.4c0-7.1-3.6-9.9-8.3-9.9H0 M5.1,13.5h0.3c1.9,0,3,2.5,3,5.2c0,2.5-1.3,4.6-3,4.6
		H5.1V13.5z"/>
	<path class="st0" d="M40.6,13.2h4.3V9.1h-4.3V13.2z M40.3,28.1h4.8V14.5h-4.8V28.1z"/>
	<path class="st1" d="M117.7,14.1c0.3-1.8,1-3.5,2-4.9l-1.3-1.3c-0.9-0.9-0.9-2.3,0-3.1c0.9-0.9,2.2-0.9,3.1,0l1.3,1.3
		c1.4-1,3.1-1.8,4.9-2.1V2.2c0-1.2,1-2.2,2.2-2.2s2.2,1,2.2,2.2v1.7c1.8,0.3,3.5,1.1,5,2.1l1.2-1.2c0.9-0.9,2.3-0.9,3.1,0
		c0.9,0.9,0.8,2.3,0,3.1l-1.2,1.2c1,1.4,1.7,3.1,2,4.9h1.4c1.2,0,2.2,1,2.2,2.2s-1,2.2-2.2,2.2h-1.4c-0.3,1.8-1,3.5-2.1,5l1,1
		c0.9,0.9,0.9,2.3,0,3.1c-0.9,0.9-2.2,0.9-3.1,0l-1.1-1.1c-1.4,1-3.1,1.7-4.9,2V30c0,1.2-1,2.2-2.2,2.2s-2.2-1-2.2-2.2v-1.6
		c-1.8-0.3-3.4-1-4.8-2l-1.2,1.2c-0.9,0.9-2.3,0.9-3.1,0c-0.9-0.9-0.8-2.3,0-3.1l1.2-1.2c-1-1.5-1.7-3.1-2.1-5h-0.1h-1.8
		c-1.2,0-2.2-1-2.2-2.2s1-2.2,2.2-2.2h1.8"/>
	<path class="st2" d="M122.6,15.4c0.2-1.4,0.7-2.6,1.5-3.7l2.6,2.6c-0.2,0.3-0.3,0.7-0.4,1.1 M125.3,10.4c1-0.8,2.2-1.3,3.5-1.5v3.8
		c-0.3,0.1-0.6,0.2-0.9,0.4L125.3,10.4z M130.6,8.9c1.5,0.1,2.8,0.7,3.9,1.6l-2.6,2.6c-0.4-0.3-0.8-0.4-1.3-0.5L130.6,8.9z
		 M135.8,11.8c0.8,1,1.3,2.3,1.4,3.7h-3.7c-0.1-0.4-0.2-0.7-0.4-1L135.8,11.8z M137.2,17.2c-0.2,1.4-0.7,2.6-1.5,3.6l-2.6-2.6
		c0.2-0.3,0.3-0.6,0.4-1H137.2z M134.4,22.1c-1.1,0.8-2.4,1.4-3.8,1.5v-3.7c0.4-0.1,0.8-0.2,1.2-0.4L134.4,22.1z M128.9,23.6
		c-1.3-0.2-2.4-0.7-3.4-1.4l2.6-2.6c0.2,0.1,0.5,0.2,0.8,0.3V23.6z M124.2,20.9c-0.8-1-1.4-2.3-1.6-3.7h3.7c0.1,0.4,0.3,0.8,0.5,1.1
		L124.2,20.9z M118.7,17.5h-2.6c-0.8,0-1.5-0.6-1.5-1.2c0-0.7,0.7-1.2,1.5-1.2h2.6c0.2-2.2,1.1-4.2,2.4-5.8l-1.8-1.8
		c-0.6-0.6-0.7-1.4-0.2-1.9s1.3-0.4,1.9,0.2l1.8,1.8c1.6-1.3,3.7-2.2,5.9-2.5V2.7c0-0.8,0.5-1.5,1.2-1.5s1.2,0.7,1.2,1.5V5
		c2.2,0.2,4.3,1.1,5.9,2.5l1.6-1.7c0.6-0.6,1.4-0.7,1.9-0.2s0.4,1.3-0.2,1.9l-1.7,1.7c1.3,1.6,2.1,3.6,2.4,5.8h2.2
		c0.8,0,1.5,0.6,1.5,1.2c0,0.7-0.7,1.2-1.5,1.2H141c-0.2,2.2-1.1,4.2-2.5,5.9l1.6,1.6c0.6,0.6,0.7,1.4,0.2,1.9s-1.3,0.4-1.9-0.2
		l-1.6-1.6c-1.6,1.3-3.6,2.1-5.8,2.4v2.4c0,0.8-0.5,1.5-1.2,1.5s-1.2-0.7-1.2-1.5v-2.4c-2.1-0.2-4.1-1.1-5.7-2.4l-1.8,1.8
		c-0.6,0.6-1.4,0.7-1.9,0.2s-0.4-1.3,0.2-1.9l1.7-1.7C119.9,21.7,119,19.7,118.7,17.5"/>
</g>
</svg>
