<?xml version="1.0" encoding="utf-8"?>
<!-- Generator: Adobe Illustrator 27.2.0, SVG Export Plug-In . SVG Version: 6.00 Build 0)  -->
<svg version="1.1" id="katman_1" xmlns="http://www.w3.org/2000/svg" xmlns:xlink="http://www.w3.org/1999/xlink" x="0px" y="0px"
	 viewBox="0 0 100 50" style="enable-background:new 0 0 100 50;" xml:space="preserve">
<style type="text/css">
	.st0{fill-rule:evenodd;clip-rule:evenodd;fill:url(#Fill-18_00000129883824287673909800000007081686590138841479_);}
	.st1{fill-rule:evenodd;clip-rule:evenodd;fill:url(#Fill-21_00000110431917165216295110000000780652280083667861_);}
	.st2{fill-rule:evenodd;clip-rule:evenodd;fill:url(#Fill-24_00000036216383738163170320000016665411468206487717_);}
	.st3{fill-rule:evenodd;clip-rule:evenodd;fill:url(#Fill-27_00000083087930475406313140000011921019019044588702_);}
	.st4{fill-rule:evenodd;clip-rule:evenodd;fill:url(#Fill-30_00000165228847854375567520000000053707587202427030_);}
	.st5{fill-rule:evenodd;clip-rule:evenodd;fill:url(#Fill-33_00000167385705753101680940000011767758413234370234_);}
	.st6{fill-rule:evenodd;clip-rule:evenodd;fill:url(#Fill-36_00000159445231572957401330000014852422953649758107_);}
	.st7{fill-rule:evenodd;clip-rule:evenodd;fill:url(#Fill-39_00000088122809774799418820000009770482808910238602_);}
	.st8{fill-rule:evenodd;clip-rule:evenodd;fill:#004480;}
	.st9{fill-rule:evenodd;clip-rule:evenodd;fill:#111111;}
</style>
<g id="_x30_3_x5F_Footer">
	<g id="_x31_200" transform="translate(-16.000000, -67.000000)">
		<g id="Logo" transform="translate(16.000000, 67.000000)">
			<g id="LOGO">
				<g id="Group-20" transform="translate(0.000000, 7.431507)">
					
						<linearGradient id="Fill-18_00000049180099413370569550000013376591846087634589_" gradientUnits="userSpaceOnUse" x1="1.2561" y1="43.0328" x2="1.4911" y2="42.8539" gradientTransform="matrix(21.5096 0 0 -19.1709 -20.5096 837.1156)">
						<stop  offset="0" style="stop-color:#002808"/>
						<stop  offset="0.6659" style="stop-color:#1D6C31"/>
						<stop  offset="0.8877" style="stop-color:#217536"/>
						<stop  offset="0.8877" style="stop-color:#217536"/>
						<stop  offset="0.8877" style="stop-color:#217536"/>
						<stop  offset="0.8887" style="stop-color:#217536"/>
						<stop  offset="0.89" style="stop-color:#217536"/>
						<stop  offset="1" style="stop-color:#237939"/>
					</linearGradient>
					
						<path id="Fill-18" style="fill-rule:evenodd;clip-rule:evenodd;fill:url(#Fill-18_00000049180099413370569550000013376591846087634589_);" d="
						M5.9,12.7c0,0.5,0.2,1.1,0.6,1.7l0,0c0.4,0.6,1.1,1,1.8,1.3l0,0c1,0.4,1.7,0.5,2.4,0.5l0,0c0.9,0,1.4-0.3,1.6-0.4l0,0
						c-1.4-3.5-4.2-5.1-4.6-5.3l0,0C6.6,11,5.9,11.7,5.9,12.7"/>
				</g>
				<g id="Group-23" transform="translate(26.541096, 11.678082)">
					
						<linearGradient id="Fill-21_00000052082428588860002980000010917618371319004860_" gradientUnits="userSpaceOnUse" x1="-26.5846" y1="38.8887" x2="-26.7239" y2="38.6413" gradientTransform="matrix(10.9166 0 0 -14.9439 280.0611 589.4672)">
						<stop  offset="0" style="stop-color:#0A3D1D"/>
						<stop  offset="1" style="stop-color:#2A823B"/>
					</linearGradient>
					
						<path id="Fill-21" style="fill-rule:evenodd;clip-rule:evenodd;fill:url(#Fill-21_00000052082428588860002980000010917618371319004860_);" d="
						M-10.5,9c-0.4,0.8-1.1,2-2.2,2.9l0,0c0.1,0,0.2,0,0.4,0l0,0c0.6,0,1.5-0.3,2.3-1.5l0,0c0.5-0.7,0.6-1.4,0.5-2l0,0
						C-9.6,8-9.8,7.7-10,7.5l0,0C-10.1,7.8-10.2,8.4-10.5,9"/>
				</g>
				<g id="Group-26" transform="translate(6.369863, 0.000000)">
					
						<linearGradient id="Fill-24_00000034073912274003982260000008865997298761893511_" gradientUnits="userSpaceOnUse" x1="-5.2736" y1="50.3799" x2="-5.1761" y2="50.122" gradientTransform="matrix(15.7162 0 0 -23.6205 86.242 1206.1409)">
						<stop  offset="0" style="stop-color:#001600"/>
						<stop  offset="0.4518" style="stop-color:#11461A"/>
						<stop  offset="0.4518" style="stop-color:#11461A"/>
						<stop  offset="0.4528" style="stop-color:#11461A"/>
						<stop  offset="1" style="stop-color:#26803A"/>
					</linearGradient>
					
						<path id="Fill-24" style="fill-rule:evenodd;clip-rule:evenodd;fill:url(#Fill-24_00000034073912274003982260000008865997298761893511_);" d="
						M2.6,15.8c-0.5,0.3-0.8,1.1-0.9,1.4l0,0c1.9,1.1,3,2.6,3.7,3.7l0,0c0.4,0.7,0.7,1.3,0.8,1.7l0,0c0.1-0.5,0.1-1,0.1-1l0,0
						c0-3.2-1.1-5.5-2.8-5.9l0,0c-0.1,0-0.1,0-0.2,0l0,0c0,0-0.1,0-0.1,0l0,0C3,15.7,2.8,15.7,2.6,15.8"/>
				</g>
				<g id="Group-29" transform="translate(7.431507, 31.849315)">
					
						<linearGradient id="Fill-27_00000129912278312178811220000009398666223036068540_" gradientUnits="userSpaceOnUse" x1="-6.2805" y1="19.4555" x2="-6.3539" y2="19.1779" gradientTransform="matrix(15.8037 0 0 -25.2993 102.9851 485.6786)">
						<stop  offset="0" style="stop-color:#48B652"/>
						<stop  offset="0.6196" style="stop-color:#1E642A"/>
						<stop  offset="1" style="stop-color:#043212"/>
					</linearGradient>
					
						<path id="Fill-27" style="fill-rule:evenodd;clip-rule:evenodd;fill:url(#Fill-27_00000129912278312178811220000009398666223036068540_);" d="
						M3.7-4C3.4-3.6,3-3.2,2.8-2.8l0,0C2.7-2.7,2.6-2.6,2.5-2.5l0,0C1.7-1.7,1-1.2,0.8-1l0,0c0.1,0.4,0.6,1.7,1.7,1.7l0,0
						c1.3,0,2-1.7,2-1.7l0,0v0c0-0.1,0.6-1.2,0.9-2.7l0,0c0-0.1,0-0.1,0-0.2l0,0c0-0.1,0-0.2,0-0.3l0,0c0-0.4,0.1-0.8,0.1-1.2l0,0
						c0-0.4-0.1-0.9-0.2-1.3l0,0c0,0,0,0,0-0.1l0,0C4.8-5.7,4.2-4.8,3.7-4"/>
				</g>
				<g id="Group-32" transform="translate(25.479452, 29.726027)">
					
						<linearGradient id="Fill-30_00000086666995219036074890000009963495285877487805_" gradientUnits="userSpaceOnUse" x1="-25.8752" y1="21.6287" x2="-25.8092" y2="21.3673" gradientTransform="matrix(8.954 0 0 -18.9582 220.7314 404.8409)">
						<stop  offset="0" style="stop-color:#48B652"/>
						<stop  offset="1" style="stop-color:#1E6D33"/>
					</linearGradient>
					
						<path id="Fill-30" style="fill-rule:evenodd;clip-rule:evenodd;fill:url(#Fill-30_00000086666995219036074890000009963495285877487805_);" d="
						M-11.9-4.1v0.2c0,0.4,0,1.2,0.1,1.9l0,0c0.1,0.8,0.3,1.6,0.7,2l0,0c0.2,0.2,0.5,0.3,0.7,0.3l0,0h0h0h0.1c0.1,0,0.5,0,0.7-0.4
						l0,0c0.1-0.2,0.2-0.4,0.2-0.6l0,0c0-0.1-0.2-0.6-0.4-1.2l0,0c-0.1-0.2-0.1-0.4-0.2-0.6l0,0c-0.4-1-1.1-2.1-1.9-2.8l0,0
						C-11.8-5-11.9-4.6-11.9-4.1"/>
				</g>
				<g id="Group-35" transform="translate(25.479452, 6.369863)">
					
						<linearGradient id="Fill-33_00000013159294176250384050000010157526753552607143_" gradientUnits="userSpaceOnUse" x1="-25.6359" y1="44.1182" x2="-25.6733" y2="43.8224" gradientTransform="matrix(9.8862 0 0 -19.6679 243.0896 878.7889)">
						<stop  offset="0" style="stop-color:#063B1A"/>
						<stop  offset="0.625" style="stop-color:#1D692F"/>
						<stop  offset="0.625" style="stop-color:#1D692F"/>
						<stop  offset="0.6354" style="stop-color:#1E6930"/>
						<stop  offset="1" style="stop-color:#2B843C"/>
					</linearGradient>
					
						<path id="Fill-33" style="fill-rule:evenodd;clip-rule:evenodd;fill:url(#Fill-33_00000013159294176250384050000010157526753552607143_);" d="
						M-10.2,11c-0.3,0-0.5,0.1-0.7,0.3l0,0c-1,0.8-1.1,3.1-1.1,3.9l0,0l0,0.2c0,0.5,0,1.2,0.1,1.5l0,0c2.1-1.6,2.8-4,2.9-4.3l0,0
						C-9.2,11.2-10.1,11-10.2,11L-10.2,11L-10.2,11z"/>
				</g>
				<g id="Group-38" transform="translate(27.602740, 28.664384)">
					
						<linearGradient id="Fill-36_00000052093559929885254840000011432877298267115690_" gradientUnits="userSpaceOnUse" x1="-27.9493" y1="22.7517" x2="-27.8161" y2="22.4903" gradientTransform="matrix(10.0799 0 0 -15.017 269.2564 337.0152)">
						<stop  offset="0" style="stop-color:#48B652"/>
						<stop  offset="1" style="stop-color:#1E6D33"/>
					</linearGradient>
					
						<path id="Fill-36" style="fill-rule:evenodd;clip-rule:evenodd;fill:url(#Fill-36_00000052093559929885254840000011432877298267115690_);" d="
						M-13.5-4.5c0.3,0.3,0.7,0.7,1.2,1.5l0,0l0,0l0,0c0.3,0.6,0.7,1.3,1,2.2l0,0c0.1,0.3,0.2,0.5,0.2,0.8l0,0
						c0.1-0.1,0.2-0.3,0.4-0.6l0,0c0-0.1,0.1-0.1,0.1-0.2l0,0c0-0.1,0-0.1,0.1-0.2l0,0l0,0c0.2-0.8,0-1.6-0.7-2.3l0,0
						C-12.2-4.3-12.9-4.5-13.5-4.5L-13.5-4.5L-13.5-4.5z"/>
				</g>
				<g id="Group-41" transform="translate(0.000000, 29.726027)">
					
						<linearGradient id="Fill-39_00000031895934633627471740000017473154532032410511_" gradientUnits="userSpaceOnUse" x1="1.4884" y1="21.5516" x2="1.2598" y2="21.3878" gradientTransform="matrix(21.2941 0 0 -20.0942 -19.863 428.5113)">
						<stop  offset="0" style="stop-color:#359943"/>
						<stop  offset="1" style="stop-color:#023110"/>
					</linearGradient>
					
						<path id="Fill-39" style="fill-rule:evenodd;clip-rule:evenodd;fill:url(#Fill-39_00000031895934633627471740000017473154532032410511_);" d="
						M6.1-1.9c0,0.1,0,0.2,0,0.4C6.1-0.8,6.7,0,7.7,0.5C8,0.4,9.1-0.4,10.4-1.9c0.3-0.4,0.7-0.9,1-1.4l0.1-0.1
						C11.7-4,12-4.6,12.3-5.2l0.1-0.1c-0.2,0-0.5-0.1-0.9-0.1c-0.8,0-2,0.2-3.6,1.2C6.8-3.5,6.2-2.7,6.1-1.9z"/>
				</g>
			</g>
			<g id="Group-25-Copy" transform="translate(44.589041, 9.023973)">
				<path id="Fill-1" class="st8" d="M31.8,18.4H29c-0.1,0-0.2-0.1-0.2-0.2l0-2.4c0-0.1,0.1-0.2,0.2-0.2h2.7c1.3,0,1.8,0.4,1.8,1.4
					C33.6,17.9,33.1,18.4,31.8,18.4 M29.1,11.8h2.7c1,0,1.5,0.3,1.5,1.1c0,0.9-0.5,1.3-1.5,1.3l-2.7,0c-0.1,0-0.2-0.1-0.2-0.2V12
					C28.9,11.9,29,11.8,29.1,11.8 M33.8,14.8L33.8,14.8c0.6-0.3,0.9-1,0.9-1.9c0-1.4-1.1-2.4-2.7-2.4h-4.5c-0.1,0-0.2,0.1-0.2,0.2
					v8.8c0,0.1,0.1,0.2,0.2,0.2h4.3c2.2,0,3.3-0.9,3.3-2.8C35.1,15.9,34.6,15.1,33.8,14.8"/>
				<path id="Fill-3" class="st8" d="M43.3,10.6l-3,5.7c-0.1,0.1-0.2,0.1-0.3,0l-3-5.7c0-0.1-0.1-0.1-0.2-0.1h-1.5
					c-0.1,0-0.2,0.1-0.1,0.2l4.7,8.9c0.1,0.1,0.2,0.1,0.3,0l4.7-8.9c0-0.1,0-0.2-0.1-0.2h-1.5C43.4,10.5,43.3,10.6,43.3,10.6"/>
				<path id="Fill-5" class="st8" d="M22.3,18.4h-2.7c-0.1,0-0.2-0.1-0.2-0.2v-2.4c0-0.1,0.1-0.2,0.2-0.2h2.7c1.3,0,1.8,0.4,1.8,1.4
					C24.2,17.9,23.6,18.4,22.3,18.4 M19.6,11.8h2.7c1,0,1.5,0.3,1.5,1.1c0,0.9-0.5,1.3-1.5,1.3l-2.7,0c-0.1,0-0.2-0.1-0.2-0.2l0-2.1
					C19.4,11.9,19.5,11.8,19.6,11.8 M24.3,14.8L24.3,14.8c0.6-0.3,0.9-1,0.9-1.9c0-1.4-1.1-2.4-2.7-2.4h-4.5c-0.1,0-0.2,0.1-0.2,0.2
					v8.8c0,0.1,0.1,0.2,0.2,0.2h4.3c2.2,0,3.3-0.9,3.3-2.8C25.7,15.9,25.2,15.1,24.3,14.8"/>
				<path id="Fill-7" class="st8" d="M44.8,18.3l3-5.7c0.1-0.1,0.2-0.1,0.3,0l3,5.7c0,0.1,0.1,0.1,0.2,0.1h1.5
					c0.1,0,0.2-0.1,0.1-0.2l-4.7-8.9c-0.1-0.1-0.2-0.1-0.3,0l-4.7,8.9c0,0.1,0,0.2,0.1,0.2h1.5C44.7,18.4,44.8,18.3,44.8,18.3"/>
				<path id="Fill-9" class="st9" d="M14,11.4c0-0.3-0.1-0.5-0.3-0.6c-0.2-0.2-0.4-0.3-0.6-0.3c-0.3,0-0.5,0.1-0.6,0.3
					c-0.1,0.1-0.2,0.2-0.2,0.4c0,0.1,0,0.2,0,0.2c0,0.2,0.1,0.5,0.3,0.6c0.2,0.2,0.4,0.3,0.6,0.3c0.2,0,0.5-0.1,0.6-0.3
					C13.9,11.9,14,11.7,14,11.4"/>
				<path id="Fill-11" class="st9" d="M14.1,19.7C14,19.5,14,18.8,14,18v-3.6c0-0.8,0.1-1.4-0.6-1.4c-0.2,0-0.7,0.2-1.2,0.4
					c0.3,0.2,0.4,0.6,0.4,1.4V18c0,1,0,1.5-0.1,1.7H14.1z"/>
				<path id="Fill-13" class="st9" d="M9.9,19.9c-0.7,0-1.2-0.2-1.5-0.6c-0.2-0.3-0.3-0.8-0.3-1.6V14H7v-0.8l1-0.1l0.1-1.6l1.4-0.1
					V13h1.7V14H9.5v1.6v0.5v0.2v1.5c0,0.7,0.3,1.1,0.9,1.1c0.4,0,0.7-0.1,1.1-0.3l0.1,0.9C11,19.7,10.4,19.9,9.9,19.9"/>
				<path id="Fill-15" class="st9" d="M-10.7,19.7c-0.1-0.4-0.1-1-0.1-1.5v-2.9c0-1.9-0.8-2.5-2.6-2.5c-0.7,0-1.3,0.1-1.9,0.4
					l-0.2,0.9c0.6-0.3,1.3-0.5,2-0.5c1.3,0,1.2,1,1.2,2c-1.7-0.5-4,0.1-3.9,2.3c0,1.2,0.9,1.8,2,1.9c0.8,0,1.4-0.3,1.9-0.8l0.1,0.7
					H-10.7z M-12.3,18.3c-0.4,0.3-0.8,0.5-1.3,0.5c-0.7,0-1.1-0.3-1.1-1c0-1,1-1.7,2.4-1.4V18.3z"/>
				<path id="Fill-17" class="st9" d="M4.6,19.7c0.1-0.1,0.1-0.5,0.1-0.8c0-0.3,0-0.6,0-1v-2.6c0-0.9-0.3-1.3-0.9-1.3
					c-0.5,0-1.1,0.4-1.6,0.8v3.3c0,0.4,0,0.7,0,1c0,0.3,0,0.5,0.1,0.6H0.7c0.1-0.3,0.1-0.8,0.1-1.6v-3.4c0-0.8-0.1-1.2-0.4-1.3
					c0.6-0.3,0.9-0.4,1.2-0.4c0.5,0,0.6,0.4,0.6,1c0.6-0.6,1.4-1,2.1-1c0.7,0,1.3,0.3,1.6,0.8c0.1,0.1,0.1,0.3,0.2,0.5
					c0.1,0.3,0.1,0.7,0.1,1.1V18c0,1.1,0,1.6,0.1,1.7H4.6z"/>
				<path id="Fill-19" class="st9" d="M-6.1,14c-0.1,0-0.2,0-0.4,0c-0.5,0-0.9,0.2-1.4,0.8v3.4c0,1,0,1.4,0.1,1.6h-1.6
					c0-0.1,0-0.2,0.1-0.4c0-0.3,0-0.7,0-1.2v-3.5c0-0.8-0.1-1.2-0.4-1.3c0.5-0.2,0.9-0.4,1.2-0.4c0.5,0,0.6,0.5,0.6,1
					c0.5-0.7,1-1,1.7-1c0.1,0,0.2,0,0.4,0L-6.1,14z"/>
				<path id="Fill-21_00000046338110585381276510000000343006742558738060_" class="st9" d="M-2.2,18.3c-0.4,0.3-0.8,0.5-1.3,0.5
					c-0.7,0-1.1-0.3-1.1-1c0-1,1-1.7,2.4-1.4V18.3z M-0.6,19.7c-0.1-0.2-0.1-1-0.1-1.5v-2.9c0-1.9-0.8-2.5-2.6-2.5
					c-0.7,0-1.3,0.1-1.9,0.4l-0.2,0.9c0.2-0.1,0.5-0.2,0.7-0.3c0.4-0.1,0.9-0.2,1.3-0.2c1.3,0,1.2,1,1.2,2c-1.7-0.5-4,0.1-3.9,2.3
					c0,1.2,0.9,1.8,2,1.9c0.8,0,1.4-0.3,1.9-0.8c0,0,0,0.4,0.1,0.7H-0.6z"/>
				<path id="Fill-23" class="st9" d="M-17.7,11.6c-0.7-0.3-1.5-0.4-2.3-0.4c-1,0-1.8,0.4-2.5,1.1c-0.7,0.7-1,1.6-1,2.7
					c0,1.2,0.3,2.2,0.9,2.9c0.6,0.7,1.4,1.1,2.5,1.1c0.6,0,1-0.1,1.4-0.2v-2.4c0-0.2,0-0.3,0-0.4h-0.8H-20c0-0.4-0.1-0.9-0.1-1.1
					l3.1,0.1c-0.1,0.4-0.1,0.8-0.1,1.6v1.2c0,0.8,0,1.4,0.1,1.7c-1.1,0.4-2.1,0.7-3.2,0.7c-1.6,0-2.8-0.4-3.7-1.3
					c-0.9-0.9-1.4-2-1.4-3.5c0-1.5,0.5-2.8,1.5-3.7c1-0.9,2.2-1.4,3.8-1.4c1.4,0,1.8,0.2,2.6,0.4L-17.7,11.6"/>
			</g>
		</g>
	</g>
</g>
</svg>
