<?xml version="1.0" encoding="UTF-8"?>
<svg id="Foreground" xmlns="http://www.w3.org/2000/svg" viewBox="0 0 240.72 45.8">
  <defs>
    <style>
      .cls-1, .cls-2 {
        fill: #274599;
      }

      .cls-2 {
        stroke: #274599;
        stroke-miterlimit: 10;
      }
    </style>
  </defs>
  <path class="cls-2" d="m64,23.2v2.2c0,2.2,0,4.1-.1,5.8-.1,1.7-.1,3.3-.2,4.9.5-.1,1-.1,1.4-.1h3.5c.5,0,1,0,1.4.1-.1-1.6-.2-3.2-.2-4.9-.1-1.7-.1-3.6-.1-5.8v-5.3c0-2.2,0-4.1.1-5.7.1-1.7.1-3.4.2-5.1-.4.1-.9.1-1.4.2h-3.6c-.5-.1-1-.1-1.4-.2.1,1.7.2,3.4.2,5,.2,1.7.2,3.6.2,5.8-.8,0-1.6.1-2.5.1h-7c-.9,0-1.7-.1-2.4-.1v-5.7c.1-1.7.1-3.3.3-5-.4.1-.9.1-1.4.2h-3.6c-.5-.1-1-.1-1.4-.2.1,1.7.2,3.4.2,5.1.1,1.7.1,3.6.1,5.7v5.3c0,2.2,0,4.1-.1,5.8-.1,1.7-.1,3.3-.2,4.9.5-.1,1-.1,1.4-.1h3.5c.5,0,1,0,1.4.1-.1-1.6-.2-3.2-.2-4.9-.1-1.7-.1-3.6-.1-5.8v-2.2c1-.1,2-.1,3-.1h3c1,0,2,0,3,.1l3-.1Z"/>
  <path class="cls-2" d="m83.9,16.7c-.7,1.6-1.3,3.1-1.9,4.6s-1.2,3-1.8,4.6h7.1c-.6-1.6-1.1-3.1-1.7-4.6-.5-1.5-1.1-3.1-1.7-4.6Zm13.8,19.4c-.6-.1-1.2-.1-1.8-.1h-3.3c-.5,0-1.1,0-1.6.1-.4-1.3-.8-2.6-1.3-3.9-.4-1.3-.9-2.6-1.4-4h-9c-.5,1.3-1,2.6-1.4,4-.4,1.3-.8,2.6-1.2,3.9-.4-.1-.7-.1-1-.1h-1.8c-.3,0-.7,0-1,.1.3-.7.7-1.6,1.2-2.8s1.1-2.5,1.7-4,1.3-3.1,2-4.8c.7-1.7,1.4-3.5,2.1-5.3s1.4-3.5,2.1-5.2,1.3-3.3,1.9-4.8c.3.1.5.1.7.2.5.1,1,.1,1.5,0,.2-.1.5-.1.7-.2.8,2.2,1.7,4.6,2.6,7.1,1,2.5,1.9,5,2.9,7.4s1.9,4.7,2.8,6.9c1,2.1,1.8,4,2.6,5.5Z"/>
  <path class="cls-2" d="m100.7,20.1v5.3c0,2.2,0,4.1-.1,5.8-.1,1.7-.1,3.3-.2,4.9.2,0,.5-.1.7-.1h11.7c1,0,1.9.1,2.6.1-.1-.2-.1-.4-.1-.6-.1-.6-.1-1.3,0-1.9,0-.2.1-.5.1-.8-1.5.2-3,.3-4.5.4-1.5.1-3,.1-4.4.1,0-1-.1-2.2-.1-3.6v-9.6c0-2.2,0-4.1.1-5.7.1-1.7.1-3.4.2-5.1-.4.1-.9.1-1.4.2h-3.6c-.5-.1-1-.1-1.4-.2.1,1.7.2,3.4.2,5.1.2,1.7.2,3.6.2,5.7Z"/>
  <path class="cls-2" d="m124.6,24h0c1.4,2,2.7,4.1,4,6.1,1.3,2,2.6,4,3.9,6,.6-.1,1.1-.1,1.7-.1h3.5c.6,0,1.3,0,2,.1-.5-.6-1.2-1.5-2.1-2.8-.9-1.2-1.8-2.6-2.8-4l-3-4.5c-1-1.5-1.9-2.9-2.8-4.2.5-.6,1.2-1.5,2.2-2.5.9-1.1,1.9-2.2,2.9-3.3s2-2.2,2.9-3.2,1.6-1.7,2-2.1c-.4.1-.9.1-1.2.2h-2.2l-1.1-.2c-.3.5-.9,1.2-1.6,2.2-.8,1-1.6,2-2.5,3.2-.9,1.2-1.9,2.4-2.9,3.6-1,1.2-2,2.3-2.8,3.4v-9.1c0-1.2.1-2.3.3-3.5-.4.1-.9.1-1.4.2h-3.6c-.5-.1-1-.1-1.4-.2.1,1.7.2,3.4.2,5.1.1,1.7.1,3.6.1,5.7v5.3c0,2.2,0,4.1-.1,5.8-.1,1.7-.1,3.3-.2,4.9.5-.1,1-.1,1.4-.1h3.5c.5,0,1,0,1.4.1-.2-1.6-.3-3.2-.3-4.8,0-2.1,0-4.5,0-7.3Z"/>
  <path class="cls-2" d="m154.2,28.7c0,.8-.1,1.5-.4,2.3-.2.6-.5,1.2-.9,1.7-.8.9-1.8,1.4-3,1.4h-1.1c-.3,0-.6-.1-1-.1v-10.6h1.6c1.3-.1,2.6.4,3.5,1.4,1,1,1.4,2.4,1.3,3.9Zm-.2-12.6c0,.7-.1,1.5-.4,2.2-.2.6-.6,1.1-1,1.6-.4.4-.9.7-1.4.9-.5.2-1,.3-1.6.3h-1.8v-6.4c0-1,.1-2,.1-2.9.2,0,.5-.1.7-.1h1.2c.7,0,1.3.1,1.9.4.5.2.9.6,1.3,1,.3.4.6.9.7,1.4.2.5.3,1,.3,1.6h0Zm-12,4v5.3c0,2.2,0,4.1-.1,5.8-.1,1.7-.1,3.3-.2,4.9.6-.1,1.2-.1,1.8-.1h7.9c1.1,0,2.3-.1,3.4-.3,1-.2,2-.7,2.9-1.3s1.6-1.5,2-2.4c.5-1.1.8-2.3.8-3.6,0-1-.2-2.1-.8-3-.5-.8-1.1-1.5-1.8-2s-1.5-.9-2.3-1.1c-.7-.2-1.4-.4-2.1-.4v-.1c.7-.1,1.3-.3,2-.6.7-.3,1.4-.7,2.1-1.2.7-.5,1.2-1.2,1.6-1.9.5-.8.7-1.8.7-2.8,0-.9-.2-1.9-.6-2.7-.3-.8-.9-1.4-1.6-1.9-.8-.5-1.6-.9-2.5-1.1-1-.2-2.1-.4-3.2-.4s-2.3,0-3.5.1-2.4.1-3.5.1h-1.8c-.5-.1-1-.1-1.4-.2.1,1.7.2,3.4.2,5.1-.1,1.8,0,3.7,0,5.8h0Z"/>
  <path class="cls-2" d="m172.9,16.7c-.7,1.6-1.3,3.1-1.9,4.6-.6,1.5-1.2,3-1.8,4.6h7.1c-.6-1.6-1.1-3.1-1.7-4.6-.5-1.5-1-3.1-1.7-4.6Zm13.8,19.4c-.6-.1-1.2-.1-1.8-.1h-3.3c-.5,0-1.1,0-1.6.1-.4-1.3-.8-2.6-1.3-3.9-.4-1.3-.9-2.6-1.4-4h-9c-.5,1.3-1,2.6-1.4,4-.4,1.3-.8,2.6-1.2,3.9-.3-.1-.6-.1-.9-.1h-1.8c-.3,0-.7,0-1,.1.3-.7.7-1.6,1.2-2.8s1.1-2.5,1.7-4c.6-1.5,1.3-3.1,2-4.8.7-1.7,1.4-3.5,2.1-5.3.7-1.8,1.4-3.5,2.1-5.2.7-1.7,1.3-3.3,1.9-4.8.3.1.5.1.7.2.5.1,1,.1,1.5,0,.2-.1.5-.1.7-.2.8,2.2,1.7,4.6,2.6,7.1,1,2.5,1.9,5,2.9,7.4s1.9,4.7,2.8,6.9c.9,2.1,1.7,4,2.5,5.5Z"/>
  <path class="cls-2" d="m190.1,17.1c0,2,0,4-.1,6.2-.1,2.1-.1,4.1-.2,5.9-.1,1.8-.2,3.4-.2,4.6,0,.7-.1,1.5-.2,2.2.6-.1,1.2-.1,1.8-.1h.9c.3,0,.6,0,.9.1,0-.3-.1-.7-.1-1.1,0-.5-.1-1.1-.1-1.9s-.1-1.7-.1-2.8v-10.6c0-.8.1-1.5.1-2.3,6,6.3,11.7,12.6,17,18.8.5-.1,1-.1,1.5-.1s1.1,0,1.6.1v-9.9c0-1.7.1-3.3.1-5s.1-3.5.2-5.4c.1-1.9.2-4.1.3-6.4-.6.1-1.2.2-1.8.2s-1.2-.1-1.8-.2c.1.5.1,1,.1,1.5.1.8.1,1.6.1,2.7v14.3c-2.9-3.1-5.7-6.2-8.5-9.3-2.7-3-5.5-6.1-8.4-9.3-.6.1-1.2.2-1.8.2s-1.2-.1-1.8-.2c0,.9.1,2,.1,3.2s.4,2.8.4,4.6Z"/>
  <path class="cls-2" d="m224.4,24h0c1.4,2,2.7,4.1,4,6.1,1.3,2,2.6,4,3.9,6,.6-.1,1.1-.1,1.7-.1h3.5c.6,0,1.3,0,2,.1-.5-.6-1.2-1.5-2.1-2.8-.9-1.2-1.8-2.6-2.8-4l-3-4.5c-1-1.5-1.9-2.9-2.8-4.2.5-.6,1.2-1.5,2.2-2.5.9-1.1,1.9-2.2,2.9-3.3s2-2.2,2.9-3.2,1.6-1.7,2-2.1c-.4.1-.9.1-1.2.2h-2.2l-1.1-.2c-.3.5-.9,1.2-1.6,2.2-.8,1-1.6,2-2.5,3.2-.9,1.2-1.9,2.4-2.9,3.6s-2,2.3-2.8,3.4v-9.1c0-1.2.1-2.3.3-3.5-.4.1-.9.1-1.4.2h-3.6c-.5-.1-1-.1-1.4-.2.1,1.7.2,3.4.2,5.1.1,1.7.1,3.6.1,5.7v5.3c0,2.2,0,4.1-.1,5.8-.1,1.7-.1,3.3-.2,4.9.5-.1,1-.1,1.4-.1h3.5c.5,0,1,0,1.4.1-.2-1.6-.3-3.2-.3-4.8,0-2.1,0-4.5,0-7.3Z"/>
  <path class="cls-1" d="m6.7,3.9v37.9h-1.4V3.9h1.4Zm-2.7,4v30h-1.3V7.9s1.3,0,1.3,0Zm-2.7,3.9v22.2H0V11.8h1.3Zm27.8,34v-22.2H9.3v22.2h-1.3V0h1.3v22.2h19.8V0h1.3v45.8h-1.3Zm2.7-3.9V4h1.3v37.9h-1.3Zm2.6-4V7.9h1.3v30h-1.3Zm2.7-3.9V11.8h1.3v22.2s-1.3,0-1.3,0Zm-10.7-13.1h-15.8V3.9h1.3v15.6h14.5V3.9h1.3v17h-1.3Zm-1.8-2.7h-11.3V7.8h1.3v9.1h9.2V7.8h1.3v10.4h-.5Zm-3-2.6h-5.8v-3.9h1.3v2.5h4v-2.5h1.3v3.9h-.8Zm-9.7,9.2h15.8v17h-1.3v-15.7h-14.5v15.6h-1.3v-17l1.3.1h0Zm1.9,2.6h11.3v10.4h-1.3v-9.1h-9.2v9.1h-1.3v-10.3l.5-.1h0Zm2.9,2.6h5.8v3.9h-1.3v-2.5h-4v2.5h-1.3v-3.9h.8Z"/>
</svg>