<?xml version="1.0" encoding="utf-8"?>
<!-- Generator: Adobe Illustrator 22.1.0, SVG Export Plug-In . SVG Version: 6.00 Build 0)  -->
<svg version="1.1" id="Foreground" xmlns="http://www.w3.org/2000/svg" xmlns:xlink="http://www.w3.org/1999/xlink" x="0px" y="0px"
	 viewBox="0 0 239.4 45.8" style="enable-background:new 0 0 239.4 45.8;" xml:space="preserve">
<style type="text/css">
	.st0{fill:#FFFFFF;}
</style>
<title>HALKBANK_logo</title>
<path class="st0" d="M64,23.2v2.2c0,2.2,0,4.1-0.1,5.8c-0.1,1.7-0.1,3.3-0.2,4.9c0.5-0.1,1-0.1,1.4-0.1h3.5c0.5,0,1,0,1.4,0.1
	c-0.1-1.6-0.2-3.2-0.2-4.9c-0.1-1.7-0.1-3.6-0.1-5.8v-5.3c0-2.2,0-4.1,0.1-5.7c0.1-1.7,0.1-3.4,0.2-5.1c-0.4,0.1-0.9,0.1-1.4,0.2
	c-0.5,0-1.1,0-1.8,0s-1.2,0-1.8,0c-0.5-0.1-1-0.1-1.4-0.2c0.1,1.7,0.2,3.4,0.2,5C64,16,64,17.9,64,20.1c-0.8,0-1.6,0.1-2.5,0.1h-7
	c-0.9,0-1.7-0.1-2.4-0.1c0-2.2,0-4,0-5.7c0.1-1.7,0.1-3.3,0.3-5C52,9.5,51.5,9.5,51,9.6c-0.5,0-1.1,0-1.8,0c-0.6,0-1.2,0-1.8,0
	c-0.5-0.1-1-0.1-1.4-0.2c0.1,1.7,0.2,3.4,0.2,5.1c0.1,1.7,0.1,3.6,0.1,5.7v5.3c0,2.2,0,4.1-0.1,5.8c-0.1,1.7-0.1,3.3-0.2,4.9
	c0.5-0.1,1-0.1,1.4-0.1h3.5c0.5,0,1,0,1.4,0.1c-0.1-1.6-0.2-3.2-0.2-4.9C52,29.6,52,27.7,52,25.5v-2.2c1-0.1,2-0.1,3-0.1s2,0,3,0
	s2,0,3,0.1L64,23.2z"/>
<path class="st0" d="M83.9,16.7c-0.7,1.6-1.3,3.1-1.9,4.6s-1.2,3-1.8,4.6h7.1c-0.6-1.6-1.1-3.1-1.7-4.6
	C85.1,19.8,84.5,18.2,83.9,16.7z M97.7,36.1C97.1,36,96.5,36,95.9,36h-3.3c-0.5,0-1.1,0-1.6,0.1c-0.4-1.3-0.8-2.6-1.3-3.9
	c-0.4-1.3-0.9-2.6-1.4-4c-0.8,0-1.7,0-2.5,0s-1.7,0-2.5,0c-0.7,0-1.3,0-2,0s-1.3,0-2,0c-0.5,1.3-1,2.6-1.4,4
	c-0.4,1.3-0.8,2.6-1.2,3.9C76.3,36,76,36,75.7,36h-1.8c-0.3,0-0.7,0-1,0.1c0.3-0.7,0.7-1.6,1.2-2.8s1.1-2.5,1.7-4s1.3-3.1,2-4.8
	c0.7-1.7,1.4-3.5,2.1-5.3s1.4-3.5,2.1-5.2s1.3-3.3,1.9-4.8c0.3,0.1,0.5,0.1,0.7,0.2c0.5,0.1,1,0.1,1.5,0c0.2-0.1,0.5-0.1,0.7-0.2
	c0.8,2.2,1.7,4.6,2.6,7.1c1,2.5,1.9,5,2.9,7.4s1.9,4.7,2.8,6.9C96.1,32.7,96.9,34.6,97.7,36.1z"/>
<path class="st0" d="M100.7,20.1v5.3c0,2.2,0,4.1-0.1,5.8c-0.1,1.7-0.1,3.3-0.2,4.9c0.2,0,0.5-0.1,0.7-0.1h11.7c1,0,1.9,0.1,2.6,0.1
	c-0.1-0.2-0.1-0.4-0.1-0.6c-0.1-0.6-0.1-1.3,0-1.9c0-0.2,0.1-0.5,0.1-0.8c-1.5,0.2-3,0.3-4.5,0.4c-1.5,0.1-3,0.1-4.4,0.1
	c0-1-0.1-2.2-0.1-3.6v-9.6c0-2.2,0-4.1,0.1-5.7c0.1-1.7,0.1-3.4,0.2-5.1c-0.4,0.1-0.9,0.1-1.4,0.2c-0.5,0-1.1,0-1.8,0s-1.2,0-1.8,0
	c-0.5-0.1-1-0.1-1.4-0.2c0.1,1.7,0.2,3.4,0.2,5.1C100.7,16.1,100.7,18,100.7,20.1z"/>
<path class="st0" d="M124.6,24L124.6,24c1.4,2,2.7,4.1,4,6.1c1.3,2,2.6,4,3.9,6c0.6-0.1,1.1-0.1,1.7-0.1h3.5c0.6,0,1.3,0,2,0.1
	c-0.5-0.6-1.2-1.5-2.1-2.8c-0.9-1.2-1.8-2.6-2.8-4c-1-1.5-2-3-3-4.5s-1.9-2.9-2.8-4.2c0.5-0.6,1.2-1.5,2.2-2.5
	c0.9-1.1,1.9-2.2,2.9-3.3s2-2.2,2.9-3.2s1.6-1.7,2-2.1c-0.4,0.1-0.9,0.1-1.2,0.2c-0.4,0-0.7,0-1.1,0c-0.4,0-0.7,0-1.1,0l-1.1-0.2
	c-0.3,0.5-0.9,1.2-1.6,2.2c-0.8,1-1.6,2-2.5,3.2s-1.9,2.4-2.9,3.6c-1,1.2-2,2.3-2.8,3.4V18c0-1.9,0-3.6,0-5.2c0-1.2,0.1-2.3,0.3-3.5
	c-0.4,0.1-0.9,0.1-1.4,0.2c-0.5,0-1.1,0-1.8,0c-0.6,0-1.2,0-1.8,0c-0.5-0.1-1-0.1-1.4-0.2c0.1,1.7,0.2,3.4,0.2,5.1
	c0.1,1.7,0.1,3.6,0.1,5.7v5.3c0,2.2,0,4.1-0.1,5.8c-0.1,1.7-0.1,3.3-0.2,4.9c0.5-0.1,1-0.1,1.4-0.1h3.5c0.5,0,1,0,1.4,0.1
	c-0.2-1.6-0.3-3.2-0.3-4.8C124.6,29.2,124.6,26.8,124.6,24z"/>
<path class="st0" d="M154.2,28.7c0,0.8-0.1,1.5-0.4,2.3c-0.2,0.6-0.5,1.2-0.9,1.7c-0.8,0.9-1.8,1.4-3,1.4h-1.1c-0.3,0-0.6-0.1-1-0.1
	c0-0.3,0-0.8,0-1.3V31c0-0.6,0-1.3,0-1.9v-4c0-0.6,0-1.2,0-1.7h0.7c0.3,0,0.6,0,0.9,0c1.3-0.1,2.6,0.4,3.5,1.4
	C153.9,25.8,154.3,27.2,154.2,28.7z M154,16.1c0,0.7-0.1,1.5-0.4,2.2c-0.2,0.6-0.6,1.1-1,1.6c-0.4,0.4-0.9,0.7-1.4,0.9
	c-0.5,0.2-1,0.3-1.6,0.3h-1.8c0-0.7,0-1.3,0-1.9v-2c0-0.7,0-1.5,0-2.5s0.1-2,0.1-2.9c0.2,0,0.5-0.1,0.7-0.1s0.6,0,1.2,0
	c0.7,0,1.3,0.1,1.9,0.4c0.5,0.2,0.9,0.6,1.3,1c0.3,0.4,0.6,0.9,0.7,1.4C153.9,15,154,15.5,154,16.1L154,16.1z M142,20.1v5.3
	c0,2.2,0,4.1-0.1,5.8c-0.1,1.7-0.1,3.3-0.2,4.9c0.6-0.1,1.2-0.1,1.8-0.1h2.2c1,0,1.9,0,2.8,0c0.9,0,1.9,0,2.9,0
	c1.1,0,2.3-0.1,3.4-0.3c1-0.2,2-0.7,2.9-1.3s1.6-1.5,2-2.4c0.5-1.1,0.8-2.3,0.8-3.6c0-1-0.2-2.1-0.8-3c-0.5-0.8-1.1-1.5-1.8-2
	s-1.5-0.9-2.3-1.1c-0.7-0.2-1.4-0.4-2.1-0.4v-0.1c0.7-0.1,1.3-0.3,2-0.6c0.7-0.3,1.4-0.7,2.1-1.2c0.7-0.5,1.2-1.2,1.6-1.9
	c0.5-0.8,0.7-1.8,0.7-2.8c0-0.9-0.2-1.9-0.6-2.7c-0.3-0.8-0.9-1.4-1.6-1.9c-0.8-0.5-1.6-0.9-2.5-1.1c-1-0.2-2.1-0.4-3.2-0.4
	c-1.1,0-2.3,0-3.5,0.1s-2.4,0.1-3.5,0.1c-0.6,0-1.2,0-1.8,0c-0.5-0.1-1-0.1-1.4-0.2c0.1,1.7,0.2,3.4,0.2,5.1
	C141.9,16.1,142,18,142,20.1L142,20.1z"/>
<path class="st0" d="M172.9,16.7c-0.7,1.6-1.3,3.1-1.9,4.6c-0.6,1.5-1.2,3-1.8,4.6h7.1c-0.6-1.6-1.1-3.1-1.7-4.6
	C174.1,19.8,173.6,18.2,172.9,16.7z M186.7,36.1c-0.6-0.1-1.2-0.1-1.8-0.1h-3.3c-0.5,0-1.1,0-1.6,0.1c-0.4-1.3-0.8-2.6-1.3-3.9
	c-0.4-1.3-0.9-2.6-1.4-4c-0.8,0-1.7,0-2.5,0s-1.7,0-2.5,0c-0.7,0-1.3,0-2,0s-1.3,0-2,0c-0.5,1.3-1,2.6-1.4,4
	c-0.4,1.3-0.8,2.6-1.2,3.9c-0.3-0.1-0.6-0.1-0.9-0.1H163c-0.3,0-0.7,0-1,0.1c0.3-0.7,0.7-1.6,1.2-2.8s1.1-2.5,1.7-4
	c0.6-1.5,1.3-3.1,2-4.8c0.7-1.7,1.4-3.5,2.1-5.3c0.7-1.8,1.4-3.5,2.1-5.2c0.7-1.7,1.3-3.3,1.9-4.8c0.3,0.1,0.5,0.1,0.7,0.2
	c0.5,0.1,1,0.1,1.5,0c0.2-0.1,0.5-0.1,0.7-0.2c0.8,2.2,1.7,4.6,2.6,7.1c1,2.5,1.9,5,2.9,7.4s1.9,4.7,2.8,6.9
	C185.1,32.7,185.9,34.6,186.7,36.1z"/>
<path class="st0" d="M190.1,17.1c0,2,0,4-0.1,6.2c-0.1,2.1-0.1,4.1-0.2,5.9c-0.1,1.8-0.2,3.4-0.2,4.6c0,0.7-0.1,1.5-0.2,2.2
	c0.6-0.1,1.2-0.1,1.8-0.1h0.9c0.3,0,0.6,0,0.9,0.1c0-0.3-0.1-0.7-0.1-1.1c0-0.5-0.1-1.1-0.1-1.9c0-0.8-0.1-1.7-0.1-2.8V19.6
	c0-0.8,0.1-1.5,0.1-2.3c6,6.3,11.7,12.6,17,18.8c0.5-0.1,1-0.1,1.5-0.1s1.1,0,1.6,0.1v-9.9c0-1.7,0.1-3.3,0.1-5s0.1-3.5,0.2-5.4
	c0.1-1.9,0.2-4.1,0.3-6.4c-0.6,0.1-1.2,0.2-1.8,0.2s-1.2-0.1-1.8-0.2c0.1,0.5,0.1,1,0.1,1.5c0.1,0.8,0.1,1.6,0.1,2.7
	c0,1,0,2.2,0,3.4s0,2.5,0,3.7v7.2c-2.9-3.1-5.7-6.2-8.5-9.3c-2.7-3-5.5-6.1-8.4-9.3c-0.6,0.1-1.2,0.2-1.8,0.2s-1.2-0.1-1.8-0.2
	c0,0.9,0.1,2,0.1,3.2S190.1,15.3,190.1,17.1z"/>
<path class="st0" d="M224.4,24L224.4,24c1.4,2,2.7,4.1,4,6.1s2.6,4,3.9,6c0.6-0.1,1.1-0.1,1.7-0.1h3.5c0.6,0,1.3,0,2,0.1
	c-0.5-0.6-1.2-1.5-2.1-2.8c-0.9-1.2-1.8-2.6-2.8-4c-1-1.5-2-3-3-4.5s-1.9-2.9-2.8-4.2c0.5-0.6,1.2-1.5,2.2-2.5
	c0.9-1.1,1.9-2.2,2.9-3.3s2-2.2,2.9-3.2s1.6-1.7,2-2.1c-0.4,0.1-0.9,0.1-1.2,0.2c-0.4,0-0.7,0-1.1,0c-0.4,0-0.7,0-1.1,0l-1.1-0.2
	c-0.3,0.5-0.9,1.2-1.6,2.2c-0.8,1-1.6,2-2.5,3.2s-1.9,2.4-2.9,3.6s-2,2.3-2.8,3.4V18c0-1.9,0-3.6,0-5.2c0-1.2,0.1-2.3,0.3-3.5
	c-0.4,0.1-0.9,0.1-1.4,0.2c-0.5,0-1.1,0-1.8,0s-1.2,0-1.8,0c-0.5-0.1-1-0.1-1.4-0.2c0.1,1.7,0.2,3.4,0.2,5.1
	c0.1,1.7,0.1,3.6,0.1,5.7v5.3c0,2.2,0,4.1-0.1,5.8c-0.1,1.7-0.1,3.3-0.2,4.9c0.5-0.1,1-0.1,1.4-0.1h3.5c0.5,0,1,0,1.4,0.1
	c-0.2-1.6-0.3-3.2-0.3-4.8C224.4,29.2,224.4,26.8,224.4,24z"/>
<path class="st0" d="M6.7,3.9v37.9H5.3V3.9H6.7z M4,7.9v30H2.7v-30C2.7,7.9,4,7.9,4,7.9z M1.3,11.8V34H0V11.8H1.3z M29.1,45.8V23.6
	H9.3v22.2H8V0h1.3v22.2h19.8V0h1.3v45.8H29.1z M31.8,41.9V4h1.3v37.9H31.8z M34.4,37.9v-30h1.3v30H34.4z M37.1,34V11.8h1.3V34
	C38.4,34,37.1,34,37.1,34z M26.4,20.9H11.9h-1.3v-17h1.3v15.6h14.5V3.9h1.3v17H26.4L26.4,20.9z M24.6,18.2h-10h-1.3V7.8h1.3v9.1h9.2
	V7.8h1.3v10.4H24.6L24.6,18.2L24.6,18.2z M21.6,15.6h-4.5h-1.3v-3.9h1.3v2.5h4v-2.5h1.3v3.9H21.6L21.6,15.6L21.6,15.6z M11.9,24.8
	h14.5h1.3v17h-1.3V26.1H11.9v15.6h-1.3v-17L11.9,24.8L11.9,24.8z M13.8,27.4h10h1.3v10.4h-1.3v-9.1h-9.2v9.1h-1.3V27.5L13.8,27.4
	L13.8,27.4L13.8,27.4z M16.7,30h4.5h1.3v3.9h-1.3v-2.5h-4v2.5h-1.3V30H16.7L16.7,30z"/>
</svg>
