<?xml version="1.0" encoding="UTF-8"?>
<svg id="katman_3" data-name="katman 3" xmlns="http://www.w3.org/2000/svg" viewBox="0 0 806.65 213.11">
  <defs>
    <style>
      .cls-1 {
        fill: #00428a;
      }

      .cls-2 {
        fill: #fff;
      }
    </style>
  </defs>
  <polygon class="cls-1" points="0 83.43 0 94.2 16.77 94.2 16.77 135.03 29.23 135.03 29.23 94.16 46.44 94.16 46.44 83.43 0 83.43"/>
  <path class="cls-1" d="m75.05,73.72c0,3.65-2.96,6.62-6.62,6.62s-6.62-2.96-6.62-6.62,2.96-6.62,6.62-6.62,6.62,2.96,6.62,6.62Z"/>
  <path class="cls-1" d="m93.34,73.72c0,3.65-2.96,6.62-6.62,6.62s-6.62-2.96-6.62-6.62,2.96-6.62,6.62-6.62,6.62,2.96,6.62,6.62Z"/>
  <path class="cls-1" d="m111.83,83.44v51.56h11.63v-18.45h12.06l10.71,18.46h13.56l-11.44-19.87s11.21-2.73,11.21-14.9-10.12-16.79-18-16.79-29.73,0-29.73,0Z"/>
  <polygon class="cls-1" points="168.72 83.43 168.72 135.05 180.55 135.05 180.55 119.63 189.94 110.23 206.06 135.05 220.18 135.05 198.57 101.22 215.76 83.43 201.4 83.43 180.55 105.57 180.55 83.43 168.72 83.43"/>
  <rect class="cls-1" x="226.61" y="83.58" width="12.14" height="51.45"/>
  <path class="cls-1" d="m239.34,73.84c0,3.65-2.96,6.62-6.62,6.62s-6.62-2.96-6.62-6.62,2.96-6.62,6.62-6.62,6.62,2.96,6.62,6.62Z"/>
  <path class="cls-1" d="m388.35,29.4v2.9s7.74.35,7.74,7.3v48.19l19.79,11.17v-59.63s-.35-7.04,7.56-7.04v-2.9h-35.09Z"/>
  <path class="cls-1" d="m418.17,46.6v4.66s17.95,7.42,19.11,28.72h3.05v-33.32h-2.7s-1.78,4.55-6.56,4.55-12.89-4.6-12.89-4.6Z"/>
  <path class="cls-1" d="m393.77,44.78v4.08s-17.92,2.75-17.92,18.83c0,0-1.42,12.75,20.25,23.75l26.83,14.75s19.33,8.75,25.25,24.33c5.92,15.58,2.08,36.42-17.58,46.33-8,4.08-15.17,4.5-17.75,4.83,0,0,6.5,3.25,6.5,11.17s-8.83,20.17-12.67,20.25h-2.25s-.33-.42.83-1.75c1.17-1.33,6.59-7.83,5.25-11.58,0,0-3.16,1.4-6.28,1.4s-9.17-2.7-9.17-9.81,5.39-10.03,7.33-10.03c0,0-3.02-.32-12.62-3.77-9.6-3.45-17.04-6.79-21.89,1.51h-2.59v-35.38h3.13s7.12,33.65,41.95,33.65c24.16-.11,27.07-20.06,27.07-23.73s0-14.88-18.01-25.13c-18.01-10.25-35.27-19.63-35.27-19.63,0,0-20.17-9.38-20.17-31.6s20.38-32.48,29.76-32.48Z"/>
  <path class="cls-1" d="m396.02,118.53l19.75,11.17v22.83s-.25,6.92,7.67,6.92v3.08h-35.17v-3.33s7.75.17,7.75-7.08v-33.58Z"/>
  <polygon class="cls-1" points="243.48 83.45 257.63 83.45 272.03 105.14 286.87 83.54 300.58 83.54 277.78 114.49 277.78 135.07 266.03 135.07 266.03 114.49 243.48 83.45"/>
  <polygon class="cls-1" points="304.53 83.37 345.85 83.37 345.85 93.83 316.44 93.83 316.44 102.74 333.25 102.74 333.25 112.6 316.44 112.6 316.44 124.86 347.05 124.86 347.05 135.06 304.44 135.06 304.53 83.37"/>
  <path class="cls-1" d="m416.81,10.94c0-6.04-4.9-10.94-10.94-10.94s-10.94,4.9-10.94,10.94,4.9,10.94,10.94,10.94,10.94-4.9,10.94-10.94Z"/>
  <path class="cls-1" d="m466.63,83.5v51.53h28.8s19.29-.06,19.29-16.59c0-9.39-8.64-11.21-8.83-11.21s6.64-2.19,6.64-10.71-8.08-12.96-18.22-12.96-27.67-.06-27.67-.06Z"/>
  <path class="cls-2" d="m478.28,111.86v13.34h17.47s6.54-.25,6.54-6.54-6.79-6.79-6.79-6.79h-17.22Z"/>
  <path class="cls-2" d="m478.22,102.78h17.59s4.82,0,4.82-4.88c0,0,.47-4.7-5.15-4.7h-17.27v9.58Z"/>
  <polygon class="cls-1" points="538.97 83.51 550.79 83.51 573.27 135.08 560 135.08 555.16 123.64 533.76 123.64 529 134.92 516.34 134.92 538.97 83.51"/>
  <polygon class="cls-2" points="537.59 113.67 551.56 113.67 544.57 96.1 537.59 113.67"/>
  <polygon class="cls-1" points="578.1 83.38 578.1 135.2 589.79 135.2 589.79 101.95 615.35 135.13 626.1 135.13 626.1 83.51 614.04 83.51 614.04 116.32 589.14 83.4 578.1 83.38"/>
  <polygon class="cls-1" points="636.94 83.42 648.93 83.42 648.93 106.02 670.07 83.49 684.67 83.49 666.83 101.45 685.56 130.14 706.19 83.42 717.68 83.42 740.15 135.03 726.94 135.03 722.37 123.66 700.73 123.66 696.03 135.03 674.39 135.03 658.33 110.4 648.93 119.98 648.93 135.03 636.94 135.03 636.94 83.42 636.94 83.42"/>
  <polygon class="cls-2" points="704.72 114.08 718.68 114.08 711.7 96.51 704.72 114.08"/>
  <path class="cls-1" d="m775.72,98.31l8.72-7.47s-8.41-8.2-21.18-8.2-21.59,6.44-21.59,15.47,7.06,12.77,18.79,15.05c11.73,2.29,14.08,4.56,13.08,8.51-1,3.95-9.18,4.35-11.63,4.15-2.45-.2-7.99-.31-13.6-6.02l-8.72,7.06s8.26,9.14,22.74,9.14,23.25-5.61,23.46-16.3c.21-10.69-8.41-13.5-17.75-15.78l-9.55-1.97s-4.26-1.04-4.26-4.46,3.43-4.67,9.03-4.67,12.35,4.15,12.46,5.5Z"/>
  <polygon class="cls-1" points="794.81 83.52 794.81 135.03 806.65 135.03 806.65 83.51 794.81 83.52"/>
  <path class="cls-1" d="m53.35,83.45h12.04v30.54s.33,11.87,11.88,11.87,12.29-11.92,12.29-11.92v-30.46h11.92v29.17s.92,23.1-23.62,23.1-24.5-20.44-24.5-23.06v-29.25Z"/>
  <path class="cls-2" d="m123.48,93.36v13.71h17.17s6.79-.25,6.79-6.96-7.08-6.75-7.08-6.75h-16.88Z"/>
</svg>