<?xml version="1.0" encoding="utf-8"?>
<!-- Generator: Adobe Illustrator 27.2.0, SVG Export Plug-In . SVG Version: 6.00 Build 0)  -->
<svg version="1.1" id="katman_1" xmlns="http://www.w3.org/2000/svg" xmlns:xlink="http://www.w3.org/1999/xlink" x="0px" y="0px"
	 viewBox="0 0 100 50" style="enable-background:new 0 0 100 50;" xml:space="preserve">
<style type="text/css">
	.st0{fill-rule:evenodd;clip-rule:evenodd;fill:#EC1C24;}
	.st1{fill:#231F20;}
</style>
<g>
	<path class="st0" d="M10.6,20.4l-1.4,1l-1,0.7v3l0.5-0.3v1.4l-0.5,0.3v3l0.5-0.3v1.4l-0.5,0.3v3l1-0.7l1.4-1l1.9-1.3v-5
		c0-0.2-0.2-0.4-0.4-0.5c0.3-0.2,0.4-0.4,0.4-0.7v-2.5v-3L10.6,20.4z M11.9,28c0,0.3-0.1,0.4-0.4,0.6l-0.8,0.6L9.4,30v-1.4l1.2-0.8
		l0.7-0.5c0.2-0.2,0.5-0.1,0.5,0.1V28z M11.9,23.6c0,0.3-0.1,0.4-0.4,0.6l-0.8,0.6l-1.2,0.8v-1.4l1.2-0.8l0.7-0.5
		c0.2-0.2,0.5-0.1,0.5,0.1V23.6z"/>
	<polygon class="st0" points="10.2,19.8 10.2,18.8 9.2,19.4 8.9,19.6 8.9,18.5 9.2,18.3 10.2,17.6 10.2,16.6 9.2,17.2 8.3,17.9 
		8.3,21.2 9.2,20.5 	"/>
	<polygon class="st0" points="5.6,16.6 5.6,17.6 6.2,18.1 6.2,19.3 6,19.1 6,20.2 6.6,20.6 7.2,21 7.2,19.9 6.9,19.7 6.9,18.5 
		7.5,19 7.5,17.9 6.6,17.2 	"/>
	<polygon class="st0" points="3.2,19.1 3.2,22.1 6.6,24.4 7,24.6 6.6,25 6.1,25.4 3.2,23.5 3.2,26.5 4.2,27.1 3.2,27.8 3.2,30.8 
		6.6,33.1 7.5,33.8 7.5,30.8 6.6,30.1 3.8,28.2 4.7,27.5 6.6,28.7 7.5,29.4 7.5,26.4 6.6,25.8 7.5,25 7.5,22 6.6,21.4 	"/>
</g>
<polygon class="st1" points="18,20.5 17.5,22.1 21.8,22.1 17.1,28.9 17.1,30.3 23.7,30.3 24.4,28.9 19.6,28.9 24.4,22.1 24.4,20.5 
	"/>
<path class="st1" d="M26.1,22.6c0.6,0,1.1-0.4,1.1-1c0-0.5-0.5-1-1.1-1c-0.6,0-1.1,0.4-1.1,1C25,22.2,25.5,22.6,26.1,22.6"/>
<rect x="25.2" y="23.2" class="st1" width="1.8" height="7.1"/>
<rect x="94.5" y="23.2" class="st1" width="1.3" height="7.1"/>
<path class="st1" d="M28.5,30.3v-7.1H30V24c0,0,0.5-0.5,1.2-0.6c0.7-0.2,1.3,0,1.3,0v1.4h-1.1c-0.5,0-1.3,0.6-1.3,1.1v4.5H28.5z"/>
<path class="st1" d="M36.6,28.5c0,0.3-0.4,0.7-1.4,0.7c-1,0-1.3-0.6-1.3-1c0-0.4,0.4-1.3,1.4-1.3c0.9,0,1.3,0,1.3,0V28.5z
	 M38.5,30.3v-4.9c0-1.9-1.4-2.4-2.5-2.4c-1.1,0-2.2,0.3-2.2,0.3l-0.4,1.4c0,0,1.3-0.3,2.2-0.3c0.8,0,1.1,0.6,1.1,0.8v0.7
	c0,0-1.4,0-2.5,0.2c-1,0.3-2.1,0.9-2.1,2.5c0,1.6,1.6,1.9,2.6,1.9c1,0,1.7-0.5,1.7-0.5h0.3v0.3H38.5z"/>
<path class="st1" d="M43.5,28.5c0,0.3-0.4,0.7-1.4,0.7c-1,0-1.3-0.6-1.3-1c0-0.4,0.4-1.3,1.4-1.3c0.9,0,1.3,0,1.3,0V28.5z
	 M45.4,30.3v-4.9c0-1.9-1.4-2.4-2.5-2.4c-1.1,0-2.2,0.3-2.2,0.3l-0.4,1.4c0,0,1.3-0.3,2.2-0.3s1.1,0.6,1.1,0.8v0.7
	c0,0-1.4,0-2.5,0.2C40,26.4,39,27,39,28.6c0,1.6,1.6,1.9,2.6,1.9c1,0,1.7-0.5,1.7-0.5h0.3v0.3H45.4z"/>
<path class="st1" d="M46.8,21.3h1.7v1.9h2L50,24.3h-1.5v4.1c0,0.5,0.1,0.8,0.7,0.8h1v1h-1.8c-0.5,0-1.7-0.3-1.7-1.4v-4.6h-0.8v-1.1
	h0.9V21.3z"/>
<path class="st1" d="M58.7,23.2c0,1.2-1.2,1.5-1.8,1.5h-2.2v-3h2.1C57.4,21.7,58.7,22,58.7,23.2 M54.6,25.8h2.8c1,0,1.8,0.8,1.8,1.8
	c0,1-1,1.5-2,1.5h-2.5V25.8z M60.1,22.8c0-1.4-1.7-2.2-3.4-2.2h-3.5v9.7h4.7c0.8,0,2.6-0.9,2.6-2.8c0-1.9-2-2.4-2-2.4
	S60.1,24.2,60.1,22.8"/>
<path class="st1" d="M65.6,27.7c0,0.9-0.4,1.9-1.9,1.9s-1.5-0.8-1.5-1.4c0-0.6,0.5-1.6,2.1-1.6h1.3V27.7z M67,30.4v-5.3
	c0-1.3-1.3-2.1-2.5-2.1c-1.2,0-2.6,0.5-2.6,0.5l-0.1,1.1c0,0,0.8-0.4,2-0.6c1.2-0.2,1.8,0.4,1.8,0.9v0.9h-1.9c-1.6,0-2.8,1-2.8,2.5
	c0,1.7,1.8,2.1,2.9,2.1c1,0,2-0.5,2-0.5v0.5H67z"/>
<path class="st1" d="M85.9,27.7c0,0.9-0.4,1.9-1.9,1.9c-1.5,0-1.5-0.8-1.5-1.4c0-0.6,0.5-1.6,2.1-1.6h1.3V27.7z M87.2,30.4v-5.3
	c0-1.3-1.2-2.1-2.5-2.1c-1.2,0-2.6,0.5-2.6,0.5L82,24.6c0,0,0.8-0.4,2-0.6c1.2-0.2,1.8,0.4,1.8,0.9v0.9H84c-1.6,0-2.8,1-2.8,2.5
	c0,1.7,1.8,2.1,2.9,2.1c1,0,2-0.5,2-0.5v0.5H87.2z"/>
<path class="st1" d="M67.8,30.3h1.4v-4.9c0-0.4,0.9-1.1,2-1.1c1.1,0,1.1,0.6,1.1,1v5.1h1.5v-5.5c0-0.6-0.8-1.8-2.3-1.8
	c-1.4,0-2.3,0.9-2.3,0.9V23l-1.3,0.2V30.3z"/>
<polygon class="st1" points="74.7,20.6 76.3,20.6 76.3,25.8 76.6,25.8 79.3,22.8 81.2,22.8 77.8,26.2 81.6,30.3 79.5,30.3 
	76.6,26.6 76.2,26.6 76.2,30.3 74.7,30.3 "/>
<path class="st1" d="M92.9,24.5l0.3-0.9c0,0-1.1-0.5-2.3-0.5c-1.3,0-2.6,0.7-2.6,1.9s0.9,1.9,2.3,2.2c1.5,0.3,1.7,0.7,1.7,1.1
	c0,0.4-0.4,1-1.7,1c-1.2,0-2.2-0.6-2.2-0.6l-0.4,0.9c0,0,1.2,0.6,2.8,0.6c1.6,0,2.8-1.2,2.8-2.2c0-1-1.3-1.8-2.4-2
	c-1.1-0.2-1.6-0.6-1.6-1.2c0-0.6,0.8-0.9,1.5-0.9C92,24.1,92.9,24.5,92.9,24.5"/>
</svg>
